<mxfile host="app.diagrams.net" modified="2024-06-13T22:32:42.943Z" agent="Mozilla/5.0 (Windows NT 10.0; Win64; x64) AppleWebKit/537.36 (KHTML, like Gecko) Chrome/122.0.0.0 Safari/537.36" etag="k7KcwV2HZdjUOboVVEWD" version="24.5.4" type="device">
  <diagram name="Page-1" id="b91fa0-4r-KIM6ygSlS2">
    <mxGraphModel dx="1760" dy="920" grid="1" gridSize="10" guides="1" tooltips="1" connect="1" arrows="1" fold="1" page="1" pageScale="1" pageWidth="1332" pageHeight="850" background="none" backgroundImage="{&quot;src&quot;:&quot;data:image/jpeg;base64,/9j/4AAQSkZJRgABAQAAAQABAAD/2wBDAAgGBgcGBQgHBwcJCQgKDBQNDAsLDBkSEw8UHRofHh0aHBwgJC4nICIsIxwcKDcpLDAxNDQ0Hyc5PTgyPC4zNDL/2wBDAQkJCQwLDBgNDRgyIRwhMjIyMjIyMjIyMjIyMjIyMjIyMjIyMjIyMjIyMjIyMjIyMjIyMjIyMjIyMjIyMjIyMjL/wgARCANSBTQDASIAAhEBAxEB/8QAGwAAAgMBAQEAAAAAAAAAAAAAAAECAwQFBgf/xAAXAQEBAQEAAAAAAAAAAAAAAAAAAQID/9oADAMBAAIQAxAAAAHycJR3AAlFoTTGCATExiUog0wGCGhABOLJRYRTBtMJRBoAYQk1STBDBJqiSIEKxtNQCGmClBgANjEIBDEpBBhTAhpxGmqGgGgBoaYIAacRjQSQAECcak4uENUmgHFjaYQnEECAnTBRJEli4tGElRJQoSVhGUQkpKIElGZLBjpwlEcggYhKaIyESg0JMsQwTESCSsbiqTAlEINoaRSTSAwugyVMQDCLTAYIaAGEWCYDEDQgakJpgRkCGMEMQMQMIgADGRBkSUQGgjJUSiwTRICEpIAYpNCBABQCAEjcWrROI7FOCGq+Xm1dWs5D7GeznroZapJBKvRnJKUQamVjVNSIi0UCmRGhNCNxFakiINEmqYTlcYgwSSlCSySIIzVKEkinCQgCZEG4yVEZjklFtV1URlOFJSgTjKImwgxVOE4wSi6lOucEJ1kiICaoQImMAFsiyAENiIgxpgIBokRBDEwTQxsiSQhoBMJwABEhA2pEVKAADFYQJQGCGgAGIABOmJwADUkIkyMZsqcoU0OENUhyLbd8sWeTOimGiyzNbdtl5kOjUZbqKq356dcYzos5T6Oass27K5aEVRs0RgdkKakydZdGYapKRSGiISSJIUiAMEAAkmogGyMSrshUWCIlEk0wUksZxkWRkZIaqSIwozjScSppxhNOyxEpaxgpOIlOJFjqI0iYA0AATYStCJIBM2mJbskJJ0xziosKqAE0yQpCiAIAkmIAAAExtEJSVIESQFjrY4TCJJApTKVuzlU1EnOm0sK3Dp0bV5Ut1ZmWihFOsq2MZxEkEe1PBLq5GrQc67ezmaerqzeKekcvntnSolzOVpny9EOLX3p2ea09pHMnqhLz49OVnFz+krrk1742ZKOjmMN+i+zjz3s5i6FVZVcWUt1kpVyqK6OCIsLEAOUWrTAQhoSMUhKcVJRZNIhSi6kkQ0IkCEBTaUClGxNMk4ylFJDCZXGaIklUWCAmJqSoBJNEskIYwOrzN2b276L8V2Whmo6AcHL6dnkV7ZV89j9Ax2eLl6eqvOr0Mzzq9NdL5SXq6jzMfURjy69NTXnzu12cZdaBzo9BVgW+NmN65RiN0l573s5+rXZHOzeiZ5y/sQOYa85BvWc7q6YS5Of2bTzt3fZ5+7uM4MPTWR5Ofrg8r1utKXix7rjjaOjBYka4tKRZVyCssREiFhUjTKhpfCustjQltWas2LJKyyhXLXUq7HBWJqlx5V0XnszbjFpIVXV1gz9yvWePfbm3mAKk2gaaNMliNWCcQnBlqUpRWRK4zjQ0xpgJokJwhxJwFUoyiJkwFKBNjjZGHXZCoqQRUikMBkYCQMaHGaAJx1PY8D0nPUnKSRJBFTREFKyIOLQEQmQCVFrMxpRnlcFENSXItqjAdCJzY9MOfLeznVdcri5vSI4F/YE40uszz0fSKvNHpVHn9HYa4K+k05MunFcE9IZjTEqVyKySgiRUTiJSrFGYVwsSwjbJKVdEqCBJY5rPNWrG806adRc1bF0NVEtLtqsp6fO6BjNlUuGel2Yeb2Mmpn38mzU7mbVo56xTvkcaPX5taL+NelvO9A68vZuw9MQGqbixCEFKINSBoLXFykLQpJog26iNJJCVxaAQjCRGQ1E1DupthxlIpCNTIhFiCULiMGxjITjKnGUIc6yvVei4Xp+WhSqSUa4y2ulF5RYWESxoIE2QJRUIQLlUyaSJEWIEriEMTppySBMItIk60tirjF8sxWszNL3Qy0qkSSiEXBXBQhypqXUsqNxz6TpRwSNcKolsagYRGlAsIWKsd+kz4ZaEop0Y6qs2VVXDcRj6FWiW2nTWUQ0QOfvxdGy+jbhzYw1QqOHuclOPi7vF657vV4/Z56ybLMcXY+gl4GD03O1OZ1uLOz03Lt7Gb4yr0/E6YwFte4kCAKm4uGIHJMc67ZZ1qyKVKFAykAOMoA0JIQSiInKM5VYESlVbFcJuqyysgh6E4qBuJMZCkpBXZWMTr0vr/PdXlrZTIilaCM87nVcplkSSENkFZEgpOIjVKE1LFSZBjCFiINsQwSkEY2BWrQodqWt2BCNoUxvjFNehLjhsrM6trWKlWWxorNUciJ01V1KsEcVGyJK8pWu85L7KOX0L7JYWyuljlvaQw6shRjVmp2snV5ebrWiRktjcqhfUkqb6zz/W4nbrp5d2SM8pkurldbl2ZuR3+TqX9bkdeOjj20y57a9RTXaHE4/r+Tqcn0Hn7K9bgv2Yvj8PsOD0zySyvplKcUEFMCGArlFwTqZNIAGRYqcZxENJFtDTRKUJLbFwiWjNbCiVlsEqiyVICGDGRCUkRKuysE1T9H5ucv0ejwW7D21nKxZvo7OXoNksk0vdTq2LZAkgQgAEpQhkWrIyEyA2pkRglMIOQRUmQJIQ2QhaFKugtNd9ctELa5aoWxXPG2kjVcqyR32pyDvabPPauxKObPbmEs9RrrorLY02Vbup3xTC1ipuxlHO25DL1+V6jUjzN8c3XVozlN0biWPdlIyijz/VwdKt6LIwaq7yXL63OJ8Pvcml0uf1jXCRJTbPKt1GzOToWk89zPU8fSr0fk+qnew6bsvJcr1/K6TgSlX0y0xEwBjIyQAmDQNwasUxJxGiRFNI0wJQkrjJwmmEXEbFTbUCTGpMgSBtOCLjQ0DtqDd6bxlmb7vZy+tzo1EspogX6MTOi4CTKwYkslEJKKHBog5RWTrEmQZN1ha6gvKZFhBkkmMiEogCAipMhXeGaOpLjW0jLbYVFuKRpszymcoaVapJOCsspsiLbV2gja0gp0marRilqxShW3uZ7EyTNMssGiKWWqyq6ZOKJxkvB6eTdWyyNsmSUpK8XSwWPm9rly8/sc/dWyyAllGlRB5thhL8i7eZ0Zpw+X0tlr6Pm+3GnJurs83wfd8bc81Jx6ZaaRsFQxESioAiYBKElcWDCICkiTQSTWSJRFgEWqaGOIgkmBIiIBNhCTVCaG0D6XNtl99t43R5XUqIGuGeo1GK01J2lK2zs5x0GvNXSUc9dGJgj0A509cDOr0Z1ZTK3BrJwCx1NLJVMmQCwqZYqwsUVTgRhVWQWquyuWEJwIjqJVqitFeWFmqeGiundztEaSFJdXb3EelNIk6AyUcya0Yb66eqnuJfC7CR25tRlshaO6AmSyWVdOXdjKYXQXozhYlUpRJ49tBLmdLFLn0VOtV1N6X03VGTbk1lMNFEZN2HdVODsc+WqrfgOpfj1pGq4rzvn/oHB1PMOcOuQaQcWSjKCsTQaBSixpg0CuMogISZEWU63EhARaoaSDiybgpbXBgRCwUoipQpoBgEgjGzoca6X0D5+zFoXbsXhd3Tok0WZZ2WypDQs7Lip1NQUWFQWxgEiuYo2UiUiWsmytWBUWBWWhVHSzKtQuQ0kZ1ciiN8FojdGWhW1EKpULXjuhZlL6tSudmkz6raSm7b15K9CilldWJbcMFLQXKqpX6yHXQzVyJbV1wsrSIWK6r6kjzdKXfm1ZkzQ00ruakijJLbm054lm0VmSm2pelbGVllVtaRr0ZpdNN9RlWjDXRRZHH3xpWOxVHQod1lMZh53z/0LzOp58sr65QCCkgAExA0xoQ2gcWA2lQ0iaCyKSySEkkA0xppQBGILmRzRONMTAJAnGCamLu8m/N9lfwteL1Dh5D1K8ttO5b5247lamkJQqXQZ2XuqRYoBOdMi+m+iwdKlvKWXKlljqRcVskkDCIxRgiRUrEtcLxcz1RM2fXhjNXdCs1u7bZzbOxJMt7RNV1l1NGWWdFszNLZZXO6N3MNmjP00jynlJdmFyUOJUbxxAiLx9fO7Jpy6KElk285dunFtSMLaZbapIilIwwkq6akiwU0rz3KUlVeYqdlNS18vpEMPTyxGWXoLGdNqW1ydQBnl+H9F83ueZdtXTINAhDTSApCBjQClEWcoOCMwrbVggAGIAGmNNA0gAtuAyQ4gADAYyIycx7+d6PNOjqjjWaywgz6bDLk69lcTsjgJuyi2US14onSWXTZIkxwm6w1bo5uVWQlcosmrC5qJwUEQAlACKsZW5BGE2U59jXnW6oELIwS+FSLo1SVxICz6LjnatFROeUNGOlkd89lj5MaCntQkXqeRJX03g3Aji38RTr8zpk6dORLeT2eKvQ25NI65qIQsoVXZdRyrM+uzfIRa4zSpqS5rarJXRoy2ZOlSo21WlYo3Zpd9dkULamWRmWVsR5/hfQOHp5Fb8PTMGnYIAaBNOgCEBUpQcs3EhRbqLGiAExqhsSaRiZEkLaDyUWqQAxSHKLgibijsdfq89cPR2FGRbVFFemVZKugznVdRS8uXRCi8lZGMwhKYVq5Era7rM0ZqWlWEqsjZZBWQE64FkE5YkmQckDjWaViibKqJqo2zMz1BmleipyiMhWXPPEuqgiSz0rfTfrMnUspZv5crVpuroLOpj0WQxWWGqYI6Lombl68jVnX5/QSzJqzFnE63JOzYpxCyqwpzya5N2a05mum46ddtdkrs14ozriuvTkXTVZWlFkq11zoushVfXGfdj0EJ2Uk7IOpQsEptrRh8v7vNXzyPY5vXNKkqQCAwQAKSBpjkko4g2mCbIOUQQIxMTTESFtBZICojQOMhzg4N2BnqtvjjGvZS8bqPRvyUD1d/nKD10PFTPbrxTj278W19meY6Mdm3k3R01VZZJwRfdjvsBRiKlBZSrmSIyCMgrjbAUZBFTZW5IAQyMZZQQVwvZlNUVpLQrL2UR0ZyurS1zXapJCddSODrWdFFCz1PehTKiyrXXoNARSELMMuaE5rbuwb7Hm1ZCObZkl6U4ysrkQjHB4Jrq06cVilj6RsGJh3ee7ZsqmrDJrzylmfUZGSWGjBqNFdkUWa+tdaovSq5QLZRlZGF0Cq2CWXm/SNPnmX3fluk5gzcAEE0OMojAoBwABKMgIi2ESAYRadRYwEFo1kgVIAAAZIi0xMcSimLVlBtWktmnt41w9fWM3m9C4iai1SsRXOCNMsdqabsmmy2q6lJVSgrcEXKpF0a0TUgU4MmosGAJsgrYkVOJCFiKo3pc+7OybrkRLEJwhEq66lnGEVVGhFWo2oq5CVQkWw6FOhFCSIcvTmljfC4N+TWiw7cJfzt/MXuqVaTya+aud4+tLLETsy9jn9QlFpPMdXk6bfTEZsxpujLl0Z7Firs5VO3NG6zHqspslQVbKYLqaaKdFha4uxVXoqTFlRbNPHcT6RwtzyRbX0iTSOIDEwYA01EJGJjAVghiYhNEAtwLIQVFjExhbXZEYyiIappkKyDNu/mmNehuydTNVtFEannqXaufnOndwLzq5YhG6+8p6dM0tdcrHFRBSkZo7Eua+bSErAiSSSUYFirFkoxJxESgBWXi5zQoqtUSahUW11TVQ0hmWisyvVEq0ylYUuUIJ1BtF44JGFnPlrVjana7Eq0570zSlA5W/ndtbqrIJDk7uZNPpRRi1Zd1kOjh6BVktoOLDXyK9npwbZI2xDDdBLpzaYIs1s1ybMWmNNTssrzWyW0zakKpsnLPcTaLHTczO5Vy2wcjmeS99XqfOI97hdcoCwAGDE0AmCGA0EkCppoDFQBfFxyE1SakAOCcENCpiBikJAWaclubsv5ETesodGd/Q56w212yuV24z9Cu1E9E7K5pjjDEdKOe0LMW0C2VmU0ooLUVE4QDSkLUVtsUoxJquJZGBLKKiShPUYp6SoKTSMElrhbKWnROhHVYhStYovNVtmXaRjKEUVuK16Y2kiNiU3c3esISCjZi6AouJgJylrlRsMeqnSS01W3PPslFePyetA7OzFqLokkr5vY469J59SZJyiscuzLGqdEqk78KGuupdLlFKidRqnmvRsjVlU5mV2VS2JTK+H6CFnzev6B47rOe09ZGAgBMAGhiQ2mJoG0DELchZCZQxwhoacQBiU4UwIE3SlEiVc66YBttr9dz1z+lvhmyspsSx1xLlxuKej5nGhbq6FfVjVtVlyEiokoolElEBElGHEkVw0i1RuiUrSGZaoFBNLFKEaNNNtihMKlbEhGxLGSEi3Ak4A4ZLZaHovGEQzTqURcKcZEss8RHq5tRnq05IXQrsCqysq5O7KvRlZWkLYTL4WV2V1XUryt3P7RTbRnjs20ysni31GDdy+orzaaUdcmuPdzt4W03pRXois5ZdyV1TiEky2VNqKRAurVtZpWVSycXUa74nk+D9H4e55GV9W8wUlSaEBoQ2JpDBggEMLoslGSgYgTiNMGmhwsgRGqbiwjJCUoithYd/q+f28t9rFR0Io6PF4Z3+JlluTjXcmj0/H9NmvXZSk483olpF2Fc6pUxEgkVuxkZAjgoqpkhpoKraCuEnKiTIWRYSiicRkRxAglclAfO1zjH0K76GQgqlSsG5xJyrpxVUQ0TgQ0YtxCFsCYxFBwXFfCS3xcUV0bqlm040sx7eatfXx64z8jp+Zr2duXSlxGdnC6ePRNaYzima5SXnLTxD0MlAvTimPZVnXoV3Zkk50lxXMuK7Ez2SzLtVGiyktoLEMVFwvK8z7jDZ4ujp4+maEGoDBThJSMojQICBiFvUlk2gaGRJMSsgAgalAIsoJwhEXTTkO2nRL2u757FzvW4tFepNUvUstzeilxej70slGumIzo4svYPK9JfVWZb7mFC5su+NUl0aKNNyIRKESHIqNEq51GyDIYrs8rsqct8k7IxtRXKURuFhWNCTrJZ3euKzaCIkig4KoSsWFrikYSzyx1RmRz31kdWPYELIpJSiV0zzrCcGtl1WtBlVllKsJc/ZlXQ3QYeB1OXXpehxOpG+ymxnNVuxrolVcVRnEPKev8qva1cTuEwSPn9GJRs4/WFCxmdvMuyyiaXxZZjutzS63l0WVu2gnGQRixcvjPeZLPn50+Z1yNOwTiraEE0AAxi3xmskpIc4A0MIziRlEGgFIZFSRBSVDAjpzMnfkInEKJKZHp87v5vo9uLnc70+FxitmF9WpdHjeojW+FmPQ5NNkZtIy2usJMmJ2KzLqbCqVRfGcDPF5pZaK9IlbFIKMFnOASVkUodsVSAsgMipKUg4kYymEnEUZRK3MCICo0Z5VopmXxrZOlcw34lmXoQzXHQu42azrU4rZeldz3ZbqQQxaMkcrBpo3N/o/JevzZ347jTTYkrsrkRbiS4fbynnvTeZ7rWpuSSFYmByqXpVSbNeXdWvL6fD3S7tGd2XwsVmeN9ctss1yQsK6cLaxRQubyvquVZ5hWVdsiaQaYAyJJDELoGZJgCIknGwatjLVCyVmebRJNBCcSI400wi0EkAAEpRlBZUjo56bJbq7tkTnRfLD1HjPXHiF2euZfTKUlcnElDJsJTjnJPg3S9mzlbrHZTrI5TMBdqlq0DsUJBnG5W4W2VwjKVKcScapklIIQnXK1FknCBZGmK6DLGNNEGtl2CZoWVGgyovny7TZnyhdTqxGiu7l07sMq2WVV5JFWp6G/m15WZ9XMrLQq+k7HqPL+k51UX5pelOm+5pddC7Si5HXYHB0SJrpSjZcxnVMozdDnLuvwbkIzgnPwdnlTe+7mdOy6zNdczg2UjhLdGLslUVqZqvO13OTz8m8pp7yhgmmMGsVKIAJsijNZFhFolbVfLKuygcUrHEYwQKTKlJUm0RYAmAwCcbIULIGtVdmWNRozYcrR1aze38x6bLndWdaOGOyW7MrS21qyvyfT80ujr4u8aOdRvOlXbhQr1SlL42WJMFTfgNEbsssNtdZlohkm+npx9S5jGUEbjWSorJU6YtaZ1yQpuoiiycVsonWVqxrXnlArSkRlKBVbWiMTPZq5jWoupz95dGG7F5s3orOORfydfNshjup7Y6/o/IdTjv0mKyjLoauXpqrDHAve28fbJoMlFba7Kpd86rrmklhXpYtWZK9nO2LqIFzLidnkTUNXN0y9GWO6zfHHqSygw1fZz+UdrP57DudTluveQasTQAAMBoAQAAaUzNTATGNprKpiKFkRMByJxByrWEZR1AQAADYhg5xcQArpXt4tsq6ZejzOd7kOxRKS7nwcuh0+erq7ub2x8bb5NNM+Jqt7l2vnQ+5bhSyNosr1akUKhmaCyvQVwnaRwa+bNYslueb6WvgTT0T4NqdTm8+S9CXJ64tcoSOEmQJRqEL6pa1dAjTKBVC1LVdK1MitsXLLRWc/Fty6lNM8+8u7NbZ6HZ5/t8tyXQzRggMyZbuf0zmczpmTdMvafJhl3NXDvxrdRepZ6eZcVmJanoLePtzetp89anY5NPPO/Z5+R1LOEz0s+BI9DgrwkdPFnZ3J8nMvoH5fLrPuPLYFqRaW42hGIBAA0AwTGCAQMQBpAzRtkZRcWQdSuMnYKUisbFbWpZ1BYoyRFt1CQxBKEmiaiwbRtsz0yyru9qZ+wjB4445Z8Xm7dNF/H9yWXQ89JzbeLs1dPS4fpEp9FRXlZdlsW2zndRJoqsk482V7OV3FcJYEn0fO+gMvA0+Wm98eY16DyalnOFcWQq32dPfQpm2uMlZQyxkhVX0EK9dEtOWDL6DaTpvz1ZO2sWXfzIwVbOXpnr0UbzXGZqXdvhbcX1mPFlxY183s6VczYWYrIbqx06BITd8tWzJol3YzPD1Vowup9MuyqRtjPNiynmtssKprJqsspqhrOzKoUnEsnEQgLGmKk0ACDTEwEAMAAAaYmAhi2SZkxxFKIOSmRHKWM6omigmVynCyMQEMoTIGmE4ocJhAZQ5QicBHS9j887mb6vJzN+NHkNVO5O86qb+pTTmy8J3PM6kupz/AFtdDRLPivhcznWeo2cXoy97X5TedKWK5KeRLvS23kbI+cu58s/S/Oe7ocX0/ns7y0zo6Zvu50LOtp5PpMa318fHJ2NXm9q9/Tk0Qp4bot1YqC3TjibsGzmlFMVbL0lN0mG7NtFqr1pj527lTWfJuz1z65vecthfWexQLKWqjvyUmq7FtiPQrsxcUrgwasnRsphfStMJ1azvyuuWMpuyotgacerLBF17k552m6FEs2FbjuNJ0CY1KACaNAMUligQaYIYgAaBpgDQSTVAGgDKaioSHUroXy56puyEkxaKbZXVJFRNWQVqKxgnGVOUVAgBjAihA6Qw6+XESyVmlO16arhc9Xb6OeeczS63TOj2Kx87LyNnN0ldkK61F5m9Xq17MpcNdcnpx9GyPP0eVU82X7juMp6LscD3GNeE5n0zyq+Wh1qNTAXSqmyy/Nz7Jac3RFZ468seGybwC6+lyuilvn7aK6W6Heh8PoctLruT6WW2d1FzyOTLbNx5fY5BXVvz6lEt0Y5i3Z6zla1Ixs3WKWqjnrRVp5xfQ8epLqYdMGS5lee2yyNOuharo2I81+arMujJqSQ9QkiItqnFxGKaRHEkJqgSSQADIjQDBAAAAAxME4knFqyIaiLyY0Iki+KjKq5wsUq5VKUJxJSUtbI2WEGJNAnEZEpyjKAGEZwItOhoEWbIr93i04sPFdXCvp/O9Dnmb3PIoTo+bhhq7MjUco9FdHo4b+dXMw9WL+fxvS12KKvHJp5cMm2l03lacC76L8/9dm9zLozxXx+/imvIx6+aax6i0WiN0ZsezBSqgtSqLLJ20XxRpo2nqbsKkq40a12ev5nYZjyur5Yq6+dTeLLZOzZg7lMRy9Al5vL9HwtTkymbk+3zOvi4a5wh4oLUhOWip8zZmNWjKRX0KtcuGq0spcY2GedG5OlrUJJo5wcqTVJSEiwGmKmJBpgmCkmqUgipJEAAA0wAAU61GhJiF0qLykMEIJxIghBEKlKEotAlrB2ABFOIJOgGEoMmk4ihUNsjIYvXeU9Zi97x/V87LphPFWjscrRHe8PqwamzHfTYJoerKj1nL5LzfR8XPTWntebmdLlNag46y7IoxK6GyVeq5/Y566yTuZY6fMNdTFmozu1VV2dTdw+rFXP3c5aa7qt5jJsV9V8UWDXRKmuFpx+oTtWwlcZfNdrizciqUuTdh7Nm/JvyyStcyny3qvJW56dWTU19DgSOlo518ue6vWQw2U2OYWRsd8u2syZsL8UtZqjnlvNlFtNJqVjaagOErICcokSSppoECJpqwEU4SVoiNAgIAAGgkNKRaQTAGGlSM2M4si4yFGUSIFJgNjiwi5YIjZIAUZqojRIQEoTESCBIEDgbiSlELCEF05RJZVJUacu8y1iGkwaYIQgKYEDTJTiFtlBm7NOTq5t3a87bm9xcj0Z5Lj+k57pyo9KG84B1XNnU4LT1ebH3Oe+HDTTYiQKyMpRyZCFlY/beY9EztcKbnlc65Z6ELqCjvcP0tl2PdkZtrv56vznf4a58m7LWUsr3ndoqsxayiZmjKO5fGMo1dHj9DNpy24rK4xOmRqVFc6xyjNEMUaIlEC2JAaQSU4CBWAmNAMEoIRgAhiTQ3GRIQqAQAAQbGnjSUkQThY5RCI1Q0xtKJpRBxdNNDTQJgpICcJxNNEHIIOSBOA4BSaCQmAgHEJJoEMUkxKSIsBMkJpAAS20aM3rYqDNsrnnq73nzr2MbtcyDNdxV4OS2puWinWlm/lvKWO/PSlCVljVkoERVzpPRS5onZjx74lbXapi2ZA9R5r0Vzdz9PHOhlxC3c/TWZ6N1Rgy9XLqc5ujpnbLnTjRPOy+uAdLNFZu7lbMdkQNwkiCqyurHGQIRITJqyGUYhoMcWVSgSgFJoQBgAAAACYApIiwGNKAIAAAa2RxqUXBEgpiBIKABpobThADQqYOEDIkmIGTHWTSiKLVBJCGhDYmgEwQAwBAwkgIyQAwBADBSiTnTON+G66XbzY1j6nLmfSMvF7+NYMe9Z356HZ5iZnKFJiIxsVkJOQ5xlKRKxQZUtFN8W6KbZbSKSVF1Y+nybU6XOszEpKdsSc4or1wMdW6o5XL9FwemKmn0yhg1KAmJJtSlgxhGcBRkrHOLUQgASZEUE0aBSLSAwSYAAwAAATE1IE0JkiKlEbjJXGUQEJqizNaAi0AOIAAmDjMESCAwiwoalACJOEgaCdbiEkEY3U05wkQYxMBDCIAgAYAIBgIGDSGJjaBxlEAB2VhqzRCV2bTFvs/D9CX2RpfPXIydyma87V28Zza741Q7GVTkyMZxK67qiLbLL6rS6ymcWRhWSVaqarZbZVdFlsLQlKVQViSmF8ZcvA9Jy9ThDXbmOLBAJxmkpwnLBTiJCoTSNoGgUARoBMAFISYIQMAAYADTQJgCYwZGQlQNE4sYmIYaIzhmtOZVKSFGSIodKSlDBjTRBACCnJEA0ORIrLIEWMg3EaAABgwSkQJRojJANEhAgYIZFoGgBpg0DYEGgYgaaBpgAfV7OX1edrrtrinm7+VneOqyCxViKlaitWQqqFsSEpSHOLicY1FkIOpRkhWRsJ3V3xO+q4kMSq1hCNgtGbZA8XDpc3vzJRLBOKNoLlEllAVAJGhDQUNAwcDQCYJqQkxYjEARITUGIxkqUo0IEck5UpRESVIBAAYhb2pZSESposUWERgpxmMSEkCkpERhKLQxBZJKVlaslFMEwQim0Q0IHEoBiYxJoBMAABCaY0MQMBMbiApQG4yBNA0Ekme49D4b2fOzoVGdU82/DNVkJVYVzhpAQlASlKoN5y+nOybLyEpsgWMhNsldXdFltVxJjRIYwFhC2JyfMe48j0zkBdOYMFKMlGgIySCYsUywGQADGCBDGEZIAUiIAAxMkQk5LGRGHGSItSsTixxYJoBqSgpRERWgDIFMiOINMQpCHEG4BJAAhpOm4kMTJREBGVMagJBFSiAKmJkVOImMBIaAAYgBoAGgYhoYm0CGCAUoSpoIaAAZL6J843S+4pVXHeDL0OcqcSrJVyJLb1Dz93qIp5nP6HDLwa+pkrPaWJKyMlcnOESCMo2BZGZZbXYTASLBZOMgTZRxu7nPDPodLvy87L0vcjzVfu45vhs/vaTwnV6GqXzPJ974PeYBLUQMTQAANMEA2hU00iwAGDBWpOBERwZYmhQTQExNBIcVYhJERdIGSmSiuMikESM4skAJNhFoFKIhlMkRFiCLVJoJuNkAIgh0mnCaVNADQIGCEMGIbECAGIbIjQwQDQNAgKbRANA0A0x+v8d9LzSnsQxeHd1LjmWaKY2MNSMJximjXCXnYe5TNebp7nPXG5olOFhIGA2E4zJ212g0waAcWScWOm6sz9TmCdV0U6zrhkJbNFErIWZNJyvIe48P0zGSlqBOMsQKBNAAGgYCgMiOKMAk4ylk0hRapNNEmhgxDiA0NNA0EhC6SEsmJAKREEEosYIk4SEgJxkiIMaIjECApjUDGOKiSIyoSABAJgANoEAMQNAA0DAaQAA02IAQ0IZQ04QA0SF1Lvo0ee7lkcFRdTLOUJj5/Q88vpAVihOERjKMCklz8/r55eDT1cTWeUwkSZFSiOddhdJMYAwBMQ3Fji0VZ9VcuXoc2i57PMpwanp5cvdG7oVW3NXM7crPkp9H8RthiFJBYmmNDBSirEwBAgRgBJBJClEKwZISaAAaAIyQIKaAYEaFKObKuaAi6E0DiExOEAMAkhkRsiAIHUSSIsABiUoiaAABNADoAhoYDQgQ0ygZCAGhiGxTiiUGhoBtACAZ1Dl9v23Qyw65LKFd8FpIyyjbFVLznoONNehKLblxERjKENwauLRn5/TwzXMLK1lKMgTBzUybUgkmCYRTiRlEJpCqEoxTm11GTD1sWp1ewi41XV3XKi4hxO3UfKxrqE0gCG0iSAYCikkQ0MAGNUDEmkGgaaCUWIAIyQiSEDoGS6YSjlJIAUyKlEQSobURU0KSQSrsBSCKYAmNCEBQAEWCYCQqYMQyBNU2nACAAABiAAGAOIANAAAADZG7s9iKPVXxylAcRdc1bectq00jzWKI8zp45c3W8x2ZreZpWXqsSTqZZFohj20TXIp30LTMByUiU4zJNMABgEYygQHBXKLBNQo2Bn53WnZvtzdPWFbGdyRUQp0Ur8xq63I6RpqwTBDKTTACGAoDRMStpg0QkygENoAaSLBXFpJOKVuLQGFsQlYKHKEgiFMETcZQojBSQpRY3EJRIkosoQAJEgBAAhUJg0ANAADAgQUNMYKAGIYAIGpCGhDvKD0Xr48F7O/oZDRDiwrjfBZOMEruhepGSsoV1MsMevHL5vqcboZ6dG3n3RuMs7LpUBoedpojBEM+itcsb4kHYhTjMG0MTBNEU0RjKJFgrkmInFI71dcrULWZWOCMVhRJswec9eV8up+n+F05Sa1ExiAAaGDE0KAISjJXFxBNI2mCAYmqQIyLGmgYAILJIllFoBxAAGpClGQKRCRIjJACAaQ0ykJiGgBDQAJUxCMTUAAAAAaYmnDTQCsIvR6OPJz+g3R810fU7D5n0fZ3x5rp9KqW1VXIRzTWwlNIQtgpKq0jJpE67FnFSSELKyNFuWXyeujRnrbKDi6dEi90uyx1xL55ZGmNbGOQo3VkJKQRaE2AnESaFCaIqaG47yu223WKLro2WZ74I7KrCFkZkc88C6NUQtzlifMcv07x+3BGaJSSAASQo2oQimIGmkACQhRpiBIgQ3FjQDEDGExEo1IcZEQUik0wHKFGSoFKIilTQoBlEWCBDEDiFAhAAGmoANANAAADAAhgh9TmfQ47MmsoOiMt0oXJUrs63RdRPJZdK6sGgcr5pnulOmlWhG5K0VpXqz6VjGyKZ4WEvkbO9ws9JOElk4sc4MkhkFOCWSoa6rsmtLKr6CDTEDCUZBXaio6Gi54z6ecxrdctO1q4thDNZprLlkpxQaYZ7uOt2yVUEscl2yFZBTDx3m/qnidThIW4xCsTGIE00E0NNDGgnBjiwQMipIQ1TGQmIYC2SiQpRZNCgi1TEDlBkkOENEG1TaBoAGhEkRGgQUAyI2RbZEABoAAQDaYAQ3Z6+Xz/ANJJ5iTriSIk3GldDosSh282W+vRFdVOS8kptJyqtqFjSQsraqM4kNNEi0ashRqqiPL6RL5p78OekSyKxbkJtpGNkStTRHZkuOhnuoEJgANm+zP0ZZ7iymljvzovjFDVsSE3qHAdji0Hnu9lXSsuo5Nmxyw0VUg53kp83Idyjl3HnfOfSuNueObW4DSA0omkaAZEGOJJCJCYxMSYAAMiSSYxBaClFNAEQQDTAcQkJkkARkCExpoGAAgi0IChoBxYAAJjAhKSoAGGiM/f9F3cXJqFFg1YsO1S4r9AFJUaZKCZNFUZcc9jWV1MrJgEmkOELym7PYOM4pU8nRlc+T1KddkUphqzquR2YxwDo5M9KHIFJTIk4kI2RKpJHQqGRVgRu36rmEqq9YkTmZrXMrLEQhYyi1wWSjcgooFCRVpjzlo6ixyzqskZdVzLsWbcVabqbCErSuLzmTxPvyvmx1uT0jQxJpAATToTQNBJxcAAmACYJoAAEW3MeApRErIVEGKSZEkgGBNEEJxpOcQAgiyhNCBCGWACjHCGiIFDTGIBnp4x+8tlzomhOM4nFrUUXkl2ZMd0HSRRGMkyrRyZqnpabRSm7mhzFqmILOZ1Dk9OnQUTrrK6+lyZerDk6jpxxbrM9F+WITnSXSpsDLukYKeml5RvlLzIdeZwKu/pONu6Ksrk8dl9XMnGyqreWQHZCNiUHMrbEYrB1qotoelc2h5C2MaTNKUpXqOedDPXuFkEZJdmBx4dlrxdHUaZL7sVlvn+qz57D3/E3PNLdh0BpBMpAgaY3FwAACG0ACGmAAXOLzWkUgQwCSAlCxRCQVFjGmQ0RGQlQhA0ApISZYNCsCGgIgWDQrF2Y3e6T50AIpoU6rxNFlWPoEuLZTMnFpJJRKadNC3aOfvLCuywpuxy6ZVzTldfl9Ra7FSkLKhcuuPHl6UcOot00o3x4HSTXi6Srjrq0xzrteBdVmQTfLlB2K+VA6i4+ZfQV+emdLNPUU67BJOm+st0SLip1NQuCTrS2iqS6JYQ3I4xYabZbYTwWFlc5ef07+UPP16i+POtJWxRsnyoHSy0Rlrvv32ZtSjYQx6Ylj6brzvjPqWbU+ZLqcvZKSsTQSE4BsgMAaGmgAAYTcZSuLQCCQMRKI3FiBA0ElEAAGgE1TEDIgyLGJjQAkIAK2mXfUfP+q5gahKUVUXCFpy6aVc1ZHHtolLMOiLnKNicZHM01aZefonWvTlxKT0BRdc0tNcXSyyNOHXmNnM0XmSdcJebk9Njl4V3QZn6ktNljrrubo2IjCxHPXQjLky9KRx49aK8q3XUUylInPPaUwnUT1ZqDfZRJJxuVZ5yqi27HXXQyUxl6dXMgW6ncXkMFlfUy6CrLthLzuq+WPRriX1YWmgiEp1BpKyrVSzD1efrC6rCar6ImiNrSOPcHl/GfQvKavHBdMtoJCcJoGhDExjQCCcoTlEIAQDVSTUMQMGAglGcAQCTVg0ADEAAgBAxFNANMlevL7GPWzHzCEEXBVXKuJ6M2mlCVdnHfStzqjWOxVQsRY9EF51PXrl038eadMy66csekpHMlgsoOjN5zJDqYJbNHHkTo6ocq0rl31xz2dG7yvozRTh1pZKms2Y8M1ts5VZ14UZTovnwOhbybi1ytKtNFyVQ1VrnjugZ7M2Y79HO1Vmp7so4b6rOfsMxrdVdjqz92WVMubZLo06CvlaqZdeqFlkc+mKc+PUxLTX080Zr9jqm+uRQcPuq8+TpQQSLtdVly8W7ky8XP2eI35tM78gQMQNxCSABMaEABYx5qABSjUkKGDEyQk2RkISAAVMQMSRiFAESZSBiBgBDBq/qnzv6hgAZCIig4Sqopmr9mDfcxpuosprv0KWlaGW7EtnL72CW7Hh6g9FlKWWQvqdeWRpza8hn15NUrjXvsx6qMxtwWuXFPo1mWu2iXHj6+84/XWCzVDTxjr4OtUVyt5yaMejYY8nTpVVTzF1/N1F7z3WZNb5C9zlU9KOJ0Oxyye/zgvZor0Jgl1QwT1ZyvdgxGuqfUJW1Z7Fmp7Mt7Mli0mMqrybVN8q0U50GqnRjS3narFKYIv5O8l28R9opOb0jXIlc187TnztZNkZrwuH6H47rjmjOmEJiGAAIaAAYBfFmagBAApApRY3FjQyMZIACI1YJgACaFaBEwBoAAaGo0HqPc+a9LzrQSKDjKqZ1SwqlRNaOlyulrJB5bl5aoZ33FKrWZcnq1Eq8O2KOZt2LzOlbA2cfbqs5XUsqFEtKedtol6OaOmyw5t48+1Rzr9QtUqQjk33mDXRjI6LZkroVpQYs012subRY78txYoUGO/dmHLLtMfRx4V7vNh004/Unyl72HmdFMNHpYHm5dpLxpdlHM6GvAmgz2E+bPqD0BZU8vQOH0Mspd2CqRVPVErjntrtqEUy3lUYOtloWjec063Nt6JI5fVsunATnEXjpJAKq6K+Gwe/8N251A9ZSlEBlIaE0xAGiIZskA4gEwIADYCiAmAILBAoAiAAATC0AhoEAAYKMD6J3A5UQEawiFQS56wmpdcNZKg1nmIMb7uMNZuiCeY64TXT80BLuAs6Aub8IFPTCK0Fcv0YS8ysCdQRRcC9SoNYt4gSw0BNdCIazqyglXKCavzhL2OeFm7EEYdAW6IgiyAVATXfiGscesJqr0AG6sLiMwPIaAm+zyQOteFzCIFkgOLgCa7+8Ll1glOwF424B0gPgBL6CIJxOkDW7WFyUgYAMbmAJAR8uGnBA7chADAYBFBQAf//EADEQAAICAQMDAgYDAQADAQEBAQECAAMRBBIhEBMxICIFFDAyQEEjM1BCNENgJBVENf/aAAgBAQABBQL/ABB/uD/FxP10zMzdM+nP1B/9B+vxD9DHoH1hD+OIeh9efyf1/ojTPOxWJ2qp2Mw1WD1n7J+vyRhZnJ9H6/AH0cf/AAA/BH1QBFLJApz8q4gSuHYIe1O5uXFbQ6bMapkOJiINywHr+vXg/jj6o6+em3ofrfr/AOSQDCKcmmqmWatcb55m0iLU1kCDO9hOWisRCoeGme5CcHoeRB0xBtjKVPTe2OYBmeD9Lx+OJ+oJ+8n6WIfPUQ/6gXdDx+BiYnE9k9k2Qow9ajmjSl4bmWdoZJrE7qiG4mKdVOyzA1YjBoVE4mWEQ3E4IgSgz5fjG3oBmNU1c7DztGVrLENbgZm09MR/cOmMTMz+aOn7E/Z+uIfzx+NuOPaYVI+hgmbGmybRO1xtMKP0xmYAmYxZoGKzeDPbOOvBlWnVVvstuDDEUOw+WZZ2wSi14+YZUFVtsGksAFNwHZrJ+T0xgqVA+mdodE6w0W47FqwWWEdpWGPapvqL0WtDVtXAie5e1hzs29sGbYg3LAAOnPTEwZgCbpt3fi59f79J/Nr0ttkbSagQo6zPTxPYZtzCjD1efq5+kCVnBmOoQzZSZuKncx6CAADO6bWgWwnt3JDzO0k+XeGt1mwzE5mJ24EyadOlQu1Adhp7bIFSuK1zomlnZ4Wk4CEdN5h8BVzzjaZie6b8TIhVTNuIfb0Xz5hpDRtOMmliClk90Jgrcztc9h2hoeGmwTttPfDx1GRMDU/4w/HGc6d70YazUpP/AOhbPmKLYU0TxtBpWh+E1FW+E3iHRaiuNRbgJ20Ix6PMxNsxMGbWmxoVI/B5ECZhIWFs9P7IKHI7YWYEa7nuOSum2g6kJGsLT2mCh3naKRbnWdzMxPdMGLjKLg3KzxUxBpQxXRoJjCkCbgs34m+Fmmem2bQJiAHoMTAM2THQgCHx5BeE5hYgF22k5mczJVvmUM8lrWUrcDMz2MClZh06mPUydXfu/WHTEx9b9fTP4KozSmjJWl1UVPFony9yztWwhwd7iC9xO8xmUaGil4fhmnaN8IE//k2Cf/zrp/8AzINFQsGn0oh02knydE+SxOzth0yQ6ZMHSrDpRPlRPlYdMZ8pcZ8nqJ8pqJ8rfPlbJ8q0+SsE+TsE+UaDSsoGlewDTU1DvIJ8zSp+cjV6e2NTsi1DKaV2ny2GbQvkaFp8lBo64dIhnytInytE+WqnYqB2idtTBWBNvTAnAhKzJ9Pjp+t0HM3NN87nG5cbhO8cd0GdzML5DMQNxUnCzMYZCeDmp4RkN7Ypya7jHoyFdlZhB75vndBhprsj6d0m0j8AdD9c+sTx0z6D9QzRD3KsxMeriY64mBMdcKYaKTPldPPlqZ8sgnZM7JhpnZmybFhqwNsKwCYExO1XG09TD5OmfKVAimpIadxahyvyKiHRZPyAnykFAERXWbEhW6bHM7JnanbmybVnAm7MzMmc9M9N3QsT12ztzYsKrNvXiFxhdrE3TfmZhbM3T/lTyF9xn/Nf/jj76xMbLWXnGGAxNu+Med0qbEepbUpZg7p246blIm6V2mduqyW6ZhDWeg5H1cTH4o6fswdT1xD9AYzpNUuFfI+niYmJiYmPRmbpmZmZmZmenE9s9s9swJtE2ibVm1ZsUztibBNom0TYs2LNgm0TbNom2bZgTAnEyJlZuSbkm6szKTieyeyZWcTE2zBnM983NC5hshaHLzbCSpYbjP8Arbw33DzjEqEx7z7RWM6bzq1O221cWkbq9vCL/HYDXZqUBI+ys4aky2kWrU+5dpqZ6uLE4BxBYylLVcPpxiyrkrg/VHTH4g8QjEPrEP0F2ltPpiFrQCY+jj14mOuRMiZWcTAm0TExMTmczM4nHTMzM/TzMieyHbMCdudkzsidlZ2K520ExDMdOZ7pmyb2m7nOemTOTDxOXb21qrEvcq9yrkqpaL97cabb7gv8ti81CBeH8H2I3/kffTfyuPeBhqyVe+s7Qu6hq/4xKuawNy2D3rhgq7Ges12W6fIycA5lGoxDSjpZp/ayFfwTD+AB0EPMI5mIeo9GOp9GisDRfEJmZnpumeuZkzdN0z0xNpmDMTB6YmBMTbMTbMeriYExMTaZtaYaczJm8zuTuCbxN8zMmZmVn8c2oYahO0Z23ExbM2w22ifNsINZPmhO8DPmEx3q5vEyTM4hzOZt55m0uxUVpzc7gVg+6mo/z0rtIXD7c0oPbUnvYROFfiu4fxWL7l/kbT/e4/jP2Hzt5+6mr22sOCuG0n2aaMPcg2XD3L967cS6r3Mu0q2Zp7ipwtos04aPWVhA+qOmcw9COfXn1Dx0/Ux0PQfTHn4aQ1oPQ9MTE2iYmPTiYmJj0YmPXzOeuJtm2bZtm2bTPdPdPdOJ7ZhZthVoTidyd0zvTuzvCdzM3zdC1kNtkNpneWd1ZuBJ6ZgBhMyFm9p3HiB0i7hD54RXBc/1jG6dzdafZNu2puCF/h2YVfGMwf1v/Y44xmys/wD6Kz/Ljcm32431AxeAcLrLfa9i4Oh8p7bmEZN6q0b2Mw5KbpbTkskSzBoshXctlO6W1FHPTH1j+AJ+zD4Ez6vPpPUYzpLAiJej9cfh5nH0szMz0zMzMzMzMzOJx03QvNyzKT2TCGFK5sWdpYyCbDMOJ7oN0M2iBViVbp8uTF0+B2yoxx9sHEUbVUYX7oAEDR2MduNncNoAZzu1BHsYYD8VkbV/4/8A9LD3HiMMXHixIJV9u2LNR7dVev8AJZyNEP5P/d5QDFjYru25QT7o4zL69ssq2SmzDU2xhxbVvF9TBis8Tz9HPH0z6hDMzMBh/C+HWoI+orrCayl4L6zO6JmZ+jnpiY+piYnPox0z0x6t03zfC4m4TPUrmbTPdOZtMWljPl2g0+J2RNoE3Gb2ncbHcsM3tEZ2iKeh95PBMcktY/CpltCu928Ur74/3EbmfyRyvOrtP81vCkZYj21Gf+2mAe9PGu+23+8fbohi7ET+vHFqb1rYMHGG8NwRjEevttZXslFoiPMZltW4GvfHXBmf9FTg/ujt572E36ywo6VjvrBaDO6Jugb6HPTMz6d03Dpj62JsmwwqZibZiGHM5m1p22nZsMXSmDTICKlEKTAEJjPDYTN+JuhcCZZiMk1obJiZg4EdtxYFowCH3NKk7Wnu+37RiebK+Xxkyv7m51Nv9Sf2D+qsYh/uQT/2JNcP/wA9o9+z+Sk//o/dXgfb+vsdvcjLuRbIZbX3KwfdbUaX0124I0IyLqN5tTvRlKn/ABx9EDJ7ZiVYZRkJTRuwhmxJhRPbC9QgtpMGIPVx6MTB6ZmZnpmZ6ZmfVjriY6cz3T3TMPbM7dZnYENBnZMFUCAdTMmFoSIwWcTibozjO1ZwErryMYHmYh8MeSsd9o24GnTc/wCgwlK8GK38CDag8vwK+TX7rbPtq8oMyvwR/KBzZxdX92t/ouG64c3fa7ffX9378Ow9qfcRyV22Vvz+9VTuFe26tkai5LN6I2QRmW092XVm+FcfgZ64m4TPqB6j8QcEO27TXJ29yNO2k7YjaRHnyaCdh4tVgMzM/Rz0x0zMzcJkTj05mZn0ZmZmbpuE3CZE4nE4nE46ZE4hQGdtBDUsIh3TEIYnt5JntWNxKUNhVemMdGzPEtsAgzZDhnpr2V2ZIKiVj3XH2lcN4i+LDiVjYlC7a7ftRcV0c31Rvv8A+7R/InjWf02DnH81y4B5Rfu/9rfafNRjCMJb/HMTyLK+1ZYg1NNDlGBn3D7pZULlvo7sK4/DxMfhYmJj6WmpDykDaAJgTjoSoncSbxMzPo5m6bpn0Z9GOmfRn1Z65mZnrxOJkTfO607zTvNO7C2ZkzusIdY4nzs+ZEN3IKmZ3DYghztro7jquJ4mOhMZgksuOO3uLuTNPV25iHgp5UbUb3agczy0Pulh/jq+3U/0ViabiJ/YfvI9z/ePGpGQ/wBw4tvHFPupSf8AcUez/wB3/LcAgYoJA8GxMir+Nr6smgxTCMjyHrFk1OnyzLtP5h+h+5j6S+dNZUE7itMw2LkhMlqK536Ytm+BczaIMdM+rExNqztrNuJiFZg+jn15mZmbpnpmczmEQrNk2TYZsMKmFDNoEM5mcThp9g93bb2xmAldTWCtO2AMDo7gR75gu2Z98C4FSYh4FjYlA/iPBQcwDEf7VX3XtF4XUcoPv+ylf7j95+9/Mfm14V/lvE0/93IfoOGu4ZYZ4Dey0HpckRsh6+ywOQpjDB8xlDrfRkuu3/EzM/URjO6wSs7KzbcR3Ls9u9oNNZNOjLB0zM+rM4nHpMwIVm2YE2LO2JsnbnbmybZsmybJsmybJgzE2zBhmJtmybYSohYRnh3wVwhcgkymn3udrnKymglq6wgx0LAR7CYX6ElwV3TGZTUS+BHbAP8AK+OGPHgAQeTy7HZW4zeY4yf+NR/SP7f/AGf9vy8/7Mx79QP5KuL38wT/ALsXIqbIMI9z171qfIjCco/DqM1MOIOQRieYRuGpoxHTYfyM/jiV2dspdtlV1lsVbiBVZFpWbQJmbpnpum6bhMjpmZmZmbpmCHpz056YmJgzEwemJgzBnPTB9B67pvhzDDNrT2JHLtK6ZsBimASvSFmChBN0LRrVEJLxptBm7MWrMFOCq4BM1Fm41JgH2z9fcRPCiak+xP8AyZ+8S+Vwff8A9n+yLDE+7Uf2eI/Kjlf2/g+F4YchxxxFO29fA8OvNTbSw3KkE8zGDCN41NAqLoa3/wBDcTNIWAR2m8Z3qD3Em8Tcsz0PqzMzicdBDMTicdeJtEwJx146ZmfWTMTGZgwriEQlVLb8DiKkVS4FRsi0AAKizMz0ZsRmzCQG/kMCBRg2xKlrjWhZUkPEvtwulqzF4jczMUcR/OJa+/VUjNv6YcY4tmlbfQPu/wC/+z4WPE83/wByjIHNY8fpvC8q33Lw58ngWJ76m31xhLFxEbhhggwHb08dCqut+mNMZNp+uPzvPRVrAFwEqUsq3IY1rZs1NtUr1zNBZune5S47ksDdCIZ7p74N0wZiYmDBP+Tx1zM/RzMzPpxMTZ0MMY5nibcxKHMXTKJ7BNx6Zm6F4zGMecQLBWWgoXJcKHu3GiieJfdEq7zDz0bmftYPLNsRfvo8f9P9qy87TouNOPuH3f8Ab/bH5iTUfdRyB/X4I+39LGHGf4zCJyUrPb1S9PEH8Tr4HseKcg9SA41OlKF0x/nA4naYynTuZ8mlh+Uyi6SsDsLO3WYdHpnh0qsD8PcxNLdSUdjGYrMhxg5EzM9MdRDCs5Ez6MdcdefRibZtHXiboWmxngpMFSiYAnPTdN3UsIXYwVkztwVT2IO5w9pMbxTTM4mp1PbmnpLk4UKMQnhDnp+jwg86l5UP5q5/7D9yeNYcDR/+OPMWN5/b/evCaiU8MT/FB5Hj9mDiL9hnh7wTWrB1lghXctLbhtDqOen3DqQHXVaYqWr/AAM9P1+OOg87gIDzp6Q5wK4XSC1BO5BaDMme7pz0B6lA07eJtaJkQMJuWZEzDOIcTaJjoPVn0Z9O2bZsWe0TfN0zN0z6DMZnbzBWBOFhtm52niNYuV5ldPJOJdqDK9PliQgrGSY5yK+ep5YeHO6ac81D2f8Af/SfbqffNJxR+j9qz/tTmz/2nivVeav/ACsfxp1bz5Dfcp9xlvgH3Vjt9P1HGyxTkOICJ4PmeRPE4YajSZj18kYP+OOvmKoEpW3UwaBsro1U9nntqOnuha2brzMvDdtnceDUkRLls64m2bJsM2tFhnmHqBMdM9czMyZzMGYmOu4Q2gTuzfN0z0x0xMdMTibobJk9CVWG2e54lMSvbGfEttLGunEL4nggbFYxve6jjre21JpZX9hn7U+xDveniv8A4afo8Cn+uskyz7L+Wp51P/C+P3DB4bzDzPIH2+SviGMMrUdrwjBWfb6fI1OkFotqdCRj/HHWigOU0y4HA9GPR7p7unBmB18TzPEyZkwGfr9kTEx6uemJzMHrmFmnvm1p2zO1O0JsEwOnHTcJvm+bpnqcCFiZsJIri1wALHsnueAKsLZm/A09eB5LtmIuIPEMHmw77rTiUrsrr+w9Ljt01IxF8Q/d/wA3HCfbXUOLj7bPv0vLHhZnmGDgtDF5U+1v+/tgM8zyPMsXcEfeuIQYDuHpBzL6EuTUadqSRPH+RTe1Up1Tunccju1ifMog+aaw91584ixNQXjaqpYNapnfM77Z7s7pndncEFiwN6z5/XMxMejEx9DjrmZmZuhsE7ky02mbZtm0TExNvTbAkCQJiE4hYtMAdGYCbi0pp3FjCcADL+bOrtsQfdjLr9yfa3j96nmhBgjxP2YffbY256vFp58WaMYrf7ce53xYpyI3T/pT7mnkP9q8QHoeD+l9lk8zwfuA6HqGjKCL9AQCuf8AGz17rCbzhXIi6o1B9Ta8ysQe2zUGyczfO64neJne2xdRdlb7TFa8j+aKtkHHoEBjT9dcfVxMTBm2bJ2xNizb6OTNsxDxDzNsCwLM4hbqWAjWT7pXVkk4EZvd9kqHQ9LTuY+UEXyn2mDiP9h4qWGCOeBxKcsw4UnItbatA/jeZmofbqaj1/TT/o8j/rggcBTnoftBjruWp9ywwe0wdCOoOJiX6VLpqKGR/wAPP5NbBFZi7CCpmi/D72i/C7TB8MRYNFphF01KzaJhZuWdybzATMHqsPUzP1sTjrjpn0/8zMxMTEzjoTMzMayAFp25WmSTtAjttH2KqxRhZ+3O1fMPtHhB5Hgyxv5LPFh3XiNB4uPFh9unHtY4RBLBviQ+T4v5fSvlZ+o3BIg+1/I4Ngw+eAciMMHyD7LBzBDAcHx1IzPHQHHSypLU1OiNUYFT/kfrqrASmxwEa5ptadsTa05mJ2xNqwsizvQ2NPdAMzxB6D13TfN839eZgzDTaZgzbNk2j0YnE4nEyJum7piY6ZmYW6czaZ7FmS0SotOFAmYBk/cVXJh6WNkiY7j+SBiDwxwKxustO2aX32CHz+nOWZt7qNq6hvYPCjNyT9t9rmIe246COOAd0U8sOF+0jco4KcMJ5C8M6hlqYxoOZ4imeOp5njp4n3dNToQwZCp/wf16wBFVZXWDBYqRb7Gg7xm1oVqm5RO48xYZ2TBWqg31iNrq1nzN7xe6YrABTkE9OOuIR0CQDpjpj05mZn05nMxMTAHTMzCwm6cmY6FoK2M2CKkLY64zDPEXp+7G2qPH6A2qBDB4tiDA1j5bTptSftzw7YmmTpd96jhfIh4lzYoYZgO6yo5SHhv0eHh8H2sDCMOv3BujiKchhtKHI8QjMEBmMdTMY6/dCJqNKl8v070N/gn1gwNAW3UBBN6iG8zugzfWIdQJ83G1DGfMWZCl5sDwIiwV2wUwKqzdmAzbMGe6c+vMzN03TdMzE46cTmYM2zbMTE4mepacmCubRMTBmwTKrMkxVjNgAdAMkmeIF5PTxHO9ogycdGi+H8jwK+5qVh6WmON7Y2II/NifavLCWnAv5q/9NRzZR9kPIWXrEaCEcZxCuZYMQchTxjIB5aLwTyBGGZwQrenE8dTGVXXV6A1f4J+gvnOIlmyfNcNqXMR7HgDTDMVocztbZ74E3RdOogws7oge1ptYzAHoM3D08zmYMxMTEwJnpibZj0ZmZnrmbGMFc24nE5hhmIFgXEZugyZjMxgQnEXrYYBiHk+OpiHK2T/lRsRBhSelnmlcKWyZjlfCdH91t3FYGRWhV046CfuxdyA8jnpiDww3LXwf2hlqxW3BvYyGEdCNp4IU9Qeh4PieRmY6arQLbHRq2/xhN0PTibuaDDZwxdoqNgVDKrtmHaDTwKizM5PQuBG1KgpZuLDdEVsgTH1M9MzPpzOYi5b2iZnunEJmZjoFniM2YFmMwDHQmNbgVgt0MJwMcsYq4AnkmXPzUMJYYPGd79DMZNjhFq+3ExlliQ+B91/9cC/zmZ48E9LBsurPRp/03DWriVkOpgORjtO43pWefM8zOIR2zAeoPQiY5HMz0xLqK9Qup0j6Y/jiH659C2thQGNVVhiaSLWqzj0FgofWII+rLT5py1QWwqhyBMejMz6MdMzMx059OJjpxK/dNq9CZzMDrjqB1MzGbcVq3EDHVvcfEVYOTPAts2hFi/a4y1h216ccdDPEsbuW1rhWn6SCWfagwLz7BxFT+Rj/ACUtuH6HImoXMqbp5n78j9IO2/7X2ll3BeI49ynIYQ8wHE+3oDPPTPQiYgM8dMQgEav4fshUj/G/XWql7Dp6a6hvxN5mYD0LBBbrlEfUvacXPOyVNdVrCrTKsAg9B6ZnJmJ4memJtmOuyFJthHQnrX7ZmYmPobpzCwEa7leVCwQ9HafryeniM+Aq72xB4aWDdFGBDD4ubamnr6f9Z5Xo3MXzfyv/AGgwmOdO38wg4McZWvhx0YcjyR7nO1xyIOQRmEZCtyOZ9rMuYp48Tx08zxB0IhGYDPHTzPE1Wim1SSCp/DH0MfTXGa2AibslwsfVDNYssOVrF3xGNa9jYntle52pTthQSAgEYgTPoPXPTExMegwCZ6mGBZjoDN0yfogRmwGPclVIE28dScAck8wDHVjNu84jHEXwZjmDoYw3uOOoHK+Y/C1/bc0rTJ/5/VX9nQcgyz2XKeIeR+/1qB7dO8Igh6MNtiHhxuVTuWZ6eOp4KtmAwiERTPHXlZqdFXqAUsrjJx/iYMCxPbDqZXo7XmNPpRZryZZczneQfmHgZmgR2mk3Yp0+0RrBFsa2wCZnnrjpnpj1CY6CHpnpiYmPRjrmZmDPEJM7TGexBuMx6PMMRepMxuMJxPJHifvqZ4i+gcT9PzBwlgy9QhPFp2qjcq25Fg6ahMsh4/UMWXL7aXwwg4aGWLvSp4OYRtc9FbEPEHHQjMb2xWzMwiERTPHX7ZqNOmoW0WUWNtP1sfjYi1Mxq0KxVroS/XmGzlnJm6eZgLKUtuNPwyKqorOqAWG4EAA6pZp7STx0YzdidzJwSRxB6gJn0Hy9gBRTM+nHpx025hZUnejdxotPoPUL1zPuIGOhgn6g9DHoJmCY6frHLeLIi4U+dQ38dfnTHNaHrePaPAh6v4f2WVNurMHjpau1qnhGQvgiGI08QHqRsIMBhEIgOR4h6YltS3LqNM1B/GPr/XozATkFiVuWkW6iy9ozejQaVLCAFEayduXahaxfc1ka4ZqArZNxWM0cEkLtQeESeOmZnpwoLElRDBCcKzYVF5dwsUGDpj0Ac9M9C6zAMVcTEz6gOph5gXHQ9M5I8dTDG6eAnMAhmZ+xLGwK/eSZY2BrH9v2jQtz/wBjowyCMRZ+pif86gYt0T4ME/cMb+G1GyG8noeGVszxB1xtmcQNMQiA5niHiCMJZX3Bfpijf4a2FVzk7ggJ9OmtZXq1HcnmWamuqWatmIbMLsUq0gSUMdWWOIDkOoYCsLBXytYmZmZ6AQ8TYWYDHT9/rzNuWZgsxiL6xDMTbNogRRMiZ9XmAegwDHocwcQH0F5ujtll8Z3sOJulluIrQdGyz4wPMb3W6j3WHmaRtjMPcDg9GHI6HyYs1tcqO11OQOGsHQjgjctftPW0ZWt4DugOD0ImJ4it0/fkZhG054l9S2LfT228H8Efijroq67AXFYt1QC23bof41JZqkVdHAlmqt0zKadTfsr0/wAQqVktqtEzN8z1A9JOIvJPSyzYP6wqGw+ehhgbPTB9OemPWB68wQ+Mdd0zGPG4kloSchjhTtV7PatzYzugM3hQtm6KITmPZg2PgAxuJV/Z5WI2RD0EPMHgTULlWEoOaj48qPEsEQ7ovgw8j9WKVaqzch96o+epmOgMM8FoDPsJxFfnUcFxtb6uPSBD0x+EIYljLFuKxrC5RcNnc6kaWvTUvZddetpvZadLbY5Kobpo/h/bIXiY6fcOj2BJnp4h81j2yy0IGbtLXW7N5gEPRxAMdczdOTNnQnqfTmZmZnoWm7MBmYeeuYTAeGMxiYhEVeLWh98GJ5m4LC0qcgpbuDOFVOWvPGZnM0y8p9p4KnDiGGDznq4yliZmlPtHjoJbxCPcpyOn71KxeCjxhFb6Ah8kzubG1WJZqO9T+EIBy0HQj8PMzxjaLG2V11DT11q19ll2W0Y36n4ijWaVPh1j1UV9squweejHaPdeOlj4jODd8x7NITdCwyAWMts2wDYQPdjgDHo8kzPOOCYOhbE9zQLj059B6bpvnnpvm+bskvib4XjPkhoz4ikmfovlg/tsb3F4mWI5h5Zh7K+Sh5tPcZJcdzEzdg02e2r7bI3Dgz9PA+ZnPocYKDDCfsnBjDI8RDgjoZYN1fmVtFbEaKcieY3QGGZjGG0Caq0uTqH3fWz0PVZ4GfRj8IQJsCY31VBZte+7UW9kKVWaGl7L29ymhriqqi5mYXxP7YomI7hFfVFn5rmm06imx+0lI9yDAssCAQ2bGrTA6eZ+7DAMDxMF3cxmxO7FYvAkx6DGPTdAemIxxPMCdGmJjMJC9DMwdD9w4V7DPAd8KWnk1qMHwiy3kgYGIGjvsrfgZAH7paI/B5Roh9gPFz7QtvIbleRnBVstbxBB0s8VtkRxFMU+i322QNFafYc56eZ+2O2I4cWWYHzdZmsbFhOfxMRWxM+36J+sqNadLUnbe5rLHf5OmrTPYfladPEstvascYxMxrs2ZCKEzAw3TwNW/fryVWtUFekX2NcLbNGhasnlELscREwOnnp4CZZ45lQwLDLPJPNHQmY6Ezfkxmg5gE3TMIniFpnMMxmMdvoxweIZ++TB5Y8kljFwCj5LHJVdqhd9mMR4F2rHO97DzFMazApfdXZ4qP8AGGmqflTggyt+LWlbe5yCEMB4jeFba+YZ9rKemZmarkVNnpuitFbaczxLLwsfUJLLuybdQ1hzGcsPxv1+/Wfpj0aXTfM2ai3uyr/8606N7Ht1q1LUtmquo07ThRmWWMxrq2K2ED6oykbV/Wq1VbWsG7rrVqJVQLX+I2ZmlrF8scUrX9m/LhepM8dLm4UYB5m3JMsMdpnBqtxO/mb8TdmPYFHdLt3QsNhMVSYBj0mbemJnHQw+MZmJ+8TbmEex/NnnHWtsSkZLCLXhSMThYAbW1D4GOzT0/bPk6a8Vi3U5lV3trtybjuOIGwA/FthlTncLN0zgVvwGjMJY2Ilu5C0duK7hO7EfMJlvuinYy2TOQHhsxPmVnzCGaq7uWTP5GJ+uvmY6/qH6YPQwcnuolNKh7DqO4+ov9q7mbS6XbU9m2KMBrDaUdFbU6k0o9moumnqHdM1N/YoWohjZv1BZ+6u3SabTVXMwC1I1YvucExUAg6EwDHRH7jBcv4HgDgNLDGhhMRzk3HK3sFLGxjYFRQSa6WnA6Y6+ZiHyBDMRjmAQxBxiCbZt4s8N7AFlh6GK2yU3lZV/IMcEZLN7msCBV7ltz92z9KJjny08ke0VOSf1wJ3BuyZY2WU8izbFsBRbME3EB7swuc7ysFxhcmI5U2WHFV8N3FtvBsLlbfd8xiNeZ3mILZm5hM/kiZh9Y6E/UxMTE24lOHs1DbVX2oql20Pw5aYzkxEFYdjc116VLU/cvr1r2HT6fNlSCtc8XudXbU/alTaafD9PW727/iGpCqkb+aD7jAOh6ZmpsJiLsr8CBu5qZYcS24TuzeJnpiNN8VGeU1bPRj0mZ6GN58AAuzDaH5irP2eI0PuNx2AieSeizT2YLNxY2FNgygLTUfx1hY/lBDFE/Vax/FA43SxonkxjyGwM5gaLmM3AbjMEx13wExn9pmZmZ/OHq8zHTMz9EdczMzMzzOEUsWlaWXto9GumV2zF4FtjO1tq6euywucEadE7pSrs1sdo+JarajM7TTj+FK21DWoXFdSaaqw7ZgJSOErsLOJmZ58zU6jYulqJIHTUW7F0HFxPGsuxGfJzN0VoGEyIxzMMJTVdbP4tKoYmFovMZ8xTuHiYh4n3Q9Hu5rByWyaFxDwoGYvioHZjEtmNit4YbYPEEWUEbjqhi3VFlzK321tmxlHt8lF9rQLxjlTw3ubdgbo0QS04Bn6WfseLIvE3TxBMw8EkzM3f4WemOmOgHtyME9T9cNjro7uzdXqFuUwuzNdaNOLLTbZXQbLLt912k06aescQsuLrWtvxwq7dJp9N8qi7dPXbcNNUNYFl+pZ6yfmdBSqIu4R7OVXM1WpFYrRnNNexPMdwiFfmmutNb9wWV60++EhZ3RBYsDTfEBeU6QVi3XSmwWM2sGaVLFzumzMBGNx3Fggz3G3Yg5mos2zZ24bP46s7RXgO++7AEcfx7cB+F25jnuP9z2z9GY9v6/5zmEweTYMNZuDnFda5PgFckwnnHBhEzM8o20OYB0A6nznpmK3PmBsRuD/iDqIT1AzNv18erT6zsgamzUWbuzLrRc+awUudavh+iCpbZ247FV19uLpWds+E6dlRrOWsShLLWvsZtx1CHNjhpU7R9RtFFLTU6haKqq2d66uYTtDBtW+o1S4cuG0GrWqaugtChBdOSJtmIm4zT200JbqnuLPkdw7dOwUq/CR3axl3PDalC9uG0RnjHtUErUW3WO3I0tGGufYiHairiKN+qMtlr+xhtSz+NXHuYTGSR7j5PXGBmIOT7ogj+AMArhf+kh82ECf8jyOY3LDiEcdP1mZ6mK+IT/j4wIYB1UEdD+AfTRq+zU95ZYJotP3aiQopJ1utZwHDl7J8P0fzBY5l1yaVL7++ebTvWualjZrqx3WBDSjTbZbatSojai4KKos8Sw9w6rVAhnzK22JtrUaG613t0eZdQUJh9AExNsrG2VbVV7XuFFaLXbb7FO4te2yhv5dOncu1N+2bi9lf9OnoG77Et/msb3W0vk019qmXvtFH8lmMC377BnWuJSmXA4xNvO2cLGOYq5KpweJWOLmitxZZ7kGSFwP2fc7e0AcDhennqxmZnPXH+Dn0nos8AwLnr4gMJmZkdT6s/VFTEU1l7VrTTafXahmOiAXS66wLpQcTR6FrzgVpbaKpc/fLOM7naDANnutVNx09HZlloqRd2rcutS0jd0dszV6pTHfcVqwFxtBL2d/tLGRXGr0O0ro3YvTtO2bYFgWBOQI3MENu2q5jtz7D7ojKo74AufeFGWxmVpsXUWMI/wDAq2bVqr2JHPGqfe1dWxLTiLzbsJ1DjlE26Vl42ctxMnpiV1xuAEgXiwlrCwCnk1ZENmIScKst+5Vj8J+sRR7zz0Pj/KPmLCepghgPq8/h06drppNOmnquu3E2F31DGpNSS9VdXv06dqu/WgV3sTN26mZirulaFk01O1bLE09fba57blpWkm61faLLMDWa3fOy2PasRO89j9xvAqVmal99EuirNVVDWc7IEmyBZtxGjNy7Rz1WfqUqS9Fa1qSS2pt7Mf2UaSvuXoOZq7e1VpqswS0++ke8JiGvc9y4DLNnN3FWJiKnITYjxTuayz3A4jeFWD2pn3A5g4RRlgss5Ycw8FJn2wnj/IPUTP1f1+AiM5StJo6Stmt1I09HIo0qdzV22izXahtq/DdHtHxPV77NzLUx9FXtmnqdxbclKC8Nbbd8qj2ETSKtdd94prv1Csfmdo+5huse1gozsAySq5Pw23uUS0ZiDi9ebF424PiKZ+wMxvtbk/snI6t9koYVt3C1nexUWZ2vbc2jr2aeGag9/VE4XfLf7ahi1pWnvcbrCsKc6v8At6abznMtxuQbVMA427mAGbnzB54Ed8ypIBw8/TzxXng/UH+AT0HU+kQ/jaSkolda1V6i7vakN/HoG7Qp/wDH0ta2Xam/YHffZe2W6g4lbsH+ZZENlmrsD16VGvYvnnR3e7V6prm6/wBCAzxANoQFhoK+yYRBLofBjNmI0U5XyHOI0/Xo8pF8o7R7P4Qeaq+9eBifq59ldA5dtzMZ9z0jfew9qcEDJxMc383QyuzEWwYLZj+Pub/nhEyTG4n9a+WxkosezdPJbitmh5UeP9UfjCfvS6hVr12p2VAjtBf40s26ep1rq/8A6Gw3ag21y85v9JOZv4staxum446gdmctMytRK6ntcbKhp1xWDlVsDTUaxapZrXJ+a3Q2ZikEsea7IH4shj+ZiY6L0/S+TzDPh9WKxGmq94DbrAP5fuP/AFpRm9/H/QEPg+G5aNPE3ExT7i/s8AKMWtvZRyBusYguiysZdzsT7EBj2ZXP+cOp+gIfwT6VYoSzOAMQXMqzcdvTTru1DkF/qq204JmC8SlSWuVTu7C01747Yp+H3i6m3KPqwTP0Om8idybpXbmeYR7m+70CY9Fa9ywYqqX7T5vfJXgeHHEr86IYjeF8r9lhxLTikjkxvJn72zZ7tu+57Mv/AM7sANsRBHb21p20tbdZa0zCfQfofv8Azs/UEx1x690yfVpP/IHj6gBJ9qzdASYxzKsVGrTLUj6jvWXXbj8JfF9y7hd4Oltx8heY2ibFlJWGo7cGZaaax+4a+bB6h1M0Ve+25hB5sbFVn9jCHy0XirTDFTfbjgeLvs1B/hMMI5IinDVYELbV3Hdt4siifvfsZMljeFCqTLDlvrZ46/r8zEPoPn8MfRz9HP1txx0HmtGJVKdHVm3UvuDu3vAtNdtxylFRMKQebsBbzz5CoItShvEFm5LPJ+hjJ0e1EusCXJqP4b39p5sfyYft/wCKvtbx3MN3llrZa056EQrCsIxNxWZMRlUdyeW8dP2v8dYittqPrHqx6sH84/kD1CZ/Mrxnftme9HbitP8A87mWcH4bZ3NGpwuYzy+wx+egimEwNiMYfo1W9qtzvYNCOf2eY/2n7KBzU2Vtb2McuOITmeZiYhEIjLHX0czMzB5ezdE8s/s+qPVn/CP5BMz+du4T3RTwTkhQmjV8Oso1J0kOGTJljFS4yOyZ2+SvTPqHoPX9Cfufs+W+2uUvhXfj99cTEImIVlq/SHUekerP5x65/MP+GMmWNKx2E3Fo8HtFvC/DNTsliwrvCp25bDncemPonqIIPQ3iziZxD/SWyQfTiYhEKx04f7vpj/T/AF6h9bPT9n/BGMvY1j1kKseN/JdYQJo7/mtLjlhwRHqhTnbiHpjpj6Agg9OemeM8Dpj0frExCJeuG/8AkB49Tf4tZ2S32n4Zf2dZibeGrhTINUdMKRNsxMTHoPoHQdN0z1z0EEEHpPQiapPZ/wDHj6H6/wAbxFbuJDDCss+5pibfXjqOmZnpn0joIOqDA6mOu5WGG9Q/1T0/X1P11HU9B4+iP8H4a2/4fDCYTLOST6cerHUzd6cdBBBB9AiauvbZ/lj8HP0T6j6zjP8Al/BnzpMwmMeGMsaZ+ocCF5npjrjqIOg+jqq99f8AmZ+p49OPwz5/zfhFuzVkzMJljxj1z68ZmVWNbM9AIB1x6B0EH0WE1Ffat/w8TH4J6Zmf/hQSrUahdVp93LGWGZ9OeoqYzAWMSYegg9GPUPptNZVvr6gElPg+rdW+F6tIPhepMbQalIuktZl0FWNVouwn5P6z+GBD6/36/wBek/R/f+NptS+ltS2vVJnl0zGGPQAZXo7nifD1i01oGTMaqNTGphrmPofvoIPpkSzTP30+D32U6X4XNPotNprt0LGbjGbAJiePiDInw4/lH8A9B0P4J+iP8wEq2gst1Z+Uh0RnyEX4ek+UpWIoUejEKRq49UavEx9MfTIgbtuuFgu3wYMLAHuxr/f2o1aVOoLX/FnVKvxx+GeviH6OOn7+vn/M0en+W0niN1PItO1PViMseuMsx9IfTMIlV3bm4wt05MpWpWssO1wVp03N3xHTd+j8E/kk565mf/hdNoLtVNP8JqqPk/v/ALWHxNS3u9eIyx0jL0H0B9Qx1zEuNcG5x4lVn82mZlOoHupXM24OCBrdD81UyNW/1z/gj/4D4ZpRqdT1PAE/flmOI7Z+I/RZYyQriY9Y+sY4gLIWsGN+1qrAhuPeNSha/MA5mr0desGu066XVf5J+iep6fr/AFtL8Ov1E02mr0lU/UPQcHwD5tO34h9JhLIfxTDMQrLFxNHRvUjkbiF8xvE+IaQajT/5R8/U/XQ/6Wk0NurOn0lWmq9DeBxM5gGZn3Dzrk9qtuX6JjxvWPp59BhEIlk/rpRNznIA8fvyf2Thj5/xcdf16sQTA/2K62tsr+BmUUrp6ZuE5MyFAn7YQCE8QnE1bbNNo7M0ZmZn1mPG/HIhEb+4Egp9mZnjjq43C1e3b/kn/eHJr+FamyvQ/C3pu6YmAJvyQuIfFfLGYhPW1dw0/wDE4ebpumemZnqYyxlhX0j6B+kYlOHijjA6FevhviS7df8AUP5X6+iP80/R0Ok+cu0mhq0Z6Zm6FmM2Znjo7RF2r0YY6GXWLp60YllaboDMzPTdMzMzDDGEx+Jjps3naEVcnrniEZi+Ry1mno1C3/BnEsqel/8AUPQfSH+DVTZc1Hwi542kofTafR0aXpiYmJieJuzPEJgXqYeemSJdUNRTXAYDA0zMzMzMzMz1MImOmPwvMrTtquCN0LYbHTz0bzmDO2XUpfXrNC+kb/5rYcCLTY7N8P1aTT/B7rIfg2nWaXR06ZfEPHTGemZzPdNkzMdc4njqZ4j+xF9AMzMzMzMzMzM9MTHQ/grUSMhYlXKgKMcHkqeDB90IzOWisVgcGYltS2130Np7v9gfmqrMVotdqvg1hFXwrTVhPh2mWKiJMwnBHjgwgrA8/RBrndmVPTIm9RMloBjp4m7MAmc9DDM8arPyog9GfTmZmfSfwFTtjY7QLtnifv8AUHE/X78m5TZWlprgdHhSe5YGmp01GpXVfC7aB/q5/P0dL6jUKorSEzJnMzHETkHkB8lk3QWFCrBw1c2mbYEgr6loFzOB0ayHr4ayrfXtKsPqZmYOh+vVRxgCfqF8QnLf8T9/rxA++bbdMwsqtU0ISK3Wbis25A4M+I6E1n/5P4VpxTpYYbZ72ioB0PIxg5zLF3xLdxZRYrK1ZGoM7iTck7izkwnE5aYxM9G8KBB0/beFM1VAsX6mYDFPQ/RXTzYsetJ2Z2IlSpN4mT0NmSiZjCHxP3+vuIU6a2u4OHorsJruriaholgaFZvm1SeVHxDRrUfzx5Y5aD159H69Gfz9JordWVUIkMwo9Vg2xW7gsTdEtxAQR2Ez2Z2TBXiM0VYSFmN3Rs4XlfsPQzEPtM1FGfqiJ0Prrr3kKFm6G1YthzvYQuJvWGzE95jfbXXOBB5afsy82NdWfZam+MnPftEXUrNtdsegrEuaLajTAMxiOqPNb8N7K/4Q/wAxK3sbSfCdsUY64ydoyzqsXkWtEQJAOT4YNWyuLI6bp22U73gtncm4mBemIWAinMM8R13Sr7epGQPEvpx9Veh9KqzFaBOBHOY3ugUmGrkI824m1jFrxGcLK6eScdP2egPv1Kc6U/xs5RRfU8xU0+XQj5Z1gvIhVLg+naYKzuOIuoeCwGav4Z3J4/wR9XH52l+F23SjTVaZev6ssYQKzBagIYoCHjAnd22MMh0KlNQ4i2o0wDNk2ThZ5h4HLQqIMYf7RKmyrnbAQw6HMAinmW07D9E9BAeD6EqZ2ChRwAMk7YRl9sxNswFG8T3vBWqxnijpzPMH9lp2Oy703Gi4MCG06MTpXE/kriamHbYDS6MNTgi2t4a6p26Z2qjO0k1Pw5NSL9PZpn/0s/jU02aizS/C6aPUfAA6vYElQ4jZx2qxCeyqujTsIT2psmGm1oFE3ckdLG2w/ZFm7t3TnT2A5E/cYe5vH6s08ZGWYPox1PVTxCBsFbMaqdgMzN2Ss4Eyvo2iYUTfDnCrPJnJC21s1h2l1DLVa9JcJaPlisAtE7pWLqVj0I899DJqFM4cdmswUVwLthtQQ31zuJGVLk1mjOn/ADcf5Wh+Htq5VSlCdf30Pll3wKFj3RE7jdBMl7bj/HsOU+YABbG6dxc7iZhjMYA6Pu3Y4XmoTUJKrts8qqhOh8bsg27YLczeGOd0HlvdOzlmoAnbfpjqeldbNF0xgREm4Qzd7+4Me+0LD5nAnM56YgAEHJn3Q8Rh3Yulrrg5BYK1iixey9ZDWCDUtFdbYakm1qorpcr6bE2kTdbPeZsgSDTOYumE7FcNdONR8M07B0etv8rH5Pw/4abIAAPQOuYdRCXsYJkgACHkmYlr73QYrwOpGZ46WcLQ5N8sXmV/1sdjy2o1xXZJ8zPmU6NXmEweC22C0CAgwAHoRmMMzs5JrUT5dc/LpBpEytdazPTAlxULtYBiQFQvB9uGhKz2zCmdpWO1RMiHE89CeN/IQ2QnbADLNRXVM13oVtWd9xF1Cwqti21Gs16giKy2S2oyvVTNdg7Nc7Nc7NYm9QPd0a+uC9p32M1Gn+crPwhpfpLtN/k4z+R8M+H94+oeOh4gBgT3AYEY4GNo/T7iFoWZKkH0WvsXHHkaf+2P9sU7bWUELb2yGjVoZ2Z2HiVmuZM3Zm1VNmVPDAoRMETLQMZuM3Td0yJ3axDcgnzKQ6ysR9YWmHiVmLSOjTGIG9o242RkgXMxPE8DLPAk2Cbt0LKksvZ5XpQS+Arfx1i+uwNp9wIs0703C2XU7CCyyq0Wx9PW8+TGewcCqbFWHUVJG1cbfayrBRNqpM5gLsTU+fktPZLvhFLJZW9Vn4mfpH0fvpmZ/G+H6L5u4DA9X69BtrWcsCdsAxM8+STzdqFpNeqVmmIJman+mvlAcxv49SelRzVevFVm+W1dyZeuDVMIltbwOhh1NNcfU22TTOMTiGtJ2lBaoY5g90yZ3TO+5ncYziFkmQYVzBXFzFq4CAQtkhveynMA5y4IZc5QtgE8CGxRMkt8xWs+aSfy2zha7H7ppqljsSFWpfdqmKoIbBSBhltq2Sq0XK9HJrge5Z37Z3rSPdNg6eZXp2wAEHPS6q62VZK448jy19CapNTobdMfyM9T+fVU11unoTTU/RbkEO0OmzErSuM4SKD1+2Pdi/2agPopTVfWRnOZkGGU8VJ51Yincg5it29TLKsSq7dLag8srZYVBnaWKoEAldWyeAOJnpjhkzGqOQeXqVyaGWdsztmduCgmdg4UCLxO5iNaTO5fn5iBYLCIR0PTYTFVZgAvyooSKgQPcqR7DYaquNxmAgtc3EAVVK1tjXuryvuUHIYNp2Rq9YMZDjZXnsCfLzsCdqudtBNyicwkKj3locCK1hH3Cq4s2Budd8HJIjaTTtNR8IQjwf8AX+DaXbX6x56GfbGurUHUNKU9vnovPQairf7XhayufOLGuueKglGdn6XhvF967qdM26gebxgizbPuj1BiLSkzuWyuuGqrIrrlYUQYSbuKyxb955LQNkEGYzMYn63cFhndZGTMHaWNhoBDXiKnAHbhGQA1TIwsCMUmQRkQviYtMOoQT5uufOLPnWhtsbpXVgPZtirsW+3J09eI2Glr7BTXx/7WY6bUIyvHRHJ0uIK9Qs26kTGomNVNl8WgQslSo5edpSbdKLUUllfe1eluzL690rt3kcweOjajdZ8Sq2az8/8AX42noOovVQi+tfu6NnDgNYFlVQnmGZ3xioFOo7tuo0/NN/aiWZmBPYIpVocnofuuO1TzNN7LH4YjIIKwMVIuBhCutlLVzv2rPm4mo3tYbsV17Zcdi18VABYMPOQESER2dJ3nM/kjd1YLpmxhtsRd3G8Rl9u3ADZP7erEGZuXcb1WLfuKrqDFwI6WWw02LNs29ER3iqqFjtZV2Nbb2pRX3CYzKImbrbLO3XUnYrH81nYq3cie7JNqltSyn51J877TrLYlVt07NSmoEKUDDetdt4Y1o/erupNk094dbqZVZ3R01TEUISs+Kcp/iY/C+CUfRT7+hbB7KtAqCeZ5jZfo91dUK12rv2ltMjwaLn5V8pp0BOAEYtaTLPtxuSht1N38WoIyEeMoePUV6K5UpaGj1o0NVM2V1zu7o2o7E772XIf/AM+tYkoN0qt7qtZY832GCzcGaxW7534rE7vAv2wvvnmKJUWANXIX3bdigYAVLH7TRkqBfTu0zqa4ustETVI0SxWnBhRYFlhUTuvfKlVBbcK5TUXf2qPcJc4aULtrxNW/CUOIr5OTnMzC0eitig2yyoWRRtOAJ9jt9t9LUtp7RatgbT6it1uW2rutRqd0CBW6Od7vXmfEf6P9bS0/L6X1GGV/f0dxWDqaiDqS7IuIelgsl9XeFVjUv7bE/mqZdUs+YqMFjWQVjOYAckZFR9mezrLE3pp33U3KcizjPDVq4aiFGWCx1nfBhvrw1zmbJXpJqHC0Mpsp09gdKV7YdyltTbkdVcWBlDUqyppkFexcbQ42Yi++YXARHjINg1qyuyto6hpZoWge6orrLhBqqnZPcHorafKEz5a1YE1Ig+cnY1TRdNUrN4s1G4VVFzgIq8C23bKa97nklto09ZMPMs01ztjW1QaynOUM3MIGDsTgFhZTnM1NQcZ72mV8XMgIXdpr2UX1kPTbVat62VLdBwssOKx0tpS1NTpm07f6mhq72t9ZhaVH+To6bp2KzFQLP0zYjcJTczt4mpp3BLCkXUhp3EyTp1IY2AYw2oQSm0WEzgXXjfVS/cqP8OollbZBIncgtHRq1aGlp22g0zNK6tse2qkANcXPZ0+nUrbW/sOx5tQS4Wu9feWYFk7mLLazKh/+fUlkIbeFsna2ulyWtdQlks0j1yrUXVxdTWxPvD6QTayHOIuqtSDU1mC2kwuk71Kk6nTgtrTlu5aaqd8GFC4xfdtgEqTtIAY/81zPNRZdWvztyxddW0yts+Vqy2EWqxLoMGULt0oO20rumlbi2veunt79VtXdSu9tO+1Lq3rsosrtTUHpcfd1dFddVpTp2/CHrz0z+R8FrzqfUYYZV/aehnfprj6l2FX9Jg+29NlgO6CzD3afMNDiJp3aJplUsQq2WtbKtMzREWlUfuLYMoMGVsaNQyb0VmWK4aMoaGqFHm9li3QX1zv1xtUsay66Jp1rJYJLXLFKyijDW2dudxlIsrnu7bb5jMR1KN/DbZXiNUaoCHldgZrqe7Evsri6mtmNSvLNOyKjlSmq5+4HSoY1TLMTbNk2TtxUyVo2zd7UHcl1+IBKq+30vt7KUpsq1W+2+rU5L1o0t0tE+UTC6cQ1U0rRqajbjE/7sUvpt/cqvJq1bDIuGGrtF4dFsU9zRtXctsroSqzoTlvQyh11WmOns/Dx+f8ABV//AC+ow9Kv7D5luAGXazfbWCtLnFmMS1d9dL4NlXdAueud5GJuqned4KMsqKkJmSYGw3glQHvTuLpbd6Omei2MJ3RPYZkw1q0+Xny5ny6iD2x71EJYyqrE+0Im0WVdxjTMWRGcL32gvRoApnhN5pntc7ObEinv1um/pXY1JqurdnrVpZU9QRikXVAwOHDVpOzXOws+WUTZSINwVrqwV3XtZcMKpYpWK5jBLACpTdd+7NS62C+u9W091MXU6rPeujWayHR6m110CJK8qj+2xhsup9stTdVp7cB15spKGrVc4wLtOQlRPZjnFf69N1S3V2VtVZ9f9dT+d8I//wCd6T0PkxP7v3G8v5T+0yz+xvA+3UcWU/cwEvADiV8Ut9ln97/dq+K6/wCt5d9lXLVcaj/q3+yCN0Er5DeRNaxz4i/2Wff/AP6D4P22cjPFPNjcFQGpvUBMALX/AOU3AycH7Kx/I3E1fGqWP9umJbSUf3XgC79eHpJzCogAxjFdjM9w/r1XGmH2aT7Txpqf/H1f2Vf+Mv8Abrf7x91JIJJn7fxceFA26Ak6S/8A8fUc0f8A+w/fb/XXzTQP528/DudMn/kHpd/V6/in930//8QAIhEAAgEFAAMBAQEBAAAAAAAAABEBECAwQFACIWASMUFw/9oACAEDAQE/Af8AqaF8ahCEKiEIQhUQhcZCEKiEIR+T8iEKiEK1CEIQhaLs/PNYxjGO1jHryRNq6aFtzYqreY+VFsXzHysxtvYY+DMcBjGMY+guYxjyLsr5CMCzvExdR6aFHeYxjGOq1ninXWyhYlszZGouGx788l672YzrjvSnLOdbL+ijRnLF88GPnlorYgmkYHyUToRZNIyRc91ZYohac1djwMYx77ySQPSjQfLWBj1ounqsbFRCukgm92SRdPWgifeOSL4snmRgeGIyRe732Yn2IR7HfNk457bIgnCqyRc7J7canl8CyJ0p+DjSn4Fafl8Kx6SF3WO15Zj4OLYnKqz3/G6PjoJgVkZZJ+Tmfk32lhicrGP5BjwRahC57xxI8E+WkubA74FaxjGfo/VFnYx0XRmv9PdFahCFiVn9oj2IQ+eq/wCWMdrGMeH2LRmODNHY8CGeqTFULChjxer/ABPLgzT1WMPsZ6HlR7Hn/lYpMcDyoqRT2e6O/wBHrMxj1Jjf8rZIJpBNJtiyLosmyMUUmkWT/L//xAAhEQACAQUBAAMBAQAAAAAAAAAAARECEBJAUCAwMWAhQf/aAAgBAgEBPwH9zJJJJP4+byTeSbT+Dknz92yMjIkkkyMiSTIkkkyJJ4TvJkZGRkjIzMjIzMkZIyRKJRKJRJJJJKJJRkZGRkSST88Xliq4D5rvSxq8kCqJ0n3KWO6Y0fQqt6CN+fjfhD8JjVqattojovymO1NW212lVtP1BBBBBGlBG7TVtRadCOTS9p9tVbL7iYtdvupietiYmJiYmJHYkVWzkzJ9tVflVVAnOtiRrRyFVOu/MdlVbCRHcTE9SGxIgfJWonAnpxd2iz4qHqJ68XZPES1EpFTru31wEh+EIa0YMRLa+vneghDGr0q+JF4/nmL4mIqBU7k3gdo+FWj50KzIGos2SSP6EvCIvAlwGrJXpQ7R7gQoMUNEEfLN4kY7O6urQRw48fVkiPSUeMiSRv41aSbNxZCQ7f5dFPHbEI+2JWflK7HpKzvIrO6XHq8JeMRUjpFdk3jQQjEiy8QQLquzEyUfwdI/58y9MXXd2tRO2JBBBT2VZ6lP4Br+alL/AL+VT/APUof4CpTqIlGRkZMyZT26iNNeae034evPYny9NdqdpeV054MifNkkknip8t7sEEfGnyW+YquO3uRpKriN6U+oIIII0oItIqugvU+ZJJJ0pJ8p778L4J9x6gggjbpe4/KtHyT7ndZT97j8rpO1NW2/K0P7xaap36fTF5Xl7y9Uffv/xABFEAABAgMFBQQHBwMDBAIDAQABAAIRITEDEBJBUSAiMmFxQoGRoRMjMFBSYrEEM0BgcsHRgpLhovDxFENjsjRwJESAk//aAAgBAQAGPwL/APhqP5/3y2z/AFn9lvW/+hS+0D+1StbM98FwnuU9oXR/FalT/PsXGAW7uR04ioN4z2WbzvFRtDZ2X63Rcuy8/MVOzsv7VFkWlTd3FcJHctx7T3qDhBVuezOERdDW87FNih/+jIun8LdVSLqf8L/8t+E19G2bj1WCza5rNBJSAHRUcu0OoUsP90EaOPVbtph/St8sPNyh6VsNCuADm0xW6bojamfBVMOagbtVAGA5KpW9Ln+bJQ6KB/A1VVmqnwUnDvkpg7dI8tUXHhzP+8lh+ysw/wDkz7tEcTgT+pdjwivu496gy1ezkoNc53mF6/7NiPyCBW6y0Z+tmLzW8AD8WGRU4f0rdHjdmpvaf1KeEdHLcw2reRgV93DqqeCg0ElTkohjodFp1K9FbSZk74UWOIjdSaqVVNdnQ9fZS/MWo5r4fYyCoqhfeNUS8AKWHxXCb6qQUypOK3m94Umx6KTSs1wrgXpLUhohIadVhs4NsRzr1WqwtaSSaNC9a9tnyMz4KFnidzMlutxavJgEGMZg5sE1vNtzzMl/kxWnevXYCflkVEfVQsmBh+Oq4iVFpHeFvM7wogd4W+Y9AsT2GHxUipYsOjRhC9U1oGgzWOB6E0W/Yw5qEJ5TXo7T+kuy5KBw2Z0fNQEZ1LWqWKOUlVOZGdRdXandueHv/cA75L7p3cpscO6+YXaHmpOCp+NkVpsRMgt1zsXwuz71wgdyqb4uPQKhK4VKq9Y4dFvejhoJKTwFu4XdCptN9fBbwKzUmuWO3NJwKi2zgMsSxvOBvxPkpYrU891qLWk4RUWIUmDq5yhLoBGKnDvyXH4C6qzK4YLJadFL6qcCs1mv4UrqLdqoFUUUBmKOUJ4tNVHGQRqpj+oIWllv/VRh3Rot2B5OXBh5rebEaqMFSClsboAttB2/8+/ZVW65n9RW9ZR6Bb32Z63/ALE8/wBK3rAjq1StHtC3LefNSLXdFwPCjhxdyxwIc6TeXP2GV1FwlUP4GS3hDotyB5qZuhV2XNRp1XG36qEC5brWt7lVR+1faPR/I2bkW2LcI1qVvQKoR0W5By3iRyCg2K3sQUiHKEFTD1UmucVvDCdBkFvSsxQQiV6uxDT8b1F7zi5KYJ/UVCg0bdAS6XZX02JQUxsSu0uxdq6BXRbrl6Rtc1yUVvtrnooNM1AyUBI8lHDiHLJRDQRyXCt10ORVDdzWI/eZ/N78kFFzVu27mj9C3nYueGBRAtX/AMLd+0S5hTh3LNUcuFTa1TsyqHwWbei3bbxXE1VUX2h6BTaD+py+7s1Npb+ly3bZv9Ul2YcioYmnkSo4VwL7nwcvun/3LhtPFf8Ac/tVfJSavuyvuiuDzVbMf1r7yy/uXEzxVWf3KrP7liJaPmKg1zYKL3te7wC3bayb+iy/lbrsZ+dqhCz7mYSsTbZwd8Np/K3o+C3Xu8FN0tIIejs4cyaKOKMcyqhTcwdy4iVNzlR7v6l9z5rgX3IX3YU7MKTGjYqpA99+WxkqhVXEFTYrdpd0XRYm6rEMpjopdyBFHI8lKYPmFq1f7mLsH9pWF8wotUHcQWNplqpSdophQ+q+Hovl191Q/Bx9FiOXJcP4GYBX3TfBcEFmpGC4ge5dlcPgVRyzWakTC6qp5rNUCnZt8FwqikwAeK3WT1K7HesIcGjUVUpn4it50eqkFRfdqAa3Dot0YfopkBvyriKyuyVb87qXVVb5+F1VUriKmXKhVCqLhXaVfG4gVrdMozvjc7ooaqPNTyWD4TJOYVFYMqhEclyTm5qajWKk6S0OS9G7j+qDxHByyWKR1h9bswv4UQ0d0kZYh5hbu99bvm+vvedFAWZiqfjKKipsUVFS/L2NfbyuzuquILjCy8VkuFZqJUFhzKkZiaiM1FEckF3LCj1UTpczkuslD4grJ+TpFQ0MFH4SorpIoPFQsQ7U0eSgp0UIwc3hKg7iBn1W7wH/AElYmj/CxNpppfOfkQo/6gp7p5qFCufvbeopEQPwn8XVVVb6KipfVVuos1VVG1RUv4lxrjC4ypk3cKoqKiouFcK4F935rgPiuBcLgpXTU6qS/dB51kNUcPBWKLTQiSA1Kd0TSuihmq5opycYUVmMl3xToVa6KDtQuTgiKhwRBmvJH5Sn3YhUZKIWPlB3RT6OUDRGCx2fe1dFJQKOGbTlotVq3X3vJp6wht19lVVVVVV2a7VdiqrfmqlVvoqKpXEFULJUVLsrq+a4j4riPiuNV8ll4Ls+Kp5ql1fNStPNVCyVPNZqB8FBYW01X7r5RIBQHef2USOHJB57lau+ELD8sSrMfMi7V1FiXinIDUqXaME3quYJCdo5N5FNcMlHKMV4tXcnM1XVQR8EWaLksOVCsPbZd9RqsQ7lEeGi5r6qXgog4X/+yoIqI96ucGw6H3VQLhWaqpEHvVCpg+F1QqLNcS7JWneuJScFRTY5TJC4wuNV8QqDuUifFTiVBoKnGOgVHLtBCLYur0XzHyWBtczdD/YCisT6L5XbsEc96q/UYpz+SZqmDWJKjqmnku9WYTB8yBUNSj4pwR5Lq1E96gm8wrQfC4LoiFHuN3Nv0WPTdcsWSkjLmojjH+oLE2n0QX+5Xc9VSB+ql7znRT3BzW6fdtFQqrl/hTaPBcKzVCqlfeL7zyuqFxBVChiauFqpBdpRAh1Xah9VQrRSB6qJE8pURNdBqVGpXVRyyU+9F9p4DLksun+8lWtTqrFo7SYwf7CwCgE0FDlBGHRMCagPlVnHQroh1Tbnt0KlkiOS7lZHmrT5mrFqE/8ATFH5ggbvldIrDooKR3go0B/0lG0hL/uD91HK6CioVUZdf5X196FvoyTqove1nUqVoFunF0uofdNVXYpsUU7uFfdldlcXgFquE30K4SuEwRc8KJ6Bch5rD4qAUTIBYj0a1V/ygX+CNoaCiLin2iagO9Nau5AJ55AKzblAlHoukE091zuYRHVdQgmO5ofpRGhThyTVDRBc8uqDviFwI7X1XI15KBqF6PsmbP4Ucig1x6O0UD4XQEMX1UpOEp/QqkIZXT941PcpNnqZr1lni5lQsrMctFvPNm3/AMbVN7j1Xa6wUsSz/F0ursVvrdRUuoqbFLpqOEXVcVS+i4Sv8qbhFSMVrDPJRjIKUguWV8MlKtJZKFXI4amSDG9EGjVFo/2UfBOUck1Epx1KdyACKKHjd3LvTUbm9E8apsMyiF3Loui+Un63Ea/VBxoeJdPoi3z05o2dqOqh2TQrCeIU5hQUFibK0/8AZQpajXPqoEQOnvLLxQLrVrO+KHpHMd1YoizYDscUF94F981ccfcVVkqKYUxdIqt0zs5eKqF94VUnvXCfFcC4ZKEJqYC4YNMhq5QhujzUFDL638/ov9xKg2HcnEmeZ0TRQDeNz7U8LfNDFUzNxfm90rukrgnv5qCxap7fljdHkj1TE8oDUhWfQpp5Kz5OKhrc4IcwjyThrO75XItPEzzF2IcTc16N/hooHuKxZioUF+6+C1FCsLhh+0N/1j3nEKMTHzQj6U9WL/F0nFb01Jx8VJw71Mj3RS+qy2KBcK4WqbfBQxeC4zAKAKGpoNVG0PchaESyUVz2dBrqpbrPiTWMEfhGnPqoZuMSoCpkELMcLJnqoqVXSCY3ssCA77idFE5NUNE48lzorTwRTUeqZ3oodUOSag7tJru+7qFHSajkU3UGBuimW/w1/Sui1RIyn1C+bJGNW5KVDRc1zUKOCJh65tR8XvPE57AOYXFi2ajxXE1V2c7s76fiKKipsVVSs1mswqhVPipOd4qYJ6hcJVVw+CJcDLRVqqhRYJu7Si4S0XO6N8yt3xUXx6arC2Bd5NCBra2km/uVyoo50CdDL6qHcmj4VHmj4XfqKK6lO5pviU53zIpqcmd9zBzF0UVD4TBd6F0NJIj4hFAo8ppzcv2WA1ZuHpldHNtFg7J4V6VsiKrD2XU5Lmohc1Gjgo9o+fvIRdJAC1xfqW7E+Sy7lDF4KfmVMsHJS/8AVbnmplUVPZU9hVV/C5rLxUyLqrNZKUUCTA6ZoRk3nmhLoFMAnRTm6K1cc9mDVOJJyUan6LRg81GFTLVxRca0uhmVHIqOTQnHuR0AkuklBdFZDJz/ACCHS5+gaAurk64ruQTOsUEU8dFaDUAorvuI1Qdo76oi7og7J26VDRQu+qiOA+SjmuRvgVPi11XL3jDE/wDSypQbj9FyqVEtJ5uMz3KXqW6uE16tjT8z5krhcz9ECt8k96p5+ypdX2db6/hJN8VMw8lMrVEMG7oM1jO+7TJR+8tT4NWKtoc9FKb/AKLCK7GgUkS6UMk4xwWX/sp7jR4wW8MNmOFi9K/io0fCuQUSsPxcR+VBd6gh4lQXRF2is26NRUNCE/m5M6oHkgiu6/vXNdU06i6N5GskDdDWSwrEeKEHBRuh8MjzC1UMlyUFJSUPNFxH6ly94Vgo4AVE2TY16IwsGlqlYsZ1Cngb0CnD3ZSKrf8AE5fCv30UBHB9VAU1GXRHCIkqL6KWxrcG+QXJQZlOP8Kf/K3q5Bc1yQY2pkF1ROiAUFFRuDaRKefC6PMoaVTQm9NnqUOqd1ujpMIIbGHnfHJEGWL63Q0XSR6LDdArmFHYmPVn/SoH3jhjJeriebnYQpvxH5WyUMYjpFcYU3e0p7Ol2ar7ad0gpm7UqcApV1USJ6L5fqvl+qmpDZmVJhe7mt4z0asuZWFgj9FFzlBqxmt0u5eldnJvRRQb4olcyoIC5ugKccogLvRu6AuVk/VuwUCh1RX9KHNpXmioo3R70dHTuByBwlQ+L6j/AAg64OWIZKORWLxUVyOwQREHIrC7esjQ5hajI+76hRtInkFBr3gdFitHxZraHCPBYLKLh8owtRDCzoz+VwxOoG6oOIfyAgt1pPIumpeBU7QnlBVGxIhcM1NsLq/h67E7pm6QUBLooARUvFbyoqbOmxRb8+WSgFurG67C2pQjwDzXK+FxKiiV+ooJg6lAa3cuFBvwxCKKce68DvuHQhN/SgULyLgfhudzC+ZtCizsWm81QXJQWHsupdh7LuFQUDXYwuCMJg5KIp7viYdSsQDIavosTvWO5GSwY4M+FslA2h8V948dFMYu5TYVAWpUrYHqoho7ioPYQqSUpqardX8bpdSV8h7DdCnNSU74BQzKiRdhE3mgRLj1KDQul3nfC7AhoK3f0IdEVzJudeBcFHkmdVh0btwUMxJRUESOOxOIIOFwKLdKKCIKMeIVUVz2IFRh4Z/5Uv8An3ZNbohzzU3FYm2hcBzW9bQUypHyXF5KWLwWe1K+pC4lN0bqqv4map7Ol8hdqeariKjCDViddBs3Ik51KgFiKhcTsRR5lFqgieSfcRpvBBG+KdcVZ9Yo/pRG31uxIHVQyyXW/G3OqiFjbxDzXI3R2IFbqgZO11UDX3ZElpUnFtm2mALetnR1VXE6uKiSu1dIN7ypMivu8K3j5Ko8Fl4Lej3BUc3rdPZp+Dr+FmVK+JuwtUSoNUKuN3VYb4rqoaqkgnFBG889mK71i1cbrIK0Pcj7EhdFyKheWosOc7vlKwnb0dk7+V6O0bB2XuuLntAQ3QO7arsVun7an4Gl1fbTWgX8qU7pKS5a3yXpHVN3VRvhd0uw53lO6JoR2Q29klaH5rgNrnsxyOwCOIUQKhkuY9hgeJfResp2bTXqoGXumUoclGHe4oHE1oW9a4iomAGq9Uy0cNYQCnhHVyh6Vp/SIrdY+Gpkqx6KUuqqF2VkqLhPuySjfPbxHhGxh02Sp5bEFBdNkclh0vnkupuaU4ZifsBqFHRYbo38jdzUR37c0QREHIr1O8z4NOihmPdNVMlbsua3N53xOy6KbygAzE7msVraYWcs+g/dYWDCzTXqqqpK0W9vLd81xKpPcvuyuAd5U4d342t1PayunfK+Avh2nInYggLut8buuyXJ5PaN3Up5TULg8bXnd5qGRQj+grnscxfEVXLanfi4LT4gt4QcfA9PdpJUTdJZKb2retSs3Ldswqw6KZOxndPa/j3LJRN8BfidxIuNTslRzMguZXS9rAgExgy2IKGw1vO8p0OqaNsOXJHR31UVG+Kjk6qhnfA+wkix7YhRjFnx6dVA+7ossz1VAFN57lwk9VJq4mri8Au1dQKQVfJZ9/tabdVX8LILed4LU3RJWFt+IqJoNqCjkKKPhsOcolOtNdkhQQGpujoNgcyhyO2QuYvIu5qGSmoHib5qN0CoFctuV0bMf0fx7rmVSK7IUAMS3WMHmt5x+i4oLec53et2zUlWC3nlRgq+CoV6uzENVv2kOihXqh7onfLYhlt8yobEOdwYENglYzc243FEqzPNOGRQ2Y3dbjoizPJBRUbsQyv5qGihs8l+65/W/wCF/wAX8qDx0OR91boXEY8lvNbi+Im6Qh1UzG6QX8Kq3IqOJ1i75TJesgXatkt0AdQuFbyk1Vul7k3it0XT2YCq5qJ2YLF4XQ2SdkNULuWx3qGq6bUdoO02OYqoqVMlG7EK/VSUDtcvov3vwvEWnJY7KLrPzHuqAUYwKotFI95U4lfdkrRUiqNaFO1j+lZ3SUhBb0Px8tjVU24lU2OajfC6GxFRv57OI1UNpre+7rcNgqN8FDREKC/UoFB4qLtAfLYxt7xqo5aqBrtS8NiSx2UGv01WFwIOnuiV8537sFvErQKkVot2S3iqbMIzVFFnmv3P4id0hdrtyU9rEdiO1hCF8svaRuaLwfYRUViChrMIP7jdyugeIVuguSxCbTUL6Lntc1+2xhtBPXRTm3Jw92QBgFO0MV6tneo2jjFS2ZqU1WB01WFgJdosUQLQZZIH3XveG1E7HNYjeVHYiobUkAioqNzhpsA7MLiMqhRyKgoKCBHEFEKKioFcrue1zXNcr4OmF6Sy4c+Sn4+6qKQukFM3xcVuqS3Wuhqt8OJ0CgW4RoK95W8cUOzl+Kp7eHsYXxWJ2wBs81E7cUVBBRR5+wjeNF1v53R8boX8vYfuprkpXm0sIAmrMiocD/hcoEQPufeW7XlRb0joFOCg1RnBRc5QsvFVLit94HmVJhPNyA3ugU3RPWMPdWvRRwjbhsxy9nC+O1G+LTnsjbw6qOxG/wCYKIXLZltSvlwrEJO1C9G4Y2jLMdFiaYt+nX3NMriEFgs4novWbg0U6rdkplRElUeF3JFlk0ucau0W94C4wW5Me5aFRcoR7kINhGirtR2OV8fwh6XA7I2ShHpdC6S5qffdG6CgVy2MQ79rlfEUWhGi356O1UW+HuXQc1F748gpAMCw2fio1PO6gVFvYW+ZXqbKPzOosX2m0L/lFFhY0AclvFRYCGanNb1NEQyjareM9mAUype2i6vta3SCqqoe4nEqKI02I7Z63R2MQvhdFQK5bHLbiLpIgjuUas109yVUokoOO/afRfsp7OJzR0UhdBsysdoZoTmZBQaYChTLNnCELV0fR9ho4rQqLq38uS0JVVOm1EqGzPuUYXT9pVUKkIe4ZrEbuZTW63H2ZBzWB18Lxobo3cipKCgfZxXK7Ryk3Cfh/j3JAXbvjtDRbjT1W8VhbVSMT5BPtnGTJN5lYRR0l6W3AB7DTpzW7EMHbzKkohUipS6qblTbnwjz2o5qEVi81P2lPwUPYS2eexDK/kEeVw5qPssQUUDcCL8J2YhTUCsJ9hG+IpouV2F3D9FhfXsvycoH3VMTWFsFJ3euSBdxHJYPmTX2gxWp+6s/3Kc61fuN+8eVja3BZdmP1Rdm6o5KD4t7l6u1a78DiteLJqxWlMm7GfuWJuqonYjdhzRN0BcPZy2/mHnskDKiBXMezgutxY5GzteDJw7KwxBhmPdW6SFOai4oOdpiRtHoWlo2No6dnZfuV6a1MbR+ZTbJn3IMh8Z/hb9APFY3VcYqFm2JQfacWinsS9lzMuqxvbiteyxq9JakF+go1YRT2dfxcb4KdL+aio63RWIqCioqN8PYnaxIEbMVEd92Ntc/Z4SoFHCcJG9/lZNtGy6+7Z8SDKvO8/8AYJtvbiLjwWevNG0dvF3i7/CfYsMoesePoExzqdkItZM6JotItFei9HYWRAztHbEVAxaMxqFAUuw5nyUS6eQ5LddAjiJyC9O5sB2JqEaI6XQE3aLG8YrU8I0UTN59wS2q7UfJRugFNYvBclhFFyChdC4KPsigRtQ2oZqBuxD2MDRQJmFJ0R9EHRmPdsTW7/qftOc7Oz168lF+9avo3Qc+XJegsTG0oXaL5KdUHzgM6LUhDE4wQAy2KqV2IqWs0XVtTIfKvQvm60OIpobxGTf5T3E7o3RdElY3NmeEfypb1q5bxidnDdFNF8/xkVBTrsQUAgFC6a63cyi7SnsRsx9tG7kpU2Y+KguiEaHNS4hX3fWQqTkn27h6sSHzIvMy6Q/wi3/9h/F8qIESe1yWP7S+eTGrDZ2Rs7ILO/BZwOqgovWEZVu6JzbOLiyZaM1uwxnyQe5xIFTqnWz93FSOTU1/ZPAOSxuzMYXektf6Wo5lZBctnFfE1/GwuhksWxGKhksNxOQugolRKksIo24Ju9swujfX23O6IugVC+PiqiP1Q9G4HRYozuEcvd+HFhsmze5CAw/ZmSs2a816Z4ja9hi9L9oMM8IM+9ejsQO6n+VCp7R0WEbrAoBTWGz8V9SokwC3GO5REyiTDmo5r/pSMQ7aJ+zWoL4RAMiFG0Zhc6b3WdR3aINs7ZpZyrBN+yt3Q7iPLROAO4x1fiTQKmQCJOZUMyp3wvwqHsJKd8vbR2el0F1WEKGxKqnXYiZuW9wjJQFSsXaNNmagKFHYAuqpqGzFRCko6bMNqtVCM1L3mAvRNjgh/wD6OWK0hKgULM4Wa5uXo2ysxkO11UGiZQFG1PzLC0LE4qDeFYF6tkX5BH0tp6NmeHNADiwx/QP5Q0FFijvGQOnNCPC5v3mq3ZAu8VBphPi5L0jhvnQJxNuXOcfBbsAAmPjusmoBGHeb5LmolF3ZCLj7Od0BdP28VE3k9y6L5lFQF8c1FCN/MrAi53C1E5ewp7GV0VNSULwQboxUQuandKSrdX3rvmawiWIeSxa0UGiJOS9JbTfpkFBqxGqwjhzUAsbvu2DEU70pMHaZBY2ess+ziqSnCMTGL3alRdIfROeLXdo0QoFaiIDQOFs0bb0TrMtkDGUV6bdNm3tGNVhYfUjRywsWGIwg70EGtG6NrkvRtIifIJrBeGZNn7EBQAUTGZU5HSp2ZbcFAVvDc1DLM3gLpdhHEUBszyvJGSihZCp4lBQ26X09jO6V8DdyUj77gsOeZRLjElYW/wCAsXaNSVo1RKwM7zosIMLgPj9Y7kOygwRw5/Mm2TJPhM/CoBCwEy6bhyW94UVpPOZ0CsrKzE3znkF/0H2aVkz7x/7IWVkP8r0bTM1OawM3WiSc7IBQbTU7HJbs9BqVjfM5qN0Gwxc8kXVxCt0BtyVPErdfDmFz1zWJ3cFNRNFADuW7scroqCnK4vdksZ4ioolYz2lzKh5qPaNOSL9eHZisTslFGlLua+pURT2EAud0tuGzPxUD7rr+HieHNYm8PNY39wQia0aEfizUTRNY+WLLOCOIizZGDG8uiFpAueZMjmtTVxRtn0EgrR5My5RVqwCJiMUNdFIeueIfpWFtT5r0lrxGgXpHNmaBWbWSe5uIfwmiPowSI9FK6AqbsIWM1vJKxzFnzzTXNOFjJiGaa9p3XCN81RVgpG6ECsVqWgdJrDZbrB2kXurlHJYbMF51WO0fFQHDmVCEB8I/dQbTVYW11UFidwhaXYQvSWkjkE4jNDnRMstJuW7QSb1WEcLUG52hUqCiionhHmickTk3bhleG0Cwjh01uGyPazuhdFYXTapTH5CGIxGiGJteFg+pW7A2hz0XyjzQaxsTqre1EG9kQ1K9NbeC9I4b9GtTWRi9wiVZfZm/9vef1uL/AIadUbe07XCP3Upko2to7v8A4Rt7SnYboFOZVmCYAWbYBehc6rQIc1CGFuqDWCLjQKLnTNSvovS2oM6N1UX+F8XGFgMtV6JkmaqAzovQvkwmTtCpKe1EvxH4QjEwagIS0WESQFTyWGccysZpkFhDsLc9SsFi2Qq80asLJu1QxmQqh2dBmpyC+YrE6dp2QomZcoCkYdVjd2aBGHE4wTrT+lqDYxJTn5WYwjrd9FHuAUO1msGf7oC6C6ezxbMNiH5QO7F7qnVczW6VUxkd0WhLiow3BwjUouj6tlefJWlu6Yy6BPtHcRBNwLh6sGJ5rC2ijLEaBb/CP9wX+4KDAMWqd3JxxSjEuW4J6aol3Ean9l9AvSun8PJfE85lRKioGmiLGHcGet1MQPZUXHo1CzcWmz/9VKfs8doSYUaiAYDnmsXFkOZX/iGQ7RTrR6ws7yone5r0r+FtAsdXdkLE4zUe4Jp+HyQDZaLAyTRKPLNNYJMs1a22TJN6oN7VT1vieFk1jNa96h3Jw0NxPwqOvsZqHNEnL8txhBupQsrDetHdrJqFm2Po2VPxJlg3jdWGQ0RNnSOFp15pzGUkxHog58W2fm5CyYISyyCwiGKpPwhelLoMW63pFVU09+VAgxjY8lAQdanidoq96jw2ObteiAaIHIaKJvNmw7naOt2K0OEeZXpTJlG81GEVZgQEDE87oOEVFtLobc1zTW8TzkmiMSsCwxgNEQ2ZzcUG0AEggghYslH6Xbs7QysxzXommODiOrkYf8qzs9Jm7qsDdYJtn3uXkE39at3cyF0XN5vce7anfhvgo5lc1C6GuwfyfGjPi/hQa2BNTmg0cHaPJWloe0V9n+z2dXQA5DNWUO05zv2TQSI6L0jzCWeQRNlxGiNkXRztXc9E5tITA2BZ2Yg0doqDO9y/3NB1tw/AhHi7LUYz+I/tf6NhgNdVvkWTOdT3L1bTD4nVKOIwaJvcpSYJAL/c1E01THChHtNEIIbBPK6VVizpHVBOe2dpRvJMZ2jM3F2txdnkvSFRR5bo65qy6xVpzcXIN1KHku+Fw5mN8M7o3QGSJvxFRuLton8nbveTkpeshnCUdBqibQ4rYcWln8o5qXG7dYFaGMS7d6qysxOBVrbDhsmENTbMOh6NjV6e1EzwNP1XoWncbN3Mpr47ziTHTmoDh2JgFYnbo5qqxOBJ7MFF33rqNRc4xtHeSFMX0UfBH0loXH4bOnivVMbZ8xM+KifFBjBM0XobMxGZ+Ir5voplYYyzKc34HS6XQvhCt0diKjcTsDndiTLNverW07moF5mUDyQ+I34agSAXL9gmNpGZUNJD90zkE7uXkhyTUVhyaL45Xk7MlDzUFAKKjsE6/k9rwML4erB7I+MoMajajgs27qHy2eEdVbWvaayR0WHNxgrT7Q9u6w1P7KDpOcMT/lbonOdmYpgpBglshwrksVpaAnRqwinksbd92T/4RcZvd5XEyACrLYLR967iPwjRSXNRzKwtEzosMsRE+W3G7morltm6OieYzKDQolMGVSoaXE55KOuaAyTtTJAc0D1/hd6L9aX96dsFy1JQCN2I9y6r6dVz/dQXVDRQbT8pRRfavx2jpw1RaDvHcl5r6qHwNMeqdZwk5B7snqxY0erZN3MqfG92J/7BQT+sNuHZ0UXXw2ImTz5LkFALE6iEq0ijvSbxO15BYyIOdOCBF0BVV2Z3Ru6ezx3hkYDtHko0yaNFDJf1KSlQOhcBpcETyUdmOiJ7ggIzKaiey2ihHqdEMI/TyC+VqJUkech+VMQqhGjRAXFrTI1uhfZj5k4jM+2jnksbzXxKqGtGSm4wULIAdJlYBO3tK8hom5WTJ4j2iuLiknCEMDodyKxCimobMCjcfZBqDRlexgzmo80UfFRUe+4m5pTtrCMlDJi8kcPCJC6C+Y1Nws296hCa6IflvF8LSfL20l8R8r8IUYRtF6b7SYuOS0s2ZBS7I8E5g4HCupXNQIUhLmhJAxNwdfhcJHP2gTW6qGie5N6ILuTuQTyhrdDUoKz1idqKmfmK5mZRCAzKEFG6VVEVWBuWaHP81Qy2IMr9EC7etD5qZEdcmBNs7EQs2TjrzQYJCrirN7JBhksTaGYXpLSEck7pc/mNuXsnPFckz/xt81HtGiZZ81G6PJO7kG9+wAEAobUlGKmqqOxiXNF3cPzbqVBlc3aIHhDRBzivRslGqf6PMhqwsnHzWAZSXoncVn9FD8JOpyTnaqXRd1xXcu9G5x5IJ1x9sG6JxKA/NsBILDlUrFRo4BqdVAK0s8QDyQXD5UbSFOFfVWdp8TjjHJBzTEGhumVEfghtAI80OZT/AP6CwjNYR0Qt3tm77sfuoDicsIyXIfVWQ+SK/wCntDumTDodLsDpqCp+GCFzOq/V/wDQcxELE4pz+1QBRWEZIQmIAKXZkD82ZTXnjbuvvn+KH/0RiAiTJqFn8Ej1zQb2bTdP7bEPckfz/EVE01/xCOyVL8ZPZIRH5/seQhsx9xx1/Kcvdj2fC/8ABTUvwp1E/wA/mzytB5/gNfxJGWX5+DmmBEwULVte0ND7Sip+LxDibsQEyVEhrORK4A7oVRo7192XfpUHNwQriU8XVekYS6zoY1B/OmNsweJuqxWJnm01Cmoja4YDUrffHot1gH44tYIiqx42YvhWL7TET4AvSsx4ssWS4lNwgtESovmSZIHEBHJPzNpAfnWLSQdQsNoGkARL8wpOVQuILeeVwx6qTQPcMYRGYKxMOEFEWlkZZhbloO9QMFQr0YbvnJb7yToEHQxOyDqBPjCSbYjiLsX52YztHedd12Je4sB4DTkq3wBmU8snCUVumBNFgE8Jkp9oJ1o2b7OfUfnSLGbvxOkEHWrvSOGVG7dlZfE/3HAzCi2EFvmCtnt7LEGjhLQ7vUkSYRzQOYCihgAbaNp/CLHgtcKg/nHfG4yZ57UL7P3JumCiZlE61QJjRDAYyqhKZ8TsAO3XNo4aaI2bHREIz/N8YYLM9pywM7yc9qK5qCa7KnuaKD3degQZCAr1UTU3G82jR61oiOfL827smirivRtaDqSK7U7orouqLxVs0Dr7SP4mCa3MrdoKk7QGSMKR/NQYwRcaL1lsB+kJtkyjb9LonbdCZTRp7Ov4pkBHeoi2jjLuUo4PqoXwFzeqez4XEfmiCxwDeTjNC2tnCLaNbs7s1EzNxN3PYwZZpzND7lFpGLoSAyWFs9ShsTqqpjB1VpKs/wAzlmLCAIlEzc89o7MhBbxjtxvL3TOiLzUzPuTCM1AGX1WQGQuiFz2I9yha2eLmo/Z3h4+F0isFowtdofzFhs2Fx5KNr6tnmvQCzaGqNmze+I1292aibonZhmqST2mtQfcu9JxUBJuepXB5rDfzuipUQld6O2bFv0UeKzNHfluKkoNY6J5Kdg7uUbY+iHiVN9oZI+jxb1YlTu1UtiqnNSU9uNzz8vuOJ3WqDB/K36KABujsFBbqgp3Os7QRa6qdZPqPP8rQAJQaxjiTyQNo8M1Amt4YzqUNwuhqVutaOguN8lNTouSmq3V2pbUCn+4ouEXZBRMVAAtXK43QvgnMBgTmsNs0x+IKRa67lcPStmKOGSNpZn0tlqKj8qhjY4e1A5IMZJovoqwuPRDVSqoUK0KgVLwUlMXU2JKd8KbLg3tKBqPcGJ3cpCLtiGVdmKdhNDA8k4iNow61WXepLdf3Fb7YcxRSXNfCdQjb2TdztAZf4/Kgf2rSfdfABaLU3xu0csLuL6rndvCKqqqWzK+BaCNdr0jOIVH4rf8ABSZFTAHRVXEokxuphug1TUBneLzg7xqt3vaahfCVKMOSnNSroo2ZwnyK9YyCiHKYiOS9LY/dGo+H3DGEPeO6IMzcU1go0Q9jELmo9rNQd4rUKIiLslNQFVE3b0hpdJQ0RcXS02oiq9IwdR+H0Cg0LdgdSoCLuikAFMBZL/C0W9uhQov3UFHYLokQyTTkaFRzWYIW9B3VVc3qiYA8wotMVvbyk8d64QVQhQtADHUI2thvWYq3Nv5PwsaSdAsf2iZ+AfuoCQGWzMqkFgbUrmoxU6KVVKThkpyOql5KgK4SqHZ1R2MObdg3RCxtpmPwkAFvVQAVVOnOi0HmuIrjW85x8l8PNRbM6lbs3arEVJRKA7751WLVOZpNYoRhUKcll3qSixyhaCa/hSndxHxXEVMT1bJek+zje+EZ/wCfybF+4zUqFm2HPPZ3aqbiVFc1CMXlRuIPDFQPcVpDNbwxLTrtTU5BcKlfDML0g7+iiJ3wRRC6r5fwVJarCKIkqYUUFqsrsgqHvujdE1XILqpJzTpFWdrlwuWHwUfHooimqjw8gt2Dgu0FvjvCyc1RspqFo2BXED1VAqN8VwRUg4dCsUxafHCvVYbQdDkfyTgsm4ig5/rLTnQbdL+aL+0+6VSt6ajWz+i4ojQqIksrqriWqgJlZk3VmpKKhdqCvlKjsRF01FngphUPtOakFF/EqqTguV078lVVvj4KJX1XyhVqsDDGFSmv0keiLHUK9FaUGamoscQsnKbPArMdVESOoX+4Le3SsnBTsVKxXCxqna+CkHHqVw/6kWHeB7Fp/KxsibI61adD+R8R3bL4teiwWbcLfYcRHRSUGeKnTO/EpSY3zXUrcjHkpsYe+Cm0hZ+Cz8Fut8VM+CgJXwUOSF2Md6wv4ddFqFKmmxvV5KMCq7EzLkpGapt8JW9dVVRElEhDTIKF9YLiXFsTugOFfsoeaxCOLVQQYc+E/ssLmx+oUWOis1vKR7ipth0WKzdiGih5LcnyWYK+8cpvPip3adVNy4YotcGwNQTVR+zvDHfC4yKwvaQfyILa3lZ5N+JAAQA09jBrSt8y0CgFC7D4qSDclHuCENjndFEhGJjiFzToUVDRNceE7pRDl8uq3T3KdnHoqEKVFELfaeq9WR0X3YXwriGzVQw96qVRTJPJSYNnFGAQzUf9Rooa+d05LiUIhZKEVJRKmYLoqwb9VLd65rRn1WFgU3KsToFDso4X4ofEpsXFhUT/AHNU6aqDySNdFFqxsyqoWnisis1mqFQb/pU90ealIalSjaeQVAP0hQr3INNnhw0K3ftDCdF6xkviEx+QRbWo9UOEfF7LmqFRvlxG/A3id9FvEnooTPPZiiFBC43EZFFpoVgtMpRUGmPIqhaVJ4VAVxDpdUIwE1SLbqLRcR2KXcSqqG6qgwQ5qMYuVYv1yaokxRcaCgUIzzUlEsjrAriguyowKkFMrTqouK3RBqp4rE6agFWlVBtD5reWAQ6Ik5Kc1EEBSi3pQrCYA/VYhw/RRaYKXGMlHhK+8X/yX9yiXWjlwj+oqGPuaF6tne5b7oqAC3/BSEFSP0UGy6LNwzmi11kJ5heoJY8amRRZaNwuGR9+733TeL+FASA9nouKfJTEB8Kie4KJrfAVNSsOElYZd8lMQQg8i8pnS7lGN7eUliCg6q+YeagKaLeit3D3FSd4uXFiPJS3QoHi1vookSW4JrpkpV0RgIw0N3+VxDxXEuJ0VmVmpqDQv4Wv0Wq3nQCpK6IMFMAreZA6hcbmnmvvPNTIUpqLgXKG8pRUXerYtBzXy5BYisFn/wAKvetLIKLbIQ+Ipr8O66o0W6Q5rsihaWdNNFDPMFbq0Ung/qC4WKEWjmAo43eN8pqLoBQaD+5Q1+iiBjPkpkHkKKGHCW5KKyPNQ7SLLRsSM8wpjEzJw99ts2DecYJtkyg8/ZydAdFE2hJRwiJQxTccljfxHyv5lBobFgqRqsluEd6hHd5lTMb+qaNJK0GhQcgdRc9h4XTuJbTMaLC6uRWjvqt4KguldFw3shpswPip11VJrek74lTCTTnfkslTvUZnouAeKnhCl5qA3oa0ClDvULVkHLddDmoWv921xRU4KTw3mol5d0W63vet50SiTTRY30WGE8l9SsLeH6qdM1GOFhyQaBJqjhd6MzPLmsTZ6heksfBesGEqUCpghca4gpvVSVwKUO6aiZdaol26PNNA3GEw5lQyCxFsPlUQsDhhtB/qUs6haOyKEZOFbp2LFGwJB+E++T9pdV0m9PaTKhGKgxoaFjfXmom7lqo0RYKhSgO5b7DDVs1usceqhwqsVMk6E3Hqv1tXRN5SRHemP5qBogWlHsu8isNqCt0hwU7IjoVDE5cZXqmz1QEd4ouyCMboZ3yK4VJpXAuDzXB5rdDW9BFetfPrNSDo6iSrHugqgcyoyI5It5rC+mTlBwxNQLd5qdCihCLcoKIEVwuUmz8VF7Q7lkoOswj6tcE+ik1cYCjGaxP7moE7zjwsUzG1dVFgMhU6rGc6Le4B5qEouryCxEbxpyUnxI4gjh+7OSx2Z8EcTe8LctIclK37iuOyPVUsV/2Qou+0gfpapl9p1W8Wt5NRwNwtHadVYjE8yVuuhoRqt77zNOwEekhJejed4ZlYhULC/jyOqhsbvCE5wG6/eHvdlkO0U1rRugQHs5KM7g53cFFclKTdVEya1Oa4QOQ5IuFFhdGGTguJpjoptCngUhFSIujqg/4TFEZFWlkU1/cVhWEqIW+ILUKLSpz6res0GMZElQa5oKM/SWpq5MZqUOc0XElFwmFB3csV37qi3jhCj6RgC43HoxfduMdXKLrRtnyAX3tr3hQJnBFwbiPNBzd2OlFgI6FYSYdViAI5tUYiGq+bUKQK3WGOimIA5L4eq3LWWimFW+Qlqpb79clCBtLU0CMwbU1dpyCwCBtDX5V8oWFF54Weai/NOfnRqgernc1D4lGBjqCuJ31XYJ6KPomFb/2fzU7F3ipWDu8rdYxvVRtbd8M8MlLF1RHOMswhGPQKERPs5omydB7Zjmg8SIqNCsbJWonDVQdxKLf+FGjhW8tbxOkoFWDuo972n2g/ob+/tc2lSCrd8oug5yDvBwWF/io/RcYIU3jxU95RMgt0bud0dCi06KGbJJlr4ohYTVQdVai6RWimFxnwWJhLnCimDEqgxaLG8phQaKLD2WhOzwyW55KpWFxI6zCi10QEMRAanTyqoCi3car+5W9iKkMPVYMPcpAw5KD6ZOW8YjIhRsQ6uZqosdhf8JU7JruYkoTB5herLHDkt4vHVTmt5sCoh0uam0O6L7kxzW7YBeutR0/wsP2dsBm9yLbGJxVfqsFlDHmdFh8SoNG6FDtO8kGNoKnUqKZHKfehZ6zKFo6UJqP/AAVTzUwQq+Km2IWJngiIKUnfVYRwkSU5cyoa/VH4TosTZ5sdqgsVn/ysbO8aLHZytRl8Swvk4aouGd5OWV1k3mfe9nZaCfX2IvxOopu7oKFnZ/3KZie0btEMPDnqsQqg2MGfRBueXJUlq1b2PvCrHuXq2QHxOW+cRuM48tFhOclEmiPwvRaa5IatkVEUUHrXmp+IW6VMLkt5vguAqDNwed2K1OFumZRJ3YCinxAI60KtIcUfJUmViIgOai2B6KLhi8it2M8nBOawd6i2Kl2hLqgW1U+IZqMIfQrEwF0OzFRbilnmoWlmY6heqtAI5OzXrAW8wsTHY/qoB7hDVTwuXrGQ5hblqHcnKLmFh1C3LRpjRH1Z7lRyljgt+1h1KiSbQ8qKMQyzFMh/lYLCIZm7VYWL0TP6nIED9A1Xo2ui7tOWFAZIvdwgL01oN51AsifJR9OByhJcLbQD4St9pb1yQwu86r+VEbrtNVipJC0aa0T26bw70LXM+RTX5keaDTS2mOThVYH8P/qUWOkD4LRRZEEealJ44moOJwWuR/lAXG/C8SU5tNHe9bJnzR9kL5mSiIrcEFJQCLquW9IqPii8DqiHT5r7wdCpuYsu5SkNVKilPmqGNxHxTQd8Mimuzo5Y+y+Tuq5KIndoeS3hhOoXFELTmslRTkt0T1USQXIW1qN3sM1Ke99SjyE1NbzQUBGDRkVuuAGoRxQe05IRMB8P8IREz5o+jI5hR7QdiDdCg5nA6f8AhaOUScLj/a7qibCLH1Nnr0UzgtFvtw/MKLEAHD4gpOxN0ct5ps3eS3gLRuoXqTGHZcoOaVKIVYhbzFK1cO9TtzDqom1cu2V6uyaIfEo2jsSlICp0WCy73FCW5kM3lYQd88R0VFOua+YoWI4GTf1TdXSCjZtlSOinPqt9pa7kq2b+q+5h0KgcIHzOToQxMOS5UXo64SWqxOTgbM/snM1T7I/qH7p1nnxs5Fb33jeLnzWDPsk/RYXxlrcHtESPNbsQRVpvDdgtcIg5KImw5+9H2nwt+vsm35KAn0W7uhM6XQWISQPcUbNxmFESJqpsK4FvbztBRRfBQEm6Le3QoDvK0gVHMTU6PkUQ7hMiixfVSUwqqkeYVSt4d4XEQuM+C3WEnmoDwaov37T4VjdvO8lidxZck1g4zMptm3hs5uKmgIBGgJrEKDREcihuwWI9ZqMZQkTkmvFHVUCI2TjH/IWJhi3JyJgvROMIHdOiOVs2sM+YWq4jZu8lvN6PYojfZqFFpIK9Y2fxBZWjV6t0ORU2wWezACJXrP7QqtYwZ5BQmLIHveUQyGLM/D0uieL6LE6QyCxdt1EAeN0yh6IHcp1WC09XaZh1Ct6zxBVe3zURbth9F/8AIceixGycebjVQg1jsiirQDPeT2ioOIJlrmfqm2jMt7qDVB9mebULey3Y+R0RlB2bVhtO54qEM2GhCga6JzmiERC8u12S1wiDktWHhPvN7tX+ybfNsYqFzQcgm/S46hYXKIO82hWG0EvJSMO9TfHkoWLIcyt92IqQulLmgHEEOo67CeFyxdtknLCeNvmFiF1VNRBh0K4g7qqKqyW87wW42CgyD3eSi4xK9I4fpC1c4+JWH4puKIgQfqsBgOqk5wKiG2ZhUHdUXWFrD5TFfeuafmC3bRodyoiN0jxb/hQP3Z1mo2Toxyz/AMrQrFCCD4wtGZovY3e7TR+124ZfCVKNm/QrfBY4doKc2/EFFrl6wd63XA9VvMhzXER1C+8CnaeAVCepUmhjdaKAjanRsmoF8MIyEgFgsqfF/Cg0KFbTUZdFqdNEXvoPNG1fQKdSsDBh5BejthiUbB5c00WH0WM9F/8AEmoWdgwaHRE2j+8lestInshBpdGcFZP7PA5RNDuuVrYGrTiClVs+5egf/Qf2WoNQmvaejwsNuIfOP3UIBzTlkVisHHCOyahMLqm522WOofJFj6j3k39R9kzre3rcz9Vzeqdd33ugF43sblogmI9UO5d6H6Uz9Vx9iREwlc3qbncmBFHqoI9QjHVGEkIzlmrOACEAnN7MKIw1TTGaaimEVxJ8F33NJMVDLRSGd0lVeKoKKmaiEcRJ6oJsPiutOitnCsKpvcrNWfVPXch1RmqoJy7gmuhOFVP4yrfoj+lWPOyTe9OVmTWCtW5aLvVoNHSTevs7P9PtP//EACkQAAIBAwQBAwUBAQEAAAAAAAABESExQRBRYXGBIJGhMLHB0fDh8UD/2gAIAQEAAT8hdvQ9JMmR39GfovSPUl6LlxCw6/Rx9GSZGtEQMuPV6pkD9Wfo59ONXofon0sfrnTtDbbl+lmR6Jk6JkaqREXDEbNExsyrREIViUS0z6JFVGSyIoMvGqyXHrf0WRn0Y9DvrHpRT6L0WldZJFpC/wDC9E41Rcej0RHpx6notMC1+/R0ZGuNWL6C0n0lpnSyVF6EkcDtpnRiQkPREaqBC0iCkjQ6kEwXY1pGsaI7JlEQyJLi6hXJVon6bIH6ba5I9DI+hHoWGL1QWJ1vrXRav6DuRXR6LV6SS/XdpJS3hCsNX1v8h2IvJL5JJ9wxRniP2D2JvcOljT5UarTJccw9GpXwemRK/od/pofoWiTdhqjWynZDaZpfo6JsMEFnoxE01T1TJFp2KtSKjHViVxzYSG5a2HeDZqrnJkyTWpZ0GYJKbklyKCG66QIkn0RX0Jel+q+sUFqjOk+jGjJ9DtTU1rPrxpfXBZUdKEfT/wBwX0USWDD7wezg+4Mp2z7BZJ2ssa9lCLXxP9kzlTxF+nI6xbWan3Hbt5al9h6TwdD9mVMh0HgUg+5q69tFS2tQRUyJNwY1UJS6jhv9hrb5JoLa7P8AlF9K/SXI3Hf29bJkYej9edbh0ZZiUBOXA2VBEIJKRcYnwOnY9XQggTJ3JQwTQycE0J9Lf0l6GL1LTBj0KrHRE6L0szomY0kkej9Ea40kyTpIx2gnSTPqThN3ROf6GGcJoOJh7JlidKW/LHHQxFPNF9xcoTU5sr7kbrw2LA8IKLvMBVkOyoT/AGUaQmFQWql2e4tawrNbTLxAw0f5K6kbdYaKBxZlsRPwRA1TOdMyJcJEF9qoqxUXgeRCe6IbsUXIj8AIJn+QRQ9VshqRNQ1QqX71SY09vReiqSrL76W+ghNESx30j0QQPVuI3JCLZdkz2RSdJJ2IljvqkaKoIiHoioQtojPpmnrY9Mep6rVaNQvSrCJm5ME+hUQ2tGtXXJbnEiNoGns9Z+jOuSWxBCN72Hy9pdbEHdhact8CRDIZD21kSblnwFNHC5ErZbcsknGqjZR4sPkUzcDbz8FBXtdvkTlE3Nwn2EsC31XuhJ+NtE0D4tau3ZCEjZXSeA5R7/2Xhi7mnu5d+wNq/UEKbq2Vv0OV1TJ/OChs15l+GTbPiITwN2afIpSiFm2lQq8GyqSUFvbdhtqG5fsSzaGwKiq+qFM9+txIIm1mt0QqNCkj/DklL8SuQazfJFlevCz5RYVWuTcOCSJbkvckhEPNENqyQtcayL0LRMvpOqEJSNaJKE8McdBhMpXgitR8GNKlUh6YEJ0ppkipRquL1RqtHcjRiGZLECHfTBn0JUkdUT6c+q+mdJ9Cpm+CoizLc1RUWqbq3pjVXA+kU8e3AmynyRAp7ZOSL/sMpnKqOl6diaxeR3EuhOrSGl8tk6MZnp+CqyvJp+w81e3IuvcTF5eTYglVubCmzqjHftsSBsUKnz/QsIf2f6VTkVH2H70z4RtYVTH/AIJvUxYXrJTD3+2FZ5QEqSbWyJT092GqSbkDtlrll8ErwulT/SMBFhqEh1UL0Bpo6V2BuLmpgoTIs/iHS4ZOHhcbObOlF/sCes10SuDmogciayW+AyBDOs0344Elt32FZ+yLY6WnucE3QB1rPG6NrKoWTJT2ZjwjKw1BFiOHt3XsXZsF5f6GnNK9FRBJ7G0mYBt7EsqVsyk3JxVvdfsx6lox+qNMiuYFlA3oqDc6YJFRsnVGjAydE403I0gwK2mNEvRBQYtU9IkQyxwwlZd7j5CH0JpihoZ9h4vsjefdBDV43Rkv6N2f/At6ooYS35NxS4sN0pxuiC6oNryrErWcVLoGwSZXkh3nvDqI26Ih14KyN2uhYY+BdS1WSG/DdJk00TeOwwRJceXI2qWQDyg8G7TtHj5Yq6MuhVk7xUorUuEUBx8KSmsty+BzqDc+Cmj+EkIP7R5ZB4UwCXbHuHCd5D9kJbK7zjciFFmWCrwDfLneRpXHYaWsvdiUkrbwYlQiayTCauqFh0HRkpppe1JVw/JLOK7hxy0rkRwh0d5EplsJW6IQ1uUe8n8ChxWs/lEZUnFK3OjF1lbMemjyQucl+IXCYETed7E8lJDrDongdZXSb5GyXnZFJOlO+x0K8jaMalYW0jViiMEk9yaVUnTGYmnDVU1gWLqtJcltwyRsXLfURA1D0RQb0kyZ1dtIKkUMmZH6CHqmkyJEiKD0euRkaIXodFnGDKuDeyyk+AfsUVclsin7wpvjT7COdoNyh2VTVNJGr8s/Z84Ep+xIMiq7kmiTqlJWGdQkVXSjIwvlCZ4ZI7+4WKGUryFx8BcldrV39L0QhOdckCbJaDcG/DvYzRWz8DXmV9ncJckpK4VUqw2LKJvQZ0vchPaq27p7Iw0VEkHfDfBbKiZJPwhHJeTl7Y4lGciyc6orj/C/ZmQGxHyWErMKflj3RvI8uMVGXWXtFSH8o+93CI5Uutjca3IVQepszl8kPvHXwsFU5zJ/ckm1xY9hRbTgRkqm0m0GyDSxe+BuGtl0pJzVfBQ1K3yJakz2SS3fdjAN8FI++hEtDRCo3GzHRutmN7tO6ZHTWUcsN1Jq9BtQHKOvPIptOaNS+tyX/CHmcofIxJlLqRzzU2/ksr/gteqoSVUVG9vyYNCsb8rcky2+5QBM6SPKuVpXshrci2e5bvkI6jdnyO6q5sfcmOEqoJMMZPu7++jVPTI/TOiklRTgahDGIgyZMjEh6qog60YrCQqUIE5LiVRNLsY51iSKnK9SGqF9miohLZk0a8QYy0oU/wDKJUxzluGN8bDqXuWgeoQW5jMxNVS3tA35rtizdTEy0ncoMq8JFIrbOBrdekQhUS73fye7Uxjq55G1V/4oN/xGYpUbbmsUUFBOOF903MFsWeGzcHokOSivBjRZTs4c+2QlJkXY0ZOmUhTtvao3/GE1E57IQKjcRuLcXcWR3sZRdcm/l/62ceibh/LJsIdkp+4Uh5IXsNXLLT4zpoqBV0Unj9hapOk2dSfTMkNhVJvIFMJpyO3LGKfNekVv7omuUjzNKUz1gVC+4Ex08pFmFS8ikEyLMpQotmi08ouQcIbcckJZ9h/9yUVaOCQ/ODhvHgb4b7K8O2RCx4Mf6KcklyTKvAdJNS7uSdElMJjNvjIKyj3OdO0LmgmknDKM0PgdZSHYcRzIauoo2dqwx8vgg0UjT8Fa1/Oe47VUrpuhSG2qG+cDUYlv8ZG5BIGoVKFuhkqbcfx2SaLqZ7Qirz1PbpjETW7VQiQUf3sWk5N1+RyhaWKt2ih3Gln0UZBISttUhRSryXsIZanYqv8AB4g7ioRNvU/UhodCZWiPbRX0kWuCRs4FYTG0VWQImo6l4202M4GIkggQhkUMyK8mTwL0KmhqSZ9JW5DoUoiZ20oQU0jYiGyI4RFyBwEf5kUu/coP5iIfy/hFanibNpeVRZE3gf5YHs+2DpBBfckcc+0eZS4RUGtyI7slchGfNB4atpItXvA3XAt34VTen2hczaZYXU+LP+IbMnKb1MW0FS43YsJstfCGzI98acj7ME0a6EkQ9inA13qn4MCX6EmPNE+SIsHIppaZ7k3Rw9CGTA8sm2o8EbExFYb6NpCbnA28oNBK2cjSyTb4Q5VQYU/4OWriGDZ1Qt6Noe8+SH99EYcO1yLxXY0spCi82EWmJzAzrmMF1gc7twbqki2HK41G8DZJTUmUyZF8igVFVexIx5Cps7XwxYax1n2/KIoTvQnzbrcWkZ3y7JifBVUyh28TTDqv7YhdU/gdE3Qr2X1RurECdCrLBA+LIeP7EzMlZu5koqgU7i2EabSlLDuhOmCTmZDpRbv/ABRkiktTNv3EKXhlKzxoiiVE/nn0K3qwITqJtIUlUdBBHpuRQtpYn0I79CqOS6oRHAoGKIcaJjRTZGBXKYtqjIihr6EFFOSGahIqngnglFDFCCCOWQ9yBme4nJ6YCgoSv5kTodNMCO5ZoT/UTn8CdnwSIbY4mrXEdBtmEmy+dW7zsItHnEisOQa7/I059xK30IXR4NKO494N3/Cdr9jk48Da3HcJu7hrF37Ese9ENiUre4U2mILqfuJNpy6QyJhF2d0M9p7biwOUXt4QhuJtS3GIXSt4h5Ek22shATjbzUi1yqiqa7E7yiomi5eZcJt/AqSeMvyQSdpe50HNpML7Q3hB5RMMqMl8ovqsfgUMMTHDyjkTScD8XRlcCzZSBRKLovbkw3PgTqSn8I9yYgK1b9GJG7qn2HwyppE5h/Doy55hIUOhWM08MiD0ZQGYYdZVD32+xYpLm1jJSaMN/ku/psia0MU1epEOpFBaZ1yMfooJVG66Ro0BVI240sQidGJjjVgSJ0zo76QKeN2wtO/JinuRAqTyUW0kbJZPBKKaSI0nsvuQR0S4JFfSY0e05RHTT3IMl/MEsU9jJW70ZifDJNBPPySwlrBPBJ5K7EsxyHnTJ3M5BLb3jZ2CpXoS0X5exV/yFYoNMCS/0bp+47hr/Qe35DTZvaLKjwG9DZ9FTyGWcM2iHPuhXLN5GvlsW3+kR8nCgcuI2e57IRxKX8WwlPj4xdKU03aQwlrALPCxUSq0Kb7IhsepyVWToIntohkj3clbdiSKRRdAuN1F0xp/5GXFSPE/YSSSNPdyS5VPsWBiT/DIlqsKU5WCBXkXgY3LEPsxr1wyjbufcJla3T2HpEV4O+7wO6qvubjJCqj/AAx0UqSQVnofBC6idr2FVXfIzJ6yMZMi/suCR5VHv4EifUmBqVN/oY9CG5EUbQjT1TUYiK+hC1nS6JSMDxUZ6BEdGAiQ3UgSo6IgwJ40VdEl0K9SnOxGEnshA6LRbEiWskAp4YntJJLY4iWx0IEJ5Y52LM8wluOQQ8/YhsjgaEsXZAdyW5Tgh7EPkhoV3JIbSRwJ8EOD+DGBTmLO0/BFjT32KtjtEMMJh3B7y46shyux2z9xgte48Iuy8Bg/OhDV/YKKqcj5iWjXxE1/jEnNI21T5ROsQnWg5kuglh0Qz/ig1XKRckmiFb+MUnG45Ae4RRUw0u+F+RpVxCIS+w2UHbaWwpaRqbkNyOCJnq6D5ZEwA6Ro/YkbucC6DHJduk/crp8hJUWf4El8cos8HwmRTVdRGVWndMoh/SnkVWovvCRulodLYInTJRV6M7wOEN1TqJQqcIf7FrjJzyTWE0Kpu46ade3ogSVU/Yn2dVDjDQrY1z3/AOkLnVHOxNrVVNh/WKCi3VtxjKMXDpJkZnNVZ+RyKQ84PlDyrldKicocOYFWk7rdbjSk8Maa9OdJ0wToySqOLoUYpkgZJzzpI9HrQu9HoiaFAbhyJioHOiihlgyyomXY4i2iiNFRDQ9GhHCcYY+zTGBeCgOuiDyEuai2BJohEdkEegSKorkhDXckQRIhpOsVEltpRkkTuiFFmcRtudtSOx2EJuTv+CcnHJvBHD4OKu0fqQTqo/cb9yHBo2GDaz9pFKsTkp9CXLwDRuj8BPEXxDF7rtGVP4FHMj3G+48obHHuJlCi3xUgtz7Cjv2JBKaIN+4qj9JEihyz0S/I17HKuMK5sn3vngyt9qbcLsR5d39YFTfJXaMR/FWQoSoqTu9kWaEnC+42gshpvW/SHVByVW+NuCsf+XAsNKwLF5Cgjip8CSyqlnC0AvmzCHyxHbMeyIZEz2+QgkQe1YleCyWUooEv9DA3gpLhJJ1sPsXY4C4ZIp5DKVZtJ/gWJLpxk0oRK7Hl/wCCop1/ysoUvdSdHd9xMFzs/IxyadEESV7jcXhDVnsKiVazQmnfLX5WzErNKuE/pkYqLRb+bCQp8lsUd1HKGy63+gtIpolNSZYnqdSB00TJ1THYqYhB2Q/kNUeOBskqXFQbCuNisJHAbEJexlSSLqoaJkn7IYwl+VUTbI0QQUWlCUSSToyV6pZ0JEKhDWkkknkqSS3JbEcyTsySwddM9ZpkfBEbI3H4mTWA3IfYblVjLFdMb/7aYamgc9dwMZJKsvqB4PMfiEjPLUxLcRuk6eUR3fyLj5Iwk3Rlp2bhO9clJUpukJ1WPJiThM3E8iclAJ53ll75Yrmumk/4S2ap7u73/R3IKqpJUXxHLGXaTolt10K1Vf0cIb8Jvh5NgKvCEfLOfItl4hCeg8BIOVAhJdKPZEU+JG7ezvwLmayI5bEqbFKciDSvHwVfYrea1wULujhHdMi3tBu2LwIfEv2YiUnD2iZGIfIqnqn3UN9GVL44ZDOPuxUtwJ1e6sKiaxK7F0pqFuEi5UTjjwSUlXqQSdvuVpOt1yhFCzuIayhFmJlSkc/5kcpcRFmxLsKWUY6U9E6L0CbTJkmgraoqPSojRarUYoFA2BqEw5G6jIhFxSq4IycjUap1GPWXuyFFdkSSIODEX2GdYuaSV3vCXPsJ3+ah0E29IWrVdJ0UY0Ow9KEEEEMqdlNiFooPcTwStOhVGyhR4ODGmsDKDGxqHEtd9A2DRuz2PjwOGrjA8PwIWjPqRpbpe4mVq6Y5wbiihw7EUUBG6t9kKxqZHstFBx5HkPRtFc0HNNJlu5KKlhTfZDEq/ipCbl/uE/smFsUGBewiVr4fJCD7L/dxFkl/PYbUU1Q3nHmQTKXEeBraVL9iTcKbsqI7gnwVz2HVjoP5g2DkfwNNaoZ1ZpdDHsRMr5IjvBGm/oIrBI6CjNSpMxEtosYT/YlW00+3YVbbXK3ByZkoOSnosY1Ingetq7p5HXUJ6cf7Q6jjTdv4K0Fxbytui0v7H2WB1FfaLYPkclxFVRhqm6Y1yKFE/gReKAY9NmaG2NKqe7Yaj149MieiJha3J0QyZKaZ0TgddJ0VhFEj7Ea30dUMxrDOAS6oW5hYQJq2G/0imbpKhNQH04fyCqm3Bv3ExbUH5YQpYj2ClgS3FfYTbRXY8FCCNKCdENiUTyVK7Mcd/YkKPJ2Ircrp0zGCghc6K8HghELAjyNXiBpgPieiPeOiGqCbBsF8DmNmYQ7zl2K2SS4Rl6k8ScjCUknwhDv5kCs6yLBsJsYQmg3pOyUVo8JoMKJcTYUXXWIRJxoahgpFaf3f6LIsYnZDR2UJYI7UO74/0sqwlcdATg/dkovwDZCe62VdIbQqy2Im6IhzyQs0w7EsgmP5wUUcIPoJJFXiEiWJl+B3FEBwVFC8D470GX84I1tkK3svmVylVMi3Q0YFhyeRKa9yvxlJGa7MFWSF9tDq7keauAlKy0Dq6zUJWsjr/r7ixNXdOmIt8acf9EC4Y+GLi7pCmjisrcwLRXVJzn9ksVt5F2+oE3WyiqPDH0tN9k5LgkrH4PwY4sIcNsaJ4diPVP0EqD1Q/QtIoNGBDvpC0VR0Y3UsNpC0kkerIlHli3SfAtaJJ6Q5dVaEqepqU5rZwKG4taGJjo/kVImNrdOzLqoYJKZ8k1k8igkkbGlsWOgkt3pQc7MaCdxQE25LJK2IkeSVuS0yn6YbEdkakbSdGlKINRQSzT0iXKRm7BlaV1fJRFNyiykhukXJfteRdw63IyzKU4h5DUaK/LsVTZs34FdrilY6JFS77Ilhr+YOOCIosiN2woConly5bdCgpd3YoaXTJOkLdW3Jjm4qk9v4SK6o/YhJQ8uj+yP01+hc8jdDSibIozNFchk4loVexn9EohDoVbCJM9kCx8CyeWQyziukJKN2I22z/wBIuWlwVt2mVqcCBx8lIksbkol0p2qUHZfYE2RzKzqP7gu7jU+JKESd1LF8Ji6UXkw9S84KJfyVCeSSpN1cxX3MjIX7RRd/1GMviY/RMqv5NwSehqp2pFMl+8TLB0eApVVeS/tDRoq2bpwMc7TTTVGtFs7DXod9GvosnIgpA5ODGqLFEb0uHYRNNFREmRb6Nv0MesaM1UGrMvNbKYeRIXI0JK9OYD2I6cHEdplEXCXKFb0NV/wbWIqLTElHllSukkk6HBwKojazIHAxbpWdMnh6SdzkQJ0n0GOdLnOZDfEqskz+ETyOzJR5BV/0uf3NpBOlPGqyMVpTg5Y3wRyIh8A2tFC1y6+5Q5UbbXCVX/BBYtP5T8DAUPdyRVJKFRbDysr8cdkf8fYarLHaEqc7DSglfncUuXuN9g8bpMsvjdkzjTx7m3Y3RKNypH8DY0707MPYmac/4PW9lEOR5six/YSj3I21kgb0jO4vvUmtm5YsEnk8HQLWmrq0fLZHsyR+z+wSusso3oFeykDq1yoIsyddkdoSTtMoRpZYn/DAtaXCLTAqOU3dHmV1Uc4T+aGoFR7ctf2uPCb6PdMaqxsfKGSF2GC9ERUsIxXFXcl+hVGyvMsMTWwGrLJbgnLZPZjUiqgukN1yO0caL0Y+g6acHcXoLRIiCI0eqGxEcisKqg2bGi+hIjnQ5k/DIW1umNYKYtqPBdFj/tCbZWWaJnA2iv8AwSmH7HX2F+fY6/B5FdifBzXsKtqjIm6KeCvZ0JRQnVJOkiEslkkT20G+Ay3sG8V8jJurN7jVkGhiZ1QbO33BqXvganQjb+CLD3QVUj8yVoaS98DXB12D7sV8FAlRZKsthTXM1V1heWQIpBD4cEXR7Nnlkr7NiIihOW5GcFBwLM3JKZNRLAob2Xg/0HkLKwduYK+N3wKVU9joaSGw/vck6GKVywlaZoe4qTWRsWT3wRcbuP5KKdkRv2PCFpu7SESnwexg8CdErMvOShM4KvMe9JlfQxQq4OpL5Le0uSglLTcCGvEU8lI+RzflBpJyw2npQbrKe0rOWqP8Dc5iuO6CZ/6+BpysvdiR8s7MnsRJs6lGLNyWUX915d44GpFKf+w2/Q+YdtHyKAT6ogXBM2diw+3f3Hso4mHw9Lr0JmH9KdHrnVOCSz0s0nRivfRaHVjq1fqwVTUN6wT8DrVL9sCpfsQnThpfIYvnsKJNN8ElOd7qsSrH2jyy4QPSQS7iC3wJJ7EjZ7aeTsRnAyNuIfBPKe9LNGa1RKIW4jYJexL2JR50kidiZ46Z2GxIqxKGPBLhoaDfg5h1LvJYxLkYK6qNyZSGTom8E/6DRLcJ+5LGpHmBRM9a9luxVtQ6ZPwh6GyNwcU14SXhreP+CYVuBniJYyiNy8JD5dLktmodN3shVrkJ42QKlqjFXu5ewpaNFJ4X9gZQ6K1tmPseSUq8H5YiC3JXPJ5l+WNn3/rE4lsux7T7sjRyE0s0It9w3ygSO6tSYkK4VBITMeUMtt3h92JCt1JYRXwlvsY6ISJt8BKOEEEF6tcEySq0TyNF2vMqjElqs4fkpLG4rw1Qm2qfih/JcwW3sbj2MVOl8C8fkc03q3jxgVtysJlPBfHW3bcdlDGZG4rn5zgbMjcrjstNMeyqNmx5/ZLmuHT2E6j9GPSn9ZaQMXrk0WE6K+jL+hWJoLYr/wCpgqjRb/lGv5un1ivb2jPrY937PkG+Ly3+g+1B4b/AiU6A/A3utCM603K4OQnc9B6whFkmsM2khsh7RJwbB7j5aEie53R3O+n+wSWdKY5ZPMIyT2Gw+RHK96CCE4fAorMbgXuGdVE5FHyOC5qbdmyzCcWZ97CsGcwz5eyJq3eHYWaSWiduospMkuy7sZmTkxDvTUFw27/LFWQkslnljGzVfLEqXhQlhu7Jqnhdl7sX2TDZJllCIBDykhOeymF3YVEqT8EzR/EKFNa7KU7/ADYFo2VY8qwhusk+Wdd/vcqbLYQ5rfAqJQ7NfwileVNlorJ+w38jGgK22HV3so9xZSTEm1dhUxZq9xQakUgYkK97l0tyr2bOB0V+SSLIJLu1D7yLkQtioTbuKQns8Mg0UJyENpcPwTynVP5Ekqn7gsNbQ17oSSc4EWjI7BU7LkWSETqPGwo6nBWfI/lWFWhj0Z9C9KJnTI0Y9E6GyfVj1JEDv6VbRq37oYuNsJ+5Xf2CW/wSpRwlLZR1d426EZFO1n0JCgmWWS3KjlE1dERaFKIkZI7EdiyxxGOoxMy40VytEtCR0EMTcHGmcC0Q9xhVE6N0N8/A2kWNjbFR33PgVxVF0h2pSULdidafsNVmmgoTcNtydynWL7JuUcBVCSo1/C5JlTgq0Em37DWkkJIqiy3Ix2cChWQ0GO1txjee+BlaFjnognJfsIkO2/P+EUXAQx/Lj5VS6tZYUh1YFkd0Ilw+WMvB6Baui8Kw8NlC7EvkMdTCYfRXXSaic2bqLSX2Qy5KINCy/wASNVfhEy7XXtEUkm4VLHbyVNltQkp0O4qEwy5A9VWVIugKfOSJSsgLI3oNOFYLQ9qFSz2QdC7ND1dnDK3dVKnwTPZggw3st/wzA1VY+5/FdEjOK+QwyRgTCvHDLXSj+gZzM/kHCJB1StkjKFwshNThPds+Nme3pj9EfRWsfRv6cetU1VPQkNaIa6ZErnyYpbwHwqsfhcBGnlif4yk/gpDk2yNVhdoTXR/A8zEuBMQYutJJ0xzoSKbiLcWUijIoDbWnS3JXeBLZnMnkidxC3ZQkTs2XkoqqEzo9iaDe8De43EEsiG5r4J/vEOahvUIgp21VknsM27EWZ5Q/oGq+w/YYkrPlnwU9JwxZdv0Qh6Ft531m92JRwh1qkJyxPBENmusqw8OUXwbDf/VO2JYD8QimVR26w8KuuXsXTDsrxyxk5qKvufkTB0TblkNEsdxiadj8sdudC02VWKTjBFt97EGY3pVYqpyVNj5QpJUeW3Inbw+yx1od/uNUEuDRMe0Y8SxJ+zKYtAEj3hJ2hYUhv7wslQix2JPyULBDvItDJr3DHAiRo1SnR+fsIBc79ismisnprdFyb53QqHa4Hvhb3LckSSq/BISYRDaZcRlCkyEMHkT7s7DonUrvGfqIejDZMofpej9MD9Lvo/SnR6RJRQShV9wllJaj7iJK/EIN8E+EZDOFW/ujY1JiuiF5co9VwXm7Ko7/AIGxTc1G8NxWVrllV4F4OOJCOjnsmMlJUVU9zkuGfwYjfkHEyU4DabyQXQ5cKJl0ZVaaskvcqS9LcijD0nQ+RLcbZ5HTcOL5KuuTiiDcv4IWES2OCK45dWS2mLm7Y6IUmQmerCCKOn2EVXdRJMKlYHgHbGiGmghdoPffy/CJt2cirTO8FCUF7EY3psln7KcFHwOaqnZFBXfuNwXwhd5NwzvwOm0WULKH2xVbeWJ0NiVHH3EqNTNk4vRJooV1PhCRAstjs9mFeVYWxtRiH0sXvoJzj5D2y0V9og1iyJ0jZFTYgJnchJNGbFXR+R2kLqorK0lxMv4FLxTQkbipQjdk/BCaWYmValTR0bvLuRZi8UtX3RRO2zKNQ7vhjuZT+ULcTWb8DSnFii5DbPKIlPfY2qWe4kqGKU3N88rcyMshO6Hgt61zyuRr3LvGmNG/Tj1rRDWk6P1K4/RGmdH6UROkHHYk5kTyleZM8ewhmyVmJPA2W8W1C+yXXwpJCTRIdEVdbypFtR4ctNFtzZtJvyWgdqSYszVSH3GcyecYFLuhBUlfYosKc6VXkvwQ1dEFhYIePYrXlCd4lcFGyUJPRGqu5D3HyPnV6CQ7Sxp7EDqiZ4Q4Cs4QmrhAiEkXRrwIzO9IhZIYHVcbbOxLkfQDJtmwmokwbiEYA7lljkkWNLLQiSPuQKSURIcE+yEpDaoJIjf/ADXAyZvRIjL+SRzea+BkHwwqPpFpnkCrgqkKhhSykK14ULZxBjx+Rb7TfZVQuLlTwO0PKNbspZuzdlj5clZrIsuo1q+SoB6r1Ip2Me7Kl7UFboQV9R0mUsrN7W8FcgsNjKNtEk29xkcPRqV0KHXD+5bcOpPzl1N9iqKNU/weSWdnhjuCij+w1KhRidTG6HXx8FjJdCvsMNbLs7LbhkrTFt2ii67Pj6j0nRBMmpD+k/TgihEeq4hSInUhcH3mVD3T17mXEJyElCWV1RC9XtPdSIqXEF0S2S2qMze0ywVxpvQru0Pc4E3N5ISjqLuqqKIga2caSJ0RLefxoZk6DiCRsSVREjgHhPIjlFAmig9J0TpPJ0JJWxPA3OCTdWWxYiqJsIMzZRsMTwVZAlwSjY5hNsLdlzbbJUbsxu3joexcjUQxCeSCVb8gtOrwJX7IUbrBMNtgT6aSshz7n24H/cXUtcp7sIiab3LtIfoVChmtcYzu8xWFZl9cEEt1Qj2Qbbd0loW1f7IYjQ9hfINASiLvgqEk2G5dtSojSmoZSS8nsor3KjXNbpCFSexBY9hIR7H2D9DKBKMIhlXRCQSo0+LgW6/6LwwRDmzQ9aqUpuxCX3HuOt2ZRTOZrorMiyBAJUr4YpafdEXYmVzS7lxvv2PbQpps7bMY5DSXT9OPpIejFXWwtYHrimmI2JGZ1Wlx2WZdCIeOXWB5FnMMsbmxwKSaweSyACYmREKk+SFbrHuMwFux2fJLRCqHgNSF2tpJ3R+DDj4LowiZxuWJTsHtiCLLaM2yB3E8oZpSmNppzkfkbZL3JM6bEiSRhucROwkwTJhJlhqNgG7sxyyNdyu0lXudSHhEtEM5M6EEjYG/gieeyoeJDXT/ACN5L/JXiJEwqvCELyVIucit7uRPAVQteIWtkQpzcO0rtBBBWEK3Q43EItLRtNzUqVO47bdhVZVNcomZe4pO9iaTSQsS2FQWpCozGlF55YmWWNwkNbIm6QvudAgOnQSi+SRkWUy97i0MTdsqwqWdx0Bc9km29gqjnJ0yqa6M9i5gS4s7DeEn5IionyvTH7MCq4ZFZX/SJHs/DMyr5QmomSSYsE+NyKBwucrh5X2JUWZDV7/UgS1WiMfTaGoRI9VpcNVGbgiU1EFpTG33IrUtpURMImXdHaGuyQ9tIGsIHZEihDroKFkuJCgU2M5mPeGFxECZWRAQ2FSwhpDQ28aUmSRHHQtdkrYe1MwF8jkSXkSYgRpGSPShDgShg0WB80Sbomxvlr7jru+yswhk1Sy3vnirMO0uRSzbnGKYELitlSLZDvR3QasuYzG9OEN9A9mlf4LcTKN6LRig9ICXYR0dKK+l3CIpblXsSE4MxuE29Cbq4kI4KOwiiRWiHYSKyyK1VIzF4IIIuFKI+Blv4rRU5mUQYsaHosSVBKJVlfKIsW1ui5mlyEm/qMblDVq+C0gNQi02ZNyjyOiFdVQ6g2S2zFI842eUNHyH8KoubOROHpE6WsJSBhlXJq7boVlU9EqnAtTjbY4X5Q02ad/WtUTUmnqkRTSPVBFSaaZ9FxTI9FNSqOVVI8Msuu1KiDWtX7EqfKUQ5W3YX9SAuN0ygu44JVQ5C9rOChKzMrqsoIpFKaJsIbyTi/vNyXRVgJ3jyWEoQy5MElGJQJ0GgNsOWTsKOSm5CIRVofRJUqQQQtjoUJ0QGg1Ehu7JkmCW7OBHMsiwkR00XY4DlZ5Yy/yzbq9xYITZFIVFoG4ElWNmFRH/AE0JekRvNWPiy6sThS12reTuSlk2+5TOz7hIReWPPmXoHDUJR5aI17CoZFV3peBdVCW7EsTO5NDYb3CQmHuMrjyeIlkK8Dg6gYmR1RaH9JRrDQs36FLDyp9Z/Z+T6yPJtaSCU7DvyvoGk+xYN7veGXUOj/I1HZB/ahSVeBsPRJtf7kSO+zMAS2WholMfmmSTr3D/ABCm/T/8OBEiqhpQqkEGTogRI2O3rmB6MCSpCkeBMry2knopvgPyqcc+AoSa2kTHJWX/AAIV94Ubts3agspe05fJsslHgOOSKwfuJkfI5I3YZyFLgtzWwpFi6FPH4STb7SK0uyVkxpJZ1ibsKNbDjcVd9FtJJG6EyUII5IgpyQtjoS3OYb7nItt5ZFYQWBpI8E8CVhFFGcBIciDe6Ilcx7kNyFAg5Y61YbwKRzoEm3GR6sbvZCrGlQVXwikV2bXNwiqLuPAkUzZFCnkpJvsaJvKBINjLzZbEpnsZom7iUS4KJemKY0fINdCh0YxJwG8rsMSGobroS+C7RUTFtJYimjF8RLxVqqJVStaL5EJwys4j+SGmqqPDHgPLUt5VhiKbBWaYjfJC7Dm9y5ICXwx0c+4k+45Q9DOw9xtJKq5w/fYagNodUPJWKYexvcka2Yrn8sNRR/Rz6Y0toqFRnggzrjR6vTHqVtLjcrgdiwo5Vpy+OjPP7LYngZ0VFspL2xpSdKT3/USH9fIy1PlooQvgDyDtkNlJZRQSbjGGEngkJrGhClak0Gl2XkLgSSSS4KonckSEklpOkPY8CBQg9mpuf80nYbebChLvBGWMVXkSHQaoNtkI9o43ZsJLvEm622EwKu+yEBI4KGlLeNxKSsw6dzF4FuOolHkls2w6AiUSBZV4oKYlaJM9VnmaGEVTKBqLQsGSNZXKZi3sc022SF3cxKxsVoP7BshUTsnS6QrMYV+yh5oQTw5Q8x2EhLArhyJDgT8BWFyIkTAyVYr2iYUqQrIpJs8MaDay40OCOV2Z6k4WE5qRlCKrFaGRTgY/A1NfYIRPxt0Luq+x+40phr0Ifpj030Q0cGNX6Ho9caWY1BHpvDS5Tkd2J8U7BAm+8yf4gyzN6hYBL2OXuSVbyyOrmgk40Y6PgsW3gJu5DIuJS/ZeNjUMqsl1Sm5MFJ00KeRdaVW1Tr00sjsJG5CwtYbkb9MGDB00KWSIIbSHIcCuN1KrjZM6HQqUBPUVFkaVA2kiCqrIKXp614UGSv22HYoUCJ9LAkvHcggZfYiLoIZI55iiITxIRvMqah00YxIp2I1ByRvEU/ET4UJdky/A8MyCbVYPknWK3THqKzGwTuJaHdCVHYk3FhpjOEnUxqLsM2NmNM8Uf7H0IVWR+z2GhJRqCBdoPgJNJuDusYew9ZVuNXocrREhfDtopansNQlqjmYdH9xqhx7P7gck94nRmPRH0UN64J9KM+laQg9HSxnVDLsLoh/cFVUK2ay5gZwh3gZq6oFHWITctdgloQuxtov4I9V5qpmfXDhGCW9zdQbxKSKhrFWz1hNja7sLulFirBKyXXGk7EDkNgSbwMbqyNUIrucyCt1sQlTVsab6XvZM2JS5GxuSWEcyWRTwIkpaiA52ICkqsJDphSxlNK2K9m/hCcpRsKSAk3Ub9icNhJoDiDd8IWksmpcT+4jUskRuoIhRO7QkX8aE3CZQRSGsXLIJEZFYWRFA6wNbeZkizNipMmyKXbsWheHVQ9YaVDWrqUJ27xBNSh2ZcLQ9iBlWC8wK0kcd9hnIdFWLzcvCYPdKH+C7dNDspet0Iv0wTLhkWlg0zY2iNuCOqzsPwaX7ElD7BO762FZWPiKJszAxO2+gr9MlPlOxXoY/pR6M6v1MgaIoQPRGRVVBI0jS5cZA1fwMiUJbtlZQCNecbfSFmpJcEWkm7DcqvsiLMpMbVyM4IRCq/YXvxQkQlm6iUR/NZH8YLTy2fe46SYE3ZI3mhZmvBb+d2OxU9kMyjcw1jSWQkxDI0g8CaSsQIajEmSzTRTcUK3ZLWSJcourUhr0aZbPIlZNug27fuQWqyY3WXk5nhCGvjFGRYCSrsY24LvYZYn7CI7iTMwhoQ7QTCWNTA1DhZXOLW6FTLBlbQjUPcOb2n4FqWwZMIxNkghLKg8pk58BYqyL06HIjMBOXQNpTiwe9t2clhedFBqVwWEvjsU4U3KKEzLYqp4Isew5LbYeZrNSWXuhgqVb3iEtsHvFOv5IhCUpj/wBuSIdrWwTlNR/3udl9zGiaGqDgWWbz3CsnMrATmjFi48q3jCvmCv8AtQ9X6p9bJ1dtMaYJ1YtEPLJG9J0d9FTqZS90kQX5Bxqlyy1tLvFSieYJ1P2RWhL2EVFAis1S2FuA1ok7IOE2mfLMhqORqtljSEp0Ksb2HY6JbVFBawnNhtyAVUQNDT2YuBGw6Se53PIgxocsUyIlRCIRKQyzLSRysZmOCHAszRKCeIluNOR7nBsIQtSOglkJGCG9FluQgQtkhdNwmQ7l2VYkKciUNdxUQhOFQxLGSqwUITmEOjJWSEJcQxAFQwPIlLgkUqkK1BqpitlTBLBCtexLy6K1AsUzqaqCoIkr4KRO4HQaNzwPL5DlFDtT3ap2SotWy5K7vDF5AVnw1sQqVV925IofsQulNv0TA6ElP/Z2UiOuqTBsA6uRWdCJEBpvK94MTUittlCwfhjj1sRSfJEjuh7BoTV2+vPokgmmmDGkECJJ+iyTLIoWhS3QTvrCmisROW2+3Qgrz2mBpHQTL43sDiS3apAskFaIbsReQsyDiqKNCEsmQqXabEPdZtyPSSGxlo3vPpYIFFxO+iyjSJY6aNmbnkiSBtK5BkjTQ29KErRUIqiCpFy4EpVliLgbOxdVjTtjRoWNFwlVLZ6KEtzyySCrYqdW+5zjZDoo0LJSkyQUVytO7E3FIWQfdQxJi0LVI4qsYVEXLR0xE7CXZbHBTGg2CfGhFvtoXEVlbisoenSzgWGlsL7horVPRCdnYoRsKomVgiEXyLBgfM+uSErJ+wlQVqIiF1RLPL5X+CQe22nksMiAslyrVchrKqpY5QohRbIno6Jbkv3qQmhq63G1Sp946lFHkKjj7DUVQ5uVRloFZbjJfwH+vor0xTWNJHYj0GFbRGS3pzrbSEa5KPlbFS7ZAnTob8DL12FUBRsqikickQTRkluUmvwKmo7cPdQNgk5Ee/yVQaRHA0bqiIJeCt9D0MjRbAxJ2RKa1FRUoMOSpDZD0RIJRVErdkiDDZMWSQjeWQ3CInuNESU3JoOohYI0YcKjoEVRbWCEJOWMLcOSRhcMu40ERp1WHWak4DUsnCK5x0RgtYqGxRNYEoGrBF2hIJp5VNxHUiZwMmnWFQmWN1IingTdZQXQhCI6WSfZisNQ7E4hsQabHggzPoY4knL2S2wr4T2Mka+HeVsLXY+xBEojIsIeSfiwR5fgtG2HsSOH/oa8tFC1iZPbHVfgySjUBUfYNZkcrkQkzDIjRuS4iWlHZKp+fUvpXIJKrVDRFCCB+laNEDkkb1KZKJistW9xYy5dRpYyUk0ynpCOESyOFLkTuU8kD7VM3N4+4pjaA/uVv/jb7AzT2xKJ+WUNkUF7kckjaOB7ByY4y0zInYoIo2HJUTMQiKuU5RFT+GPsUtwqdx0jm42dkTyJIHEVOSNyVpBRD2ClcU1F03VitkOu7FK1d2IkqIbA2UIQlEhSUU2ZExUCmMNd4kV9FsuGxbEYti7LNKfjoPXyMpCiw6wHYJpiuXJsVlQJHZDBUF4K3fcirlqwWu41km1A0ywxzdEXNcmoTYjbklL4P9keEKYh3Q/aXlg7lFJtzhNmUIE62zKxZVUZBFv/ACXcb7Cc9jQeS8jbCaenYO+Ngy1xVpVclsNUmpEJDfge8sH/ANyNklKjsTw8eSe7YY7+tr1yY0VtTWkEl2JEan6JJ9CxwbWyYvSbgrZG6bM0fkuKXZVH2qSxDe7lESjdkU+9Jc/eBvNT/iiE1dZ/igjs2bdPwIozNkC9ShzjFNXU4CZJbVKRwRUhkU+DlpRDY00SEqrdR7C8DpgdsZq12bo00gZITtJgbIk61mXAjIiayJNG1/lxq0kdZuWU/gSVxuEN0MwJUYzeBC5G0ri3KBKY6bI2YMApKSxpUKiNw76aBhEEgYqQk28lSEGCsgWLylG5A7SBZpGlFJwJqmOqkYElQVhWbh6B7iSIsj8Dqj2JWijVUxkytUls9hzULj1Ku/uKqOYO/JQQ52Z2iKY/2oaj5imj8h0XBhtg5GptclM3gRWiShKMilyWjoyJzZlDvKITVPYabKTkti0/XYSmzh+TJfYhpnRuIfBPoR65I0SEqjFbSDOnJjSNc+mYWmoB1BuBsPcJY+zGKdT2ZVoP3sXQjTZGMGyEuZR5HVUE3hFJmnAslTyK7Oo2TacCV0z4BKFshKFyuPkILtqxFdyyECDG2SyyEJCBC2jY2TIrvAs2OE4Ebbb8FA3STc2XFoqJQkkTERo4D9xJc2IiUY9hOuq9psSuyOMKlICk76GxsabFChDFVdjoZlkKE1YRFERqCVQWSC4dhUQ2WkpHBveiciWBIEiYWInoMOERDrQYli8yI3hDyhoHg7C6HeIVYFmKqryWkivAnAJy/DHp2PIJEzl8MsdFr5Ok1TgxoDI38hFizqbjgeOODZq1xt1MaISRW8FBAFg9Cfswsa8w1lCrUirtLYkNapPDlEGXg4c79MhtEb2R0UwyfROj9ZCsUWjqSIS1nTI3ol6Y0LajmoHUoHoJDvdXKqzvGNnndYuLIpU9oTWGeDO8X4CPOXoQlhg6QtIOyQnCUjZxCo8EQxunIw007pWnCHBKbuXJMqNomFYyDTKo5ldq5GuFEVixFaGVd7DY2XK8kJhXOTMiKm4Ixd4SGdxjYuhC1mXBfV0EiUQNaUuBtcUEQN9vsVMNkuERK72MSwoQx6G8D2NwwPcdEsqMAwVixViroSo7DoNlInL0t24QooDY4okU1qUF4dMkFuQEHWJFW3pYgZkRYFVDQmw9RRqfAqWEmYsnCq6IxrAkwg0yyLbDFQfAUyLao+xR1M10UpVGiLQlkInyIKOxkjgr6v8AjQpGQzq6Kc/JfWwjX2CaSh50i+7ed3KHhZm7cH9WCotEXIoOEIphFD1pA9FeRIO+qqQWKlUUIFncRpdDcVRLmyFm0xIxaTUQI5ZCqlpK0EzchftglTgPZsZSMCu2QdaT7FNaqbS9yEI283HXJEJSasLA3CoQpzbOB8hzju7HpwKsipOT5GOrRhyNpI0ajCUkgIU8kI0aK0xkjRLgbBbEl8xO74EE3TxsVLgjRBa43CnAhyGyUdieRel5jsIVERV9CluRsbG6CTZCYM1GqTeERedKiK1wKzstCJQqaMMPzpPcxISRDaJqKBE9iE2S6ELBlooEUi6ov0kisRBaO48oWgWRLIwnVocHI1LIldRZGuBFYn+M++S2tiwcYpYkQIqruNQFFKuzyLSQq8Bsfgio1SME2jGBM3Ap0HIgcq4hYYsGLatlDSv5BQmzWUW9rdiU+1lD7vtcprd8rj0T6Y1gYrltIMaqR11br6HI2PVoyNVt3HeO+WNgmlu+4lZkRFNIVlLhZ7Eok5u1kOnHsigKe1fk8xn7G7Yx2zvWf8D1RZDndlQ0m3ozwH1SWrrwLboTSlqJCVslbojbRNmNvjEjOROy2Lz5DhYguyoSkk4RQoNPQvcYTZo6uKgdBdeCWwjdzJFZKu6/gVtTYKtRrksTJE3cjiEthKTgTYbi3mAqKUisNx1uKujYyG3AhaMY+DztGQUIXKcDmtGShSyQ3KAIqRYjpUtiEEGFcN3keomKmCW2RkV+z8lkcou6vCI/uIkHSEiZQaEUSIQNQpQVTK6sxCizRKLAyb5MynuTshUWO4H5LoV2h0fY1lBoqpMK3x8UCqtJR4YE7H4JKDUjlQEIqXDsMYmchBo1VrPYbhw4IUy1U04b7onGJPVKo87MacBD9WfSynol6VOCzoNbkUlFNIqZ0Y+vQ2X0ei1XFE7l7MqswQ42HCtvj43K1Jvdz2M6orL8/CFmhuHiRgtWjZQZ8pYUwuOCmYKnZu7F3ll+xbnrxEkTzoHX2GlmGQWNEmQ8iXBK6jpRGdERuWIx2IeEIbF3RRl8FEqUnQrH+lrCWcd7sWCshI2IZJObOBFGdkVwhZyiIWjeiJO5CRckbGRqMeiWWShlBoFTnJFROGUEGLTlgGTAtQNRJLNYgdpmQEmkF4RWm6jm/AlTAl0sQaOooWqKhBS7dytkkZwjciVmCsCopqtOhFx6Q9QSCvohqkRdEJAkhZjBsKxUcXJbTp8AYJZiA1LSuC6w0/oIUU/AlRFAh0eUXWiEGuBJqhviSJ1sCSpRFVYfhEyrZfYtk8prK3HUBbubtsP+uNc+LZKa49eR3M6N0FUyWMUQTUQlNiBSytl5QwtOSZRZel6zpZkCKFBRYZx1hWPeeSagjBRSLZLLE73CvH2R/Xwj24JN0m5LL+9hEMxkU5wj0xJW7YS2VAbJzGlgl3K2XBDJyJshQwh0E1USnZiXsWRVHmiKaEwqjoXFx8dqsgluOioTZ1ZBK7bDFTqV/X5P+YERb9jS2C8ZIFCoNChDTsrkqh7kH7iejgMPBQW5mQkJV2YL3LNIIqJDWw1I7kSSMTsSMgOLWJi+lSU6aWhAK4KVySTVWRNbB3tKIqqPD7EC4Y5eyFp7tQehORoeyGnXVidrLEuFEKs6qXVDJmx00znQ0DRxGMiJhTVFUV2SxK4CRiBpoycdlyB1W6K5nOiHTiyzG1CqVewtR4JGug3JB1JmjGh3OhOg6jQoKeDEPksxPY1NJ3IEzI6NY4brdERKRNoqk25TuL6cUIhkS6aNGBKlSyhFVUhNLlFSZTpBRlGdXYeuw9L+pDVBMj3BVj1YWChFOzb9AiFXOy3cImia8u3AXJsu+j4vuLVEpR/OBYlVNbiEAOTj+yUDe0+wupLfI23rYsJa2BwWM2b/AIClFwiimwo9ickfJs3FBBtarGCX7MKGM5ZmS9RxclYHI0f3MQ1qEWUIs+ZU/YhLSJEduIfCFCCELQbyWrkspE6+EMskEiHAVoIJCafInk+CbFBNTq9IGMUckk4WjbEjgW00WHVCEiG8AsVVnI5BsGB0Qh3YOSYqsLywq6SWbZZa2AzbMWQydYVyCGR1thxoDU0LhErcjJVMmJWQ3Xki4dGNkwIlGxjVVkpJ6GhE5pYF5hOi0umtFotBl+qFhoU1biTr4sVDDGlaJc7AXQYHNFS4KBSppjE4ciCcUKxRUuEObj4FDUK0V92GZ2Cj+/uTV+uNHq7U0oIKqFkSPmKjc3I+OBpUZZj7E06NbMhlx01fqWiTgiEXGA3twTI4nb8sTpGfB5BppuqbmxMCMmC+7efsX21PtZEXdFBcIWqlgFwhqpuhKcKxDEW4vAq8SbNqyywhCn3Pcot5HdtF8kfZuZcuf0U7ASNnPI4ruR8TwUhWLnPgIbMqJ9/dlRahsZ4CKZY86+RSOEX9RDJ5C7L2sJZLuCJkJUXN4KBljubwVFisvhaC2k4pKIqISKA2IbGRAKbs7aFxhAcsbx1YfCoiiomYVQrj3Y0C5CVksV1YHkskiQbJjsYgtxjrl2FNR1FIFY4AkgsdQLRFkLwLA6aVYTCqvHLHdb9QmBw5MTbmKhSLi7SOmjUTgTB6CaclYiZIywvNoUWREzYWIRRA7SZCgGGhiuIZiMj3IuhK3I3LjZ3J3QhcZGW4KAdHJKSlx4MmbEGlnUkmnLv3EhLUhpauRCUzVLZwyfL+jgwTrNDIxUHURdQgtQqjsZGPR3MjjROSIJbaYHX1osNyWHCxctUQYaM04ouuFuKGUZkWWEmwpQ91dpt3uKgZqy+E7sSyQcMnwIF0D4HQlJTJQoNnew5SN27eBwCtfdkit1I9LXFgxy7DaY24VTbFRkdq/wCCi6DSN24qAqgV/HAxVdmWssqJbZgstve4p7IwSEt1NriaqznZ2bJqm8kfYsCku19i7hBIblCIwNyNiNNa/wDhCSJXaUrLdjX1myQDSLEZ7UE1BJobFpDoEN1k2hHAhvociZiXkJQopITNxMwhKXHu7j+R1E6TmxQ5shmn8iPAq7FRE2a2C/P7NBcqdhZtJQuB2GRqTdiaJIPHyynWrMVu7i7VQabxrA6NZVhVXOTd5YqESSYIILE58jUy4cwMoeDEKgjljU8EqWTQlXG2R18iYySJraxMonQqc6UjcevBKgZmG6Ckh0CSNIMRFmCW1pqKeRMfLFMblSxENaY4EFVo2mzKHsJb8U8MkR0hPFJuIGqMTwP61tFLGXEYEqTkTQ+I0YEZkVtIS0SJ3JMerGhk6Mdan4a5EvhfbchFP3WlMN28jxuKQ75YLJTwP8iO5v7Hdv8ABcC2GRPaRa8CZ9MrgpC/YxnI35EmklLi4dksDY2V4b8CmoqsFYRvTiIq1PBcRWpd/IkbiEp5N3IVAsPBF3XLGQlE3Km1d5KwHmEV8CelKjJMvX8wOg8Ef1EV06mtrLohsgxLlFrcdFOWISSq7pEYMSshUVkPChWLpU0Ge0ReCkQIH6WcMFTX/IrooRcRK8jKkDo+Rpoii9WNsQgLyw2SVzvcVqIN6zRERbOROOXVlZCre+F0QeAqsk4Lz8jRL7sblzhWG3TYqFKRG+XgoOLiU7fcXB5EpVSWJRR77liOoB1b+1xKhFSWk4HITGSUCpRXCgN3JVTMCJ0oYvYbiCJYQhZpElTUQjZgQEtkJoJPstDhpjcshDh2M7L7BxcDkoIrU6DJJz4EXL2KkMvFgSxEG3VEMKMUKpQXFhrXKLEuZmpw9E+tav0OiGJtMdx2EoJkUCZmSalxVokJJCJc+q9ER6JsaojWxLcVsKUYKMNt30lQmFRjFT8Iz9o++4Ew2M6rbsOmo6S4JLWUs236EKkpwkNvLJ57hbkoVJ5IhJXLdiiGmIUvyE56pO8mXyxwIqEqdHJMUbAnu6OTIlKndyIYrHbylvYqMjcwlkiampUqBt4UfI0/Z1Ux32IyiTaPI4DtsFFGyKpqLm4juZFxggxXEWtdxYFqq0U92O8QQ4iyxtTsR1bu42k1WMQxApcRENseby3nvcYJq8X5KCafLKBz7ZFFKpDehKo4XZD6FFioe6bCDdbEiFYkciJXK5xPDvfYVOiqrtlVdyjJdBFUWWBJZuqx1fYJ4EWXYzYtWhdydcInKUzyPxExsOklSghHW+Rr1FYbjFF0NQJh6BwKq8DOYcKIIbSVUcFR2KtQbkqwM6R1QuM1Zd+RlYTBvJASOZKXYSKxKZUF1zgRdyGJqkMp0RpspGpp5Tsx4l01pkn3s8lxI3yQ4NvIxnhCiNNQqv8A+CnoYkZIGMWJD1oPcUiubmDgWp4FLI9LkGNI1wXLCRWZn7E80KHVNlsQtdM+MV5+xPc0cd2J7j0JFLYlUWP+MsnU+RkbOTH6mv8AESqrZtfYex8PdS/bL4nbTRzC+7DTjJ7foq8f8NZWIJnRqXOAh6luAJhKeaBt7p0kX5UAz5S4GuV9YzfKbJXL8X1aqrfyLEpKImMIg7SkZJtg2EKsk20s5GRAlAxZU9xUThkhll0EIEJKBJRl6sXiea32kaFKxRxNhpMyNyKrXZWLilkSFPW46qxZe44TIYMiIUcz3HgahVZRKXRDbeKCZic0sHelty1xooJNUtuNSyFl8jJS5YjpQqT4FKewz27/ALCSKSSXuTWkrKWUkXX3FSrizvcRzuv5Ot58CKFh1NCVCCfQyV0klijmlJKCpU7Cd8okWeT7Y3KZiRwsWFsrk6b20ZCzvJwcsoru2IROhwQXK0iodo90TJOowDS4K6RjhNCKUJKGTQ2dQ94MShJDoCzo5ga6HVdDJKblyQ5Q8jducjbz/wCR+jBJZmJGzoSoG2NUkgio0kWIJkQyC0PSRDUP0S0ZQWC3Fw5aFZsiIJy//IcMGKtkcZi7dgmByqir/iIEtwfJY8bIRqb9kOFEu8/9EJuiwtkUGSayuiTRH8seg1VybAxoTeky+xSLdl2QPg/aE+y5IWLC8CY4JNeATclQ2NPCl/LFKlI5v5LFK5+W3ZClplPdlc7bFksQNGOKFvbcblU+ToWg0SHMJT4FESViGFk7luSCWHUlXSK7UTcVsnYcuSAQ7AwJi0DV9KdlJUT4IS8lst6phd4FBVOZyzFm+EzrQkZ3skl0i2XGMUHFKWXkXKWKVCKCTenYRKiVh0TDJrCnJVKn2X7KrdKyNgVl97Im3pfsie0dE4nnJQxShMMq002HADzKOFkOHbRXZuYTYhE6QlTGLUoqKuwqoGbrWJEAnRhuKtS5gUvL52JJzyzHLEpvM3EvIyJuSxjI8jmiwJTTYWKFRElQJIlRZXKnViEsmyUS6KhoJQwLS99BoDWIZdQZtSrkXRof8qStW3Iu+DcnUW+zuU9D0iv18+uurtpImo0g2QmGoJGhJ2GrmSMkSQw3otcliRWqX9LHcXdJE6DIyBZG/wAD6x9ECJqvC8pf66ZbsRUrLgMz6MDXJvbXxY8jSBkYq0lFRVuCTeIbm34KsNy0Of8ABbbN3lx7uxWBK3sVQVcxGRjPWu5LW8PuInS1ehY/siRBtnlsjexWkfb9kvKzFl+2K7gV779thySJejBS1TF5k2hEazoSRvKZe5kbsipmXxwiFTpwTLhDs0klMi+cPysTkYgqb8lXaAHODshovTwcs3bsJdhiZDmDOkIW1FQnTwd/oIOmxcB9mxe5VaNzCUL/AEqGtJ2siqfZUJW7bE7ZU2eBsiTY8FwVkUlSx9gko7dGy6Cfk8cdiV22SrKjEojc3USQk3Ly5HX1JPu9h8VflMn0ihnaIb/txjbcRKfYipJiDzZOiIUNT3bEs8F1/o14D7GrCsqFl0K5uNREVOGRtEppgWaiDd3lkQmFdNzdkAk70RAsFG+yKHgSvRBEwslFCgJpe2RzghEmTNlkw1cpIuRRQx2+ZCyeS9hZBqqGkkPJZvYLe7EkyYgVPQ9M/wDljVWHJMaQmpGBymOlcr0KsnDLZDpHRDuR6kRpJgehZOWSMyIQUtTRYW1TqFuDVHK7vZd+hhTe1LhtuKthcCM1SUer5Oh4XGU942fYpXNem+3HIzFTasuENeKfC0XhfcVVW5J23uWGiNJVL93OwqUJEUzwiuiiIY4/YVlFjLfx7skGz4rFt6JRt3IJBSqUUqpkxI6aNrt7IewadWRhOZTX9kSKUsIboI6/JoYk8QbmgjYSQ7XVX3XwKPsLS5KCcis1wJG9VSt+ljGbiLIMczhG2xJOhnOm7K5P/L2E9u8YWyFqILYPAGYyQAclkkSp6lpTT8E3KYbmp+B4qG2vcMxPqmzQ37FFLYrrvkatyWiVRVGklv7UGTLVo5fQxTfSvsKTpP8AR9CSBoIjeI0CLtZyEZqkHz/iHUFttLKxkavcq4vfe78ITA1aK1OxA6VS7TyxufCezwRSll3vk9KxeKFAmRVCsE9hVQd4IKpsd+7HQYjZSRuisUXQoENas2IOXV1ZKegituJYVeRLyY0O9icm+kU6DKUdIgXkSoZHSCuNJqiA70Jbc5LkxzfcXVOqduDvWTBPoQxaO3/glLXIrSNxLGIUO+gbgeXou1CJoJZG6iyQTOjvpGq0ZOlUJwVaZMlnOwpSoTLXtwP0uvLSTCe7Ec3SooIY8k6VkKr/APThGA7pWbZ92yjcJx/nI+yWvt6VKuKMsEpUOGxNUplwZfQyW7lzl4Fe4bXNEFEcNSn7FOrQ4oqkvQaSwlsQ0s7LVhjNT4xbOBBWbIyQQUXCOwtTy/4sTiSedxuEjyl/Zm6zNwc/AysjFG342Khod3Pkd+NlnZH6HTo+8bqMVrGiBtu5OwzIgpMwL4ZIruBSfyS1u7aOlMCc7eAlC/QLSJvw3+A9hlzLnf8Awie8kOZJVezopO5OKf2Ig6vbS5L6GuySdE25ZTs5hPfd8joiTomwlTcvjydtkFiAqLBeR07cSV+Q1x5MhDcxwssbLKk3vgWZu4r4exUt9U3vUptChjoscskWySVTKrFVR2dhO22PNV7IeGFfRCGEUhLEKWCnYrEXiWKLYdTQyB3Gmo75KtKyHVHJEj3Ecm1RUl8GSZpYQ3V9E1Yxewy4NLshGlTNfoP0vVfUTqToxJOxUkuMCSSgbggDcKBVWjnJ3KEcBE2FGSCUQO2qRQVBOmVpNSuiGiK6I8mjhGLTUwjLX7IuiKV22XZElDS1ORhbsuuWs+Xu+xfApL3yzyDI/lkkL9iUZYasCusinW3f0XgjhZt/U5GMVcsDppNEG2lyvuK1Fyp2vcc3nmlkvdiFzBgD43Fbsk9Nqu34/sKyQdDdktqfnPJEV2LRON2WVn+YZtLCIWR2T+wVCYqGTOUnwkKjOncDablWdSLlCvf6lltLcYRqnAuGoxVC0lMOCaqVrLYodFOCHuHhpg3ik9jpSpMsZooZJ5eCoULiLhDQi8CcvkY67bDkE4qKeuO227wyxdr3vAhTX3F58DJK0XbDFK26J5bcX+4TGhyirjOlz9EKKW6+7whXOPIxE/eVS5j/AE3OXmC0rwhhrzxgt1/IUkUHi2JskCm7EwldeCRzgOUrdkC8IQkxcediWLspp1u2SN3xEdMhpishEJe/QrRlWRCrer0UnA0HNy10PSNKj0n0P/040TUFx2ILAqFFWNbGpUibQ1Ri4RA6KxdDVRNpjhDYddME+hDqYGiNESY1frKiSmXsmWbmTKt2/wCRi+b4EUt+bF8aCfskKWSTL8gi82l/KmH2I5mul3uSEYpJ+8fZVcYlRVtluE+fh0Vuy6oOvjMTglEDWvC3YylVPJ0Yx3PwOiVvlh2xFKTPf6ImTYlWEdBpq1rs/YihRTlkiNeWHl1HFd8z8S5ksbQTk/UPlKEjC27IqPipGJJx8iAMLdvwItYisMqJ2dGJji/YtOYsKMokqoiwUMoIfkIxMkSpKGVuQtmrBF0ucjbd7jNUTiSs7Bq7iHit2ICVZVL/AOBeJ0z2JxBNz25Y+SlcOS3VJpkngOhisgoIClhTH5YylwHyTMu2Et4oU+1jpFUyyG9ydISsqWQo22OkKrwpFj5cFQXDmlzYKLll8jM0mhUs2eSqIbeWN7hF8CU6roip2rUc2ySqyHEQQjeai1dUuZFkJNvBSDQ+I+RDdCj1WlxmNI0WketEU/8ABjVIhbR1IyOdI0bkiNFQQty6kihWTIxMQQP6LZkyTo1JFCqxC7MrWrdkn4JGTIVIiFn+DKAy3kv9ITmSkPcrvy2JopR5eWPBnmZ2n3kdHBBcyqlh/jmWGIsH4NdIVHi23h/glSppZbvd6xLUKSCy4m7svGSOMvkyApFAuMtxc9kLQibC5gxwqmPHJGsmVYtwHV72TdjQZ70EW0hM6Q2PlfglyLbd2dyoQ6EEuAOV+51sN1KZBU5m3iTYwS06il2CPMESyTTYlQVVMcCeiLigVNNrFEmJ+CApV78Cy91dO3vslhZJqQKjHdC1wkSApx/wa+KWvHZDVREKelZ8k5ZkpbbsoFCoS2Wwxl2biUKMDQqEra+4JUk4tnbJ7mzgj6ENLSonkdWIreVeXViJzSpCL7inVeYc7kwe9rs9s5LDmEKqWAQOiKGdUXbHTEZuCacKhe9zwhNxIQg3YRQzaVE+TBVc7OiKhwlchpV8CHXbHQxs+a9IucCUFre5KzSQjDwMNmdFQmuj9R/QWkUI+m7U9CYkVMCuVBbEJkblsjRIriLsoLysCIJhQZGPRaLSaGBsbFrFCsQ3S5IYOYr8jwUGFzdt3b5YqqGOzwx6iULsHctiFaq+xRFhZabcz/MTMbqS5iKJJljF/OH07N09xz9fYdGwV4ZGYMDWHEU2ExYdWkQclavCct4F+N9GW8ducjGrScpwQinVq/6HJyAubDLadEtwl7IxuCPjnO4hURt45JTb78Irf9X+klDZ5CJkpUH4IRO5FhEEqjwz2GhKX/ox3JzghlbkvWU+BRGorU+xeY4Iw65oP5E0jVCULyRAtyqqMLqmV9hqfSnTwVTJcG2BAtFCiYLchifCOxB4S4ZfmwpXnVcIfLPAn3ZDyjgMjYVcd0FVCp+BLoCd6DUky1UPPIoX8CYylQyrsS7y4UEFgqrEmw6IzmnAsNdkJkKraEQsqlTlkJSe/wDmwpV5MTNeaEWVkVXwIR5EDah5KKMiohYHgFrnVL1Ro9LfRQrGDJb0SLRaz6ak1JExqRDlImpMuB30VdGFUbUEVLKgnMjsMfoshCuVRdGR30gaKuhOEgnFYZIAVG7YXSHboJrPP8DDLdrwVkhzZLfcjIRS43lvHhG9MUu6UFRVQoKoMtu6p1ISlrdQ6HB4oWRckkVXeEKoVlYTJHUp4vvcmxiElRJbIlpymJwJbzo/QxVTFFlP2eO9sholhy9yFNTbliUTpt/oOpUlUF/B7jPi8BdhNSUJuGTNtkYCmatPyKZw6DTzciZKwuYsFZ1d2VPCVYWb3YkRvYRokJC3W6GhYe4lu6YzdUolCWhE9VdDaNgqWTXYyGuVQVD4IW4LH8Ibjke9RfIrcH2IRt0tqDUoWSfwhUMoBusz+CTGuNQuRKjdxJltwVy0SweQdjyOqZL4REFWs9kabHJjcRx0MjFIJonyEDWwueRkPX/RTo0SJgrgdBzXHYpHSQMS2oE1A1otEZ0o1sxXgagaGo1ZGsmPRNNJ9K1wNeiCBqSKEUPgNiVNFya6xolkqqRSESSMfqjPojczoQ6isUElsLZ7CxwDsMZViKog6+4JZI+LY3oh7ZpJYRYySdcat+pFLKex7l7qtxiLZGCLGm7VCMdsoSeWNrJq5n+lxK8k936FpssMQOxV8CgMDyo8uBp0eBTORLTJsyQYgpcDwJR3JX2J0i014FuXkSIEIoY5TBA9GosuBbWpC/Y8I3d10YwWtnxNBW/xdjsSk234GVZOX4qQlCstu2UyLtZQvIjhvcYmJyiTTiCJxdBSRBQqyXzsVbZHllhizosFD4B04K3Y6HZ4GMj+ShBz+WIV4mX3ZaSF+zmFQRKi9S3ksLWaareiY0SFSw3pf0r6udMarSdIlESOxgjR11kYtMCcDlJZaq49GSLTIhJEEzouJEU0wIglCG6msjWkUjOEzYWmR+lr1xJJYnZS3cOtyurVcjGE0t3sMhO+BICFhVh4SHySazvw2UKsT8CHwQUqW3MbhRlhqVdW/JCqTxcqrU2BJlCVK6FZtN6WHeaCEyjSI8iTYfRl+0ZArjFSqn7ltIEQINQ9T6K7jpZZRFmlrfZGQ60N85JYpgk3u6UgScti+8NZ/wBReljtk4yRf7EQetyTVSyfkQoLIs1EoVBEhExTFlyNkGvLsQdSJ0rXY4ovcHShtoVZVf3ZGVYJywcPYjqk7vcfanyPLGqbtdu9Fo2K49hD9DF5Buo9I2UH6Z0Q/o5+ih30UD5JoMrkZ0fpmCa6JjddV6WHYpBFTOkkGdLbJ9CHomhrDuT6Vo9HT0Ni+1vpjSh2k9G2/wCSZgbzwWyHIJPWXsSkp27XfcM/sNGC++6cK7fYiflEnDFcDcFkJcnmAiTNUpCGpGAkqvdllPCoNXyVgqSb1TaBC1/MjVkqEVqkJCVBuUMoFMLfYaQmiif3HLdMfbDnhpohNfg30PJyEp6FpxHlOBEoYcvwIlTZUL66GqdsCep7wKVOickfgpLqNCoTIlSxTpQ2KaUmNDeZr3shrylRJMz2/oJdmCYjkmWfsI5Cq7DpUyqbp/IxpbfoQ7DF1vohCkEj0i2k7lPI9Meh+jGsar6CVR9aN8DEVHpGsl3o3otILLWNL6r40ggihBMYb9Kr6o0t6Mj1j1QJCl+Cs3ylcHQVpdzD25Y9PUe0uRzyHj4uyirpCe/c3ve5ZVaaflYQnYVKcCFPuPy5SyQsIY8MQ1LN9jkjBN+xq8ksTERoxsYpiaav4C5UsmUikOEUnCEUjyhbBdWYMuv+0FOSyhsmHiRsDmL2CoVWW1NFubCqI6rOQMbEqyKWKWRwVybqOG1lAymrKglr4q+9Vq3TRelXLGOj1iRUqTG6/RXrYjP0J0to9E5KizM6PSROpCvqz7F9c6qgr6TIoIBmXBP0s+pX9KvpMF9MCiVI6i/ydi8F5+yhSpa94YdIS26vdiA5hJQx+SFbMLs9/AqTbdYUvstu2Onq+Rm2PBAElKMrDGtxJvGsOeiZHK28YFYKhbJcNjbi5HkgWidGNXSrcsTlGwlRuZDuuhOBbW6g92bKUm9IS43R8EfI/gfuM9kUQqMyKq6LgikxMIah+p0MktKNxqaPQ09GZ9ZQG9JJM/8AiYiPQijWEmbjqTjRIgwRXXOlyCwySaH2Ni4lXS5BGBKolKEk0GQTNBIj6MEaJDFpJOiKSMvohkadwECTKJQ4WxX6Q538+NhsNFX+QyTwUdlRNyXzgPLXUj5bKeupGWvgJbcifCGRJueWQq1YRM8lTI2FS2Q50iCJEiKaNjV0QglNCJ0ZS5kSXNSJUUYHVyqEim6K1POCppEiVRos19EQykMRrBZE6XEhqFpQxuVo9Fo/oZH6H9daY0zpfWYJJkcaYEOuh9EwtIIoMO4hF9bNCvQmg4gViiJVB0QU8il6GODInUYiCCIfpzqnHrnXIlq9aVxF1uOU5unSwkTpVHE3ZndgoqSst2OrGIcwiZlPnmr4CVE+8YflDjIlE7hDJFBzoRVkoWZHUqGtCRGjHV6LQlBKehsbNVcwNjdwmlyTRNtCSEIIEhqwdA9V9tUN6ZEJwOWhpkDto3rP0Z+nBHpX1Ikxo6qRXFEEGSamSRXGqrRJXGiIZAs6XY1QRLkkgHuYEx3LVyJy6kEoQ7iFFZMlCKD0z6MkayL0WHohuPoIb0er+arcpXHszf2w5s/v+XuPFlYRcXKRFLxgrmXEdlbfUs0JERqaIqJVEEMJjgOY2N6FXRcJUQjSBrRBUJKNVo/Q7aLRLkdUYGLRX1YvpP6b9N9L6XM6zpgqXGmJDRNDHogaMiVx2G4K6ZEYKyOwkis6GTJBBI9EIiXQkViK6X0z6Li+g9F6II0Wk+iXCq6W0lurxDwKQ2X70RAsiQIkjA60gVTuORKCGnsMio0XGtCQkJOjo0N6JGy7EJUS1EO3I+G96NSxoWSdcqBmYTjRaPW8mmkqIJGL1T9OPoR6HTRCtoiDHpSLoVhfA7IVy4jQ7kaIggh2G4vo3oxK7V7CEFuygmXoM+xJEoWiXtotzkO3okn1Y1gs/RImP6coyz2sZYQLsz7FQ9iKxOUysyfJQuIGNaQIWJGSuMzrAgkLAgmiNtPGjQ0NFAsOhek+hEkj9D9S9a9c6QQIiX6lDosyfWxCSG8IoNpFWk10QtG8DZU5LiVDBnSgdVJIpZsNwxRkZAbqSbrTArngmCSaCfowY0wTrJNPQ/Xkz9HcSbw0PQXBG71MCdEOVhCZj0N6RXRKRrquik2JCEEaIEhNCsSERpkggY0QNesQW0fof0M/RxrBBnTolr0ST6T0ggjR0EpFPIjcaGh1LB1SgqZKWGTQY7CO9HFzBgroqImBpEnIlcexnTAhmB2MC9Mkl/Q8eu315xdmulV+dJ7blJ5gmsJruTLFRnwJoSSOujE4aFXLZDHaiG7Yq6hBGiCKCWhFWrBnSNGiNDcVXoZ+ktHpH/iS0SEjyTiTJMDoIcetGCTGuyKNDZJdltKmSw5sYIM6TQjSaCtpgutJMjE6FhXIkivBZkV+qremdMehD1emPXPgfAZQQt99HCB9og81HQO0CcIWSdE6JpbJbsebb3ZRG/GliVEEhCEIIIEhXEEIVtULVoQZCz8iyZ1QkNiEkpk4hyq+B7Zblc/eBwqR5qHFzISIHYM75EY+H9wh0X0o1ROr9CoSIySwoMlfSwTpOjRBElXRF3IkNVuNiENlDGKqqU1i6TowTQRnQlrBgZgnQ6sqRQimuCSTGi9Ma41RHpeq9GNdtIZZRvn/APChOoXKguYtbgSKlRqyEKdRwC1XcKfk8qjOiW8HGcQ5CKRAigkQO4k5CSQtRaY9bRiihXjKOERmnCf5GNtMcJob5bKpCKJp8SbbbWOEJuo6k9qBqyaI3qETdlLr+RDNSkJ7kaRet/Ra9KEjHInCjVj6OBeiS1JtugkECHcdxswUkbliuNKxnV30SLBOESOo9E9Ejhgdak6Z0qSSX+njS/10Z1nVcVdmQ0bOTBsTvI5P76GibusSICbHSI8yhVyOSSoWBWWjGhiQQ8VOHQOJGiFpcggQhBWJ141n0Vbo2il0QHh6sodVxPHuJfC2N1Dgi20ndjWvClYQn/CFC0yKOSzLEBIkqmZZV4SQ9MfRz6n6FoskSOrHpj6aL6UMqZJViGl6IeqtpQtnVBkyIigzA9yXA/QmthNDwxpQyMdPoT6VT0Igj6b+g7NimNtN3bx4EHshMuCinhC0Hm5IuhSkjjSwxjQ5iWiCaEZ/IEqWEIQ0LVE36X6EYKiYbV8hCJp0RlI3G2TNkKgomU45FCSjLVucvkVapkp4HB6ZzdVbd2x2x01Koa1S3CO39k7aIdSPqYKBarRNozUZjV63GvoyJihNBjogoRczpNaEFjJCKQOH2K5kyPROkDGN0Jj0ZJZG5KnTgej9b+kh6r0P6KUuN9EKvMn/AE8DjlYoQPrPkysV3A6s7lDbfZZTu2JRV2QmNdTfSMvRjHpAwhnEQVgagQSENaToiz6CETQjRWDPpW8EBVsjqdEh7pzclOwlFLkDYk3KXqQ2WbdXpEGaU7ySzRsIjE3qE0HwQjAFox+jHqepaoTqSMeq9FidH65LlkeSKlrDY3oTnSTOjVdIkaHUVETQxpjWhSShNCdU4G9Z9ONUvStFpf0Ij0PSBejI1Sdy7xUfwQoSSShKiWw7UGqDdxe3Fxulcj9hEByqIZL4foY7mdHdDQx4Hyb6pIQqkIZMsyKLS2nRfVPVjFOGg9TpsUsfKJ8EsB18FGdhrakUsCR6CW37hCZP2RJVgbpI2Jtb5g0ZGqS1wySkevHrz6aR6U9M+jP0MiuMOZ5FYmmuBE6pGoKIE9GDBI6iQyPTUx9aKmfprVWH6caP0LvvR6WSE7cub5udG2oK7IrWeyDFMS6FQ1xX8rFe0h3QHgzqxjv6HURFBElQlliE9I0iRCtyVERq7jJE6EjepKDQkuh6tKrKIepJqE+4xaSZ3l2HYRGR4Wwio2IXu0lRrhCktcLFXb6Ek/8ApfqjJNSCuV9GqUFaR64oXVdKTpSKiCqihCg9xGbaJUIIqIzpMGfpot64+jPqn0PdL0W64W7IaF25t+daMZtUbGnRJNi6W+45K6QklSS6jeNXfcShdETJJ0Y/TGK5FS5ElyR5F6F8CSLRU0jRqRjYnXVIxNQrSVVbSElGZY/sCXt5RzHsRrvyUcx4Ta5j2G4oLcJm34I80jqfVP1MeufpRolXQuR1dBRAdBKTA1FNI0IQXI0RYkRdaRpTSdM6Z0dtH9Ff+CfpTb7CEGXkWk+SxZXeXl6NWa8CmtAYCt/AtiU2WxKqCm6kQwRKX3HQTYidHsFnqTqhjG4JRYSbvotIFAlggUaW0WjGO+k6PWpoTrrwhLsoQqDmY7ElZShJUfJik6aYqRg8IbulJMs94aamc5FTnMImfywP/wAr1uP1sgRjSSRZHEitorgSljvGiuTgro7jZuNjYrCZBAyuruUkhiu5/wDY3pHrRoRNt2SUyLlXtA/wK8GOZM8t6Ve5N3EjI3iXtgmS8o0SGeORYxupYqQ9GldiFsqq9BmzeLSU+NHAmhLcSFLjqJORAuRSViONUoWiCNL6RqaGWFXWNGpESXQuDN4Ru2VnK6hUWENjjIlFEkuCZ0URglUStJZolO7v4KJGWxiRQTn6DMehI9SZb1JaLVD9UjGRtTTSamBmBFtDuNVkmpMiqOiFYUaskbMaUJrTV+qxOq9Wfqo9OVNl34F1aaILdbFNyeRplkUqJssR2E1f4BRKFqskTRSnd1el12Jfmy7N0UQk6jK3MezL/IWBDlFSdiSRzJsYYSXNxkjlwQJaL0LXI+DEDIJigtVoTL4A3SlFlf8ARDqTbxFWE8VIctkJWK0b7Ez/AFiJaqMLEq1b4EBzS4lDXTGD3MYfNmcUWY+rPoV/XP08konV20mg3I7CddFQoO4lrdpdcmCaDWj0fpPR/wDhfpeiIqPWBrqWsEOlz2X8YG2AYUKqe87mcFQ2SxR3IYIHcgU4dmBO2BJVssc/JG1ewtbChEXLZQG1Y02MYLuIeiIlo8gtOo+BFVkUq6WxviBPLGTbRHA4CERpOrJ0tfTNTgRBA06EnLtBWd5d2uEvyK4v3nAJpVEWWxERYnfgVHORqnJm8LoTlTsUQkUpbJwIzLXgjCfhnFxPLbp4YrSnxH8PZ/SimkehXH6ePRj0L1QQQipHqTgrHouO47CyM7sQOdONVcu/SySfrMWt3YY02molxgreT4qKjtkKu5eGujEkXZ/Dg+SMlXcgHYlM3Am2jwY6hNFuTNmHkQOFklEyxN6z8EO74Esy/kxqqIVVFDP5HYyywmXEMdujDKSMeyKe0muBYgU0jRPQv9ERVZbXRm5Bu5BURE9ENtFo/Q7aX1uZFbRAfJl3fSFWtPe7jHNWtmSXE5pWrFCaUbiN28RBz2UeShGNwm5LRYVVKp5H1XuUGnsg01N8MgKKP2XKL3DfCYa9a0uiCBehmdcaMVjr6E6xpRolob0mgnpZaXQqLTBQgmhMjoyaE6Hczo//ADIekqZwi2hZIN9/IDLK+4o1gW1j4B1FHR5pV8aTUqd0bsQp0/5KOFTDqj77C2PYT1klHlDhqi8kSE56J8KiEoMbSS3HZWp8kFXcSO0sZEJVORJTQpbTOwzQ3VHAlUWaW1J6TshvdkhGoT0VUJMkZ0et0OnoxpI1XRaJjXZ5ZNzs5No681fkVELsyZgl2+CU3YsK1GUnhccQgVVHQwuPqrxDBHqlpv8AgrbTijExeOxNIoxbhiPfBDEPy/ZEwKuwcr8oxpHpRNR+lmfTYwT9KBmCi0vxo49CsKx2OVpyJ10VvQwc/Qn0L68EMlroEspFwQYS4MiJhT40TrsQiklfomBm06RqtxKlCkw64dxdSCLvaZIH/QQ6vDIPkaOBsiK5RKFQe+DCvkbU5CdiZIWkcNyygoiNy6nORuvh3JAUSBsFxQfqJ+hzAnAmIKXRUMiIxpOlxoaZGl9ILuly4XLsX3F56S5fuTkJyr0FXX4GKtxfsmas10TheaFI8CiT9E6Dc1lsVtvNVHBhTjAl3eh+2gz1HyMNJnX7JRzGwmrab/hlCAEq277r+RpPonREj+k/pWJ1lzoraNEUI1Qh3GWKv1Ouj+ovpv0tbv3tgtIJECkNkq2F07GKh5BN+Ala9cMgewOsH9e5tjBlSyosxRe6QnbOyLGm5gqE07IVf4RDK+wlFTirkiu7KmScLL3GAAiSSViE3I/kLPQitfbciTT7ERKIYmzjSdKaNDRMCbfRkVhjzjSS/ouNS6V4FRN+Ff3EiniIgVvlUSNfqKePsXZR78zspKNnar9iUnVy1uN+YJ2xfLNim4iobUEJE3dZEQp2QzUmepf7I7N3K/gXGRpS7WLkdLPYLURbm6FAeI1e5O4m2wbZGXle5VmvMkPNHEx0fffr/r62fRPouY9GCPRQjuT0EsL0GRQqIaiohJdjEg5jVehMDI1YraZ9Eeh+leq5lKxZLrct8xOlpciocKpMnV9E6xK9x1Ge6YluFuvyQY9CzyXT1t7KrhmbobJHAiaSqnAs38sKqqZDNX7BrcsvcSfZLJJJ/gyYooQrwiRlXuK0AhVrh10SRyXJQcGZo+4ROE7/AJ1pBbWBLV9GDI1bDVMD11XoykN2fPDLGzbhuNkL1Yb4e5GqYdov5LyFBcVKd2Ob8IQph4VFfbqu+kUwqTdFf3IFCvkOGGC74osIwGc2q6Ie5ClTiEhspyvo4ZDS0S45TWCaKRJF0fuO3ZWElDujigkfFonNJ2dGJFcYE2ZXA1SU9wxNA6LE8MezPKp/YvS/TOs6TpPpf0FGmCNGwO47k10elRMrI2RFRrXOuBi6/wDQpMO1wVFvwHYQiSqJIoSGK5B7b6gSJJS93U3Q2VWO5HwIa3evRsLN82QNUkZNgmbwlU9yv7t+gitOJkVXtcv+BIVfgEir4GRx5mZtFsiK9thubPyJMZyNIVRnqkEqyVSXj5QpUvKYzrbDMkVkxyShqdiq+qHWlXIpP1DkVxKSz0gRBAyCEIpE6F9PRJUa34Iyk22xTXSTshjYKdrkq4Q3UdLJHNqTf+QSSUhu6aHBVNpgKqSSbrllMOkPN/GQM1zmciVijFMilLJhbHsKhskpL+qTsrCldCIxoleyWfM4dMj6OrNG5ciG88BekcobNc+HA7TMM5JxSuQnLp91IWU1tT+4RJpH5f35IEORUGdpuYKSDJS0QvHHwY02aaaao08ep6Z+tHpmmkFkV0SsjdfUrjgyJ0qSYJJkatpWEQZH/wCWg3S/fH0iCNohvd50VtJSZsRx7ysXFvgcyuNFlITLhbeXyUMxKKqJwLgcEzCSuFZJtYhSlLvZiCsvsWrNH0QmgtwlXojlRfcZYC2KNXXkgRJLhipBIQ0M4mCqeiS6vQ6KpSou/wDgQHw0dyai24yWW1tyWu3Y0paalBjmlP2ERpGi1ZbRA0EhuZJOkQTLJlYRUwnyVSsPYlP5G6JnwklRcnL3F9lQ5Q6+KDaNv5GUaO5NSG6Mc5PcgcK4/wCBwjlgqJd6nwXPcLD6aUHqlmjgU3cgl7KVZdwvPnAMKOGxKE0t7Qhlm7okip/dhJLkWgkg12z5HX6XQ/iqDDn5iO4KtqDepG03uGT0z754Ffsp3zY+F/8Aix9CdGxkkQSMc6x6cFhIfGtRosxiB0f/AI0TifCuW8DFNIrNxwiZeqotI0tTwSZRs9uBexSbvga2a0J44GrcWGp7ZcDgzk7tmWOcQ3P/AAKmkjH0j9gAmWWEyso6OQSXdCfLdjX/AIEkctBashK/ATbuhpSNpxgyhwshdJOH0XjCuRSTN8bClpZj+xayjyNnICD5jz6Pki+//BC5NhPmKV6EaRogaqUDuSUJkgHm/giDRcEnhmBqYDlcR7iRyslZwQb8Dapb3JG1KoRFslYp5DTf+h3PdA0FI0SwM2Acip9yrI7YlN/w2JyWidVaQh2k1lFiH02no7ipdmIQ1YTO3+EtVEq7peZFNe5o/cxFKm+vPyIb9ax5Q5qs98hElsXyy7a98OvR4EK/IxCOPbCaj1WN+4wIm29MhwK5wn1cnyPVJcJ/wG+frIz6J9NfRD1NDuTpIjPpiTFPQnQV7DuZLav1R9O7aHX7AVU/kb3bzrIlKaMZwiIVxqJJPIV0eWylcfwHTO43b8C38RsTduyuVW1duEKUaXWl+yFKLo6aE2aoDRvcwcRtNpTHBTEBaApsj5oHgq2EUdhoSJh91MQRb7fuKD3xAeXwMm/uV0jgKXxAig1Nm8k6veaI7CsbusCZLkgJqQbpSkZVG1iqmrG84irYzd1gU79kXtFKbFqaGigb3FVPYHlLJcXEdEp3dSjES+k3tImkQSWWOVb2ayV63vVuxYUmm+BpccZKU+SYJ3Pcl8o4LzLfuTdvLGzy1nAlZqZHLpT8InYJd7jplKtbZyyzRW/6kb5L/UGqMH5m0KOVUkGxiNkofsNnRvwVyt5LcdYxd5v+B22bvdFs+Xw+Byy0F5IxOhRkVoO5JreSHK5vslqlPgvaiE4na4Rut5E3CnKeRtttj3nYa0Hhj+kvrSKGx2MlB9GSNFQc6IcoViY1VJGNFQexCk8mfpP1xJHz3ftshbZKEkhL05vWCTmsiLt3Q8FdBcDlUvwKa2Q3WMv4FUeyr+pN0owhJQsQxyWs8EOSivy8i2KltIzigdiJlJHG4zWpaRNYkldJ0V+gzQV8xoTvQ9tmOGrKzGExOh6WSuQjctLNJE01LSHM2RwMVEkhFyjO+BIh1nVpjKK1Wig6u+SgfIklRJXmdye3DVCiWPsQltV1BBMyWciW5Q37PJJNZ4Cen5ak2qxDeRxSyqGk8QiU8vkQFyrDol3zwKpuXmwFcE8siC3wN1aRKCTVPZlQmS2E4olwJLjG7uO0VWsSVg6iyI8LdjkQ6+W7hwSzuDnMebiAqjg2c2KkritRkFQ2qtn0yyD5PcdL84xdH5TI+KcOleRhqeCivYLL9jdFYsTHTdSK/a/RGoaYSzM8t5Jm1Epkd34C/KnBvPhLJlBczkTSUSDlQzMwKc0oJiSi8OQ/NFbgtt6k/uh2p09qj5/8q0gd6CHcyZLlzYva43JYuNRoqlkRgTJTBDQmU9Lt61o/Wxqpksy/XqepuK0m4yuSg1oyhZ/vkVElCJmuMcjFKqkhJDfd7joItGd8BK4bGOZIdGqp5/ZIrW5kkwS4qQUZrBZrOqInbKILzQYXZK7ZSTNcNSSWFtFjofY7D/Z/sk2DvXDKN9vFW5+ydCJWHDv/AFh5LQndEXHZcisp88CckTu4HzpnZj8D4Ls42rsKOQhuz2E7C5EsVFsZ+CXmg86jzLPugxpcO+yLt7EWsnl+hq9kHZfYWB6wLLov9IrJf+TQkk2q/wAXQ2hQo8EybE1RE+6w/wAjSWpl2KxoyhsXLmS2j0hLBdqhtUIt3d9FDuCkhrU9xK1UK2yEzS0yxC7Lm2GLk+b9BbcXulZfsgIcWEuRGl+CSQbij8oSpododyVVGQUVyU7BmZP37DqS/X4/BDSi5l/pQEuvFn4ImdPiBLq8AQ7m5hFw0QLiStiZFH+cDrTsuYS8FkW88PyxIOH7hra6regpWRFBpbeUvgaSq7EQyH2SrcD2GJLr1CLkaRrAloyCKaSOzV6W1sJ6FTVQJE61JqYY2emPrP1OvlVffh2IUhIQksL1SKzRzFB+Rt3b8mRkzbFTJQc1bJ9iNw/ITL7j/QR1ITOh/wAAS5qJlWQl3HRNhKivLYn7OuSy58EG2pqriTDipUN1KRp7ogt5J7r6Gk5W6gnma/ge/ddC1m4vcgPxPYRG+67HWxZ7LuUYYdsnsx1ShXaIQvp7hJQZAjnvcNEPRwxpVRDqczU2HaTJcmLzcw6g0vrbA0wdJVyUIrJ+4plV5DqWicC5OPNBC/QoOdcnLk5Pgi2dC4GR8pbbyvyYpdHXNByBYwhEGzc2e5ONcDRAyotwWj92qjSSo5BzieXUqjgqowGqqfIllW27HCO4GlVRgSpqbQpFC+drV/obpFSpw3H1KJ/0Y+z0LC4cVez9k4dtw4VVXy88jZQ2yW2/0h4nqpL9yHm1CVrxsTZcKNstuicuGRwxqlJrbJWV2VnZosi9hvS+R1BOySzk9h3Wp7qQlZFbEioaXcREn8eOyEgkntVv5uOqfaHC+RPC7D4DJSJJPYNG1SfDJirLYSnO4XLpIrj/AKGmT6YsqedmNR60R9PJghkcmNCRnRgwMuW0wMnSTBOj0kknSdJJJ9U0iAEk7r3Zb9LGTOjFSE21WaEk0xUu8iXlYWw4ffyLehBJ3LC2bDbrvn9FViv2G4pKoOYCtN/IKVuTTtP2OhJQjSwpWkpwJNQYhWGinjkUhqCDhNSqGX3l8hozZV0yB4og4BGMkTOIA4Y9imdFj5dF2x7w2foDWGKcl2/6f6SuUoeFH9WTZmU0v7lLdn9qvFPt3JLSDjuoNSy23uJDZ5JNizKhWaOgwFX4x3DDQySsoa4cVKT2XjumGOsuNcRkcabYirvhS5aWjdRDTAkROwTlLuYaqhtRS0UUlpvl4H0Er7O39CXWhwSXsOlVfCjKImlXKkhm1yphIrDSGsitEOYr5IspU3HnMI7EBNYspsI4pCnLghvdEShFQEG2zWj8D+Gp0b8iklPBPI2QiJ7NkJgk63NNRFqX8sRWwp5lKS7S47skStpkpwg9ggEKVMTHRtr8Nmsogk+zWq9xvaWKDoPhCVUQ8Iq0YI/iIqqm+Swr7JImqWHb/A/KdXdWHktfHd32GYoRQhCgjO2xEKxuBjl5rhOBSnR83dFlMISrFEyyiRNRKe+SVvrwokdd66U+mNNiaqqelD9ePQm9JesigioxExQkRbSfo10nVE6P0TrBCn15Pzrktq2VL2MZiUSmlySJ1oi8oMYknbKdwpS038Iu0kqYRVcOlw9/CHavtsiKLmpLuQl+Z+SGrm9Z7YPuJQLYNTwr9ES7s77fos1C7CHksFP8fNR/GeUOlcTUzkE2KXsfAhVWg+hzf8A1Gq4YlKbP2NhnbrPKMoGGXEnkIVEt0iDdb4pUoNRmrEts7dRVXi5Hh3fGwpkQ2uWSBxvgRSdMomUIHYaNEUhlcuiK2LPLFH8AQst7lPd8AqVVt5dIVhYYKuV/CR6iVrt2OIGuJwJIGSnktpEN+jqa35IW53VGzEQjA5n2ZQq/eOf2JJG1unceN6epsl9TlwW7zwT2kPBXMTfAJQngj1DWLl1sypkz+A14+eBlLQ4U/cSSbZnk3WRKtuWfkpQ/JmMbuxt/iK40PM2LHrQEqybPcMVCG3wxyTaJ4fsqo+xZFQ7g6TsIVN5/MSjU85fAl7u8HBR0Ou4O42ULlmJFOT/qDcoAUOrTWdyNSvIzax7jdIbN7oqStlvAESsK2ze6IqpkLBITHuHIhOyjA6hL+nsutR4YkbnrHZFOeSlQhea/z6ZJpq/VIhV0yT6Z9C0diIEFNJ0XqjWfoUuXE3ssv2IqiSOFq9WNlgd9ODY5VsVFqYuxKHLdz7sulPBUqvkyg1KxzLDN7HcRvhIlLJuaWBiwMtbhf4X8dMo+CR3OKIeCjuJ6SLMUJCqE7EXQ0LCqfYifH4ZEVpFfsd0A5lFgU+BiXtlDB3V8oly1/f8ASnyFWVVEHcYHsNG5C2Ff0q2fJOXczkS8WqKF9yaBbH7RLZC2rrUXCEk5yYLmrdjPdUkTNOkOgG0qtJlzOw6c0yhc5qrF0Va3diaWjI6U8DwPyiVP2MacxrtKRGODZm8ISlEey+Ls2uxDTJYl2G1V98jmrNU8FwKDJJdpbhkC3KsOopVhX3CaSeMeLWB0G6TQLiHO1GIgYxZnMyEOinNUn5JCFMpUIKvDylP9k2MpErohJ2Rtmu9EhbSybKOlkSlMibcsdg2dYkhtwDAh65GypwpjpEaHFRbsInmco22ICWCuXYmWS7rIaFKShTsRIqd5TLEOxVIOpHtUkUMcMW25bMJ1UI4DSqHewPpwnkI4hLKAmEU9wx8OwwMF+G4NCyuapbk3Xp14i1nGn7HAhcHSOaIfQtGn9h8WHemW46RURDPOu3jOFkYQ2ET+bfUJJG/RX0RNiBvSRupJkzpQfpJGfrosD+J/D0tjGNjUVMjY2PibfAkpcjktHTLIyZyOitES4ah3uTKSotlsOUgnct4d0IaE/E+SEUaS6OpMoGr5LoxVEPeQtOusYHlMNkQ6gcs7eDMtyjgn+DLkhqHiac5RSNm48P8ABSnKoyeKC0TE8H6Ctu1WR05/NP17QT6l8f8AC6Qw2mLMk6iorAaCg40VBvZkWi4qhbCEsg1HhbJFXWar0SgU33FJVhCqCDfxD6UTUWwG5LZ3IhvYQK2JYVi6Cs4n5Eu1zolM/oaKA3LcUkNDuEy4gntUId5ixaBjsv7mTozishLr7Ov+BSlRZsCeH+oVJRBc8TZFDC2F/jKnmn/kcLZSqkN5lWcNL9jp06vdZ3Kd512VamXVJJBtwUXEIl0lcUPEqhIYrlLLqQcFKqnPshPbyughJzaH3fjgS1iLdXUhaaVaKym3lkMSKb/DYnjLwJJ88GZKTVBiXc2PGEP6BQWZ3EKRpPefY5Gli/wUjnVKnwgbiZeKiU2mVwJVCSovsLmkTnRq3Blb7gNpJoOzIl4K/wAi/lBpdWGGmr45Ql1JDBlqVbjbtDdMsxhNmJKmode7kcpKVwX9kaGxauQi2HCdEbeqdBCzkaG5lO0mJ9GPRHoz9BaMgggpGsFifQ//AAqcKWb9e8VfpY2MMMTemQguyex2xErW6P8AQakS/ubLjQ0o2YGm0IuUVxYdopXKKjQ4r7PAkouE3VcayrOtD4IKSJwMJKSRNAuJKxklNl4HHJUMT2BLrCSKK6w/sxIg9hm7pDc4Kk28olLXjDKRDcWeUK8mk2E2QGusmYdxzWU5v/1lNTnZfwZzIoElaFuN5VCm4y6b/wBDKKaf/baRLUKGzYolAFlaHQSZLX/BL3Co4pAtmLuVyBDN6GhQXqhPD3YWbVTvPH6EAJlV1jdDXd1Z4kjmzTkoURvAkWiEUaXf48rK5IVVIbuepkGwex4FIuylnaEm3iVd9+PuT7fXKoE0SqoxwMUMapbNv0StaS1s3/HybNFMRka3Jdv5qMkxMQ8wsk6ZRKkbiamTmrjaaBrff+kzH4EhCJLYadTnARhrqnbK5MiUP2H1pXL8BBVW7ewlTVET+Q8EW35MdKR0mtwiAsSq+EIrCn2F09Kf4QxedbArqa5ToIf44k1VKrkXRELd4NSFXOHZ/YG24XvF1EF/wiGM4KTexNKvZIg8lyg2/wBF8FCuDKPiGwJV0vhTzcg5W5n5B1lvHY9+mQRVL4ZPr2btuPjps7HK4GiFFlXCyDlpVYjnjohIUDQ9SPkj8tK/3/wRUesFloq6IZDHJFCdcaT6J1f00MrVOlUms+lsboOXiYHoha0atK7EtQJ7ORVGwbyyUvYHRRV52Ga3iY9J0nbJMca+DL8as3I9OHmhInA8ogvWk1YnkvwJ93at0dYy8jhpKQ0qJKsukasJL/optVudEsOn/sTUiwG24o1N+A5LssNZTafBJWXwn4GLwKl1Svw1Jgp2hbo2zcobqFxRB3/Ih/yj98EELmMjqaVz7E2YVULlsnp4I77ElSibUj0Z/ZwxPMyITmaXLjInuF0jZZrK1ZWWJUq5pyohuhJKllm+6HNmcKKXRceNSgvu2w5qqlxf2Y+UuhDbU9bD5E6EnXOVycraUrr8jtqRhdROXB3N5gosNfYw/wCsT1GzcQe2XYoVcbJRnwNyhatOc/2yFLSxf9IldZ/Yw2272gWyx3FytdwKw21SXKRbVGHxBMPL7XU2W0fcZNRumyEqqFE0nl/okYmg5Z5HQ6a7Vfs2RPSTmyEM/lhCif8AxElk17fBClCiZcMxaxPZjWoTb0RkpctvRJY1uIkFMnUiqOFYE24GPZRKjrbouZs+9yX75c3EhuL8NWZxN7OHuSepuco2KBUnwhSpJrO8W4iwio/V/sctnd3Qp4zR/YxVdAO9X7MiJ9lV+hDS6YrwttvD+tTRawyPVCJ0Tqvpn6M/Tn+0a7b0NjY2MNOh2TQSMqNwe82G++dRMs2iLlH3osqW7lhsUIJ+6V/fAuQ6NfqFRgiJfxPAmOwDyM3IXCnv9nHXdunDEblWEGJqJWQ+SnsCTk0Yi7/Ripdt2S7SbQOfhkRDCj5Qy6pTNzhlFP8Ax2KYXjP3HMRVUTkRy0PKYvi0LTxXKlCybbp2ioEj++xDk8HwRHyKoapcgQbwYRr2pJdSmWx8k/SqUs4RL2iY35uN0ICxE22X5Ee0ogZYsG1qzxCJOSmbEtk0M27unCrJMcTrNKCaYfD2ECpakw2f7IPUbi/Qh3iwdZxyD5bE1TdJrdbCxjVumLDj0t16PYkzWAoj9wpqaS8J4/RIXDdhSmhPlSMVMbTwLlfJA/P5i4UkdAz0iokqka5Cv7hGzbHdbDer8M1/78l+JX9/bslONt/79k3WifCn+/YsIhLb+/mVFbCqJuV36+Xgbuljx9rdlMioRe4Y52qMJsm3IqJLpJVYlW+2HFuK3ZiKEmNS1HBblXV3IM43hkr/AOBMS220ciEuQmZqtiRTxoLssCS7sxGluWmYsLdrsJjunH4GJ4nmooS6qLvhlMROpYTKVCK8JctNpBeAMiiRPb5O/wAwV0EXfuhTkcfsG6Fin1Q1t/ghsblE+iSO8BaK5yc9DQuClDbJBv4lHz6Gvoxo0/QizRWEiCIGqRrUx/4H6VqvmKel6GMY1B+hup84rEFAYSWUuBaiqk0ouOZo22HE3NUxUQFO6kt0LVspdxkrvZqfB4EicNOaYCr8W43sDVXcBJNa5KMu1xqudOQ20Qe+zE4N39xqpWv7gkYUIN1uMU7ZYc3ytyUnSZEGS5FJRBUrDzASYXQS0qvQe33L5K902FsLYLCmuW8jl9R/LI1te9oWy7sQozy3MW9hy5puKp7S43Y9FTbQLP8AxEWwErYPScorSGlpTqIuNzrRIYhTmCpGi8ijpbIwbzFVBpNJN0vc3CpN7X2GQxNXWMuVYODO3dpU8rA+ZSX4ndELzcPJbPojxCV++3L8iqrqcf39Uls1zsNFRdzXfeSnXQXSeULDr1SqmsjRRHxYon9uRfswZSbF2IkShgJqK7A4JEmKPMCnYaTAa2fd1Llja9x5Ed+7YPH7FpVChptt+wk17shSkhl/gfsJEJpJstuTONz5FZGr/gpbSyOMLYoSEujt7jnDbu6G00Ji5aXIg7MijmDJHvEiaNXfcLyNr/lGjaW0SrvcWdVMz/Bf9U+Sz9ykX255Eb/agdzkXRz/ANFSUS25PL/QjaaDv5XJ21LH/CeobJVPDHY2fdKdeRFCI1rVPsMuG0S5wIknAqJpGlxna+bsMUND6886v0QP0PTA7DGBXHoxo7aMzpl6sQ7evP0v7+5sYMsYywejYz4vQxU6IueSpT2aLAfHLXTK1qkLEFjpscTlKxGQukIlEKP9IVSpQ5duxmrsley9D4g7gOL2K14rgtcXjW3WtV7LBTiZFCkK3v8AksEW25nwii1Kjuq570FVKIyRKJISNJRTBZYK/wAIx7FcV01wKxqrZjZRNluSq52pgiCvIIuUzMK5OUJ0sj/jn2NoRRGBsnKryUeQU0NKB3KQkE1gRIJGaGP8tJU8jBTbsrbOnODIAhKVEP7Rt10dFNl7kJ3U1Cr4mB5JTwEjkJOLoWaWMpyUOy3XmoqWSE6oyW+y+yrjDCtCXKOZS5LLv7FHIXbrFK9fuUd/7CSTJRNGQrs5G2qzGaqbjlQ2goI95YQ2zbvPs+XZca0iubk8n2cTwIZtkw1YqkVPQpj1+RmybapHgoBf5Ni52hCuLTcZgVSRVv8Af0O/0P/aAAwDAQACAAMAAAAQ9aX+keieOC8+i1yBFh/p+icmNMWiKuRcayoyGUks0A4cEgqESAksc0HZHE5UaZbyD6ssy5Oy2P8A6yEegciFz2ZucoZumkghqsGGlSTQUoffsoCHNrmpBgAAZHjwpoUajqkoGqGNDTMK1eJDyKkG6/3aDPd5TkqvFiIdRoE7wETJesXGfhltWeDpdlYRPkttjiniOstUG9GrNDouwp9AhmraR/tT/uMG8Fq68GBpM/1XNI5ZwjFoZYtCkM4/c9TTSVxCwXqkSOovenq0pvrWRzXe4Y3AG1Y6weHXyPLeKXbvaFYvY5mQqMp89AFB+ZHCiApkuJoV1mgesPQfAbbbTqXXf4W8nQnG0qe1FV0mBcIkmbKJrOQXS8BQHNFJE97qocCC9fr2EwXLmQox60lfPFMKqhFEGmN4fmCNvpUe4MVcZjmvEnn9YBi/w1Es+9Q8i4mJVV2hkZXC7zyoWBA3PanqRqMXUn0sbCH905xQZoBRCFyVBk7YWajog3Y/SPfLKHc20uXQRcEnGQSQI9BSbz8D5ntvm479xEK2sHViSkksL6PTXJFgkdH5S38ee6tNJL/R0u6+d1Juv311VLA5MNOFC1UmDUcc1QRfNEB0lTBUKBHie3fXhOX39qTCe+pUm/U2JbZQsotA3Q3DvpnlOPc3zBaf0OHusf03dP47p+WEXYRyihuvljsgqldLF5prNrfo414btGe1eitcjtOqUvcL3jMJIe3Mn57476TCAHJy3GljhIuksoxbeTW0njW6xGABeLaXVXssjmuui9A+Kd6NgXuOFdbqUkyfynC/pYhNUy5o6gvOPg9NZDw6EPO99LjiKOAPvg+UYfE2hGdpXElu6TR4MC44umgPyS198SYJon588rmyCHC8fTPBHLhLXFQ2QjzzAmNVxH5b0VEL3IrCBTxsfk7Tye5H8A6hmqBiEPfbcWbTVSOi4Ju0m3YjBz8O5GOwm8o2C7f0I5+gjQwkc0dVPIpH5z5+19fZM41Gz4xlwx5QAT+6/wA9vkeDb4oKCwAgS5KXNl3jA/m0FjS6PShircWfzo9AdZt/2Yc/JGhvQcSqCABxevsuI47sts/PEcy2VbW/+MztOh5DR1U4xF4ZuUu74MqdpAdurqv7run22+P8XQdKyKTxFx1igW8Ry9Yd0wGsse3tkhaiP+5RU3JOXZhunJV8mmqrpyFXYzpLqWquYNeilCYbaLVyx/pu1F6XARBFa7mCYCR6R/axecKAu1qVwvOtNtASgiR0E3B8GIqMHahryCOy39ly3s3npLJEmX2Zu/a7oUS68qza3kz4v0QJDVJUrb9leMBzLS5Ln0w9rp8NMHuMlzaqjABNXY5HXt8ftHLvzyhcUcRVFWEkBpLZa0TixSLTwyreDwgbksN4YRoFzvgWIyyus1i4rTnyEnD88+egdtxAgn6NXrnkOHMO4lNYLYcTpSmXQX5ef6ZUXBZKLw7Od3dkxGkToON4lr61Dq59oi1x89wfpZlkbatM/duOvPlC2TwMGlM+UllXZGWd6U/UpSqa6hH9bY6pXpEsB2gLbfZDyCUREghhhoZZGhNzrBnh8SHAZHtnhJrGyuGOfWWm9EAdGsMf9HdHv0LpAE7/AISVY9olb7eSSRI/mmxEpN9zH6E9shhfqe+DnRQhP22U94JpISPXzP4O8oEiAtxrHpX/AOYzVx3V4VURqTIbnN+awWUsbSG6BSpfcZSRYfKI+AlA1K919kzus0MWB6xbZcMPWKROnZt7eTQXFw3cbFE2zt3Xc+TQQa7MWG+SRlVf3muwLfg0+qiVhpNFKqVGL7VIRqv3h921S5bSLJte1SIUhVNW2jLlRfXTYEZqQrc1wseaUcR9148oqXwube15iuDmlpkorlsRc9qs3UcVuAdvGfaw3v8ANP3Ynj/v7QZ3zmgAK1OHPLQFf00QMQOdtMIUm0mBENFeHDYJZevx+LzIuwk4bcv2qoJA3DBUQr3Xydq4J5r+cyz+XNNyO6yhHUNm5yqdrj1lplyhSvPuD4/mX9oDl8VVmWb4LduGLgbmZOaLGHtrqYVYdejaQ0Dz9/qiCJ7b55ifn0cE6cBg8GInidA0S9T5wpQFe/eMt/8AZxtIZbHnuBdq5htxd4SZfQc3a6Pwqgip1JVCWas/P5KVBkLqaMEdMN3JFA9uRp8IBT27iS7gRZwzJPDjrdL/AEWTxkUUckb9bf01/wBAxWGlScRF8QUmYzS/G6DdB/byj35fOBTdjpYl93lheYwUozB/NQxkxY4dC4+uPsNPsECOG01I5Y39Hv8AvndzTnacxZKMkz7IZ7mLVzzL03Eg6q9zhCxbS2vm2yq4RPrAZqB5XkbLj48EDRoLrTrHPVs8BPbwRByKN5jtP7zH8RAPO5rbZqCi6Ng9F4FNo6WfNa3xs13Yq6ll6eXzph9Zfg34cwy087nMvN7HDr//AK1/PDQXSFaeSnRR2zf+w+bf+3ulyv5Ge3VwAooiPCgX2ILi81O+80HUykaKKy8Oj5oexOLYuNZ6A5UYGM//ANNeZ8wlGF0tVdrVnM7K1O6Kk/BgIDteX/pYE2MobsEY3d5QRnTp8JR/mvuBeIjT52gCX84dxoabRQu7myjm8++R/cPmk3f3FNoutUYGkGVe93y/UXXrBqQ642b8+tOx683EGq0XtHtcgUjR6quIh1XsrBxnAr42KK3vVSct/MNQ9s9YY+OEn9+3l1mU+XFXPlIAy7RqbqrJ5rINwZWWqwPJ1u3YS8kb2Rj1mUwo2hrJyJowRDPSr5gNNNcP+NPKcsNYMfP31UcN28vt+3HmXLIxIYbqXEonuXcYQLThvq7GEgzxQRmJc+Rr7Z+jBTe6J4vDz8hkx9t98vuvunkdwQ/W0eeNtMc9mtNEkWeWWUUk54b7a6YIlVaE1PUzS0mABzZpWl2lDKLjWoiCyheniyOkJ9/vts+PN81teGSk8nFVGFPkcVXe2tc0GePdOtsF5Y34rKr4yn7oZJvT1YcP80lNdfRLAqoe8InTTdcTjctG3sNPu78/Z2ZBdZqB8vwEaH2/tXevdc971N8nd8HWl2JpL75o52YrIZqvhOltdcF35ojywiaNMY2iOsqAN7lM/EfONm+smDYKklHUgownVFEtefds2etN0eNeUFfwYpKorK5aJq4h55phOaYRgwmAMzJonz6PZrTq2ELmEtNkf8H0y18fBJBHyuP+Q0y2PkGukf8AfRrDRWr1J7lSx+WS2ui62iym822CqGMALMORK12+8cCuKOcQdnRqARDzGq73LEYDfKxEDXpX/wA4/LcY41xeX/e163e0z+SZqojejmtsnnmjtsDpiiY/4jRHn4kyVkAHolgoEKYg1fns5hm42RCBK/Zdj8RfZ33Sc99wTTW858Q5yfbedTqlkAnkpkErmktUqh+gKU1C8eqihxkroeFljrinMVInwHVZxyK9549s517GBddaS+9+Qg+2wxc566238+/YWSrLOlKhhqtptWtjrt9Yc0NuEX79NbcxnZDqjsgMPJDk08GxZAg39aVzl5NCuIKAdnxC8aRy+Ua+x77z8ffWagOFJGMvABksgk6Yfb730J6NVIAesKMYDHNjomjEAdHEZvIe6RVn681/fB4HF+fSHz1//wAHW3u3Fu8cO/kgbbIQVhgzACpZ6sO1tpNTN5TOBsuv15alXWwSAIL655yVpGQ2l8GwtJAceSbxQU8ziHd8s802UP2ndlN0uH055zmMCxgjhBa6HWgtCC4ydjsAEAM7byyQjVTGQaKrKH1BN2zvrzfzyzuV7oyt/fWlmFtWO/KkRNEtmvebVEETohjyBzTxyj6BVd/p9+AoOycixjUWsozDW4m0QJZRNueYdP8ADR9hiK2i6010HDv3XTZ3DxbBFRtaSKdBVZJ1NK0AsUYC0UPyUxmkIvfBgoyoq33uH0xS5+qKxVa+J3zrBEBPpAyZyK50RQ8cTLp19DXr7zj8vf1Ct+0n1BXYyuxMqq84EBOAq1afQ/i+DCail8JKKmtjzl7DHwwbbdkQppR4MclSWW1o+NVtATZttrzzLnzP3J+7R7tlL7Zau2dkeKbkKKAwYtsQnvdM1mfhbBChqPID8JnTxBFLAzcMR4kdSkq1xl1h25s78ZAR9PLz3HXPSQegxF0qOGC0Aoo8QbyMzDUCg5UHfT3umHal58umzWbPjm/ypsS0+7M7xmCWMdaOGXjjU0dclBGCBtznbPjP6GmkWCat1yhvLPLvNdexbPkx0xtSHI53Y+4taChcuFSn7SxWW1obiSbweJeBOhpuM1lvlw8e2PvIhNdFNZF/y+EWGPZhqkgF4LxJ5PYB3p7MjPlnsKxHwUQiNxSw2y9VCXT+q6l4CnKH/G7Xpj8MwEA3BxqOaSVUKxJx1t9BBeaiCd1Sm9XruPnv/akwDaakqL6kcfV5dlwS95bOuW2pzyNlqZLs3IfPg4ny3QhymuAuvG5Ot7NdMxbDRNpBBddhDd8+Be//AH/Ag/4gAgAoYQnPoo4f3AHH/IoH3o/w4P4YoYwPQ3ofQP33QHYQIHH3IPfY3AnvXfQP4/w/f//EACQRAAMAAgICAwEBAQEBAAAAAAABERAhIDEwQUBQUWFxgWCh/9oACAEDAQE/EP8Aw0+zhCEJwXnvheXzvx3wvi3wmYQ6O8kJ9VMTi/hQhvMOjs2FiggiJNOLNYUUT4N5PxohFxCYXnoosoojKKwhCEZRWN50IiIS8jJhfw7Ih/gjXz/Wsp5WJjZWVlFcBBUUqKiMlLxXhvBZQgz+rDRU+x/kk+R7y8PoSIQhsjNlETwxEwojITM/pH+k8LxBZQspBPWX+BMlHHhfNeJ4aFrJSsuK80vGlZXmlEf8ITlCMXB4pcLBYY1ToLLVE5p/FLyeE4LZBojJnXjpSiYmjXK8qJZQsoR7HhC4y6F+P45OKFA3n/uJiEI8QhCEJw3hMoorwicblvDFj1n3lYfF7Jfjk4oeyEIVcgQXhCEIQmEiIixMUuWzsShRiGXKKPvKHhcFh4deW+VPNRMQmJlFKVlZcKwvCDzBuHYhJl75LHvC4LC49YavyliEw6xCImEQhCZhM0uGNouIQ9FNsb9ISHwYhYWH14Fxa8N+AnGcEhvFwy43ilKUgrNshMaLSEH6IQfBDELg8vD8LVGvBfN2JQuFKUuKVlYxCY8TGsR4wKilxCExpDbfQlMPeUIYhDPXF4XBDXsvBjXywQVCSwmHwnClLjRUXFEXCCRBv0hDwskJc3hZa8DQ/kkhBFi4gxCIUR+GjrxSEy3liEskLHbCGLg8Iax3zYa+MnicIaQ3cLJ0XhM0pshIUpRs64JZfR6whcjx6x0M6w1h8WqNT41IokIo2VfmISDKUvKEIWFYSx3i4YhDw+j0MWWPEHj8DWFhHay+PY4+OivM/S/hRu86XClYh984XCRcJYIbFl4XeH1hd4LDGIehcOi5fxSF1hvKw7GphZvFeHoeFxeUPrDELsYxns9CKd57Qvw7z2NQTxRqjXw0VIbKIpP0SNYSw+SDxeOi/mFlDYuBYeVhvZ2MbKeh4QnsR2THY0J3LVGpy35bnsQuYJmyYpRYQ2UmbjXFYgh4SJiEGssQ1wXYx49HQmNaGhFGuDXxqUWYXEh3hBiReMx/uFiEwhCEIJFxceyYbPWGTCPQ8kF2dBof7xbg/ilhbxKPQ3SHWFoZ0sXKFs7eGnWIJEwsLi8N3i0GxtCGhDRBdDFtCHwQkw2Mt35CRoo9ig2x/gjs7O+CP5hcNHilMd+C4Y2J7E6UY3vDwT9Yp2Exo6KU0WEjUZd/NSEvbHknmD1hKj1oSuCRbwuGy3ghPihjJh0J0e2JVk2JbF3Rs6RRDcQmUow3cX5yYhu5bEIohj+I0jsShax7HSkIf6LPfBvcxRdYglluC2JREwZRvWWwmX6OvncN06GLQ3cUhJoNyCCEJwaYaIW2IZ6Eho/gSrw+hjRD2dsYhsb49+Cz0eh4Wz/DrC/WN59HbAmGPgiCUHF4UZBMUmFgkMuxsvyl5jw3xUTHlIkRsf28U7GPvi3FhdEGIuHgmIbwi4UfCfQTk/EhbxLYdDYaQTITq5bOCWxax1F0IQxi4IbRX4X9OszKKehPY2bHN8D4zZ24UJlo6wpSjX7dMbG8P6LzuFwaolxTl7H9Ovgou8E5hCc7xQtXJ/dsXlrj6Ej4X4S+qWxczLwnNPf2N86cE7waIkTJ5JVBpohMIQ/JC/FfyU4WWJt6ymLyrbIQ96PQ8T7GeFYWu4XAviWGGibG3ifGfzX4uw1v4RouV9tOEz2KbwhBec0xBfaTwrs9EIQhBeOlB7+xXOfngXfGE8bcHQ3RYYlR4a+Q/hrE4daZptFZvFw5hMovK1JJG2yU6ylT/SP9+snCYW9F9Mn4zfH1lOMTubwWWiGzIax/g36zozpl/Ua9F/TbplD+afi6yinoRr0R7HPXJqOjWYCR86fgd8LmY7NMr9Df6iNdGimx/EP4Ey8ISnY3cbMdcGoNnsaqMbkgspl0JySSBsyt4PR74PO2I37NM2hfqI9kjc28IT4L+Eh4TnBXpDUwuz2frH9EvQ0NscIRTsheWDSLh8IRiovpCP8AD+hP0z+CYYGno7JovkXK/CeFfQ17eWVvjIWj+oX7wb4qRWFZo0QeY2JIf0N+kJUb9C/Tst7P8ZX+lf6dn+jhLsntZYu/CuFGLyrkWLdx/p+GRfvBfmEz+D+sI+iCJqkNMEiEKMTKj/ClkbbIPQkN7FrY6JihRcNTZ1tH9QxKzp9AkdxZL9G9MjRF+DIxD/R/pKKD+sIXRW9sW0xPeztnQmfwaxpkaKn2R6NCiv8ABJvseuiUekI7NmsrRPQvxn/wPW1hYsT2vIvgoQkdhCQmxoyR7Kg2wmkNnhfh1pkE2ip9kFTojfY36PZEdDWKdbImbRpka6P7IIK2Q6Ox60TR/hWax6PVOzrTHroXfCW181CO2F1npnR2OwsUIYzuPrg9i7Fj0dsfoujpw6D7F2MXQ8vsWXUZ25T4/wD/xAAiEQADAAIDAAMBAQEBAAAAAAAAAREQICEwMUBBUWFxUIH/2gAIAQIBAT8QWrwh9T2WVl/BXuy6UPRY4LhbXjC2o9Xl7z4bwXikZRZWlyvdJs8vKLuxL4KeGTRZXTS44y6Ekf8Ag4w9OV48ZZUQWFL+dq1ei1oxD82WG0vRNYpfg0pyM5+zhgmjjFQ34RYcBh/hDdlFCYdelFixoMwJT+Bcn+Ces0fSx63d0VF/CyhMJfvBJGeMSD+h/Y/of2H+w1Yl+in9YfoNX4JA1+iH6Qf5HZZRSsnRDwWP5JOGSCR4fqJpi1Q1hPD1Qi4uF08nyQnTwREREQhDk5xWVnJCdE2hBLKfGCY2IvJdCf08JHwxsvBq4Ykei0pcXZZLL4FwXCGevkZSl7uc0pSlxdudl4NlGxCHlFFBOZn6WUVRWxQT2eFrHhnpMLSvCw/R85EiIi0e8IRYnTwcYqIG9Ep0kPD3pMQ1UeH6CerIQuFoxDEibLFkOVm6XqmkxzrS45xNEMuryvRDc4+sw5F+0LAue14YtmIeHsmlLilKUpduNYTpmUh5nQ9k4eYkeiH7v/uy8y8ca+DwuY9kUTpulyhIx4XPolC4ne9YCd86VmZmITaDDU5w5ZSlKUpcPEIQmEJpxhYo3m5urw/gxFz503EJ28vCCVHwXTnLxSlLm9VysLpY+haLMhOi2axemi1dorxSlzSomJvCEITNLpcJFRdLh/DmNfiMY3OSuITaEQsrFxzmlZyR9Nwt35l+5YtmLWBXbnpuzVGKx/jCixpoonhYe0Jnk5IQmZrdmPKF5q+tMvC3HTNZuyDVHwhoGwrfuqY80usZCYml6Hle6PRj8w9F0Jk+GJ3s41erTY8wn6cYWYQhNK9riE6l7uj7Fyn8BwR46J2tEMj6Q2c4QsU9EQhNJi5mV6V0IWE4hYey6E2vBXB962Sw6XmnL8P6Y59CWbpMQhFhbXE6ProWVsul64ZU/iNjWGsR89HyyQtw8zDYlhnGOS7t9rylRbPfzWPGgxZml3Y7kKQaFo3+YjQhsosXRvfg56HqtHjwPjDz96LXwT0ewh+aLK6Flq6H4wv0eH9CTY0cFxCDyl8r8HrrYnonh4cmLoWPvZe6MlIWP4hOYNV4f158LhDeJpeqlLokTCkwsD93WGLDELVjEPdHsxbvLEcPTkq4DdZIU9xKfzFwsMfB4sIZexEM79CFrFipzExOl5uEzFfpJdVxOi6N/ZGNYN0mESHh5r/SXrTbgJROCDz9BeKJJ8kWj++JiaxKTCP0lGwmY37JukXXcLFxOisldHA3T+IUrkheCVY+AxvCxRcjG4PXi1Oma+j9F4FomeAnEQUFCHwPowesiGkJWMQgjAnesN4hJ1Q+5DRLkbnJSGNEWvwuPTw98HKwRihMQcc6zSYTFwkMei4GKpNIaso8EITkvJaKJDorxiRCdt0YuMMSxdJiZn0p6yVwq9DdeQ3lHvCEJWPkaouBIQPSQYlxr4hC8j5CE/SItOTOSnN8C4LAmNiCdl3mq6IPVuDGxZTgxhASGi4PTkgleERHjkzwNcFG8ISwx5SGe6eyj8iXAlEOFELFRqjfQvBKrAlB9LL0zMy+ungS+xfY02+CQsNUQ/QoJBuCQyHWHzwiifQ1BCKPV5eg6GGJxWfwbEqehTopcXV9V2fRc/WIJIQ/Bb/4c+EIaYhAQKxLEbQTKPVn2IeWE6h0n6Lysgn0LWTCHsul4+vgMRdIPE1+9Gf0Jc8+n3wcQkoNoXg2xiWixcoeooxoMcDxWJMoZNV8V63M6mLVrgSnIn6SsWYvQ+p/rSZWs71qtbi7Jj9LtNllIaiKiDT6HmE2gFlj/wCBPhPaZZ9jHi4uk6rK6QS6rpcvf71mLn6xNVoibPCws8WN4mJpB4pd/q0mV5134C+C+2IaaFlDTwmXraOikNCsTYM2uS/EnylotH5pEIEkNZhO1i6Nxi/ChHq8/XRMrtWHn6EMbw31h5a7UxDELgV7TR7rVfCe16W4PSsE80Y+1ucLCcYvMQhOxaLKL2Xpm9Gbo0PkZYUuX3Fi45LrWb8Od7xRlunOP9wl94mH8JISmiZeFeh/LhOlpnsbZS/uf81fwUhISHl4p+uj6nm6XZaTsfFxMPnlFvpEcYn7hEINTtTFFCULoz/CrP1vsWnHwKXoQi3V8H9Rf04P80+8MfI1N1lKiULivEyz6J+HJ/hf0p9TLrPjrL1ZYV8y0JH3j/Sfhz97LkTy1STZYX73Wnhwf4enOOCAnfPhPW4Wl0eIDd0bL+CUw+EJaJ0Sw+OUJC0eZcKKLEp4UWecTXg5Rwz/AEhWHAo8EfYmnlD7V3twbuVhrTgWH4LzL+FhwKI5MhDwugo9JvRuC/Xifp4T8L+lWSXRqE0xdS7JiE0evDHk59l+lpxoXoz0/wBwgliZciMIJnIniEKiool9vC/T+HhPzERF0Vc6WTMJldbxaM8YoSmZ+FYs/wBw0f0T8OcJ8l+sMXFLmExUQmfRiH+CGcnJM+n8YhotadNKXWdD8zDGNnkZzhsa+y0oirC/BfhYcMn4ckbPODxkx6TKxVinBCY9x7r96+iw3InyV4fy/WXjyMbZ9DKcMSSI2RLDPeSkTI8Ofs4Wbilz4cM5RSEZGTHvYtZI/epi8wu1+4Y8mfY8LIx+C8PvBjEfR4F6MY8PzR6LR+i8PrK0fo/ckPzTx3//xAAnEAEAAgICAgEEAwEBAQAAAAABABEhMUFRYXGBEJGhscHR8OHxIP/aAAgBAQABPxDPzg4m2GI7qLNpktDMViwZermoZhM4miXOIYPMqpuJjERNkwe4B6mOftHcXuep8UTNEKuKGpsrKbISyVtxBS9wM1HVQw1LgZzEzmMIxo+huUb5gMvEdZj+4MzctKRKixhhhcAGYOA4JtUGvJBuZM0y25grqORmYdwLm4rc5+plTmVZ9Xq6gWUfLOl2RJrmDFsjGiDzFnmb5ju57m5ohg3LuMGCzLioAmElVBxmDcCXWoWIuyABdxwdyxNsrEMlQKqNBcSku4FRxuVbYcosS9YiqMbiNxzGDXEdnLqA7qDVO4VbfeXKZhocdTMTUtqOHtiKbI1eZxcRhZtczcDNREzBVOhAbHEAhZVEPMLlK8nxEs61EjTEGqcxyHiYw1HBmJWyBidhEARMyq4izlCtR3DDX0NbgXc4TEWi6l3AwxZiwJCs3U+Yk1OJeIZYL0RJ0gSkeJVF3mKNVNpjgio1EHcQEuBc5jNyqi3OZqODc4foSpXmDccQYIlTW4l34lWQAQVURU1BGCmODGvo2uLniVzK6gy7pNwqOSfqH4nCoOJTmKRjTX0vN1FAVtZnMOHqFuIbqNMvQ3FsqaCpviKXmOYnMYlwwzLx9BV1AXBcN7jnf07EME3BWYVq2GL5jV8/MHMLMx7sIPM/8JeYvyiXmaQJyViKiZq4sRyUmuJy8ziGUW4q4uVbkzGoszE4bgAVn6DjnXcrpnxK0FSloqbKgLvMS24ZjaZ1EgVErI3KB1DAWrMQzYyQ0jUdYmCFdmUo81F0aiajgjmLxPtH+hAuYQ15icTGTmeG5lfMSmDcfdHEuZXqYQyiow1MEKiwZfELMxE4bhuiXaZagzbKwMtuK1iDXuGRa1AOdRsYigj6hiJaeI1wQEXGyUYwwZqZEHMNQbiQUZxmGdymkYHE/CVLHNRgVmbS/tOHEs5xGGZk5gx4Y5SBemABa+iCL/STeha+0rC0yIp6a/qBVg6EX9pfAjkk/ZFKxLvCnxBeuhN+0Qi4iWXTHSAp9oUXKDzX/KDnEq5ty0FzVsu4ZnBDdRIkMkomIlMGFruiaJoyjK8yki/Rdk0C2Eobv2JOWPGvtYkCiDbuFm0S4KYt6VU4MxHdzFigvSNTNblBSy/OIsYLdRvcPcAWoDJscyk8qxHkS2BwSrKVjGC9yga5JKKEFaolajxiULOpioOUMXmHRAOTEXQZgOBFDfMyza4rnMrZaim14ir3CfKGo4XCJGhqWcOLlcwl25jBaZesRznmYPMO4wjNLuA1FmvUum5fMW3iVbKzLFoBLg4WLnGJbqZylyx5JvxEzUSnLLrBm3MreMRSVLtqeIFO8QBC6YlX8Skge5V8QozuIE1CUrn6DflEaI3wlY3KxHR5gukHkuZFwxHMIkpj4mmXBxc4jKV3hfoQAcswR/QPtChVbLKe81TF2hbL7mpUHTB89UECqjXPiALJYLy8X4MZgItgbPFkfBFy77M13WkCj1qh/DMWeBI59dzNj4WfDL4u8gy6T3b7TCWalwqKz08MEIcJhIQ68AsvEqGlvQGIjiHUAub62isOYlaegyystE8uaYYmZVvENZh1LSGo7nMqMYa5ejco0AdOP+oW5hg8xl2woYbi0xe0wUwZUoYXK3iB8wcZjnMGGRlLqLdIuKWXbBYIDAZjcEBN1qXNfmMA27lhr7yhZgAohhuBThuMFbMHKEJVNzkIhWHEEbUSytZJoZjwusRG1pLtzKnMBheBODzGj0wKnMprLiWHcBKSN3OIIzEdYY7lYINxsmjGXjUObnjEcxRZczWoGfoLzEtudGBoFS6JvMuj6QFkekzO0q4lYIFmI5NQVOkXFzC4wRbtKrcM3FRs5mGtdQbhpxNZzNwMTQmmXDGEfoT4SlRbMwRFeoqyRFTmeEvlKiVrMbcwOYNMvHHkOx6H5hp4MD/ANEpZHaXwnn7Ea40B/OGfyYPkmOR+0FYVvUFDjObcfmWXeq6PkZX6Vt+bW14NyuVM8n8Z+89jGr7WZ/cBzsYgTUHPkMWlPvMEIZW/7/EpghsHZcoFCtGl1MGSUHq/t9EhnWKgsoeAlfIPJWP4m6LEKE8iSqmyhruGfySyv/OP+zyfkK3zuDhteG1xkGsE0eL8QrUyhNMROG4fAfmNOSJbOkvxKm32jhlzKwFU2gGsufT1HfcCDM4lU3CFVGo4NxVuIxWeJkJmZwYrUcrjvM5hTOxMm5SGHEVJKvR7g7qEKLgtPWfcTMHuUtcWEIlF4thhmGlM9xQW0w8mXe5yHBNwxBimuGFkuPiLNuIDlZG1xAYRN4lquZyjQQ3fEv8A8lfiYRjkjKcSngl0wcV9GDNhCnkMvFMCfMVInMFSmolQS8MBGAXMAvqJdKWoqGy5kjuAve4qYK0ZNRtLQgxjMm5ae4uZkJrc0MxjvMvS9yqF8FMr4jUbIMqeIFkNxlxh9GZpg3t8S/oduIkyPRCwunxGj9aIh98GG3joCn7yjeFItfOonipczxyjlLiwLwMDYoL0Gx4Lk4edtCYhhT0939zueacOt3kv3lTarK+qZQpaGxY9YE4EEOegzfcmqGwEvGbL8RNlGPVQfwLF2RWEPAynuoBhBbv8B8kzjX/xYHFHeb+oERFuBsX0RgZRzY/46ZtBGSD+y9wTVJeL8h+SFZ9v/QPEpCHAlBrUMtkz6YWJWor1RE7Bx1+FF1A1DzdD9Jzlyml/MBYZyaujW3w+Y/QfPgJyJm50L7ahxuZzodmJ9zoZLYomzH8xMdYfswn2EfOYIbdCoq1beQhm0HiWcony+8Wuc+5SZw9QZt+dMfHc2F5dsSshNk7fS8VPSZTiJ3KK8wFVEy1EPcS0TNSxKGMYyxZFUU4lU6jNXBDKSNprwqW3Z6hGepyG+EK0W5UEyqBbUz9GFBcQ5Zu3UCw8zHAyuiBl/e5YjqOa6+ILfM1/uW1W5pEAxlWxxK8TRMpTGvUyg0xX1hYj1cFJDZmBPE2LjlVXNpwxmFISIe0C4yNR3C5YAmF3HAhYzcDFQswjlnEw7i5qYqUrUaqpVxV5qZR7gWVKzW4AVDxP+Tlun+zslNlea18y4iZ7gZiUSwRIobT5mA9kMP3Aos/Ot41snoZnDd0b9D+YPb9Lrb7wOQPQ/EKqCvCoXuOeB8zlrFTgM3VstD17Y38CsPxqX/izL3owLHlyY9wVXg9Kct3QInBfaC3ATJUO2W91PC38nyMCtYzS7O+hqXMw7KRffPymRwBiwYxAF4q88+6/eoiVWQvs8e0BVB3HYKZftiYFoEirRtX7YomnNT5U7hBryEfKmZybpRXkdwzpwmUfGH5I0cyRk+G/iYKAxH9W/YJu8kp9jURrMoWJaDpbgeeGXskMgTziAHc5b8rcrwLwRxZgJho9PLWR+ZeWDQg9qDwHMhflkmrQgR+EEz8jz8Dp2Rmh6hf9ns1KK0JH2RBVPetgHy6OpYrQFpT1KbXIMR8MDxL9n9i0xsu9VEzkafx/aPVQnvCjWPMtWw9yrgXaMS5T4yyjXU7Qe5S19nv+Q0cdoXZ0iGW/MDzHDAxLl+IshMHMVzgS0l9S6xCOeZmXLifQFRQuSXe4F+4XRlgeepdLmDVo2tUyzmiEl5YZRMw3rcIKbsuVeW46xKLqGMbJal4us7gW2ahliAuNXMArNRy11HSqVnNVKLZrxHExZjQy2G8zSNnMovH0JmI8TYMrcGqKnzjBfmXQc2g/WM1TdT+JRsvJ3NTS9EyJdjlBmTdNf2QO3cDX+ZYPmg+5LHaOXK8ENyseIYDOYmjTZ35jUGov/s43C2XVXOZVrxKqLTjM5ufqeEu2YeoxxCHiU1DJDZFslzDj2OZbX5Ld8cSyy/YIUzxEOQwV9iPtP/BwksX4amEPyNk+ZinHWk5HPuZVPmZRr2nk+IweKtv+Izh+ZYO7jllphT7sF/iXaPh8GVEOjXVb7zphVavxEg30uYLL4oMCcJ/3iAZQe6N+SuP6OZU4v5ufk4nRPGVfxELDnacKPwcsqQiubnnhf3gSCctP2PwRYLSspffF9oNWj0OYr+8up7AJ+x92PYMN+zBo9RwYVQSvQMS1oaZqB6YI34azhFVhQKoZHoLLZ6Z8fuWgKxAmCWhcYylxARyYsL+QQ+5D7JARYpfekx8pcNbdC/EsF2beH5mY5xFkCj9iaYqUNkMeEaHEBvbzM+O5VZAAA+Qt8x5lLAHmuAXJXCQEgZSMhuFZgC3Ra8/PEOHV5FHg8xRDlIHay/iGInBUcBUXiNpIBFoI7X/MLGLRq+5/MwAXVCsQazlP5YvkR8/1LFPmSh2Hhit12VK7GNBaTpLh1/xMxocq2aSZ2laRMwhguPEBjrubWGItRKzKxuZkAmvoATLDFJi8QV7hrEaaYK2ZdwWXORaqIaVBfiNnEoNNlwra83FC25ugPUFyqbmCBWU71xAJaym7LIjQm5WktrUaHh6lg4mEadwLzUUpuWM3aWqiXYC3UWKlDNFR21DLqOVNRIzmyq+ZSN9ph6vmYJl0uF9kWTv5N/EsJ51X+4MtXBa/vAvgJX5i5Q30FfaHB/rX4hy8DdN+UDofHuXMd4OMfwLoiksx3xBpmDEg4PHceDX+NRbDfEw5A9svWruFGfqZqXHZG4WOo/IykXFStJ9C2cQ3KIHEdRRdStTLrMu6zMcp5JL2lrHPxL1FTYVU7MYQcAwPX8mNPa7QMZo7YgOjTJt2PPTDn+EcxB8Wfgajcvt0khe6godh7cw8DuA2lxgLHd0QNuzPyq/xiIULfOD9dY+GEog4GuD8no/x6hby2wn3AW5basPxUuMB6fsMLZHIERZzVyrf9xI4Nz93zUAKfYeENrgi2YhpOg/bUoFkalf2PzDlDWKnyx2Yl+slRvSPtkRh3u/jAmbwy5p0eXaBjQj7SysDqTSN88oLU24QqUZX5MahDP2MIqF9rwQe2PFoFFA8uaAKC9OJgRrl/THLBR7/AIZkPGtg9nPuN8Fn4Jb0W6TTKqXJZdM1XNXQ49paEhLy4enc0Gmhr4I9Qjz+POogrh4R3MCRg2QdfB5jYpScDm3UySz5OKmOmwl+c7EKQTqcOE4SjrYtMRYtK+T4aYVot219ycoeeX4cQdKb5u18xd4jgfQ/mXki8Iira1FmJbLFSPCMx14fB6OO/wAtweEslVjJ3L7+h9pz9GRicWzJxGO4UYhSYMv5injLBG2hMt3PCYMbqGUpLTcJUZalrXiBGor/AHHhuKzPxPDMd1hHeYaIMGXmceZgaW9wAN6jLBYR0xRUZa7PMF0DBq845g7NTbUQrFSoHBqWWDLAlHRuIJwRS4WbgGYqFTlmsITFhVPq5XgOKfzOtuH8SGxysh+nD7kUF8vwVVQdl83mMpu1+ES0mgqyC2t2rBDHCGOVISRRasoq2uFvMBbB1H9kz8fe761Ld0+hp9pTt3K/1KwGMKS0cgkPuv4mE8hJ+CiC1FVYa36uHLVzh+6ZXI0s/qNJpH/uIyJGMkf5lAbSqUvD1GDzuxAJhdt+mDcidUIpA/ZH/OW/TAmp5SU3fE/cEv4gzYxez+4s4U3/AHUCc5yLV9o0VOZtR+K3MqfqipSJEVYUfUplL/xVwOed3LryzcOAufuVTDzyYAeNkxCrxfYBGECu2R8ogPMU1cqcfZCR/QLscMVZ1MbfvNB3yP8Ar3BovyoX2NwxNBkV2Y6gjbT4MAUzsyiMI8uvgi4A4KkYkvGo+CJfmskAKMdWoeU7JdQXyqCpXUx4yja+CMSrdVuhVwfdzuFlgd2MzkS+bK577EK/UWiF5neEytcHtYXNu4ONU9ogJeEtS/77EAxaf0RtpnBY9yyJPXD6lC9vOKULIhHBVAQU12YhTGyNo+fpKED3LyxAKt4vFzE0mRzURN1b5xKbc/fUcBIumswbBGG+o9jKQvbPIn2ySsg2dOX5jhc3Q5ekItAWcNx/uZdbwUbtklT6Lqsf0JYOqQawnMSpVZsp/wBD3KcCb3bxZ3O7PK4+NxnJoWz7oxeC97w5iAtoZY/PF1h6XMy8Kqsl498fcX8RgPu/y7+Ue38Tf3zEqxiFYp5P6gDEzuXkhgmiZEtipHUqoaxiICnUFmBIORz6jvCRYLG4qgtjYpiphl3HGmFu2YJzzOo+ZxlceQfeUNSynmLEBcqXijiJPMOSG39SgiJkXIaaAkoEqupkqogY3MbiOVLl0wwi1Q0+Ik8ncW+UGjFpkeokKSk9Q3MpcdmNTaJykDmLotzQQHmoMgJlw+YjrE8WNGMTkPsR5W+JXgPc30JQZD5h0fvANP2jwX3Q7N+wgPwQzLX5T+CVpFRBDSgpfhFJwulWywKlbrIepZuzuGSoPgnDo6bxjYO1P4lhd+rT5OJTWT3tivnbwOjxAXdnlEAWPMsVE378RcUOwEVhV3QPmXmde6Vav5BP3aipsnnfggEb3K/Y1cE6PCMCu1vO/QI6FVrd66lemm719S49Cmz94wCVqxUFWtgfKWJQev8Ab+yLxeo3QSFOmEX77hD3TtY1BQ7WoIMxv+0EK6/BDavTKOMx1NK/1/eXa3lcyj+RRHZF8zovtETb5QZy5CqWW5px7l4FX4i2uRXfyAEqwK+WUPCCFS3T5grixgxCrxIdXBVXWxRz6IkuwdCP2gjoNYY91LkIdKEdQzFft9kuBnAC0lxfFGvtCvWbWZlhQ5ZWGjitR3HdrGOJk0aIoOo5d8kBfIsHrMGtpRDvEaFZc3oT1czTQW7OkHw0pfVlwRo0a6UU3WnL8D+o7c2HcBtr9y0oTyI6e444BS6fHl+4lqF7NruO4JsuQcyoWtmxRxzb8Ls8MbLGxiOr+EGwR5x08cJNOaev6js4jAWx/gSVtu7G6mlbS7fbmHO0Bov1+rENysDXs1geZbFAsFez+RcybxLcbFcDx1+30Ny6iuDbBM3GP3huXwmkQoRoAZiXKvEY7eJpC0cELgw3nE0gjfcMquKxaM08QBnNMTEGdS7NviDRLpruDLxC6XM0D7xfRBthxFybuIV+JRnbWGC6f1FirhncYwNwGiZOYfhEtuR5mXiLGsxDhKO5TSZbR0viWncWLAeFgKC4Xkhpds0ZXuUfaAas9xvzGhCK3UpugfcBeKilcUo2meZF0NQrcJ4LHnogUtS5XzfqAmcsW9X+YHeb9xRothwbx3yqKvAkOYph4UfdFGLW78kr2h8z9sH4kW9faHesP6WdtHxL+Ep2ftK+AR2qk1KEUOn7x58EUqqQZ/lFGMepSZU9zmKzo3oiWXP3AtiTxCruWUt+FiNtJfNzYu/mKJivbE7F17lllJEGx6gHeCUX8wqaTxFpzj2gjg+MsbaG3YxRTe8xNwb9o71goKfhxLjYPhG235naYvnAgsSMkME7vl4CVZPmamvq6ri39Su7yLSjWaYkygNr+nEZ5UvVOJGD5s8xATV7ZRXNn4NwOrSH86isDQ11LYdB6rETj9aQz0u99AoZNCh5FsUIouGw/Qm0egqN/ciywV35j7XFx8Txuz7Me3k/RQULSxdmE8ZGYzSa39x8RWRkhhXD7hv0EuPUu7Z0nYxixbI4SpMn5E9zCLwnrzxOKaFk5r7nmYwtnk5PEf6yE0NAyPZvPRhaNyxb/wAy9ULpwkJiTpWiHy8D2v4fwwjTPAL4G3kyj78NB689+SOGtnneIbQShseY3UxLi5+jOalE4huWRtXmIW71FQW0wmcOEGxgkVttgNTDGtpdNal3zcs+hRcRJeqm8RKPMxP3NgxFsuL3UKqotTgZbVa8Sg/wnFUEwblc39oUs7lV4uGvM8YzA5qX3QMtz4wKvcEp1NamYmoQS+LinkhmYBCDX5gfqURYY7QEGxjAXUMGqggyJdhK9w6BKNTBjMUYnw36iun6ICLw9xy1+Zfw9s8fxgLsI1vB9otGSIOcR7T7zoT7xHfwx8GKcfzOtfeWUp/eA6de400Z+Z2W8xWbHzHMBA6D0wXR+4dae5i7y3gOyId/YSy4A9DC2h8CDc3vEBGD6YvlBK5z+IO6D4i54Pud3ziO34ici+Ik5J9zDqjrkZFR71FS4HAqaFPooijVvlvLScuW8yzvMp4UPNQ7FTAAp6pNWT7uWhBnmFoSHIS5eKa6hbrvnBFXlsKP5laPSB+JSm7MxLnAxX8kza0mmX2lNuLFlyoh4DKvXnzBmusXP7CuWIU6Qab9A2ysUDLytf0EFY7D9gwUWDQ+7LYXXy2oHPBL5Vx+pno3T/EYBv0BmaAADCroz8Sw7sC+o9u9lwUtQIlWF3x+obMwK2ZkOJ37Ck+8V8hV5FfwmdL5R/4mLmVXeP8A2MILEa2PvGBdZvJo91U2PMO1l/ZKrdR5t/U2IhOqOZjx22oOxngseHyZIGYEB/5iClSlfYe2fE23is6aHvCRiBwIYR0zIj/C+Ph7lTNcOuzwfEEGjJ3+nqNZqZxp/crqj4ac4/ZKpyuz/K44gZS3Kqva0+pmC3k+Hh8MxtLcnP8A2cRcfR3Lqcx3C2nUv6FxI3ctUwtHMs6zMdqXKDdVNF3NAQ5g54jQWxLi56iYxBBi+oahq1mTuC8Ts6iLGohPCYZPcda3CNLaiDq1uV2dwXsnUjY8wMJkVNLWLULDZmXUBRmkaEt8EqB0G6hS3qvdPJqUhfxGQp1P8iPDK2p7ZTuz4gKj3ku2+yXrdwrxRlOavmd9ZeuniLbCWtERb/DNwpfUD0wtxbChz+4H29x2t6l+T0G5bE0Lz+8z8Y8NoLZQLkQMwiHKe4J3f3DioxTkCKxZ/LF1C/zHU+xiHJgHF7lyx49oIdjK809MtwF8TK/JKgrAMtLXmLFpgnPedjM5eeIl0HmYacnneKRgHq0l1XfszSFTtQ1jXdpbk17/AKjvXXNEQtoZwv2gOyE2CTNDo7liCDhamGPRYqWa/wANosEuiXE9LDnIv3ljTH7uZwkdEIqicqCZ76BAAV79eX/YJRSvm2niIcJtyv0XlwRcrUCrwjBlIvPV3rthKgxB3at8csYpZ6R0UdTGpfF66mXIC7a4Ip2KtgrcZHft+48Zy+ahzDXbWy3+JclHl4qkt43QDN3cdd6j37EJFhZ6hByVei/wRX7ohTpKE5QM+BL72+RQf6galpHwP7hg5b0DP3EB2leRxDr4BhkhRjTFGn7n6mE+VeI1irL5emd5Fb8PibZoHyf4YCRjdwj7bUx6MAfuPQyQwWQoGfaW1fG3B/18QcblHXg/ph7N/m/4hoVc4DSS8My+LqfuO+Zjn/BqaXAf50PjMEejK7rh52cxgg7PU3JjviWTZHUGmVlL6gql4gwYy7TqU2GqwwKHEUc5gAC8LuEZk0OYuKlicO4WjAmZ6g15jYIBSBIalqhYlRGLByMfgXxLLO9RFbvuC7kPcNHRHOK8SqjzMGiIF9kCm4FGcTWGB3GrvMKNrcBvI1A2XMA3mEg4hu2F0WPuY7daq18cZiXHRl7wRV6fvMussUn4S6fjOIPqYKt/eAla9Sj0lXsImqzEf9jjN9s80ArirAGK8V6Y7VPbAzuOWYjRf1ABefvCqp5RHXzARwU9wdUY+/iNtly235IpRpE8pQ5NzTmdsyyshlDQ+GYcwwDsdMNll+qjYx/KmBx7LR8m7iWTGdZ/zPlBARognaRJg77gN/Iw3LNS32TyNxxZzu4wl1e6MqgL0H5lLT1byPzKYR3VMb+pVpTiHI0nr8iFTCAvIK+Yke8P5EvN+GIiphpyP5S0ZDnGP5VZClHbHSlraYP+7gn7dX8sE3FdC/M0FPUWMRWdAf4ELmtWUs2drcSCvOj9+n5YnBpwr28X/RzEgqQqy7K9mVlt99X+i4sDGong4d9XA1SlHHe6bmGYaB4/iQHEix9SoI9Z7lNBEBVjl3UqICA2jF/MCsqMoJoayOm21ituV97hTHFr0G/zEOa0q3iGflMn6m9tUrGDZDAAvDnhYCGUbPKxlDTpb0jiXX5ag6ZP1LnIpV04uGnkOvTBgIUegxCAsO3eTMy8L2H/ACd6GvJl95chw5wJhm82195jjyDZbv2swN1iDqFS16Ti4jEq0XodPh/cPGwZ++nnubRZox1nadQrybufR5Ijv8A+HkgxSOku3Hx0yoMFpYb7v/SCmHIDB9/4HmX8MIivV0/+IquhdNteoLbnwfaZly+GomLlMrcMy/Eq2eIM8xbimLqVKuYOtdTLiBx1NXOVi3Ao3KKEI8I3cxRt7huoPEsoMxJnxBkgUc5lsaAMhCdvSXZMccBEx2R8JlqUjmDHuPhC4JUocVOzEtDMGBWpc1zFinEYLbsiyvUA0kuqfi+cy2P4M3ZC7mAu4Ks1Mq0S/KQzIIcS91LirolN5lL7gH3H1coJZM/JLHF3KZ4qPjcWUcSiZy8xsyJ6l1rC+YamfUR6SC0WQTm/xB8wt6TQyMv/AIjZFBTaHAEz0MQZ/CXDNZ6sKcEUxdTSETC19x3lXcC1e6DbBPW4TkL4WNLf7I20X5yOdD0GP7T/AOTDnkUs0rxVRGQN5tNsCFmaUK+8oOLcKdNZpKQ3a7tGIPDKY9dx62ibGNSu4SsSWsHOL1NE8Fgea/iVl1TYAE7Z8uFv+IfFZz98xqeZWv3hjL9d/b1MahWTm7eiZAi+wtn69RQ+RcTl6HUwgjkM6vv10JSUXktt/wAsKd7syHXbzPEYqxCFYGC8DleWGis0ykcB08HMPKtL/DWYZVnNwYRL2pdS4dCA0WTfjunA4+WMZpB4YwWCr6hjp5fJhKLNR4OPzANUVHOUvolveDg6gcBv7ziOm7fAUFXkq0WHqqeQsgMFdD94iXvf5IdVsQfaE5YNyuZZ9mF1X/CjLR6s/QlZP8bhFQwE5/xplIGW3zzC6OTy2RqyH4+n4/UBl4Ps4hwuAa7CBCmxehsfDplYy2D2a/2SUWCjTrjzuemNhNonEZPawF1Tq5YE0LOez2aSJoBqcQqeB2+H+9kZ2QZM9Ds/+pWjTpdv+oOVVe+mB+Nun11BZQibIQeZdQpuBuLO5hfMaAizaJT+UypC2gC5iAxZbmt8QWwKY7WS9TUAjmVT9AqrqAtbl1jUvN6ZTlbli7IbDLLQxY9xFkAwsIyR4QWsDBax6lSxuWclwbdyqjMSZN1KvLFo3MZxeZxK4QHt3fzDvAoS/tKtrg4PS9wHAach95WKTxQti+g4lp2gnXuBZlqWliw43KILg/EpJc+Z5BHiii6TPEWaUD7nhLn2Sj0ytagQShHhgTjcw2XUW9MzMzT0weka9yvcVo48zDRGm4+oJtr3KuW6QewnZb3K3V9RPFfTNtArYRLbK9ygZv4lI4sgMWJc3TwR5d2LNikEsFJcgPELhyeiJzO33AGgfNkPv+IbxZu0cGnV0lCq+1l2AHIx+YqoK5OHqahNVhPywSfRCx1buSqqOSgGgYrsu0p9o+14zRuJcdKaRi7hsOglED1egDzGeOoOuntx8R3AnHwh4P3mBtrWurghch3cefuEWIWNfc89E0pZA6O17W1wYhUWeMY/5t94OHoAHbKZXQdVltOidpg+11Nk5YvNnBPHSmXEzWRCvWko8IbTVUe1ZVQKoPijMzLRvi7indWmsNafeVObXzZL8adM5t/EsUGC8kTmf8R1GrzxiYCVoPm5ecmt8xuQXL8DBYCe0DCbi1tobjGth/KMQr9OH2GUtxgJ1WRiuM5V5JQHozH3C+6fl+4YeCf5w2fEBOtvoa+5CbcBwJp8YvZFceJZ4PZRdVcA4IZ8kZm8UlbvG7fk7ESAu6vyOvUEt593R5HD4jlMepPjseJfigYfPUZG6Ce7hhAWQhgn+MMp3ATL6l2QA2HHL/iI81nTwzM4lTMrmXTPKOoZ+g41MPURLnLSSlxgb5gvcS3U6TfqLEU7CVS4t8y3aXoZQQiOWY6rmWcXLXHUaKyyC83ULAxOL9IeDKxVzHMxpDDEYDMHUMUYnRFiABG7VNxci7L77dfEbd7yT75IArnA77EXV9yW2BR8zY35VUZKHmVPiUyMuaoj9lgC7BvMpf5WCNK1K5C2IBDbmpS7Px9FOaZfLZ5nsVFi4EmbhFeW4C+/mIDOZY6IDyfnh4TAq0lK5eanUiUO2Uckqt/7jbkL2RKfxYCuT4Y6xbwky2Oc5fxLeU9zoJfkjDKUpXX4ZZ/RuXsp9kp4PcS6f1GtLjmaSuIC8B1FbRfqZI8xGKto+P4JvoNVR+5asQcGWC1jznPLvrIuNR3R+IRu7bYpywPEU+7FE8jOLuOq40Us+ZgpU7R0Thqlf4ocelQrfzEJ1WuHddsdqhv718Jj7pV0/YyEJGoURo79seB4Bb/0jVVg2v8Anv1AxCKLzyfPbwYheUi5l/KPLCEM0LZ8vL+CJxIU7cRVLoQ+D91soYwCGwTcNC3lt9DHuNlmAR4mUugFQJWhqvsTcNXuz/qXsf4i35XfxU5g9ZLszuSg/edkrd+Eurq/lvHqOOWOe9xURzAUwYEy5MYHxKtrZ6XmAk2fioydW4HJRiAWEwhlZm/TnRCauhfGajdFC+MRBey/hx+IewKPTN/B4OuVei8Xdrc6Nfkjp5D1Rr7Q/Coo03Z8MUtNjLl4fJsmFYJDJ6PTvwscAZR4Gn8HpliHM5XXzEbBhP2PiAUcv/SaCU9n/sWqRgn/AEPMwM0XCn+vySsZJaV0/TBVfXk8kavh09yg+nE0RMzpFyfS6i1LzTC6xDeZtGp4MWGMwXBU1AxElJVkG6SmKEMKh2JdvmZt5i4/mHDaQOCUYcwvI3KG7+JW5buVibE2hrJLuBY5m8beglC/vmDkVb8UIVJEWR+YhbVux9phguCUqcs+avDmgeIHivARROyKf3LGSwc4Mh/QGDtMDDLYuWcRbbX1LMC09xUZgLgzpbidRG53AGhnKXL6MTw9RRj7pe8otly9yhyWTPbSWakBsbIYZYcSAF/Sx1Vyr6ii4fEKaRGnmUrIMS3jHhnkpEyr5CNHAjwzfN9Q+4+IdpvkxD8QrG3X1m58UhYX3Q+4I2D4m6L7VytiSkZw6SJCH8giz08WIwF8R8ZBtM6+VIZCHzkBZV6L0u4EI7BbX0hAjQDkrUb8jOnyvLDDOLMv646fdBQwwX/xHMXY2w56J6e5n2Hh+WITFmHfqKlh5Ry9SmX+gHZ+iXmiaoD0fmWMnNLZ9Ly+YWUoPptnt1BZV4ctr2H7jFqfC6/EH1m/Rj24gco/qVuv4hN7UJgtaB5Rf0FwYsXDmoKCwf5o8EvXssUE21HRiFEinNjQ/mGQOaeo3K2DWs/wlzZqA3bqYgRf4scA4+zGpuKB6joDTlO6LioHSjrEVBC0i8oQK3r2UJbzVN+RmqUijmxUNoeV9tH6g0AofMGblsH2SwneXgS7YyU80x2XNZ2/2gVOLPvv5lack16/iM+yUHNAe/XwljMkPvzMdUAm+V8Q3SWq3+a4LS6pp8+uyVYvq33E8MLPNnCv/pHWjyXD368Tk6dFng9koO41J9xOI1ILBkemVHh/4IgwMwMRyepqYRoFeY5iTmLmG4I5qLcq6EOzEcFZgcCai8VEvP0XCWIlayx87gErrqPhqDMQKj5mzxG78S27lrapasJaa1BOcS7zcMuWBmYRXrU4xDVsVjMDiLnwgyeYIaazvg9w9TqpvcYAu64akfkFsuxMbQ6ILMBc316lhcdaX6hDSdi/xCDT8jbCnbnxGjVYijWT3BuY4hhMuJbebJhi4p3UUTq/eJYYjn8Qd2Yu2PZANlzBkH1NqE0NPuFmlPMHdPwZgg3eIOC4+6Y6EPVAumXNbuA7IoLC5i6RjTYinVSiN6QVxNN8FCuCvcNvD5iqdPD5Ir/dNWS/EEOVw5lvfmCsDsja3mHieDZZrPkrPxxK5iuDT6lVdyfqmIog3Yh/2VFkyW5uD8dUAeP6fdDELE8p2noMfqXKLUOj17eZcbXVTYdDygOqzqtMaHghcl76OjxMQaGx+vcoBfFV/wDTEw9D8rrtDTrmxz0Ho+DmJfk8t/5cbcG5g76BDR6v9RWVvji/1GPmH1YOjjeo11avxs/L+oxMwGeef2xd1HsCAAgKHwB/2KilKxd7hK/qNjHzDbDYBx/L+0WHYB7Y1l0GHCg/VxXgKFhyGP4lLYUdBrNQqo1s+0uga0PE5D/CgAqsx9oSxlIPJmIJyz9JdTGfLEYeLUu1Gf6iatPhgv8ACxnE0+RiATSn3f1FDrwPjf4g1syjpKuD6KxwXX9Ri7DHrnshDs7/AJPtBzNIfAn8PhFLqXHeQfCQLlAIPzEbFao3w361fiLKHlf/AIz2JRlZPe3qFtymu/6S83TByvP8r+pcEzq9GnxC4UFsLRfpG8jUGGaT6iJB5l0Ym4mZVRqdR3GcTN4hmrnBN8wVyxObvFu36M4naVcsiz1cULr66bwxPMBy/EoKNQZjbOE4IjTaZZjEVpbYZmp4mDKWTiXzDLuaazE1iKFvYEfwfMOow5IfK7mXbc7uKIQ+YAV4MEQu7HvEt7jmxFdfFOzh6lsMxNZK83K4mfZLFF36lX+gIoao9wseJNtv7plcQSrk/EU529QB+xSmVPSG86lSgMTyp7lnVD8x7UlpSQ/wlTSw4rcEvieaQdVxLrWHxNspE9k8z8R8EeES00im4RMJM9/lCf8AcIWnq8NaFfMxA/BFm/IbmGHqMcpDqo/Q8zFvaG7z/DK2FemxRgeNfswI4VZfrOff6ql4qbAa+ULX9TZfxGrU3Wh4t3+plmJWQdTtitNclB/z56lKnEYNfwOj5YVd+WDn2dbYFXjgY6nwSgeOXuU8Be1cXz7jiLFNdytt9Wy2EPtn7TEtZjxf+aiFzaypdVw89QDQmIoHRwfl+ZUZehxufRHxqU7XZ3Tn53NpHQuOj+XxEMkFnHIiE/cFy/uIPnJ8S+LT4g5+8qoNXoMxkehrMFAhSJ1kZqUYny1FNdvtpDsUot81DOFLV3jB+vzBWG4LsXUPFCgdQuDg/hGAr9zzD2v4EBpsmo5pd0Iy57y/EZRCYTnicZJLdqoDIU38WfiZiSqycPU/mqQQbw6qmZuoqPi8RBWXhE/2It3lr+cbtCTsHH7rhJBLDoGvkZnKRHjz98QeZQZeef7lbYRs59v7PMvbBPJO83LNpyBl9nPZDGqAwu+305iox/8ARfJCRZ8TIGNvklSjR+I4DiiPlOOv8o6UCglPUzbKyXkgNS6l9fQpeiXmHU1HxEnJKPmXzcuskObC78QMXMvxAgouVbLFOoBM5i4GDTnbFdoLMnjEXvcXiGwICNXwkBXFzJS/mIDdnMVtiBVrqG5y7iSqM6g8QoYsLYeE9OZ9CbcvLX+OCUYJ23H1R9le1goXsWK/iJQ8A32FlC+6S343KQZXGPtzBGDZtf2lsHqVCD7zGAAeoxxRXqWbcWcfeXdSwrFvJE8h8Ss9fUQ7tHeF5nQZjy+6qmgV+Ex4CF03cQtqyNaLffct4SAuPmIcTeyZaQ+ZmpgT/wBlh4QQ5EjX1PuwF4hLkqFu0q7CMuAfeOQ18xdhgtZUl/KIfG3zOCffOOx6grAnkQTRulkdkfrJHHnFwvzGvytWBtGO88V8wot2wsvlUci9mbP/AGA5Eu/wAfqHYaUP64criCXDhez/AGWUgkw3LgV/r8RMBYd4z8dOoL55Rgf+Q2Wy8uU8+4LoDUGhLruH5pjYYcEQJ7wP1MvT2f8A9ICAzqzM4B5QNuI1JS32vM/ocxKEpyzT/YHmdZX1H61/LM9BGDmFa3YZccnv8EWDlunr+mPERYHAner+JY/LF9Z/pBo4IB2lx6oeVlfxKgOcX5y/iByQv6XcuxU/P8VxVWUK5cyud/Nt3EN1A0YJeifcaCOwxIbWhfzUsg6HuMvcVojTx2FHnMD1CrosSQwr9rZZcaUuzDTk1W9pWTS/nIfZPtNT4HgNP4qNqj08wGralhbAHslACIE4/QAjGp1ePsyjMxlQDhs7o4ZxhgODL/T7TeKZedvwYhXsOziBKUNPT/skO7Arw8IzgM75B8Xr7TDGDSBd+Lyd+mO7inPiGlXaCDGkYe4mgWcB/rzFomTbfYlUCta2R1qB9B0juEvEvE4Isu5VEq5RB4eotETMKl3m5dnUYau8wOWIG25a7iNV6lvjmFReJzjcqiJRLZWXVzCnXcWty1IwwzFKiZn4Qu8E6j3AF4BFRhobw+5wSiOFaZ7S8ENX091v2CP2rZS9M/aNgWdh7SsfEzTm5x9j/KLGyPjfyuUQVxbf7EWsJ9xDg8wQtOJZtuVd89SuYo4b9xuVaIcoTqBswPidwL1mCig35g8jGnZ9ohyNSzFQWBZObplLIHghsuTiWssZXysFd/CxK4EAKTLGoe6GqrFA38Eyv9Y44vPe/ZFppPaGk/THcZ9ynhr3EGKRLP7QRlr5iTGnbHYr7MTag6q453CdoRE+QsYUr43G2eey/aPMFyoH2hWW4ptvRbKy6mML1R/MwgUn3DwHPj3LimmJX7T/AIQUzCl46o4LiAZieLmssGRcvYO2PCrz8v8AuIHeDiNCYTGrn3LR7Dz6ISIt1jLeY16Trbt4OalBRhpXM8/Eu3Ej8DDhaIVeulW/4cfeGCwFsfkrmBDyR30T4xw29Edpmg2jPRbDwLLzjRRw4D4mJrEf0mBiB/a/djVK7fM/gRKZpe/ghjZAvtgc4R9o/f4mS6p+4f8AUYCo0PHEFsVq5ofyqcrkKfY/MODsflTlhFTlxyHMgXnswwUXjT2zYBgcwNzv+WE2ECFHki76ZQD1fAZPvGwJviviVSpyH2+0aowaj+0eVZh4jgt+GFunXzk/JHMH2qa/tLPMl1m831YzJ6e5H+QItNFRvof3Bg9Le3z8QCGlScDmXYRPdlP4cf8AsAvCtH+KiC07eJzRw+r18TKWftkdXjWzslHLmxn78k4tF0rQ+D476ZU7vYdnh8zB22TdpX09TUVE8RizuO5xKlxZtiNpdepvDmaKlVp9K6JzBahhLYYS6jUvMuDeOIv2TZcHMVWpk5mT6Dnl+kDNPmOWMra4LcWwBdkFOolpph37dstJdmUp8u+obfTlz2u4AsRdXPXiZr4yS38wn2sUbir0TUfAQ2lzzC+0DyRELaYMq7zDk+0VsfhimcjKjfxGysMeJFe3xOIht+3mbYJ8x11LD0Yngz4YDTfiL6Hll278McjEsp4PmchqPAww395XtDKXj1FmER0QI4YoMIE+ZNq4wVF81KNo8VLDTHUGWvzFINHWIy6i8KkA37NQOhfUro+w/iC2CdsIucHdPXuAVOcOV5dsV/EnzvaFN246Tt5HLFkpJU6Qv5fEyQQQwf8Ah+ZeBbYlX7fEx+M0Db29yrQBCYu5fOHJYl0FbXAfMt2RhO/VAKzvktd34l49hYOHS8eBKNA2yCcqOvb4h5Fyk+hfB5jJGkeP+Yg2VoOjzCxtYYPCNUPuftlfiLBlyPFQ/mHwKexKNvH3YRZpWPAtlu4WOjqAt/I6mXtW0qe5FTAXX3zK7CiXNAA/hBRus+MOYjJGfwIjeRu+V5jEBXb88vxKorq58S5O7n5gvsePEyOij7QsXwLEKu0/GY4BSL7ZZwzt92XCjGd64IPBIanXcFYbSK8lw+zSY3usStJyUyg4PkQr6CA+87wpZwy3AlRecMaCo1Gw/pHqw6K2l6b+aC+fB8OEKWZeX2ITITftZ+8Zut9PI8n7+886bf4PUuAOg7D+jqFGHArwj5B2dMRDb69eY5Yns7mCVmCy/hOSc7o7s03/ACaY6tr7n/Ys2aZWdf8AwqeIw3OY6meYsEqskG9zIxExZmJiGCLQ1FxA7xMhuKiMV0lwZzGV8ouCXUfUGK3AQ8ToZuPmLaPZA8ypcdylwxCjvuPBWamI0EGHs9y2DgZ9+fiia/K75Bczyngl74REf6cwjkvRKddjdg+7B1TnWGJ3E7hJVjOuB4LgV7+Ga2MpWGDzVemDHQkOwOyLvTXuPQxu4B1F1I5UQoeK18k2APeyOeRg9Qe44C27ljZ4uo83iEBUHYjm6KefvFf+TGq/uW8oqILU4iKKV94tq4rRo8xEr4AlTdL6jmjC+sOhzHhAcWfh3OgHNIKIVxdrDrADy7fUYt1P/gRKv/iW7lsu13Pjj9opk+zftOj8xABKisdj07lrijEsefIdPmVhKbQ58r3KkQOXEu7i7xcqz8JETVyyrOoOfxLrRKaPbwfuOQGOi9L4PMtMTTZXoevEvCF5rHl5nwSy6qqKPrljOzwKZXjEKWuvf8eIKUFLTQmmFvSdvUZgodA3OT5/SDZYBQllPFPG2IjA/Aj/AJl8F/4EIgGfxcxWhQfJxCq7Obmfcrwwofu/iE9UJvIqfdjX8y5GsLqrzc5qAHPUHEs5+v1EYKaU+CQ34IV4XGJGFLSjwalZvIyjbmwfMBeLwMawudD5IQNWTw7l9MVz7n8wwSbTxm5jU1DB7zFb6wkQzo+HwPtKB6PqY/CmK4FcxoIM8pkhXZsM3c17q9xmT8+aYYxDya9dQzJ17zxFyArAf5r+4vUwjt3ARZ1EAaSffpCyjFfXTHsCJ4/D+poZ+KissGWI8PiCMHr/ABr8pw8mJbowyY/q9kW+UrmZq6jvqN1F7m2VUuUsz19NLgZxOGAuCvERiAgzjURGvpx9MnO4YqZLOcxyw3AtrUQMwfpalcRacw3KCplswcXBuaYOYgYlQHxLtthoHswKDecoC25mq7THHBgifgywejQxjwNxQul0KPBtIutwC/6YJZW/2sC/wS6WT+ATDWKdMfpCrxeEBvbDKkBnSnvmVOo5CpD4hlc37lbb3jZ6ZiogaGrgo0B3j94fveLDK9e0gez2IEAbdMbWCpQ5geZJQ7IFihOIOgz4xCm7JbS08WDfX2mOvxKtziD2/lE4rXGOZQdXcteoh19y7i+oqNsU2XhCXH2ucjjtylKsfbzANDXD+YjyVwEID0TuK/7pCAg7t/xRtmG2z87YN940e5nSTbp9v8zeM4HDqCTcFMSjVRxeKjdCcyRn3CF3cSq/ECxv3fglCpLXbn/AQ1VSstsuVVHD+bALy7r9mDSrovgjEJwo/hC5bLDMuyoKt35QSYuq6CE44Pjb8TNuqycr16gf0Vavoih6iCVzJQSlUwB88sFT09rmFdcaHwS27ZV+oWnwCzNaj3slfeG6gcvzFWE+wH/YDkSuX3lRY0FHjEXEOEOqL9xd2APpTPxkFpd0wvqAe4xqWlI4gRnGfsRFR0c+4khF4fJEpcPSIp/UEyq6d9wW05B9JB4DiFG7GlQPnCktXo9cznPGef8AxCrLFZ5iMkN2f+JSTJDzC/4PmEgrgFnJ+RuBuNqvuOJS+Rw/ITMoNg/IShe0XD2/3EUmFwTydMHCWI4NvmHUMvB6nAeZuEFPx/uYYwz06EqrDXmHTxklnmVWP0D+YqyZWt+XrvrmGTECvosJfcWotkGiEXX0uLFhHSysKG4LmFdxMZmBX0GcP0MsSJKziCoWajcC3OoNMVeIvBFrtFI8QSJKuod3EVVQFs6meYiUXeRaeoE5KA/G5nk148+NmWCb5+B4kR8a0We1/EcXoxVHUFcfpQJYFYUth/7M8ysPQKlFI/Zw5lwddn8oYNHd6/eAewbp94wfRlvlDJRiwDwtZh0sagxTe+IWQFfUDYWCez1HnHzG4YU96h0jrLEYWw94RF/I/wCTgIcqDYGn1PYeZuDZCxqLpqJfMU7agA1jZFB1m4pC2w6lFYVYlO24Jy4fMDZcV6iM0ZjnnzGLG/hmSWDo3OwutszQFy4ucN+reYPndVqFUD7i3BiGWr5ZS4k9xFCogZQe4Nj4ExT8W6+8YuN5/RDYDR/6yw+AMQawCo7yfL9I/oqir8XLXErF4nXCH8QrLUPYlifL0S3xqDS/rc9sz8sPzAuaEEmIyLwIjSl5nBePnmVV4uWPCy6mCGn9ZqcH3T3P/FuhhJF3k9tjzx8zU6otQ3O7q6hUnTM9oVGGVepgUs+pv+YATaF828xWmf6YNGK2Eu7VBc+8TKfYi5ZhReqWG80WYD41fJEoxR/IiV8K09wqU2gXyTIb2Ux0G7Izwg/uGisnJCNc7+TX2gR2PyOPxMCrP4ouNH8N6/qV6aO2vQ7E/Ut0D9yeS2eBEa9tCvZAuReQcv4nvhO62vJLgDamx0w/LIHfQ8MYsI2PmV2mCBp05CcolKccY4f6l15GElGuhNrsYNWb5r9M50gHAO6fgPufZDVfuLxHO/pxr6V0S8RuZrcMkFTEI4mCmLOQ+JasTnzKjjc4JTio7m2eOZWptNwwZ54lDk3EX/yVyZaH5o5hiGWagATwYlFNQ8MO0W/EQ0T7bvnR8TOtbRswpjKsR06X1OCitV6IT0qf5EA2rLCWkvXI5P3S5QGhGGLlCHuippt25OEvO0dYploI9qIPhdxdoXNF8wTSRhp6iFVnkJnQvHNjgPqVKZemCVRLjdUMQb9QtikdIWw57d4hLd+n+5XGvvMH2HTErWPEYESjPYio+o+Iz0TxKpFOX5g+LMCbgx/iDcogeUp0RlmTowSjQ18Eu7OrZTr7GHkIwvF9zLdK+sTDwhZluU/8nRf3KdiFcj6I9Vux38QK+4M5wKhDSvfEAFPEW/eLUd8Ap7SNHq+CYdQ13/6gCduFxA+LeCUNtqzR4IvM5GXsOiEQYQKxM5OsAAHteI8KDyvkOPxC0uCHrbNGeV06iVksW8UMZ1+iLNtL1V4mLrWF7fpGWmwTKgtpvCWXRa8bj26xAHcRvOBHaeV4Y6Xtz3jOkt3M8UUgHKgC45Fgk9xXeWioKAAr9qpVPZQPENpNiRXaxgeSbu7PzAdBlAbdZJs3ojklwfUodaN/cFy28RKerEM7/hzAdkteL4ZWOkqHyz/nDMLwbV1FXPY5gzB0+jk/mZBgB15PZL9O3+8x4thT/udnmNBoLWITPXPZGiff+qJS96/5E4BgqA/lir1rxLwlVAq+jrw59wrENtdB+IvzHhrQKR+l1MxzOk+IWsN8wwR7lXOYYg5iDETLR8TwIKMrFMC8EXKHfMDicxoblLmz6YMGZTxFH8icI7C4oZZJcwEo3X06NxDGkGym6hfIMoXXbrTx5fEfHAKN2W7qXzvLY/8AXmBiIpS/bUNzAUDxGVt96gqyTi0bI+SBRxwyYzBMOVYis/fVQhlMWafQYhca15z+YAaqxfv7p48HBDeWXpIjrwDGKoo3h+TiCfubiHl+576gLkPcQoKnCfR+5kKzhirsY0bH8Qcs5UCmY0KYpjiAvN3GumVzpRbnBNfdOgIcjAdWPMD5+YIM/mI5o+Zbb/M1hXiPuvgg3KldK9EKeMFf82A4Ag22FOFh0hG/8cQ5p7ZyAEM7eoK5p+ZfyPKm4PWOGV4ODHyeYDS0wsKPQ6lgGLcSAD8cyDLNdRASYoJhq+a49Q6K3lCwOQ6gDeK+3llmt1c+CMCUXJrO3+IGu4HXEQXXqYpQ20TNHxzCVWw+CNWfJsa/MGg4Dt4ndL5YZDs7Z+pwLvmULoB4zPglE6b5ioWzEq5ip4WFIqWquo6xWYekMoDoLB3KGvMECx+ZVsaPO+ZiT/xCo1mCeTPUJTBFVDDuCxaSvYz+oAr2qWujp6a/cJpmtw2cfcjc0M/Dv0kvwJVmZaW45eZam7mag21yV/UrdPuX/LlrC1M1Fdbadcv3ll6m3Z/yNX5iODPivSKCnP8AvvCiNkhdUMfk8yjYjwylaqj0dX/SE8gmtP8AEjmFTSap16ihAg4YESaIrianWZf0YlQM/QjHBUW4qxEs6gstYlBCVBrUzfmW3Fi3xNB9G6gvcrcUQAjaoLb7iZlYqbfTIZjWpmBj5gUZBV1t0Bz4hcw3fV/LzKEE0TAKL7YCyv5gWVo7ipgB2RCaQ38JS8xZmiAbLwqYZ+wZihwF7SJQaPcpTFJqDIQhtOA46lYHDLYtZqp8lFOXGJarGkE2TrFQQ0SjDDz/AGQD5e4jnHuIzYwjv4nGRtxicqcIuDGASjk+JpmvqI8mGbEQUJC4E9Tma8zlRR2vvN5b3DOwvqBuD8TjCBcsaeYDyzIYSvg9xzjd1RLmJ4Mo7agami+ggrKcXNtDin2EbLIYdkChbQrAepahpykrgWbepbZnbG4F5LnwQNDMc/X6yrWHF8vmZBZBf9Wy8XXNRi+qvkhpaNA8EDnzABvjddxqUS31gTC3bUn5YnS7C4FEuL8tyonLM1vzCrrVT+JgOBl+XE7Dv2G4NTFmEx4LE9a5WHQHmFcpkr3EqANtcDMuf8EqWgKjBZ0jHZ3iowFizB6hllnEe3ZVza/EsNXEd6V0y4ZqD5/sLiE5Fa7WSWoIXwlELEB9/wBTctrFwByv+/uCX7LfTLq+D0PEG9KcDpgdAlnmCRQG2HHpyQQ6oiuD/wBJZ8H7T3sw9YRPgGNW4lIbuNKVcS3VJMq9uTuXpvyfhi8bbSu0cMfI/EDXD5hwALtnyDAa6HEcESEJWPq2RGLv6QbEuWjNwQoZX2uIfEo4eZS9kRu4q+5VzUDnMzcMxEwtuOirjhjiFtqOoOZT6SqxzFgOZSHmCQxAJa6XWOYdKmU+05Zi/wBZzIRXqWiAPRKIxk2vo5mMC5Z3vJlA4No+EUUdsZPkxDZyc6XdLc/3nNnUZRrs3+8PWOLn2jTH8wd7Oi8p7ehce4IVZ80kaNRXlG6yeYmBVd3KyrMGqM+4DrMFqWpSvfm5fFlQfMdYC/BGlQpgtvygKMHcOioiGvESNF4p4qX3i27iXZfqU8srLvA5A+JZauUHuVB1ETXzLZxA3jE5iYB04tfEu3X4lqpV5YM2va0Q0PQJfxfvMXZRURZM9QFaX23LVja/+EqtK/xgla0s5QYw9TJE6iAfOkOBbKzVeiMG71PGNo2wRyYQ4fXqZtNfumSD/gHzCHnvRATYLpr1ERDQS/tuZ34EBHSKmUqxfyjgpz13Db1CGQcZYn4SUNmncsMtKvmDjaoXzB4Fj04njGiXAvQTyK3ubJGL74mJRobYzA0q/LDTCnPGNy99qfLH7Q/cbC/8kDQI8/L8QxpsOGZVaShSZI6qxEV0vUGEApV5IODoypX1Hp7f8EHZTtTl4i29jBfOvvN5U/HmFNFYf2hbeNkRbOVRWV6b6rg/O/cBUsnHEIDjDGJcr8f5hQS+VMbg/iUhnFSnfBzFDjD28e4Kpp5l3EzE1ogeSI4B5L72V4/cGTbfQoeD9MbGLPibgZnD9Xc0/QaZeRhi1i9Q1mLAK7mOIcHM54Yh9RAY3NUqVemIruDEpAKWcxOcysXEN4+mbxNFXC4hLZcFueasVFxF6yDg6la46dvmbQfcv7opDgAH26PbB8C1Vh8x0vcRfgceWCyBYEo2D7sDzLstYf3T/AdRIvE4ridyOXFxm2HvKZRdgD5uGQdOcv3D4PN5WTAKsIgp7ZU/MdV+cH6QAwvKoc/NF/LuXdhuKPhi1XIjv8RYGz5g05eGDyn0w2XeEWNJSsQy1FO4WMRJxC9ohVUw1dzLxK+8ryjfYpg3ngCeFFM0ieJ8yy8HiJftQ1D2x0gep/w4vVfbNcBYp2dczJyc1xN8KO5vsvj+4+PHRAdJogZnwmDRfyxwjPmWH/jHzT1xKcCiWxahWtm2Ybd/1OIGy/xbBx0PhBiXsliMrdTXelrmBYF5rPMXDnEoUQaL4lZBpS3n4TH11ajI3CJQGNzEH1AHeyJvd1lKUcUiCuhKDkmAMvuUvzaWlvYQ9EorlWIbLXdnoiCdHywSvUBe6mYNZIg54bHws38Pj7QWYX2OPxFwe47Qc8Q6c4MZxm0TKSlXh7Jmh/uiomH5KwIZqgvsMby9A5z7KgF0L/iPgjxM6L4zmeQEwysAHbPuPmWNPNsTuGs44DMWimnEqMN/ZeIRxo88S3DviV/0mW1/tLEynXL27I+GnZEPleoTn9ia3jZMPCkKhY/cCvO4ROBNwKIQnxN3LouXmBf0LNyvMDMyY5J7Qz7j2Fudm4N0h+UbYCjLUs4lGcKmhcuioUcTAubL5i9Iambjs/UGXhi3jaw0DUUDQ0GoGnBNLMx8BeH43XZjFL0A10OiFLR+JWnVwCsBnfUyie3IDch2JCom40P2lS+zDAvsAKPpRO2OOaOpdhdsRnFzmopf7TEqlxl2v5iuUHZDAQDYGuyDsYW7/OGeIPq5VdV7IphVRQay+YveDKKYWKuGjqpaOZjnD5iDcFXk8fQU5p8yhS79R3LlPKS1aIQPPuNLDLH5V4hUL1MnBXxBChB1tjbM1b1AXwnHc6cPAcREg+z1A9DyzANzK3UH+0vaNvbAN3Rwq13Mco4DBCh+Lg+e5WBrtUaU55e5kOWGHFQ5Qy/R/QQydrb+pVmzlitaeonuCArjhC0bBXtiutkB+4gpdQEIzKU8vLAAu4bazmKY5eiGwG/2QmfS/SwR3DVo4EzCE0pbBX5aaZfeqMSypRDtuUvxLBuAqeYp+0zhw5j+zOAZl+car5Ir7jMu2Mu4C33TIQR2eY8OyFm3sepRq759O4qWdDLuaW/Yv5KiZdjcoqxplqKVWGUlvIB8h7gOCPuTDko4X+gj9ZR35mR62MGRidPPZKDA0e4lx26lCjiWrQ8kNRl1UsA8Go/0OpgGe3E+H5U2QCeFcK4Y22dIZ6AcSuXeH9+TzAuVVxxFUVzmDmOYc/RWK+mmxi37lcuJuLMs4locIwTruKnEcypgm1k1hivWpeYv3gcJSs0dxlcLvUqjxD8S68S8Y1FQ/KKoeIuFEQ80nIC8rHnRS5iYU3vL9oNW2+AJU/LiAB7VUUWh+BD7w03+bDlXpjzvyzCNn3Y0vD47ztDw9zHnyVFGI+AwrLrO8I7FQSh55h06vmChQTpgLVL7l6ifc6mPBfxPZ8ylZ/DBxiDZWPMQNVOgMeGj5gjofmFlifcw1U+Iv/BK8uLZ+5mDGRKzHPMVww5r0l8cyrNXEeJoWhGWaz9p6U+aFi1uD6jjE96aA36ittx/5SmaFXxe2ZJnHOZbfONEZuDzoPRBIU2kFHgdxChgm2sNgwH3dA5f7hA6xiTMDnEdOkIFt9zinhULhKy/mBpgK9OZb5BP7gArg/M0N8xhWsykNtf13BYFT6wX0gGziZ16iMnGZs9VLkgaBKYVjiatL8IXUHhHVHV7MpWMtRoulypqyQLTnSoHZEw9DLsMiYgsNQhejMEdZJxCN+Gcy/t3CYNLjNbJ/wAQjNoYYzZWHxcxoVP9MDyYP6gqFWb/AOxcAoD51e9kuzMXiBHKL7LAB7LiBXSpmyf9Hr9Sw8R/nMu7F+INFkG7Qz1NJ+I3s+DMKVVv5jY58v8AMgYQfzANoEyWDpJbT2UP3p488dQO8CwVnpOHxDLkmVRPoMb+hb6GZolxwy5cGWNSjUWy5x5msIdsTWbzDPMpdRuUZeUdXMXOY39FUjuWBauUlXXEoqWIF5RDRAp3jqKoSyHOUKEH24oRvO4dA2sM8gyJQoI3RPxZgad6mX7sQdyMPsSnn4cpj7nRpB4fTHI8x5oNZCOhY7bFyXfALmQJ4zU91EYr5lOb69fMDX9eUyijsSrJdYUQrDE7i6Pujl/ZNnEIIYhVsPGYvQjyy+YuoOLM6bPBBXdILFXDMsRSwqPgqP4gQXCo21+YF8nRMvTzEWrdzkcEHhcoxdLWxCwxz1HkIcsRaImJVzU2LGOFR9KB3LY2FB+7Hu9/E3qJqR5P9nMYFU8SiYlD4mVOLgBuuEQcNsyyNQ32zXFMdEU1lmSeCZzaIPe4IheVqZzlFBzDH3VQCeh8y6Or95mJSycz1HB2X5mUI6eptycpQbBa4XNq3PGI5XqiZcy45F/SJcNDcoCf0TmG4qVZZx6igo0H9oJUzDwkZLYCZiembzRH8Mqxi3/qNuDniKxuyxL1/taimhOYgO8q8P8ATMEAeWcn8k22NH31NtjCvHUDPqHjP2QMXO1wwY94v9OphVkX/Iht+CZJVoXXz4lWjKFy7fww0P5H6lihv9JfN/JLp/lwXsvxF8yOAJV+RdMUsV/oqDQcO4g/ZjN4KLngcDzshbmhf4HDmJ6qXcccSsfQyfTE/M4iozMN5hiMXcusaiqLfEMsqr6jqGsMbyfMssTFk2Q8oEcai2VKBFAQoXL6Y2C5g8biKY4SKC5QIs1WIDFAb5VKHjS+xRUWOTEEBa/6oQdrAsU+0R91uwsJeDH3iRKMD8UfMVQU8aPbLPGTrgopLHsZiUc2/YX6WSs0ba/GGPsmkDcl37lRW2CbS5V7qcukf7zEvQWds5n8xatK+GAYqvErkGZ5K9wAyfacmpReszYxCqqyTFqEXcn3ld+YgKBjYqUR1vxLy3TzGju/MXgSOAdoRRkoPZIAK56CZOgiPRG26tiQwYj4kUq3KGUfZL0qdseYHbFfburEUbSMV8yAK2Pgmob7CYOsuDbH4XuBQzOiAW7+U8inENZSvEC51y69pTc80cFtPoiVEVdncQnFmEGQOJUNQWotorR67S2P0RyBxuXAkVAdwUJMZl7uVxOImp8JkdGCLEcwKw4ImjUEJTrDG0aR0n5iRfhYvYF11DBLA6h/E21SpLlGTCUzR1epwqhFeUFUl5IfYmY7XLylgCri4f4XnuLKLwy/pAbd79cwlfWc7NsmyDWStB4e5plOuh5I2DSbgrigU+wx2nf6RmWJUbGDwQsket2hvp3Hq6Dh+D2cMFtW3yJ30Ja4am4oEmTqaLC/EcXfzLdP+xm0XeEdPuLdfBoUcmaP5gOundwcsDvqah/Gx8n9xwH+af8ApAnmXNS06lcRyQep71NYdxlQxmK3NyzioAwx7PoaPMK7iXhmLTqDyY0JVynF6lOIRxE8RUDdVMpCks0xbmlBUHRqHIvEFY5KDxLMdPI3MAVzV/dBTIdZ34JhTuKB+5gDcrf6cvMLuGwaMJQ+IEt8uAmWrpEqF35MfuAneinz9O8qkUgeUFwF0Ql2Q5TJBzmDYfQVUaER3CwWvsgA+4dz0K4nMbTgyxUOQe5pYRW6Lg7zVB2z/dmbh8y3hHLLzKumPIe4qsFQc1+WcgZjuYL9zFiviIxZjDKNTjuKuBi4tiRyYjOkQToS9Yl7YQs1xuAK86mAQA7iBm3rURVlXWpVmp1zLktL73CzvBoXLomDGO/4JTPg26iVb5IAsZMM4v7swYv4NEd5o7TwQFIyMPcNPiGUWQtuAoOOOIpUy8QG2aHKgQB6HUCHM58SpBEVUEBFRjOZQInwl0lIyUKRwmXC8EPjZrzBaPbMuE512ywOWtTO4ysSl6nMAVfEQgYyhMak+UuzI/lHfyNQ3XcdFGYGtwXqNo8teSOFAv8A2IoI4SYnsxFA5s3DehvUFogqN2KOxsjxNVTXSLY0Wv6mnHG5OnxBAFHsPr1P8AjXo6ZaFTdPRiiMQ3bT2oWCHsijjX4dPD8zLGnlv9/EVHGbTT5IlnAcTBBq9ksxWepQ/qLbp4Ys/wB8xM3WTiFsdOmJYC/8YmCSxKX+pTxGcD+t8zUZM0n9nmbjmV4lGpoglVMwl8VAslS+IBuMLFMS9RMy7ZpUPWCh3mObkq7dQGxitsMM6mt1HoTZu4nzDDzELi1AzcW9EXMqqYRaX1HWeKd3cRqa4YFycIamvReKaCWGK5YcgnvtPvuI/su/EOFZqmfzCbt7xY4jgM/aVhe++Yq36hu55z9Mg7LqUZuDPpcT4rfDNfxo4p3GpQegxfAP9gp+Zuie2bBqEKALKHW47nHMon83LL/7OupV5N8RQztUFkZgDdQK8IMoftMKxU+TFLiIdwL5Y45YhrcU6uNlGCOjAFtzw31Kr90q249kLaglKqPE3NXXyxCM3iX64XUudFkKMfeIjv8ASWOZ5YHrxB4HiGLu+zHApMwcSHbOej7xym/EIqgRcE8zicxG1QFdCkv2YfA58RatEsGToRgcxU5fEK7rkYHFYykAybmCCMu1uZUTgUEvuN5eYdYFxZLrolG9JkauoVPiCtjTKVU5KvEL1w0PUtFp/tOA0XL+KYy4lo8jKA8wbPcMclvh5Iyy1ayIou0qJVNKhYHg9kT1JiVDA2rl0l6TIDQ3h8OfmJbCEGyGHzEALYM5y/uEBd3FRogPtP6ZTKWk3cWx7J50fjCBbTKf8snMQtjSw6ie+EVmmBsjvBYZlLlw6Y0SWdSpp8A6lS51cf8ActFeW0v9wDL4u4t2YhIUNNhx/U/xNfaK+4cvH0HEHEblS5zmXMtoR8S7g0QqeacRyEKFxwfRhQimvE7gUtwZrZAqpllqG7/EXNSxVsr2Iyqe4heZhQuIOHUTxNsCuZ11CBm2Xb6isAoqNcPMJxFB1KjwOyvllwD/AAA7nwUIPCp2waZgbgHlgLW16IdAfuLCDNmXqv2/3hoI0ufC+50I4Py/7DhRL32+3iECgUjiIPDrT7l8E9QowwsqE3fmKrIRG55YKxcTDnxKOyV5SuojX5ovZxqA9Jk195mO4HMucLHufLG5mUb3KU0RSUUQXZ53Mcn5kWKI7q4j9DMzbZG4W8s4KuKFGemAo5TD+EGWa8QW/wAJVbZgMfEE3lg2TqVDViHcME0Vyy1B4jbMMW1HmekJZ9tStzVnMCmi8S3Ko5lGLmIrGEQy5dsvmK44ZwAI+4OIpyOosCZhvxEiRkA4YTz1Gh0Q0iFKNwW5zOJiPElKgO9ioVc4iulyp58TV6BVjgrLGCdHJM0tkSlmPFOyWAzez3L+qb9DLKK11MyRaMxgxsPJ3+oWWcwSYiqrfc+8B0aV/aZA28DcsSnnmUu+XVSmAZX95eGNplsdrkZYDkHSYc4wnY+G5TZaHLuLQc8hFslEvwJsDQiUv6lAcunUALKRgo8/pGQ4advhipMGxmZWeS49Sopg8ziq9fxExXpPDLKDUiPhsJ5MafCi5isEZU3iZeomJxPj6ag4iamjMuoxbkliLshlXiGXuHzVS/LCkcswUuQMRNC3EqnERXcocXBBuWZIaOolBF3LB3zFti83BRVPvUzBHODT9JQkoLpUIpPQVEP78QFlX5YOs28G4oYt9xmdcqoeMuxH1+nLbXg1E44Q0F/CZJRg63238RpVwDe0un3YwvZmrt5fLErjoOoeH3jwHzN8xQuipwy87hnVsFLSv2gtwWJBEcWwRxA8hNpfxEXCz5JwWV4ItqsgFrXicpmNNdr1KWFVLAouMaq/yjQF20EDBd0wC295+00YeWWbWywqsSjk8RbUEpWWIhr7xmeVh/1ZnQ3HlwDqIF0Q9EYg2/aINixBOgrlxmGME4EuwaPoPdMbtgG8R5FDbuMGCq1KIu+ZjRDUfJDk6lKdNBGw5CJYCcwiSgVOAiql5iYTZooeYM325SFCgwYQprE2vLA2UqCuCkI2VHUB1bXcsiQFPmIjDDFIsXYBDmsfEyV8R5GoqfKHnkvVWkb4Y1+4mOhslAijCGDQqfJGGaFxLkrD+h6jDTZbP3A2/VfMohwcQ+gxczrB67hlKP2JiLfxETDqviNbxmCWg4YTqCusrJ/nEVC/MG/+J6R2dwMrl+E8CYbzOSE4lo0fEADIMluAYgOLNMcKt9vkQHeM1HKFxXfnhlLcMg+UNH7eIOayyb9EyvGHmOB7jprvzBln5+nxLfU4zEgBudMSsw1C7iTmZqecT7o4dTClTesQOc1LENRwVLbWI8zOKUmcwyTmOPmUC3FAauC/MTtmI8xwwRVJd8TLHA96A+3qIiD0w6PMFD4LH6uAQPyc2EqFdqggGxTS9Rpk7cEJDoP8kXNGlcPRxBW6AX+oJjt/PXoYJV0ZuetEHuJXxB79ShC2wGj3ECyIHcwEvg0mK7jhqOE0S89wA7TWdw3gYt5o3ytQRuykzlw4O4EyrepXctLaxoljePMsbHjmOgvDqU3y9RFC8zNgEV2QtJKrwty5cwKOMahiv6lpjPmImibDEL7cyntLWYMsWivumtuYrwYjcTfggm8CXuxNQY54HvSE7NkbHzFXVG2lEEUPvLK99SmnMJOUv76/UAafpAixj9zMVcAWaDbAPKL7JVKFCCQ2cAQOVt+kVNchX0rc23Obc08Qzpc6SmiDBINvphM61EyzGjeWCzu5VjCKXF3XCw1sNRLKxMDojjzB2MXAlyNT7BLRdSxe6hcxEZwHMLQVzKeO3jrMs2dWr3DBI0/YqCK4ZvzKsOYOOh9kBRvryQKvSOv9kBxthntchEXP/wCpLgO9O4eZaHECXPUhuG+TrxBGjZ2SneA47g0Jy+HxBrKeZsNyhdQIsU1cFOBapi9k30eoE479mDDtypcNZjM+pyeJmJ3gDyckrrzMYPJ/JF0p2yf2HvTP1B3K7lXmFs5lCXcUY4iVPEVly7iRsYlkvmFsvS3EI2nOotoZ8RHuBUDRLVygXa452T0mrm5+UQzHGiVZmJbiGAB95Qyb0ZPmBjObA/udWoFX1HzMjK33EeimLy+uomT9YH5ZuHbughnpgX5iSobFPsiShc2qIwQDb1K6WL4j9nNRU8/CPnmFUAfBLlqNrg+ZSDhqB8uWYRUZYjyKj4fEKF/mXaKItl4Hn9swK0QSZYGej9yxXtlXl1MM+31HQQzzdwVsu+Iygz1DWQWoxY51K8F8EaOFbg7lI3OnUbc4gq8soERXcu6iOZX3j5hebKHggfYxxmWCi2ByXoEXscqmAisVqOEQ74DlTuYi2OuYtUr6g3bdcSzLuWNaCIaAv/AipKWxnqWUo+jjuVJol4Q1pfRMbseI2zzA8NQUmWGojnmPKPLDlZg/aJjC6DUveV1HEEzDtmdpqBuAKqajZSu5iqeTtmM5ZauGfbBxd7zc2T/ZKXNwEmvEF2IevEv8nEYzixHrNxKH8RXB0CIc3xLLLsYMbZNyQVA5DuMjw4YihHUx2UK4XzwBOBLdBlH5PmaRseYaZOTzyJs54FRNG9lytyMLt/mJyjhI7Nlt/E5E1KgM9TZY0P3CNvGx6mcX5OZfrJN66Gn+Jd3mEZcsL2HUo8UQK76i6LLP7BMM9k3kceoAyJQ6erh5Q0B8n9zw8cRA5H2Ryhk38TUxUCFMcu4s7lqXmXjzLqD1LqISWCC/KCGG4bxLLceHUF54gJ6+g3sjTZZBXEulZKtRfvMGYpdkXzmZGmNrC7uiGJlL+8P9zmpAHB/o7Y0BDI5fO2UkIsORfUOhec75itWnLMU17YXLV8CWbU6/oa+YVFmqD+B+5tq7uTfPLMXxaYIgJhbWJtDWD+B5YeXSq/Y7nud9TS9zOcUM30Eu+DcTYonZKgGR1UWVD4QeeZGiWDUtnKdHURCDBS6m0WHcwK1D0GjufLDN7go8RULB1KeU6hp6Yube7ohoDozPAGH/ACU7gxkQAbBfjieWkVzi481mGkYJsnQghRUzUb1F8wFy1HkY9Slwl7jlsHRiZwtcBcrpYWg3+xCC5vGH9wLbeLaShDSo8QiVFcVszQqwLeiFsRxHb9pUsEoAa6mn3GxKy7buofW4I0Y6mQwWCFGZcmYZvMri7c5YVkpnmELqEtR2ClEujjAEOpQWLVQzQqbprNRcotoTOeAwbG1Yh0ZL/cbzMx2VwxVWM55lRGtjuVLmyUN9yiLtQNradTXNkbIcFyo+cuZ6h1GUlBwYZkYckye9y122aaSYeoYHXkisRsyMDhWiInnWf1CM0XhmM04p4ie7cdQqvb0xKpvp7iM8NJEPbb7R3CfE7lkB8olem/qG24wGcGT0xVynMB6XPiU2F7utV6nID1j2OHzNANCMnT/Omc/Qc8w0xMYIYZcxA6jub39LdzI8dwUspbYqMkKEOQg4GY8blWq4gaKi6ZdkaRZ3Lxq4Nkst+IAX0u3ENsuCGD8kHkq3zDzsm68xcrUdAdBMz+p4UYtbT9TSNEebuOG9EsR1Mk4Xuv7gxIoDB6hsxl4dvAuvc48mWsE1wDtlqozRbG/k9ufiKsyyvI/pyw5VNjkAcX5cTZ4xseEYeXuMWt8G7PrzABd3KPDuZPpLqsDRUqH2Wcr7SJpLLFZ9pSGtUQbbSahErGfE3luuIqJQcsyDB4b9Sjb+ZSq/Ud8IQnyXwbV4iAyoDqNrZZe64Xr1K2NvQt6hzM6Zzn+XmBJCoccwEpFDliEL21ClsmgmXJEM0X7jfVPE9P3lq/NUEiX2tE0geCA87dxANamQ6NTuMynEe17iEpXz3DHSXdvslnaLj8Pu7wvnUbpG9ljZiVzYglkhtTLDEuGWY6gtaQRMUx40PFdXMJlBKFhlYXsLNTVRct1QTC+GH9RQGkI6GAlRvYg4IgbKHSJfWoDdnhZ7gk9kSQHEuanKalgWzMtiE6a8S7++P4jEuQKp6Zj8RoZyN11EX7fzKV2zDmnhgSpU5wqaWUuL6+YgH5iF7UoDX+UKzvYdMPEW+B4lyvV/qJUBemIu7e0Vgue+4SkW+40dvn68QQ22/wBUBFtmoRxxjfmMQvsitfjhjN+EQxT5c+HqE0XlG4/uXVfKtV9chyQTwFj/AIgNiBV4zC4Gc/Q7l34jnmPzHDzOah+ZlyxAdks4VLQwbYAT9S6f6lBlz4l2y5xMznUEHuWGYjDhogUvMBTUqrOJm8wV7hDDvcYqXhcbWstuYh0is6D3KUqo/wBPESyssu8oaJ2mIkJOcTqcwY+boeYOweK4Q0X1/K4mcNV0MDgByOfcOKN6zzjoZb6I6DR55ZfPBMQcCqVfbcEpjHjPBcE0NG4GGoQhh+IYgf8AxX8yzfwfpI1eYo15Q7fLvJlBDb31EVuYW90SpbglBf7WUWmeMcyjqtgt9jwTEgvxBrMaq9GCGrurY7FcHMtQ2C1o/wByumhbnDflzg6HDKVhsAaOonUhxcXw8TTLcVokuqAeSMfaJZgCGcKWMC3zcsopX7jRb7EaofLHErFXTUwXn4ga8HUUCp3MULBxAl8zBxFfiZRKpeYAyZQBLcRW0R6SnloQAZgiDi4qWVFwZoMvOU5yvuIjwEtQcEGOoSsZnxMHU0252zgFsUz1EHpmpi2kbR0NxWuqMOrgB9pUdMEfnKH1KCzmbj7IWccygplyHxFWyMTww1dZYoCB9Rq2sr1KfQmSMdeQxWXLmJYS3j8yx4hnBjxEILNEC2FYDEK2XbsFmMftO+pRXNPMMcFcMbI2bdxAfhlXhxCFbHubl7HJGd+DaUrbJTs3DyUwncbIhSHLF9PmWIQ8XxBafIfBlFlXvqPfhYyvw/uAIhgnifyffuOkHwy+I5lS4RxDliZgS15mGJdqqp7JzZqG8RS8wd0Yhwn3NkVD9AKpZeofBB6TFY5i4MwWZjca43LyYmYm2dymzmDMBCLuVmLJ4iJ3jqEZGEuTBRnB1gmPpGLAe0zI9OJfrl8IqMLI5/q8RP6N7hSreMAeZYpegrBMWGbyH2rdHMaWMJ47PgOhtmSYjAU78kZ4GU5cHodsbmwrheMkXd+MD9okD4M+Ni0oMcx7J6g3JnRDltAA5pXKpQZuK7QwcwAOSN1RvriZGDGLJUA+0Vs0OYnAmJ+x+e9/pMCEWzHk/wAGoxvXMFsDHcBjZM1XK6EfMT5Uzebtjmq13ECuo8hcoKMfErxzMn+pda+8KOfshmVj9xN0lVoyS1+m9yjL9Ed3KVjEcs95GybAqYL3BaAVkUwuBZA4KTcGOly0FhYU2zUUa9s/MMMJUFdLq9yuaAeOY2Ae2YtlceYZH9I/pK55RdcnmJsHHzALtj6iuora9PEIDbKp5XcYZXkGW0cAqDvOy5dl8EtuAb+JRLjIylS2EIE0zJ3s7iRUBnuV8w43nQzUpk2RWBgW9zozK8Vo1tcNXSrH3PcVA8S+mxIPu1BJsyia7g/t7joWGs7fTGKkzEI8DhNjHdyQpEY57I6L06mZcaSYQ2lOzfMwD2CCuZ/ctcsw9eGdDuOGUCVzWfpAWNv2IeTkg7DtsNh/gY3AnCrmEFdeOIpqcSsyoGI5g4TMT8JcutDY4Zbcu6mVWIQrt8wRtiKptYPLDsMy1VQt0WxQvmbZg1luAEaH5ieSKt3HBqUOtwM/QbItTAurWXD2RyiBybiKXO4iGYB2umApNzBYPZ7l4B48eA4gkw5BfC9jgOZRMXJlYCBz6Wrx0dOUfYCMFWU6o50PMqm9hnZOnHcsnZjMcH31NvMppH+DUOYmx/IXgibHTce/cLACUxpDnuexQAyQwmzBqWNFA5gXLMwlrI77gUDcars68xIr/smsFpoceIl0rhFAWvI2Q4RdbMiq8GXmt6EIuXoPyDmFQ0TP8ErgpAyFvcBQXyXiVa4RgdwKADlcst+Jmt5gQN4FeKlb9kIbY9wMUV7gvBB20QHLA4lsAxKAxiAbZlFD/EFHaxE9RQcMz0wbhmojdHcbwdwIq5ao/MwbyZu7RAW3LQauEhvcG+5ATkvct8kNv8JnSJqLeAZMWGma+YDRXQsSgOOsJYoX8CBv5vceJMZ4lSQ7h+YMHctucyfoJ5Ec0u2WSN4BOoIckdsoW4we2IL2bv7TYaYGrLqWb+8sHNoVHYwG2NwWJmKBTIShrl108zJcVZHZ0la9T/BG/AlCixYeIJMDIcjxCI0aDzFvUpVVA5nglNdnIzeE+55mayx27Ipm/wD0jzKBn4g2NQ/kJWtYZUXiGMxZYlcmLyTzKEeiMW4y6mO6Aq3r/qGppByfxDjguZziVVMtHwHXEwCYvzKxNTnUxzNESzcSt3OY2Ss1AYXecVFBzKDNyj27iYQVrgsvjiv1DU8EW4zcQwCeJg/LBujFwFwC2dEHxFlZgZDPGERU3zMDbLl9wLMzTEubUJonYPnB+4KT/f6lAq6OShXxs+2fj1DR0/mgGExXa0Onxv1DRhfMAY6y/d4JRAGxV1/D8saHQgzR17l2RUaHjyvsQiXVZ19OXyy6NOVyWWTHgRyAL4izKC2svxMzoH3wYA1pQNAaIcN1odsx9lb/AIr6igSQliwD8vJZbTjOBZXzWA7l/qUbeUHnlg9I1QdG/tLJ8Ab85jQlQGCYGagNfK4Jx0ccB58HbFZM0BjqOiVhnl4lApcoLRaXysBAXW9ty73TfHxPIW1RHVKtVKxaurjNSe2C0uZaJh5mPs6Yr4VY98s5iXFVDm8zE39AGlx/uRwxNQru5zoFpAOpiJkGjbK0OCDF7lsLZh+QZm8YLjQ4hnOkWNBtY3jLSZG32srYMIHoQW/qL0GrrqWR0u50D77zNYLiX1cNXxAAvEjlmeqtddEF/DjfyxaZI5zuXyC2rkmuYNvMfcV8BMa38zBZ2J5lgbpJgG12lpPkgClgupYZm8PzBTs3GQN5Z6jrN+EvZll2LEOYiMMjsIbQLbUrb7wxThiUavub6DmIwsFM4BtSmHuSk8wYDTTVeI6DfJFStCUwoGg5ZsQLD5jUR7IKBtDbDoUkOYNC0JQ3XuWrZ6g2B+8+E7lcNu4ZYOXt3M4GVfKRQJUDjpPfuV1jG7isPyIhSqtujUvMxeJXmVTcepVy1RyEyiZublOgIUtrHYYbjZEmCCtlyqbzECkFTt2gXi60zxElnu4pduLGMmZKKYIVwweJVNwwqkyUx3j8wJXuBTUd1Av6MQlouI0iXxsHj47Ydjlq5Gsr3R+UhDG6LVPshj3HxWtjwC4Hs5gXCQHIe3bl4YIWqwwzZqU8EG7ZWmjQbhIbIHmNdOqlXRXEIGKrbqE55l0PIw/K3oyvqPCteX98sqRb5dqGinl/ErcYAeXBN86QZqOXgMDiAXtq3C5Vf4EqIpUta4v0is9ZYP4Q18TBpBeG1fLDNDIzuVGoy/o9sFRyC/xfxEILsQz/APh3Ehsji+PEspoIFWmbVqDwnEyxsU6jAs5GtEGaxWHXmZQtLHBmBmsRtyO+IWKQOQGobr+CE18wCTPq4w2QZSuGd5dBLUWvBFaARdYlUhVUAdwW+JzDcoCqA5l9t2MxWx0S1pVypue0jzyOibV5lt2n+YjzLFtQr6iDbJCXWT7TKIfuBvDYIALt8cS2Zkodyl2cQXhbPbHli+JjEC2pzEWCtffiUAoarzEMtMnlFVaqgI2zmAQUeQrwhLYFDyxC21dwtG6eeYZ19EzpvuIUynMdswXxgJ76JXjGDUSsa5gBoZ+YJaCxNNFU1CIa2PcDb2RNDsmdeyCjcyrgcxyaZfPe5is5i6RRSkcOo9UM6dxAz6HUQh3RpmYN6T9kEDuyH3S9XjcbpH8pUWDqOpXQPHcoID8y3hV04ePM09BzTTwzEwLSbH7qjnsCpVkrmpzOcS6l3LhiKluZdxYJYz1Mv4RxbuNaZSMmMQWUsoWilbBUFoqA3vNRNZgurmQgoC6lm9S2qIihkaqBQ4xULYqCEcS4nMDmOMMdNTIOJWwxVXtn+vChfYjMb7pss7at8QkDDYg/wA+YO9LK2P7tr4haXBchyPQ5OiYmVZgOn9xL1CuV/kzTgoDz8wCYEZdBz3Kcw1aoc2OY2tp7PRHVLOXB8NceJZAoU1PBjT4jQKo1IAIzhAOWU+MwCpmu9GjiPtVAVbs7o+IB1DFDx7OeWUZiegMt5y+iPpU4KotvOz4mfkARgarvPMWlDJdSryrsj+4Q/curTGqz0e/1CbjBsvg9RECoQl8Roya5fzKMLRczG7HvoeCXSvuIDf8AgARR9P0mRWWUObL1AaNdkEhnwgLafE4BMm1lB4iq2fxzNrwbZQZXH+HJEVug/M21gg2zmJdvzBGjpB21fPc1aiIWZcTU4tMngjb3LiOlFvZepXP7EWWr1eJQqysETEybQYnhmWenJvUu3drcRW3jOeCZ+oVrp5jVsqYHMc8MXkPmYuoLXcC22aOJi6mqL6iYtow4L+2WPImdxzY2jW66lDUBh1LFgT2eJW5CGMDRi2gXxzKAteUHUDFSpyRguXuNVXCN96uAoTsdVHS8KAC3YuBLsMEefNzKYtPUMAUncBXS2gO5IUkFuFQvkR5FeuoaxcpY4s4TmZTLUwmEpKT2Q06+ROyCA2OWWhhpupds9LzBGrtcMS6BxcI3oZdYWm2p97w+ouojBYchGTrNdu15SKKFVTjzcqFWynDES0K30PiYF8QRIu4ZWXWJzLl3LpnE1xFz4mONS7goYqwUWRZuOGdQCFbhjswWiBsQb5i+TG+PCJvLUCrsyq7MwLwNSgbGCoq2UeUwMEXQJYeIuYdVBTEzXMRYNF1ctQkYC+pnzSDW9eRmvvKwr2Iqvkzm5TAOydR234IIw3Ttl0HxuX4bOv8Ae8jFeGZmPsrwJvEcGb2V5YSwaZhRPnYNOPGQ+kHNrtquHYTVK/8AfUOJ4jXasbec1HLt3Gh5+nHmX4LQuIDQgKBRU8Bn3UqolH88rWH4leTABTF1v6ZOZzwlPHk3kyS3q+YUPsFuuI+5SoKMA3+h1OMyAAdvgjVUutwjD4I/HGWyf4zMiBK4eCDE0aDqFSuIpVK4HLLMWZ0BFCsKDNTAlJlI1e4jHkPPNf8AZQAAKCDWxW2KsDBz3L2QxjXwxwkpucIvUsGzxFyagey+JTXv328TM/sYADt3O9cmU2syOrhXbP8ABqWueIdk6GOwGPEZbTP6idNx8VBFW+CAUyZeBLwVb8EQWGcHolEtA5eeoHns+RnIKctdS0gD6gRl1JR1x95yNsr8PiIBcHzs68GHjtjEGNsyq1ckWqMCm/l5ilq6IXoiFa7W8pji9qlgOj6lANsGl+jolTL5HEDgdD1e43nmFj4h4Cm0QhIIe4pZJauGHklsFwsF9uIPbZXxKOMJUGVGYEDEB3DRcugl9/EsYLpW/MqBkg6XvE3qtJlo0RzBFLtHdckDVix4grOd4O4wNqmIedSw8yTUpKx4idLJ7D4lmzS2rfcoWOFQNrI0l75JftRnyQyqyFNwQmJ8/UdcEtwPmOZT5S/gu5a7nASgInGMR3Kue5VkCtfS11f0MktOYVcx6h27itExKh+ZR01MtKlzcwXeI51ozLvHmUKEdm7i+AILK9SnFtRFlkXfEoKx1cSPcTbHeIEPmDUS4HVTJzxDD5iXcxQE3AlqRSLoeXxLhzrhaKXrEQauBTx9OJBjN5U7twf1EI/mZupF3pTo/oQh8sP279CJeMrhEd2t1weCXx6YVZKP+ZffSJS1ckJ2eoGpX2BW1cARXKaYd3J46BmgRBOeC91+4WLVwzglyRbq6pWyzcbONzBYoCr1DwDiFe8KV8hJy1tZScVsy18N2iHjpW8JsPgmWWjQHlVBrlDoUM8sqiVCnHcIyrdr/jxMYMjuArOCKFFviWjRdxQFNdygJXT5K9dzPgX83bO4bmMMQZhinN/SKFsx3x1NtaszXcKzOoTuqSsOmbcCxTFuF7mXkOSaEYwOAtnyeOiVHgKEz4lZAN9Z0HcruU+WKrWvBC2Ny2hl8cRYbvwgTqOt8y6Vr9yjjy8R1h95kW0iiQHiW9sHMcVHruYna0HLAV+N1x0JWtkp6WLSzwOiK/2HliF0kOfE13bf08fYirLzjtHOrGpqOG95RT+YYN0w9REEWL9vc1Sbpz/qX2+EEIUNsYyI709EYtSaNt9vmGmzg9HEHuMT0IdvBqWD3NyOXxKVNiW0gxOIMcymq3W17YZYLF1F+llhuwMETPluKhMKXWlyiKx31L3tyY8OW4OOBw5jU0FL0wbsXpvcDcImalupZxxARcap8w5m3shClOE3HigOYGHE9T5noIMJDZYHn7igcVfySzOPUBl1smy/EpQXvLhm5OiIA3RvUXZyZcvNzjMv6sGyNzJULuVcCUG8sGsZjhAlVxLisq4FECFYYUgbQYhgowYhzH24botRBwckMQJ8uZUlWCGMurgqZWxKVdSnLFt1BcTy3NuoVMy8XN5lOTqPAmANRooqDVBmIRShy0xXNFDQH/oeDWZQikGqeg45V4dwOWp8T/BMk2ih0EJF+bb/AMnoiNs6VoiiX27fEWC7q5YRnOxZ6f3HjFC8cF/ASxTuJGg8UQ1gyl19BweVOD3NzZfdOfgoHAEQtUbQS1fNQx3B6AdHa7WLlk5vK9A3HhaUBcDo7OIA1yknzwmwivekpHMqyPLxKhkD9Qx+CUHgfkT73EVg33A8BGBJ4OJWDX5YY/qcI0dzY0PKBb3FFQCMhbNuOZTjABxKI0S7srQA3no/BcuFc3zLAw1QsTE0KtiVClcxxfEluj7BEpowmL/Y+ZkJDJ/h6gqljg04O5YvAP8AEcEvsXzmI75CViLpjcwDhq6vBCTUDdS1geXaUqsPHUCqvcBxpgmD+SLQYgFoPk17gyx8/wB+pfP/AGMcMRaNcQBzsWqIoERysfsFe4dwzldn3G1k/wCQQ0DFg8tssnjRdsEWJeDtMpXkD7p0gM+Y7RgNepWsRMDbK+y/CBKnBufUNPA2XxHM7NdmAneBxXoglii2Qf8AemcHolQb2e4L7pr3MBXS4NvzGblpjwl6OmxhFyYL9SnmVlXq+oOWeMEGAcsw1VvEoTyphDzAxfNxCq0PENZzNFjbiA8yeJc2T8QWXczlk2cxYNXNRvXevMRfhMPTLSKj+IAvcuMvR3KG7zGy4Ji+1xjWUrE4xKsDiJK6jhnE0QjuUMBMTTL7lwg5l3mDUGIGYZMSqiiMZgCglEm7DjiaH7ygPeZWxqUu/MVCwMDQXbAm1kRDRWCUbMcSoXhrmFg5metwK+I1WYm9St1uWPMum+4Bk5goviBbKI04qoKMa6nUZ7glZzLqtCizEcFqg2sUAaB3wPB+ZeEJtLDDKgw/Kf42x9wIBHR+j7xE4Crb8SgVZk9EbO3PH4vMwAJLb8nyppj9/wDle4ONshlyXlw7cQIYJYzdK/RxO5vRt0fgQdqCG7V+3mE8mGvN8zixb4DuaBpoKF0DiNZiPWIi+/3jPqLyBw9QJ5YZ6NwlZ9l/QQ8ttWmRtIe+a/s8k+DMypjjmp47XuFnIE4w2iCcBovWUdHmVEyobmwZhgULx4jXKHM8w8TWp/iiIBtPz/Q4JU23AdRqjFpDgchMZkHFssz8OoaK1GHY08xhl3G67iX/AHKEb9ypIqRv7RKMkFwb/beWfUZFLTI8FK+ErFSw9gmNKOXX0rFwOuTj1/cC2aZCivB/MpVW0bXuZhpbX+YwG/DK1fj+4VOG1itV95QeSly+oTWAVcB0QsIqyzS68++oJCIWl58nl+IrC8kfwSrnWT8YMVMNbUv6I9AJTzY/hmIEULB44hjanxBoJaZvs4Jdp34jmanzB9x5D8wXZXnd1387lSbcr55mSYuHEDN4LiGqtaDEQQqw4IxIF6LeIYUUHdbm1OriLaFxsWGWugOtHZ/EshbYRSj+IrN9z4lqpMseCClcGoS07fEwThluFGA5DDEM53Q8eAjSbeRcBAPlgY4IqC2MfKXXdRCviYF6uU3eYjl3sspe1uRlgcnESKfcE6bmoutBnEB1m0DHwjrC3OWPR5iAq/0lrwJobF6EclMn6iZmB8y7tYseYPE8mIKOJeY7H8RMs4GMzNk3LizmFfM1Bi7ZTUXEN1C7olHLcoGoYpd9QyWuoHRmaOZVk+0XtzF256lWRa4LI+Fy8UDlRYZ/hMmSxvDCOYA0fSWsxdzdw2Qy6iaX7gKo3MrZRLR1ia4g+JtixUDyB4m8/EdwvgxjycmLkhadA5lgxuv4RDovuWQA5iW3s8eWMKuvy6PmJxPs7eT01efsiewA0C00BtnFbp3brw89R1vxQxT+2CXRKZFHAeTDxczWAdCjAPAFQfYQfs93PRUKRPj8oIbxOwXLobXv0gZbUotLa8qxe+9K/h3XL4lowlTa589nBiGDxJ4q09UPaFAVY+RD73fMOUUBVj8zYK6hLbmCf+Rc8r2PTg8RQ11vklAb+Xy/zcIJ25V48+4ur0S9O4tBC2Jwtt+jogGTPUf4HATHsT9Dx7GyFMGYIS3+YZdd6GWN209xvI6EF+wMQLxCal4ZZZANiCfPEpIIw7a6HcbTeLYD/ZgahbJV/wCESYHGek6edTpiQ5Ojr3LcKbRb7A/aOLLsGPggJv8AUl2w/YJ3qU0yMUPR2vLAcS+QcJbBHocH9wGrJuaXA7gcPKIPrl/BFGsLnZv7hLMVHdMflKHHk+6/zgiu0CvH6157gxwHwjL8qVWRpvnh6IUugF4MTWVpK+4msfj9OWLwRi0Hb/mpYpoBx0PiHdro9nmJ5SXAAxDs0nmjiZQobQeTRzUwwoXXiCAqLyy8aBasp5i1N37E5iLlfIOX5mGMMREawYCOLyG2otsUYYmAWjB6A7Q3DZjPmUXzco1sOcljVpYoj08iXsTF1MSpK4YdDmBVsazfEBq1pBFqdCLSspjbDoeJUl6Zw9cU4lVKnGns6hIr8oRqupQ6M8x5EssZXW5ttgvxMEeH5m4OfE5uNbqLZVRnH0+ZUSiJ1AzfM51KHUqGqg4qVmGK7lvEBWIlUfMFu+IFuXGJdzg8QDpHR4lqOpzNstinPNS1IYjerKVbbA5HXEsxcYgOC5Q6JrOIhuUVYUwdsBbETUFVBACKXiCdTGiRLwS9RXqCUldKA8Gj3OSGbXLwiFgFZ8Xa6HBzKwCOSlym+dlFB5Rc4jpo3QnVuygWPHJ2HgnfTqU8LfUq8OnK4CYWtHXAB0X+SCB2Q4bP8W4VCu0Wwzs60L4yztqQYGzzH7M8yo6A7PjxHLCHbmSnXysBt2ZjafR+xmO3awH9y0CyPA7PFQfmcO33Lhl8SWl9Y/mP9bkF36O4t31G58fbFN3U5ZC2tT8DohwVjDx7jYf/ACOVS2V0RmaaWLn4H5mkL/bg6gO67DuRkbk2RseuzhjTQdRG0R5jR5ihFK4b6w9kuUZ36D5is2tye3CGwThr/B7ZwLiOPntiUN2OTwvqCBfB6P4mXp7sD0vhNsxTZ/AwPzAuPkzndNeCXM8pYdp1b7xGWUPf14F0QMt2N23aL3EcCzlHbwPzLBQYnPSDuBuiFb7dCEOs5Lzy9DV8x6VAV/2IDYlo2j/faYBU9Y5fbqEm2I2sp+yUmZD0f9ywwxlDlzMpFAOj+I+ZaAxweCWUB1vyfiCqsveH5F0eLgdlIr5TH3UTBFs6Uz6D+pgQ097zMo7YRYbOEsdXEa8bV3L07NsbgcdELtGZT4URjDyMuEutDOjf4lY0BjouhZ9suEWB7YQgosjQrzvqAqq3q41g25gFOwRQZtLZyG4fMWdv2xnI4OfiCuln3Jku8maLipSOjF4j4TVJyhEXOogSo3DSKgc5m3WOA8ylTyOyjlq3hjbqpaNyyrC8oZTi+YxzNpadJeZQtzHJCagkO5cZUCZg01GoAkTqDRUsNZlLmoU8ZjdMXBQReZQot6ire2Y+YRraHPzOIxcUyWvtgoH3QuLTeaeIj1fMRYH3FjODUTxiZCJbUbF9QcVMssZlYuP6cMLMPzCSOotKr1NfRWkyIcqyUI7QQ4OngSxdQLY6YFQ3i9RYLEo2V4lcFJjdCz8XwEoFrQ77n+8xq4P6Ufk+RQQ2KbxAWvr9paG8+D/sHRmZ3iN6Q8g5hv8Agv8ARLQ+AYbPDntojRlyHngODtrWpXPbVVTXoI22gHgKhg/tj5ShSuByviYOnxXAPLglHLSI9jx5gYRV/wCadu5fHoOYdFOqLk/ljVbNjAdvXQgsQnluATDBbUyTRRy9SqE1EUdQchG9KLjuUao3J7LfsRTDB3/KxxMSptBdvXlLeA+034R0mYw6PkiUe4c5QXWtDqX1y6nIX4i14n85EulGXZgnCGNl432iQWgW/AaeB8wxAOXdtOUdsrJ2odC0Y7febuItHh8YBAD2Xa0vBfR+4Golr4B05fMvnLXG8u+TBsMWPXbuFlmW3XUFTzBuuWWRJCVhN93Q4jRdY7vy9vMYGmtrSf06UTAjxv3/ANY1V7TfXfBNssl7VqCgO6ywmogFuIySyv7LOD3OZATysfAQlkK23awqC4DoCZPNZss1e9Ec24PghpF237nB6WyiGINiIjbjo6horEwF0fMz6o4CNcfD2wq1EPaogKrR8rDXUcE15QK2K3cNIXLfEI4nKKK7xXW4B3eUJUtSxEhU+gsuA3gsC7XgzLVVBUIKrCzGvRsmpbWwxdm4+SCmnELghm54jY4hbma/ZHBOIRxCD1KgmpsjZLrcFm/rb5ldssqMqO4HDBz9NR9y7lGWY24hUqBVlTNIWi3MkvmB8obYzLQmyJdi2Zh23F62E3jUoC3UWmG/Mehb+JRt8RabpvuLFhIYKemDKm4QbJb2ZVGeZvU7sy6Si34icweamJY+CWYY5geCUMNFxE1BbXMGgJx/vu/iWoWLOgreDl8RYAYHN/MtytnpIrX3DkCVgC0NGs6dPELi2P2Lv+at9zLVYj8wU7GAKTjpGMNHB1/ljzMZzVqFteeB2ynFgPKt30cOVcDImML8HcAUpxoIAXoDRhGsGu5i6LecXEnOyYdnwHUfMF0Ho6PywYWjlXiJJ1Yn+A7jF03Wf5PcfYi7380KuBwYYTj7EsaVwO3lz6mc4cDolZ4LNZdnA8sSykN3e+DupQmura8IgjUmC8mn3LTXgPhzFSh2ZlheeW9wwPUcR2xsa1uIUZ6gjjCEenxLDWIAOlah5YWb58QgUVoCj0ICrL4C/mG6ImAHQeJqU2R+nQaJSu+R8dRqg5GVen8w7Wo0OQDc8JaUKZ8jqUzCyeHEFhYZdEaiaECi24zweoG1ULRo1ZxfUyRaTnBf0hGy3ixjPQq/EFbZWxj7n8Q9glnr5fvNSmZY0GoevMZDcDGbrP5TL0P9I/8AIyUXYXb/AK5cKviBZflfiKLri9nM3CyPca1+5sqjKxcL4RBqYv1C1ywB7mVbm00doe91t8/8lgBnV4IxMor+ZfpRbvpKqzThx7YpHbpLpduoqI6LhJE04C+CWHwzr0hEbl+xzCR7wY7i0aNuhEI0ljxHGrUt+iYGqhKuQXRH0i3mC4RCI4jaGcQ4QKJh6ZQ1mEYW2UruATrM3cO4sYN3NRySpUq5WIFEQqIGob7i5moQxCpV+JRDUGmDflKrZAZy9qrqpYospZkvmEIHKi5gcHUpVWS4cU3jqXTaBoIGlOCF8tShcoiOAzuU4uJjGSJBGz9RsuCMwOJopzNWqFFal5cywK3PiOjOWLgVK04gUUSxKrcVa1FJqGUkW8kvP8xHrQv/APDQY7jrnCYH3a8YQFF+hAHnR7hLVSdLx4QB8E6V7kMqd/8AYRVyx/4X8phSmnTzFraSOeTqeBwQCGz1tTj1olrqG/del50jlLxBVrwy6PLWZ7RHcUdQHY59QdxAFZcW9OuoThlVe31GNzZD76W5HMW0hE8IT1s76OIwQMxT9lOdIJyee2HsnDde315iIR7I68JW1MMvkP8AJRDqTS9AMfHPmckSOeMeWgmfILRo/nuUVP6ZP4JfXlcEOI4vmLuqxFBjJwPFSlA2KHLj4lBhalHV8TOWOPEUjMdy9HPBABRxTBLjLwHMxywBnGjj5la0YCeDNHPsyiBu1xfEUMaoAi0v4RFdm2LOIViAHHQ+W6mhV0V8R4rov21Pilsjo6tnzLgtrZz/AEiTh+ep/YN9EdNTJ8575eIL7mTV1avoJbfOk8CZ54jObxXb/RFK7C7tb9+g9zV7muqxUFzSOF+ACJeHATc7FihN6eLomjW11AMilLpcfiYedNT/ABuUexzEeXvi6JRpBOBcFWXgcEqwDuXmZUcDQMuqoaHvzNiTAvMVMojkDuYl4dI5NRy/uDeNC4x5i7EsPbLhiis+/wBpZIZo9RHGVCl6FzthU1/BERK2z1xLJYOxpXcbKmskO5yu4gfNzFsDNxbxNEKJrGoa8TGnz9HCMUSyKhL3Bjmb3DI5gystlOJVRIW3Hf0rMxc4hmN3KO5ocSpdMIbc1E42TTmKhy7lUDCAw4iSziYw0ioYbY1CORc/RUYqL7jBtjxFFHqYXftFPSA6tkbVRsDUpkHMo/EyOiLRRqVc15YOMzXub8Qa8zbuXeJdw+X0X9qlYE0A3aam7FBFnk/OwGalIJEdsMcFzY0RGkYHXY/ce5XrF5z/AAZeiAtUU43r4Kx6iiFB4Ej2l8TeAJVsfkzLQFCrxXXXiYNxS5sp4M15ji6C9z+iyAELbTf7iXx3K6IM1h4j4mTK3jk/EyRrZuSoMalbP4L3wdnmeSRjHz/MUtlS2G48nfEGHTLcXT+WICcC56pgNqz/ABS6Jcv8Zmfg+BBbPxpfZYWFUd5/rlYgvny5fRqHYa88g/udsAcn3Lvur8eiUrFB4MfmP73LZytjxBCOOYCUdEsUWtd44mdSzLxC6ng1ZG1y/wA3cDa2DZFgto9qdwUV7PJEehlmHYpgLCu2ZkryTIhySy72vZqWB3NFcye3iAPAtHV/9JSUa1zg/ZLHAAKE6PRg8zTo8CaErOwmur3CAFAojcpdTrMtqzlf9ohyQujAC35RZTqodnd7UIH7lJ/jkBEyXOg/QQz9tj/xLJnR20zFqbKD038SxX+BAaFWjTYA4duWJQ4jyn54jRA8yfEYdujiEAtiqvESjVT7MaWXZY6FxtLPVlVzGfbJ56mUzeR4QtsIev15MAAhHqdRkANOhKjw/RuHjV3LUAAqyt9rBX4mTLi0EqsIe+YUFs2mUrqW4l8IkdjmW3g5s3FdkOo49RCrNRgtqClg37le46l9QzDLHBiKm5shs1DgyrcSqiOepzUYw1cW3E0xKR4hu8XcM4mmIGIA2tsERN93MgLacQrVuNWmojY4/cKpg+harUdManJ+I6uBszCrxG0F44i7Mx2YvEbbzE4EKLcsVO6iz3HJUSENZiPiaXLMspWWcxFvUzbxFHL7hhgs6w6jclDo6HuoEJRPf/BZwUS7Gyi95hfO5eIrOKXSNehf1NpjLyC/MvZ2hy/IX9QFMkZtIA/aVUwPLuAeTtjjNOXaFLPCgobIQ4vj4xOcFRsn9oM4lBl9GxNPXMvrLVN5gtmyHwXz5YRHglhe1gRGQXEvs/Y5h9WEOeh0WHpgXB/m4yyy1vy+IoKZgE9xw8iVxO6AysxZma8NzduXxH1RxQyv4INKnzP7WXVvc7D/AC/EEVsJsvH68ZiTKJuBwd++ZdYls0UTEUQemVgM3yqsjwQaAYw7e3xccFjlwdsZ22LPmNQvEV/SMN2BU0dJYGZKzxfL7iNdjV44lyzvA9czFU3DdZ+ZWR1Bm+Zi8aQQqgVHhO/EQNl3A+nRUpV2y8jL+cRBgtBeIFArPMDg+WE0ADoeI7lymYEL4G/iZ3pKt/y9HiUkGp7rT5f1DpZXfP7KPiGZss8peYULzS4wH7Tii3HjD+IaRSvC0/UuHaDbHjTXMU/+hPPufcWmMwrDjuUWisXqX0WDJwMyAgA5d/BLEo8vdaJhCOIhYwVp+iJFQeywbVtDlXbEYZ1Y+YeozLGx2tcfCJ+2HywmmT4YKC4puBthpYf+MFDWzCVAKthaOlXL2aGh41Ay+MEdS/M8lR2RbrxF4gVmOXqbWyoibxUC2o5MwKnMfpX3hVRMXctcFKUZD8Re2Z4Zl/Ra1HhMr+gjUvu6jRo1KL+j4g4l1O/MBCUxqGuCvMsKwX4hs8dQopZNJq8S8w26hebjL1D2zCLGYqnUuylEsfkxcIjHiJY5YFEBccyobMV5an2Ihg33AhXAZCAHMDfMVq4Q8xHQfcOEbt6dfo+YKytyFmSfBV+2FlLU6o+4oYl4Z3r7GD4jlL7PNvBeO2EY1ibF/suBwAGvI18L+Y9ws/WB8FvtlMZWfe1DQLXwgP4QfJLBNI4XUVA2OepwwFQUNlqUeFO1gBoNBwQugPZEtVwSM3F7nL9FAvUUFsOafpd8RbaDMS/ceX8xBYLbv+h4ikASh/rBKawjhjmk46qm9D8t8pU3lDlHAsfIaRuCPiCweoltMGKXmXp0MtfdHa+7R0dQg4F2ZbgA8OIUJVqXxKAaZbMbgcIaLz/zLDlxS1LYQUnYnIFn0NhBLvEoU92u5cugr4jg0ATgJYmymq9pn8QLTzm2UVAuG8DYVQ8uoMcZrAv3KzBWCjd/4/7EQKsa4KWNrpuFdsY/xZ7P7mFI3c9mMf8A4j/owCmeIU+85jmsAPTDyigL7hihkYvj6Eux66jnkceISC7V+f6jWixrPsUDU2ZhUyrRblcXK/WFX3n5Y0DOA65Exrq7wcvPMQa5/a9mYxMflr7EVNMH9y/bVk6Nte5Ui1aXS2ynzLoHCp7iPm9wISpwQXM4lUTUDuosRNq5p7ja4IhyYg05IrxFzSmDbcpWCoWb4jiDMqxGtvtMwKYsaW1FVmH016+iXnFfVfECwkyETO5uJx9FOal3OIkAS1SKkMYZiPOJuRKQyisJdmZVwseYImT3Mkt1V5hTRnufdUUtwN5irWpSol5+hYkUFqeIVOsdVUbUPtKa6hlFBhFqoKL3KCVLEKb3GpZp7XZ5iraB0bt+VysQm7I6e5bkyirbbuXc4gDhSV9aCAateYLfuNe3HoZ/iHE0S/LFV9HHiDcXS4Fcy2ItdQh9NxCjuYi5NtdjupZVi7OR34PMTiJxY/tfMfKshw+rYAqA+1jR8RZYIPZxB47+yYaeCDyDw1Mrng9vr4iXg6OVt+4gMFX7OIiK7Xb38TEScruHKysx3CQAFvcEW2+JU2OdkGUPAhA3QttH+qc9AOFPYlKLJ6h3jdzRNRJnTBb+4wmBic2QrQ5PEw01E3f3lNJXlr3DRo9n3V+WbrcrzG8uLZQAdz6B+LjEy4eXaDHUPPjcz3BYe4D0OvdI4alHkb/mBfBamOQ2HMHuMxXtggbZPZK7tcD6fBLINdyh0PiFwaeHz38SphwflOj5XMaxpL77pla3LenPqUmqpVlGF+YD4gfk/Evh0X/f9wpxDzZ0f5lDVPUAWUXnRg+IBWK/ZcfErPCdNb/MYDoQR1fdESziIBuFlR0fQF7hh4miA93KyRo1ClcVj6ENMVHlcsMtwiAElIznEXFTFSkaj+IFS6i2fRJUepX0HNRapCmCkWR3NXEWp6ZnzAUOycHMNbWkAgtdzCUtBPJiG3gjjf3mkpU2gDZA+E4+upQDzMoEyMq9ko+EBZUqoM2amkpyx2zNBcdRUa5nMuVpziZKdQbmtRBZl3n6AGbIB6Sgty4C15lba4Z5i0wwxKHicypJeNFKvyyjKuolxBti9QQI8M8kuobnMHDAvUzEDaLeg7XifKRn2HLyxyWXs8ygR5OEood4OVf7iClNWT8p5YgmwLZ8hvoglsxPF6A7dBxDrKB2ThXbwTYpeTtD4gnjw54dTIyzZ+zzOaoh591xDBOlW4p8b8eP+3HAqe0OFkFHV8fibAo7y9R9y1Toxfceurk/XcMqpjaUfOBPtYG/GoUMD6lCNzEd5iRf+RCyai+z2cEcitvYjXyvHiJ2FHYheDlc4vH3qIwomuvErsoweswkpsMfEEp0oeVWZeBZYHZgJYFULfJhha3evqWCzcPcdPExigA7IAZscR6d2MKZxxMwQHen38L8Q+8lXdjA+7NAj0XkXRBC6PpOPvMqzF/4/wB1F9IsPF7+dzMCrR+yZAyYV2w4RAXXaiboluK/8EuSeK3PIeVm5+i+OZ6jKV1cUvUahpqeUebJcw9oysIF1DkriKV3NwLL4IHFMRAsexEpcDOYOy+yKnoiJOcyyGC4zd4m3uYQm5ZNF1L3c4Z3H6AsxB0W4i9x3DMZZuV4mbjPmENrWNjqBMSlKar1xNs/iJuAYCjUu8o1cVupdU1EQGseJdAv2ggzZ2x7oKC0ZjA/zMisEvXMZgNQB2xJxc+J6I6rm+YgpVzmuFtBlU4lDBmW0GZVK2NcVgmxCjNELCMVbJlFB1BnaGgc+JwnfLMSiJAvUb4hgZpgowYaqDLoAOBVu3uAuZW0VG1PRbF3A4luL59IjRdpdJ/6DzGxHVgJukFW4IVy/bwcEVMSv3DzzDpouBd+YqAaZj0hZBJSodux8sbXgiddxJrUbk7iiCgIbsboPMoSrsHbx8Q6XQCPVTP7QsYWQzNdHIFTSAMN/lBhCthv3MQAxs6mRxDglgPMG/EyK+geXM03dl6HLMssYVlxh1/2ZBJtb/kZlgVbeunlJRlrzN0NrLO5w9cQluqQTBuD5hVQbB+8onu6ru4EAwhr8/mEdK1fEKtU/pcMKgVBBJreYNBwSYivC7lhX5mTj5lhiXIeoi16Etlbbe487aDkfyZ+Iiyy9Kc1GnKFUeDAl10OcAO3LxKd+0CaUJL99zKc5XqIcYuToy/aOzN7gYmILN5qWI2hN3KFX7TJmbQcTBzLDHVxMhiZYZgxyVBWCCYvENK43I8pXEVINRhNpUqPcNpUdTAjqG4riWnf051Nbg4upUxKOnicYy1j5htFeUv/AMlqRzKtbLeT3ExFG4GPo9D4l4GKFMZu5WMTCVbbiCuDBzklL4jFsTnhmNRnzBSkVWEZhouNshUbXoJkEJ1mCXsu4kqX1uB5RGp9o0GY5mnE0xKr3LtBvcvMMTBhFbNJFzG+SBjEcEq7lYmYraPQVjuwqCGhr/Zh1iR6znB+pAwcg3ngFD0C02tbL67lmQGY8NPHB4jCetFOLf5uUQabN8z+Mkbb8olNluXe6aocyhf+ViXaD5WDd1FgAC2ZDI/omfM7KjkbvmhCLIvYlgNSpzHnd+YYdRDzcVep80ziVlBpusehHDT33rUGcDUN/QMbLgouXVXtCrhk/qJORWKb4PSP8QgSsAflhCbSrOs5iSYf3xz+YlXkovmPTFdwXevdYJDY4lRrP6go0cTaTjU4CuY1Jz3EyS0OuowrC+I1bbOoXm26BlgtqoB3K+2NwhYF+i3vRTU8T8JfFQalijvxOsd4jtWCxw3MwszuSupuViLbcB+PMHHYMQ7PiWW14lsW4suZYXqajfcWZeEqOpX0uCokGJsYlVS5dbjDMC44Kl1LOoJ1zBbBbYtEm13UuvRBqWs4IrAFQcTmLdm4P2izRLsuNJZlqXDwg0YIOdXFetRC1hMKMSqy6i3qIouJUqjmDlAATXMHKuvEUOIuzODVRXipZyqCcEvE4jfM9kqtw6nWYt6i3x9F5zLuepxAzuchF53NFwzcMsBtKzERTlxBrEql5gyKHNEquTvv3fxHtiTbwAc+B1DR1Ryv4NGbcE7acA1+qj5N/lCqC3i00fBn3HkpVfsPJiIVTZYQo/I8kqlazhMw1qzzDejJcSnW5PD6jfcoodXGwlGZTLrRb1KNqaiPEDlc5ir14QV+YLLgAzxBCkvMZ3mdjU2wyi3uXCY0YXgQapQ6PErZAgzDtjgo2Ld+pe1p+JG39SjRQfGv4mX0qFeTVSpfl1KwKcJqahewdxoji7hcm6lrn7SsdQlg9EwDmXgy6g3hityjuYoqeSDAzbGxKMGVnEWcQK1OdKq5kVKjBmI1bWpiOWCxi7bjsumZcwyruPCDSsWW8uInmOZxzDcPrxKjMty4F5msDAV9G/mODMpvxOZ9kFK3cStT01KMIpmRcMa3WIruiIl7jRZa0rPcaCauFJ1MbSqiW3DKaVUy3+IWwTCW8PKZGE0mTcbspjwhfDmKvKYlkKu0QamGOCBbWL3WIKNA8JKGWVeD6UwldTRNbi3NssoPc0VLC+Pow41BHFVOEcm4O+IObiLpKiTMagzPIjTmc1AoyVW/7qGjtMePh72wdX+i+Et012ZblCfHHpywm14icuWIErAfHE+I2XI7i2V6gvDi3uvHT7gQErCSvdN8sDDC43QAphY8ymBHrydxK9xTrEwFeKhbrMxZeCNl5hzNVzNOPED/ACGVgOYA+GHCqfzBmW1UxIYazFNKxc8Mr98EwHT39sZdxm+ZyW5354h3IAp7fpAfxpiohcCCV+stdQyRtmWGtSzZHuIgKJWIhg5qo3DtOSNu5YMG0scRwXFziPLOuIqwTnmYEGK3EqtxeoYmSLB7hlqAMdpfH0DFxWQIn2g8Qw+frvf0Vhfie5zETnETG5SJZd5lQ93DtqLYYmnqOvM1wsr0jchR1MAyravUF04mQ234lAqNYLmGYBotgW3HDDHZA53HYziLcFX1DKiDQEXJzKtLNiPEAArmUWzcZhtY9mYJasEdpKbuIc/KURfxBRSUkptbAkcjJFjyy1t7jRh5QyLjm0gFzmXj6Lz9EFQL9yq1DUErUW5kbm0sRl5i3hEmouJhzBuI3vMYZOu2vT1KrmB0WhwHUvF5lsP/AIwXRk0HuI0AcOTbBTA/VdD7zKfIT/BKPiaMWfKT+U93KQ+p0FkNqh3DCoKb6OoOLXQS9gpPtFuomyoraxAKq+8wmJRSpavEsDVYmedy4+InRK3cFuIblgSEQdMUWotG6qXwAIMAXUpbIEaq4eYFdTU6gv2xxnOZ1ZhXzMTzDq2aiUZFY+0sG8ENy9YmfpBlXv6LW9xYqE0EYsC5iYzGDGJSyQ6bmMH0DLBqUjFb1D8zccTc5l19DkjiiLUvGouJdS/pWmLqFkpjFRIzjMtAWIXUBuolVcbViMN+ZxWIYiEAqNiwOUAC7t6jwHPUFJvEyM+4cql1aU4ZiuEyYnaAp3KoqKcKmQjgQS1UIUqXTUMAS/yiqs5iHhHFuZi7gzC1b8RVuFeEDG0JQbuImsgOUIu6gQkrOXUr6C1GINk1FZlFeYle50m25VS6foGY1VVHOYUlRy1FOOIKMTA5g29Qr5mWayQFlDAspqCrGWblTT8R0vy3CV1LQbuz9zEUjsc6F+jD5Zeuy6fErR94fIviNKLrEUKULAYbg2OlK9pcqMPyxaZE6hxrMzXcMsFNyznMWKqITV5lrUzyKj2lVeI0DuJV1hlpvMIauOpri5pjhL7CTBBzAmm5YO4luYVNVAo6JlxMOILMzVxia3G4GI5PUcu4tS7ZmuJvcwjmavcBmK3CMhdQrMx1uLUy6Rl6iw8/Q1xLxLUi8Sj5iY+hqJX0j5nEupUB+jmpVSmoHUFxMeYF7fpfUpylW9VF9p3wwaUxs8IcSs+JpDM17RseoDsVemAaSWIFwTFMaMuYybuKEsHcFYay1KgVlqInSBAVqdTME5/Evcb9Y7Mbl3eBwYguxMi8TGoSkwjfpLV4gHK1U2i+8awDLBsuIDgRpjiARUUCo9uuov8AxEppcxVGdRsjuUvuVaGcalGY54gVKiNzRuK2LuCjU1rMq4F1cKRo3HK8R1NMYvmO5zLdFovX0H3Ql8qz9SnWhfAxIyZZhSlQWuYom9y6qRsMBcKjCmXgjbkPRLA2euYkfCCtGHFVMMD7ywqo+EvJlcVzWIxuBBXJA0wEcYJznmN+ZZiQDoYcXLxExUNGMw4MZ6mTNtZ4Szltb4jvU+cmTHE3hxDKbIc5SobD6FtubTcSIIc1VnUtrcfJRA7ivzMNxr6Xn+ZWZcI4+hlgBnmXl+mLuF1OImfovEqEIHPE2yoNNwwsdx1mE0bl4+hFs09RLmTUUL0x4SmoJWcQzrUzcsOoIt8QDZ3HbRflHo2cw7JMlXEyMmJZY2QVhqZNSrxWIEyFwV7qNqMp3FGjR4hulmO8xuOYDgljG7lFuCC6GLxcySAN3MsGCVZC7YuJFBrcAhWIC97NR25KICt8JySbd1DS9wA3tjo8watiRVmEVYJlZLu5tqJT3GmTE8pfUuiO5dF3NsX5S5S8kyj0RblkxBSzHEccy6x9DENRnOZiBc5zqc2qb8gfiYylldfmZmrV9oOjRpHbG8MFIZlru4poItoJlxKTHB+o4ckJeMTNgleIWqBeYG0En9zbITg/Uu4dzwyqMRv3NVfmUy4XLHmZoE1BVhK/8gc7Qy53EvxMPiVlH0zVq5rNXAjUMTIlzbcS4Kmlbm0xeouY5IMUX7S6g/UWxMysYltxPM5jubRMzcZUbjBaliSkI9oWMZiGa0S7VmYwU25gK2sxCsNytGY9Il+44i4qGDUq+YXUtxmVo7mxe+JQV15l0q/tAF2RvePEU4I2EVG6ibLi3+4IiOfcpBFRTI5mFyluBKMi5nL8S4KrPPEyjj3BANNQhvXMdw6FS1VgsoB+ZhBuWRshpGpQEC1mDAjRuGgpxEVtuMsLn6Ak14jiKvCJZNcoWnMTUcowHMDMXMCZ+lywNTkqc5iErK4vSDcQlUS8Q3DxCqle4Nxk06E/sYcBfMzFgPtC5PWsEtSiGmHs4+8bTj4i8rfcu6cSrfzDHNxaEH4lhMjCukB3XuLgH3gn2BLsCiZJiDUs4hdplIZQq9zNUqdZhSsXM6VDQU+JrW5hFrDKPCUxnE5DDTe+pZ6lW+FR1/yOW+Izf0SBmGEMIPEfeWMMlwKiZmqlXNMIfmFhcM7JiGVzKmi5fMW2VjEYQtyrhlhzLHuFigrBa8p/AZSj1E+htZDKFHzLvm5WYuZZIlwuXCnGY2yRHuYAlC5xNu48t5ViYDF1BnRUtaswmheYFi/iUPRhQBvcWNRt2mTvEHzeYKays11l5y/EA3g7Te1x0qFJ1MG0CUV/iZSJSAWUQljT7w2RgGNRXLMmHMWYrY00IMI44R05INPExGpQ3mILqOHmPlA4nEuzBKQ9Sr1AnmKObuAsXSeJzKzuW3UdRw4hCMBZVS+GXWoWkx3Zl/sSkpn/AGJeF2zzBWi+HruKNLdkv4uyLA8wpt+EC2G4wVe2LJHMfmBJprruXyl5MfeFIDxfSRwf3LruBV1mYP8AMKMxmO44MR7x+Ib5+JhXEHoQVxc5lOz8fQFtTpNlssiCtTMoZrTzBDK+5J0moF9RIlMNRgx3mMylVBbuBklr3NNyrzAhkmY4bxLmI1KuZNxLZxHLDUSB5yzJzcTECWWjAK3Eu6ZZiQ55lAY1FbbMA8xaaglZgxbm2YFm0y9CCcQ5MRtiEIFFOZhvbC6dbjcMe8HBeJdbvxEpvcyzuoaYlroMsbw+0GobMTDqaYHD7XOzmLRKQDPmORmKEHklpl/MGrqURrRNb8S7OJZ6TZcLwSiiIMmZb6iJ6jDMbDEG6GO7nEZdyxZWL+hecQL3xH3NEtzOJVQNHmO45gnhOZd2TCDCLPptmpm/o8g0GwbGGQaJstPTs8TMcXzMNqpsaxHSdtCpmed+YnFiIBdxhpChd2Mo4xcytuA3QOZ45G1CKPgn7QJRXTBPugtrmYXce5fioa5+CZMC7ddQD7lSZ86lPMIaSzXHcN1MCK1TiLZuUGpbmeTKlS18xElBuRjawRVQK1AP0txPAczJCl5P7NIY2NUf5hl+x/gh1qg9fnqF1/4IHMyK/Si/HUYoLUpWimx4YG3uGYFzUfH0Cerl1BuZZ5gBdxgzHLWIwM2zaoYnEqW0lqo5gjZQxLPC5crWp4PUW+YB1O5dPGY9wd5lS2c1BDKaUTUUrUEg4X4jS8wtrbCKblBSOCehM3iY3Al7VSlNFXAGdRizkiDcVvF3MfcpbgxsVFTxB73M1UJincAuou5PkgWsR6YlrzqWO6gKZiUaywAVpgWKzAmNQWwVcGIXcWvKbFVDBJakphrzDFzeGVDhDbqLcVjE8oHnE9am4azMu4F+IlGJYGtxdT3Be4Cm2JTFzMwxuZwxLuDOamp5lfRWJUp6GuK/gpwysql4i+eR5JTHNgwpDV5F58TDCLBWV/1AQnEBpleCBHuGsp1PXT7pTGjpf3M2K+8OUtD424jA1FlRF5uZMEPkzKuYYYmHHMOwQaURHV3ECswVPwlNjXuB9zgKqD4QvaQL7hi71Bs3KiDqXE2ZIwki9aOhfxLL5lV9nUZez4nEfa9BuUKYARtt8vMenMzPzPQFCG42Vv5mWO9Hl4mncI5ou16jHtqt2PuBPNK6yX8VHOQM8RQMXEti3BzLtxDcGYXonHmHn6Ec8x3NzJHxDu4VTBx9Fm40MPlLRFzDWpq5rILgnccai23BXH0GahPIirU9S+Y5YUMXK0G5gtFpufkCXEhiQOBbngwRRprmJhbmArQ7H7wjKF4Q4JuAglkq8Mw8oW1B8VMKcwAIgD9fQNcwxiI4gtVct2wZYGmE5Yg1OzFEqFN6lqtjlTqLhKM3uC1uOrgGmVO3iENSqJUe0UxxFFHOInHM4r6cQL4nPZ9GBn6VmDiFTLmXca1LzNMy2VRHWLaXoJNUjztUKYXCXGhxWwl1dP4qKnrQsMgHRVAW1FiwDluz6TG7OOY9z0lz7hg9wLFR2tk3RQe4maX56goFNRlU4jpmvMxoQpuYMy3uG/NcSwhrCFrIUDzK4i09oa8TFOYdINhEDFSvXuHQfzwX+SFNanc/qOKszP4AmBmmgNBt3MZRkRhgi0rs9h6jRKDjB83MtFHMSa8j4hdUtf6fcvyqA6rPyx5Ybg3GicTX0usy7efpcF9IyovWpVvU1FBxU51BsiLj4i78QGwHEFmPUw5uVBhqsTRKxMhL7gEpSVU1eZmKiKaYhVGLjREpZWxAD3ibYdxNVEUKmWblxrdwBy5qYeK8x12vmUXnUcr4hypQYW2dKvECGZWziOKGYM+IYl11EVmhhzmEOBiK88w33CxsnHmZvhhjHpi6OlTXqUvM14TJghdW4jmYYs+YtQjGUgJKzib5iyNxbldSqbmTKWyibnqGouIazOIwOfqZYsXBQm/ouYyrlTABYQJa5xC/AUfEoCupRrfyJgFvjEBelRPOz7JW78gITB6YiVEbTTzDcs2wl4qKr+04jbi+o9isGgijY6gAaVM3+4Kdtyi4J4MeIJdbIHX5lqOICz94VdQEz+IV7l17mltS4EMWTNy5lpZiNICVgeemRIuvURizSuhL3PbUxEWVb5WN6olvuXgMyw80VRk+R1xLN1HjlhfiYFgwGiPFwfLMeC8xydS8uD7P0YhORuExbgpUam4lwuLCVzxKjLg1LpjimXpRDhMoVLqdotxjc8mIm8THtLhMOJU1DD1KW0qbYuKMQYZiqTRBp9y0iG6UxMdsxGKmGsRsi2zSyaGbitomCFlwhUvmBcir4QQljaYjcJA8xzKWoarGe5W8yu65VHFxBVbqWGC+UDdys9EsIWwA6xKbX2lWUAbzU3hqUrpg/mZM1HJB6iY8wxm5VtsAaZ7MSy4OKqG2L6l1AzDDKuUDzLEMkTOIPM27nOfp6fRfrVhH61Z3DiC4UoWrMfTuC/LB0LXaBn5HcFp7Styji+CE4kRbslUBL9EWziTprjlr5nuDYSzLXdeowylHU0JXuY85Hcz6w8Tk/qCauWNsOMSh7eiUmWK4IZDOoc2TyfEWvULTFwRfUxnFZlPLKrcuzFTC+YsxycSmS4KlCxY4YSxeEZPnsnZ7VyPqAYG+HfUEHI3jPKeWXLRqbi2JfcYGtD4m5Eua8BwRrUEUbOpVJGwZV9cxxs6h5hJx11KnJip/zuaQxueMRPmLxDLK6TiVic3KvX0+4g1LM21DEZtKLV9Kt3FnFVOPpb1LslSum4XyjY3cCmZF1FqWhLuOSDTPmFmnEUFVE2EV5+EBTpmPF3AvBFpusyhnETJYtvcVdJUGhefoThiFmeSNB1zATEttuZGLuWtWGKgSNJjfcOEqskMtbe4Ia2ywsZij5mUoTqN8Qe5tnMu8X9FjhmG8YIMtcSqIJDQzmpQsOcw9R1iantGC2aY3lL3NwgNRwhRHcCBlRiw5nLLtZWYYCOTUZHHb3OYn/Sun8Ln0QCYFAoHRDbMuJSO4KJVtwZFLYiGRdogU4CALDXfcSeOLozE/c1EvLNmWPCPafaW0WVLxzA37nqOQZxAWquK1N1gQUnM/FETUoNv2mAVggcME4LvxDAvcu2cdE23FXOEL2jdx1KLog/aXcR1N5ZcR4QmINlwxC45HYeZZVMixhhO9yne8fFTQmotIqHQS9lOCYIV5v3MoumZWnqr9wWBkBd2r2ddQolNQpM0SlFYnkzHNwoi5hgjkg41mMVUGmPmGYuMTiEFJHUJtt1MNpeZUYNQC7OIlQ+yVUSp55l8I3qPmePpxD6WGO36GMhyJXRhC6/Euxkd5iF1LqEzHRCYzAsCWMSzaMLiXrruN1dYi3lqCAI0gcJZpgasn3S0KKhdxzrMpuoKuJhWbmuJzODMczNTxUtqXzUHiOPpplLnctSVW0ZfmMJcarG4NbJn3BxU4gzEph5mHlAbuJmxxBi5hHOkMMX0M8SqytEH1iyCV73+2CEn33I38DiKo21PuJI8Rj2hKrs7hxdIlf5VwdRgqpty3iYwilSvaMRS3QxzF4+8+6K/U6Nz5+0W3GSLkhpsLiFpUUJROahGUu9RdXUoqXZxUXVuoCNXiVWNkveqmQgY05uHTEDEDLwRaTEqXD3FKMx1uYMxb1MZZlHOIWAfMetHb/EESARsDi88E08bcBpXXgiFVVVo4HUrFa5NtwAV72hSvik6gvU6PcshUFn5QayevMwlmnMPo4myDbUXH0OEtX6E41NEqyGITTCZySsZlc1EzHeZtlVlih5iVC4kqYvmNhctc17gsvuHcxLWQ5I6NyyNe1wfEDLKC5C837g4nWZYdkKBXoigUMNG4hXibKYgC3HUT4JRJQwLLPqVKWKZQ6tiFmaX5jREF5gpF4blgEu1MH00MH6XmBnxCl+hv6L4Rb+l1OblYuJqFoBExBslZuVDcM2OoyxFwsM/TKy6hCylgRJPPCuj8EO5YdkT+BxHN3k1Ko3iXgC2AxeWDMToIajIeO9xQvAaCVqFPEZStFZFhRZh2stBvH+n9JfjCvhJV5qMLe5lLjirgl1zLqwY17imcQ2CxF5umgl0oNSzjCawa4i3n9wR4h8WpwIG66gcXmZN3LvcKZJXOLiIY84gXiJSPKLZb8TlFefoZXGWAlMyATp3bDJlFBsMF+ESJkjfR4dwnFpW14j4vKIQVW876ih7cqgCKy/uQH7ALgsZuY/L8iV+JkYtNRi2Qs+gbeY4moMG2Xmeo7lXNTcr5RAJc8yu4mO2a8QRMT3KxG2pdDAx5i4jXuUtYjWGYjpM81GUouO3AmAdvMdvEC1RNPoAUvP0W3OBiBduI1BNRAYNc+JXaKGogu9QDopicbnS98REovM8mFTTGWZ5q+o5yq5puX6ENsWH0AsKixag4uBEqLWpdk9JuGCpcfroqYolgQSo5WFGIE6gdx4S5ubhGahlgYlXHuU1at98EWdkMc+25eNgcm5PKzExWfSBafZysvy/yvqcEP+T5gX73JlxkbifkbCauVdARW31KQxr8LmKYjXA7WZ5E/bxBxaHnie3xG2nMW2nUS3EdXqWrzLYjJQB8wWUXOYUDeo0NVE8Qb4mWvmClDcOsIUayEAlY1UCl1C2mcp7jpxqLFxrhFsyxa1UtxNsR9xKCW2zqDlOOI67UdtvRLGYh0Bt6BAtXJmOUghhW38odgM+Jm3hadsabA5Y5layRka9EVSoKtjiWoVgPAqhqOfp6jibnMdTZNQSXFqGJsiQwETuJbUq8GZ0qolQxCADUHxmVTknrUpfoWa+kszDcx7Rq6gL5jaKiEjhDmJR3MkgjCmCqyGs0aL6nZqGFC4AICsoVeeIFnUELSisRlOItIVauIMzceIU0RLE21uaMYiHCZK/vNFRXoJGj3NyvMq/UqLXqEPEDhMzTU2ziED5j4lYuMGFJ1MzUJxua3KgtBHGpwQFZtiXiG5i/pUrLFxtSS9Aj4PnfB2n8ptY6IVXgeCXfOe4t/wCUyLYZpgraxU9d8H55mcqc9Ho4gsrxxLBYDjdxcG4eOeks5JsgA561AcjLKH9CJsGJ8nEuLuMA4Q7Ge4XYW4Sjwgm3HmCizE6VGpymDeLgng/uWyypiBNYeWI3ivUC8GIPZ5gXFwwtlseIbXiaeJWMtMwl/eZcziu5Xgi0zE7GGVQQcVzLyqRgpIxXyWEBr4Sb7FfiNjdhrOHF8HjmAqINB+2Hj5Ylqwu+E5OZWdRvwnqyfHMAuiQApNk2wWsBuIHpJVKy+Zz9ETM3GBKuCpry+gZxDOotCErEOpdMczgmYuzMNz7yz5jbzMHmX5lMyqu9QMPf0K8TIy3U1EzC2ANzIZzLaW+4DbN3zW4gCalp0iz5hVhhM3qKLDFbmJ11AgGwkyOMQLywAYuIx0xoo3LHDqKBjUVvmGGDMQfcq/SG2YMfUi22bh5mHqLWWL8S6jKzDlHKXNE0thuGPpcWDF58QL2xxj6U6+iag0xQLhEzNpX0zUC3viWKVDmG6Ae5iT1oryHt3uWsi13Kn63A2ZPEfwjTAAdwdhutfZAPQDQB+oHsaJUGbwhO5L/hHh/cRoulfacsUCdSixEe4QsX8m3qHXCz+C5doFO1LxDM93TLCtJbS6iV0CB3moaCvtG++eiFTCHVwdpcAM1ddSyJaCstLnxF0w5vmB53fE+4zxUqtQ2CRc0yq+Z9kq3uKuIbWwNZRo5JnqIHdxShKQu8QVMyjWCJVt3CmW1g/U0QJwhwfsZzIweHg/lhrnxviKaIF2x1jqO4Gl4NX/mpr68XmVQBeSmEtTQ9Dd+ZRsGNW2HD9PqT/gi4GzsDsdJ6nEqLmdwxPzDzHcITLK4qGFMumDmDmYQncWtfS7hjMDFsQM58R46j1Ml9TMe4ET7wuFr4hmncoxn7SoZmOJV43LFKlWdwBk3NiUQ89y6NsWWcRaXUaxyUS8J+IHOohB1KE3KWYQsm52TMUy6KqCoOsRUtS/vM21KDTM5i43H1MCBbK8Re5dkCPiDzLlt1LxOIs3Kr6Yomk+0MQ8x3MJsmUILNEprMqLq6J+RlOvE1vAx7MSQ8SCa5vaA2DAdOr4PBF0r8kLW3ySrTURxpMdNsrMlDlR5i+A+ZYeS8E4ZHSuCFmA/9IXrazfmUvDyAKblhWLY8PUfL2ZrzUK7eLYVj/ERwVcYKlBOyK9ME1xUHTN8RvVNDmF5eh3NJa9Qo0PzBzb7l5ZVonSNW71F5fAnQzW4eo4qVeH5gDNSk7MTNsBWMSqN2sDdwFxEfEbglc7lZRSYahzBZ6gDeWVlpYZLLZi5ZhfZPamVBmL8tODQpMoWICrcWIoFgHDBKUghgKPyBKnNcPLBVSuysamGDmsyPmZmgsWyZ5AnBklIauNr/AARpjExF0z1/8Hie4l/Sivpzc3MQ3UaQS1QJXic1X0FbUWOXEd4gcMyFjEfxAuZ1HG0u4VzOYKyscsMbzPARx7iws6hnslJV5gGL9TWGxmV8SkN1CAtxMHMtZYi3o9wXuDQt5hluZeECGGrTOtXKuDonMAxuK1C0yl3jmJ9BYC1FzFSWrUX0NiBRLOPpqE1KzLzLuVUb4hqmV1FRuZP0GuIDQWfEGLzU4CAFm2rJgHpG32JQcD0X0uoWpAtf4rBiaWYp+nyZYuiV+ofiBBa5QNP2wxmv5JjmzFIMqAOOZseqy4mbAaKupqUDmFMPUAl+xeyUeZoDiCW9vXBACvfLFXCw55SoHOIhWnBA4leLlsEysyu2iCVYYNof2QYj+YCpY69R1wOc+oOqcxyKaYWycTPAUfmGwfmIPMYzWOpfgwvkrxLbq+CNnBW2N0LOMwYCe4LYroQ5UjqDboIKF3Bs8RW1N8Tjpm31GNjf0RVaIncd3wTPD5moUDWLxABaB3+QYOq2ElT3x8SzXaDXs9EN2GobLvx7mA2VUbYruWuiOFR0PJzHU5RzxMB4xORDaiULu2eYiAWqnlJQlm0TLW7lAB4a34YjNDBhporfjyGT1Cn4h2fsk/mVjMqn6ED7TmCaZ5IK4om0xc04h4iJb9BuOhLg5uAL9xobhWokX7w3LI2y6O4UZdt8yiFOZzjUuxBBUV4l5yZnAb+ge4ImMwrcEx8Q5OYt2BMWHcChxMsb6grZyQ6J8GNtsS1RO4z0lrgShYi5ZUXMuoty0G5b1Fl5zAqbJipgl3Aohlr6VbDDLp8TNymBmLUqoB8kCHvqbCO3n51KzBa3w3ola2t2iug4hguFWGXnv5mH8T+oJotPKNYxidPCO6uzEAXWCuZkq8hAUvZzDoWIP9xWu5IN88+IdY1vf+dTARtVPcHn/IwipKilT45TCuThlocxLqVVDuL1LXc36Ib5XF3MgR8FwU1uA6hwyxfj3HukwxNuIoIMOrEfomAaagXCBbuFt4nkg57jxhTyeJX4O5muoPJaOJZjfMFSwA7gwBj9xN0UVrxAsCLANoGM4iSqma3KogEBTEWjUDNsWJeUS8TBCWXJka48Q5RLuQ/kfEWxqZWaxk5vbw+IkfJQ5/lg2EKZTXJ9RGcYhhC3sHiAYLWFGmBVrbzMDlzmWrjBR3MorJyOJjqAZzpfb1BbyNr74xOKfhMwB43khtFJ47GZUZbE9DjxFSg0HvFs/wAEoQjZKv6KlQMyrmG8QGkec3FrTFuWwXUGYwEMRrHc+Z5S3nNrl28kXMWaSPn6E5gUwwmGCVvmYO2GaYohq0ptuAVx3OupwRpLlLu5elbg7MosE88xsyblkpQ8XBhmo4F3Aaj6hizExwL1DfX05jUXEvxL5jHEdSuYLI6+lF2yszROZ8TUG4SqYMPcfMMo+vygUinwN+6ENuogWPSWa+9qE2e8loK3kXF0XdCDwBSDNRyH9QaCXCgNwvUxqZ8jjET5dWrcDmZZEwn8S3V7gBZ1f6YBbCXmqrf/AE/MtbBL6+f5SBV0Djbx+qgUmhzEUpryj8BeUXuJ27hYYHE7ih45lSTtO+IVZpi/JLFWmGwZQxDYN6XCRxtuh/FxVjqGGvUEP7lzWJc+SDfZK8/9mmzceDmdjLFrKwL7jYXFTtPEGN4gzArqWXcrJZQtspeYPZiCcJggCo7eYOVXELHi4FY7jyNxEg2uJauDPl/hMVcZwj3CKFMb4CBgXv8Ao7lUDIqskP7gaxZHSGcufUGCQ1AaJtAjYFitEIG8j7xcE0O2ZFeY+SL+tczLyeoQVBpWi0gVyzA2Y2Uh/upZ6lwhetenUtbw2uf7hQkc0Yv7KQx8/n0Xb8peeY0l5l9wbnhLzbF8MYVy+IWanMuD3DqKXC1uFJmYDZBr1AuO8xMRr6DNwudoZQWPcfQlDCMFqkR8SuTD8psl1LOshMAO9QukNgjcMBv3EBeINNy66biG6zKbxOC4LbqI6mRXUu6oPMfMqgioT7y8fS8fTTRDcU3Kmj6eMyp+YZgXFp+gwk3qbYd8SklI/wAg7+YsSW4LBfwTfV4GUDen/BBTg9QWAlIZU51yM1J+Z4ZThhsfnpmiFgvHpFSSjFGSMKWMPPJ/M43brCpsx6mLbXPGKFeJlqbEWdEsD6zKyn58MLhtXpxC12/qZw4beiG7PY8S3EOu4wxHAq5Y5UohwdIKd64+ZahysjC7draf3EN3EDP9xDSfUAN3OrLVsQMcwHyckG+foaYFV+YBfM4hv6IF9xqGkqAg4gK9SBm3cKNViOUw4NSs+JQ1WKgloogs6EoGtl0Fe38TfE44D7xCdLC/5hL1j7eojtHxDlHY3gJnhZxuPiGgB3u/D+YvtAu86/gi42zHaFa3kfwQBMxpHUvAJo9RA3lZo7u1o6hCWVwviNFJqHF43AD5LfUvphqT/hjh5J4ewb9p9/vL8oQyTp6OPFRI7qcv6ay9TFrcH6clRewkr8ScPkga1B/QJlGarARz2qy6+VrY8kT1qFLl8Ju/DxqM4lTmJBqBi4RISvMYH0Xj6EIWvP0MSgXWY5irIjU8Q8J5MTFDKl+oxwwbpgFg9Ag0TbOCFZpxMjDMNp0mkTgmQIViNnEFNGJZBVBwSoOYlcOo0MUyzDzHHuPsmh5nQlYlVBhmyyVXqOYSNwPopIvEM7mUJzLlxZhMSsQYeoELMRp3d5K4ICNXX0UTk6huwxLon2ZTEv4l1gXAVV2rwQ0W7xRaVFdYbnh1wfuAlmWHJxANpZBr0jMdRQZbwrseYLeoMvzAQXFPZGpPwbKs1+pj5O75xb8U+yNWeI1fL+Li0IG7185dKm+b/wAh0N8DPpM8tmrv2lacAVMNT3efiEAI9B/EtCGXDD49x0LWFIVeO5SrnZ4mQqoywYWXqFuAc06gPjh/n+QlXXUonULVRHcCvTDLxNkpHEcHEAkJWRiIxTyRmy14ixsmjRLpHmC15lgWGXqWcQ1URm/yV6PMVxwy7J7hwLSPrxncEtwq2j8/4iiHRXHvazc1hFLtM9xBehZRqITCrTNpT5i0D10vwEQBtoC+o/sly2kWz57Rvc6OZgOjZv8A2YQ3kpO3iNc8N0wtSA6KKjg5Y0SqfmT3f9Ep18xKBiadA5gh3OAlZs/2rggI3pZrFPtcZBIz+RkAwptyZvJuCBIrT5V3+3dFEHQmL/8ABvnwblQ3vVecOf8AMvFqbpf4ntSE1NrWRkHaEcMl4l7E/tJV5uxiZxPc5gDED6OCXCkHMsBmVRa4mVfTT6GZeYOIswmZUKPX0ageZQQL1B05lsRuty1wlBhEsYdp7mWCGHEpfzPNgjyZ9yiNDxZpCFGJeamhjUX4WPuYa4uBxFmHfiJdyqmtSoXElBzOIepiqlXMSq+q19Dn6XLuG47wcC18QcjaPj9j0QdsYUPBMJla7SWClQ9xr2hVD8smO2uZtrthW7Qqq9uLh8xyPHgJkLqSuIdZPF9T4zCPbwy/sTbOR77EGcF02ex35i5cdYGf7fubQbYuRjWPNkZG3V1ZeLm69+bF/qXkpq5fvAAihr+0UpcGHpDKi3ZbZrE5q8EU3CKwcE2DL8QUVKbE3C3lXgQHJKPDkfUUB51GwsjUvASCGk2BlkT05gKR07lG6Ti5dIIAU1KslavUAcQXqMK6uW6+8b08TJn8EFXxGotlso7PczzM1jUDGWbNZlyddjXs8QD7wHQH8y2oGCUIo6FrRpajt2PQ4UBM1K3T1qCuo4y4jCnRKLHu4RYLgD7EQdTOevjmFmj5U8nUoUOq5gefKIrHsrVAaoPYujzC0g0PXZvlgUDKfl4l6UG4rK3W40dIZrwJTFyFNg1AfvG77n3gK+6Hpr65lTbX1T9mAijqDZa17y/P7+JTAWsyv55WA/7CV7VAhUZLYfMVcb7Mn/f0al5TUU6HjH+NsLYHkhXjxfO1rEcqrVdPv5OeDUTtU/u+H5I1tZY+brTxHwRDzIFKNicMxzK51Hc4iZmUcG4F4Ss5l7g8y8JM3OL+gcy8VAlUXOZVzCXmOsS25xcowZI0M/iV6JVqiSjJCyDMXucxfMMY7hFGTEbwLSWJ2I9m41TmPYDCxK8ShdTUCIeKnB0RaoalFzEzPDDDFrmFrmM06lwW5uKXiB9ch9MQJX0wLYs5qX7H/Iy0NDKD5/gSzi5jfSxbXEcUSph68mwPJ5YEssMNPsSmonNb+8U11BweWURWE+TwJx+HJtiZqfBmvcxByJdn9+YVqDwurYQvK00nkYnXGKVszfDNOnYVB2hpV3EMlH/Za9MVRBvgXLRYenmCzgajNU6dvCBoZTOQYewz5fc8k6rmazf7Sxeb7kDqPXx/0UPHxpsllQNCU1SjnlUOjURUISge2GqyqnUy7nDz4sINW+YG4FE9aYmSN3iDuJbU9I24lyVlQPYy+YWdyzOYS8RIJzgEO/J8xbIm1fqMmw2uuenollpKujzEkJqCiLOh9hin4FVzKDB1iYuX2uz+ZQ3qMF/EAzeowS7Lrq0JLHStffo8RFu2KNexOpY9Vo58QisWXvDiXmMYFmomUAaYq6anfiHRfI34SJorYm7um22688/iXDa6vyJ+yXKbOQPg4mJcXYq3yf7XmB7Vl7z8f7NRgKY10V3yrlJ2pAs/D/EfLm8Lemn3Ga9gkejD5v4igIs0IGuc0VLre4PFVUVkBCmXQaESAO2GEH5iteH9w9wFsy+w7/g2RZj63jP0MTfj6eo6i3L4lUXDLMZi1F0lSszEriXcZvEoypZoiWKcEei7lM39GSGSVxCxqVNM0y9kvShhsJa6gqK4lHylVYNQaZaM6gaG4Gw1ASiCfEJG+Y6uG4nMOSNBKh4gdy47h3Lg+IZYkoCXUCwQ05awPwBK5j0v5x7Yqxy9zfMUzjJBQbxE7gWCKbbg84vfHqNVUHpNcAO2DFXNBv2xl1WXg8dCALvqPPcFyiz8mCBeUMvx+oAU7IByP+E82QyvDqpaNblLZWvib4NbSbRe86gd188dSPUZun27AJuyte0RKSxRr11KBs1z2wc0Hpl2efEzCAJy1mKlqv2MQiVwdRLVqm9qKKoWBwcafDEFusi6s5XkvEXOxsvGIKINHY9oA9PEoDUfsnTFQutyKgQ8CYECyVe0/aULqDkTIAfAlGHiodp2jwmkzJNla+m0JdwXnCCiq81qOEZw0P8AcZpl4bojnECtX5MURQyxk76F99zNEatb9S1cikSoYEWKxjSlHfAlnZA50mhwxZynVDVuWOsWcUYD+WDVxwf2HEpQnhcvqNIgXwAjfWnFz1fM7VgadkqMVrmaK7PM1OdF8C/G5n7Omg4fUJAMHfh/SJmW8i8diTZpPA/wr7SjGzlCRZhLLvCRLw9gB8JgBlZb64KzfucwQ1ax7X8rvgjQuJHSazx6YWMvUtU43HsrurHgj7laymoOeb2PvM3bV0WfUc5qtU7xMi3ntCbmzLY8FdKPuhNkV89fQ3KQjW4GfH0uJmiGql1BjmGvEtHNo7gxRMVCFzDuXNzCa9we5Wq3EHPMWmGklpZzMls4I4VD3KV5itzEbVAxuDzcrbWGBRiHdcaEw4dfMGty6fcUoaiu2hGtiY5EFTLMubhbmKmc7+hEuAwpA7JVMZcGcQxF+gWxAascqNhy+dECpth/KCe9RT1GxqoQIvcVOCApcgznLI6UiygDdhfay9LtGuPSXUNtuBrQCqDhELh50zfoakT4ErKn/CxOWSDits8+GOO88feUAO+R9sanKDsyjQL2qOyvWrQhDdlGA13OL8z4dhmG7Zn/AIMLsMeY1IEWTgsK5tejUeSlemMGtJ98fMCj+Bja/Jf1PUSIiVah7RFaLWUFePzLd3iEafNQqECx2+YZTVgWK4zHlgfoCV1pxrl7jdAHbVhMw2Fd4mgL9xFALPZdeIGA96ckB+aLv1C82U8kQ7lfuVbLll4lblUFGYeEKr7yIWPyMl9Nnl3EmFKpvumIfcHWLUqj0l2GtMdP6CG/JbovUtN+LqWGHyyqmvUFYqobEISnnGzhEcys1BfVRXSBPctej0dzIWmU7InwFGOmZlXJAz5f0S6yxvx/IisFGTl2dCMoJvC6+E16S6QeR2Sk80XXO3nruBKQRp6O/TEg+gPNrGIKXavI++oZU0K5eOJfFp46fDHk5DKPFqB2tCUHqNmZZbX8Bl02EpoHz127YIR4Z+Bj9HG2CPWWwcFd/wAquibq85Ux335eXBMDl7vd4zfnv4CIVYtLOXx4/qXramV/xz/iOAPkwW+IFjgMtjB+2wDwjPdarwGR/cmMIqO/I6TyRXHH0Pc1meZmyPmcx1NIS5cx8/S+36CVLlxzbc0Qo3mFPEyV5NRXg/RRzdkotxS9Jl1KquZdXZBAXKDk9QUEqbWywXuXvzExBbKa4mLkPMKvLZKbaivDEAiisiahbj+IZl08QbjUNZl8VMvr6FnHcuWzncHMFZMktxYtSvN/6GAgxTB0BF1HTyze5kWG/BqD3NsVlUtR1aEWaeghjKBd4eXxZ7Jxxi14f6vmCjR/L5lhHkI6lSfqFZQgsvB5gXB2ujl98wYOj+z5dwK4DAb7HnMx1p5dQBYZacsuDewic7HPmGg5oTjuB33AX1mK1XXqcUOUm2wRrlbhgIzBuI6dfKjbfOJXgTs5IlsbQP3HM1Lasjj+yOBQMi51x7zXqH+xyMMEbIjcdMtowMrGjgHHnslbXH/UMwxNj1L4OI8sTssGKSit40lQcDqDQHJWzFuG0U55IVy2vGLRO0nYXqLNlxNwb7+AP3Hkak2KxgeAcP5MrKV3kL+Ypgx9/HEChv3A4t7T6P8AYjVhNc/AiheMfB8oY0zqh0RgIHko78Eoobr2pIL5vjFx2SvYKTlG5cz1Li53PFZ7mpXwcSq4GFP4dzJXnMPFmliKMXnLXyEorXODXzeZqQ+19QqCn2DzKoCMgU3no8QxRMAFLYCEMvbADl/5GzjBUf4CmBrVKdjxTcZsCbTb5l3cNlR9pBx6KEf4RU0D/wAf+WdSrKeL4ce9QtRGyix/2DvsI8M/IRwwXt0b+DvUyXAOVR5IIlytQI9FzM1sd1j1ctqjW/feVdcG1XnqCthNZR9/6j0atJ0H8wSiTgHB7d+5Qlwtb4qXtrRpm3jqVytc0kL4tpnwRr01MXhzKovzG2ViNMTmcXCqmpxqXZOJctiwSpfmXbFi1EVUzwQwFzBZ0Ehb8R8HEWFc3MrpqGXUcCIliGlWZXtFcpgZjkYnPOOIbNsU1TLKKGEqu/oNi+YvJLycsW3UqOqEC9syTUFJV/RcsfEwnNzMMsqvrqDCKvn1/Mctu/EMkd3LRxvuK3Rj1E9wpftg57mrALWIhzAv/kXnLVHllr9/Ebabtje8c5r2mHYM3+2Gf4fbuLl0XXn4lUr2HK7jGTLVsN1sBddivF6iWI4ooIdsSH/owyArWkD7xpdlJxBsU0wIFLuEs7HDiASmiDRGaa+Ircor7mz4Y8GajkRtGxIWApBbuA5RNOs6gLuQXlwz7Wxg/T1D+Xtn4BJdjBNgvbUP7qko6f0sPsEuGvyPoEbVwbq8V8cfaWFtebPEvDQXXSVRxgoMHrQ08PJHlYtlNJ1NL656mFO719o8YFVkEYNGzlnE4aOkxVLDiEh8dLhWe7UFgXqYK10bWJ21fkgpDwLqYerxZCriqDy+v7SkSoynFeuJmUxn7A89SnvbL09vlGy+/ir6HlMo22NcadDqNWMtGUZDPZPyTjllAZi6aLWsC2cayX7am7cUY5+WJeAaEyspAKNlY9ET4nX6xEIDym/NcvuZuT20xAbvjyEs2w6SXYdz4eX+IJqShPsH8IIfJoHUBFUlFfBRBg54w/8AXiZwjNHF2v8AECrLbF6dyua8zB+oI1LQsfVcTNG9hw5Lt+l0eYLBapPsPbjbljgrVvR5J08kXSyNN9V+HWokqvnDVf2vMqDQzpz3FOgF/AlY3td3y5lnIMWjvcxXIb7fD/1xKXMWmivNDXXr3AWx4ANStULMrVX+NQsu94y9vEJXEl4HyxW5eUAe/M1xXTPzznflM/8AhiPZIj/uryfaOt+jUnk7PJOImI6jqDMm4/Qp5hQm9SoRe5gf+wZmBcIVUbEIAYYWWyr9TTycwurJlXBbl3fcLJBqmYEPKJecMqIUvEHnruKDtLAYmJ5lMu9YPE5+lPxKEgZvUTLKxKr6J9LCZNv0usQUPpzFiEwePFu+XRA9kOoDQTWdTWpvNR5i7uNMG4aHxHHgmxtf4iBukw2CPRLYegV0EWykfuP4hm/FyKI3kvX/ACEm7T9poWuRrmW2wDn9IakcBgP9iCFDZAWrzLqrf5bInQIMKre7gDl8sLlLB1jZHuKoaaIylRtfaFQ0LPZHSQqnjH8oKHNU3URXSL0k7cn2qpQK6KJ+XxMtg3cf7hKqirR4GBA8x3Yxl8NYCLlRowqXvkziWCUOV3rCpKznP7IvB6ci89eoIlZbOXNb90e2IcCdK8L/ANcHrPEd2DYTPE9YfcLIu/gIpBbVuPWeY2otVNN7JR8pJv2O6gNgit8hKKheFrUoAHhJgFbLWNqmdFZABXzqD77mMbAspHS1Z6DAppzRtDtKmr5f93CWSeh+gI7UAUVN8vMrGwmCfbmwpa7P4auX6UMi8e433uASDi1SxsEvUX2ngzJE6PUw/hAlQpnj8Qpq+KZZmo1B4uIK8oalHVS1gpfb/Yg+YdEa+3Esqls2P3B5AbAVhy/qDs15Nv7GXsHgdHXtnQORjzfoQQa7XubraymWa3U6fzLIkpN+4CIJYRT9kOmakt9nYczFCyrfmPbuYstP9Avp5jre6eB2f27hKK1pseOv0THUGgueM7lj7RyuU00U4D1fj+42zzeX9ohydVk2/vMawB4q/wDf7iHJ2XQXiJ3DJlhd0h9q9PKOQrsW/k5fKVpj5vnnl8Snki/HHc41JKmuHkm0szeJHJE1+Xr3Aw80C3t3Bu7Rov4XjUSo7SDof44i7ErGv/i6IOMwRpqVAzNQxmDEiMNSjiX8QdqiUIZEwTDeXUxgzAACYlYY0h1TDTOO5q13cpriGNS7WS7ACWYxN3vqLMS/EtFWD0g24izBqGEYcJfP0aJtLKxhVi4hn6VRKmlD12vgMswDK+V/ul/j6V+48R3VzS9T7PUsp1nXMyuY9pyVdcPiWE6jyDDJHZuJWI7W1f8AXUQMBhvu+CM30B1wCUssN+CGyjJoigJjBXMTUFUXy8jUUrsgaI9qPqlodscH2uUHgzS8j24hKBHgQAlK2aYhF06cU/MA0CSdIyyVsC94VRBT8OLjYYsb+ZRT/WQAWytBh9RuCstcOyNcLO14O9POKlwLoXlWnzGbulTeHtMiq1zl5HV2b4lymUc8HLO6pl23Hw7SjborwIHA2zXwVlGOE9fcHEzbRvGdKw8qKHaXEVPlPvh9FB6gYkM8l6IecwDFvRZ14mGcvwJkM3Aa9S3wWnAPMIMYN/s7hZUqG/8AVBhSsKPQemV10IsDdTUnDpgMhuh0+Y2rjWGT6QvHrwfeYQwAIylpyi1Q/eEyreV6PeyF4cNu3iFeygqXpt8IAA9FXqKrp1Djsr+ohUMO6To/qAAEUK3C1sgObLwmbiar+C4thyw1S88Jj2HKyiLrAW8T5gpvjj5fyxYfey/IdMfSZpLV8+7jRZ5f5mCUHSPrZqZ6/ZX3c+uJhx870Mf2Qr/ccRZvNV4uZXh/Lv8Alwc5nC7dQkiQT5egg2aDsLZ/mC+1Zc2jo9ckxcypqrnwyqebGU/9IgByAOb5P4MRlwjNxy2k5iybnBjMErbbFckLibqGaiq0HkV+3cHvGeBT5Zux1PwAxHMKG0J6DECbvmz+SsQ5pretLhXEELWg+CAuc7BfInMrELVY46hXxQGyafKuIRXu9foP7hUbJdN/71A4Rdie7qWbRUgsHkntob32Q9cFPSmwjhhrDwzU9ysQii+0wwqMGfeEThUKNy4ud3AFcMytkA5iK5lpiAqNtKjClrGbOonAynZGE8xLRwLBVq4mWnP0ckPUXAam2LmCXHD6hvX02z9FxTcvzBhG4ECr1CnL+UV6PMK+ZRjuJ8piF5jk+lhT4TecIG6FhG+pM0qjlyrvY7FJDO+Mfn1MRhHJ5f69QtRuJf8Aq4OPqYj8+4tOznv+jthtUKlX+KI3ilOGz/kXCWtMhhSA+QX5ZhdBBLMPOpWkfcjFvOveILO7VGhu35t4liQXc4b/AFHWwqeBifQ/yucAxkfP+mMyVXq0whLmwtJFXN6Hl/2Z1D5lCefwy/8AM8yQ/wBMDgbGVe1+kMJH+JzF4rqquK35nXeGoW5dZzcufLtl53dlAWd/Ga6Ilfd16poOuYgUnBye2Cm3lPaNZYlNY6CHaAcpEW0osIaJnTtWyNLvkJEgyFol0eJncsDljklrCtPEbX8OYD7lYlGm0aa9w8hhlUPU2RNL9nbz7xChRLfjOE8QDjYQeKdJcgQsyPwDDkTYBhf5YEBzQoHp6l0drlh4dzKScU/pHuDwTJUHkNRo8ixMFwOWMMWR6+T+ZiDyARGOhhrFKUXFKdc3MEtt2x+j3GXOl+0NzV4PyaK8zEIFsPzkEwr/ACfOII2mKsHq/wC4lHCMje2YpILlPl/EbUA5o+fCaFgEZ4F6CDoaRrsHUCcKT/Q6v7TE4d7Llu9ornq9Ra1VccD+PcL9VeR0b6faDm4O6kO+XxGIqYS6i/YMsBi/cHgbPma8SBi3cNux2G+o/T8LD2r4qZfuVf3S0xB4fiarrvhLVTSVx/uZm90MPwIsd2xfrzELeYrR9k9sw6VyXroIZxjIsJw/cIWpBBNA2XmZGh7fKjn+4lBqjE1aK/hJT9KL4q7PUvaDNdBOPEJzPynzFK8m1lXUoLXVXaxcqZXtGjIhq9H5S8S5eMy85mDHJDyQYr8S5fUGGo4gTcZ1LquIlwTbUsudS8xeIJdTOIZJUTzLeoYMwUe5zqC1KhmP/qNCue4OLj0i4iGXfE06Zb5mWAeZg/S6jF3uXFqJj6AEMRFvyB/gtPDGpwohxUGKOsxi1LrzLohzMPKOO4mlWlCn5lklKC91zXuDomiu/wDahvBif4/8gtDS8E/PqbwgymoKwHLR71MM9AcOg5YNHVX4C/J3K+c8l/gsvOBSvx07RmoCKyUBTx5SypW2ycw4ibRQwmYz1xQkWikGuk5mVWk/MdelGtWr+mOctQrPT8Icrp+VQBVPtpuLNHh/c+GEPZR8QmF5/wAkRpOgu60Vzw8t9RICihaGr8Qwt2rb+7ZFRSt1QNHqueY7260OP/FEcrJ2A5a98xwKLCCsvwgbMKpsK7lxUjxtwwzecDV5JmG7EwsEHOorwcRKrteR5T+osPAvL0spSosAwfMZUBwa8+SPGwULl3UtyO0af9gGVXALayzBEKuTK9H6SjXwWT4WNkcq/XtgCZYg0wHjY8rO8o5SPgdRuZcP/GSIyDbTo6RKkL5KDuKMGcNTs/qbwzXBCdh5Ft+yAYthcPZD+f8ACsKz3JaB8c+Y/X+FWOXsDLXVwFK3bL8wNgcVnOLPhlyrZwld/f8ALzG+pTrWOv19vEyFjzz/AK349xQqzt/3j/VF1LdRF7ZbqlXvhu+TKXCIW93RX4i5c/sR5P8A1ilYU1Z4O/PmW5yrBt5YARpn0YqhsAZ4DysGWjDi7DwGPuxLOCOXbUK/2phRRz6+Vf1Cto+Uf1vHMDrxXzipuIZQvaPbAASjlKAiVgwsTkBQ4HEEHYyiUc/aJ13ZEa5mYv7S6NvXN+pQzC6Q8AcQwHwaLHZuWO5ux3ezk4lAXux+EbYFsFFtBiz7xIgylB78JxLwgrIdy7cQQRGg/wCg1knJIipv/MRGcjht0PUQDRDphge4qusQN1G0oVL9j+IAaOEKznzW7+8u5kmz6ErEHOdS7Zd/EZqeEcJkzON1BrxBIqYl73Ocy8wyMYN3NFfeKHNspj6AtUuhzUXa4tOJalhq5vca+IgssSiB6Qu0iRhqXcZ9/onmG5f0D3K+gubNn3P0h8fS8RZ7KIqxNR61Lsw89mN2alkNUb2Fh9os34FWbK/H/wCxCEwX1CW2XFG4E6XA0s4P7iwQAodCMCQEfsfLwTFkTYH3WyMn1mC+hTk8zEEZGA/7GMStJXy+ajuDBscZrrj8xESk1GjWbvZERw4MFRkoqNVHR2YK3wHVs2+nL8McBFj3xHSXv5x+P1Nj/feD94WjF36mCH3LWl6ZjjJYjnyJTHhPFdn49LHZr7N0/Z+AihbC0NgPP5O5Ri5N6f6mRG3T67IqlCskgVk/uLtjCdhhXquOYut+zIeBGd7tqL/EWAEor0P2zax89aCIKL4W59QKUURrAfzHceNB/jAOpa203ZMwbeMWN6l8c4tH5yR8WRqD/cwtMApRnbFCwREpcnhAOcF3z9p2HrVh4jgs7qofMKNs1X7UuqAVd/gYwH25Qcp48TixVseWKL6lxaHuClYNsc6ltYOzUZD+YkTkKpfdMFME5cn4i+HMlXVkem5qzrnk5XzqGUUEeIbeqXrUqUD3DdUpuLe0hi85/iHOqxm9Y4nFBTlPlIB0OAzWSnlzCXpAaffcOTDQ+DQ+8LXM0HVvg8EugFZ+84HcCGlB8BOy9y+NeSJ2r2xpFUB6X8cx2WgXXT/JiiTDrv68BzwQT2dTColy1ocrA/B+5wIAb7EAazZawY/4iYnnR2W4HUvZ75pfqC3lqMCytSCBaoc0ALFXglNjUteGJrtAi6pqYlfBXYHCmnuW1DWbyce4WjDEsaBzcaF6Fg+w/O0PMX0gHNoLGI5OhmnrkTzCCVUeDt4JiZgHT7xdX8zbU8f+bzzLNK3NdTxDWVFp8D37mGSXA91DJNOvM5MxT0/uUYUeY5pMXgxr6FAob7hM3PiWxWIYZs8x4XHcKlkW7TEqoZJSG46iVv6eWCOoMHcM7YVyQVeY4aIlkN+JlbWYbMy3GmrZzAzcs7gt1KtzMTiXb9GKOIQiSpUrr6cwaWGA7eCFSiVff8g/ic2y8Z+i0OIzu4HrzPZ5lLLsluZk3ZFmWug7X1zB3HqQZ/uNDanc1gfzLInCrvocCA/eoQXWn/iEfWKYPXUPamD7Hs/ETgWqLy0+VmeZahzwdW+mN05wH86XNYgWdTHZB0QFnrxLdZ50D6Jbvt/AqgqDTOjccZhKwK/qEzav4pRfeEz5PEwn5jRnX5mJRoP+L0wShM12JMrh3Ro5mKOqEqRZUvZXuEAjvRYcPZLY5dH73i6wcYIkuV8j/jogNJtPD07fxEYXjQrmVQ5YYH348y8FhjWOm3WcVKxtrs2Xm3byfaO5q1DBeSuz8YjFbBqvgPb1AqZ7TvV0kdFLX46PzL0cy6x0gpcC+S/7xuWDqnwly1/PcNEaZgXruHpGo+4GTLIhWi/DlnmAgd5s62chDYii6sDll3a7Q2x0vOJqa+SxvdxuQDIWeIaOmTmXemQea/0QzK0qj2sbrj8xY8q74/3L88wCwUYUb8qOGoHpRT7GomvBzxs+YzmCw1g/jjpzF2TQKy0PHDnMZoJpFHh72eBYkKo4SYxk+R4giaoenvZHC9Ga2xONEr7uc2lnuy344IjXNWnL8/swKhylLbJvPV1+WO28Wf37/i5jQpkY9UeYGVAphi6t3zgiGalUUPW+A4gBLA49g8DwRaLWzodrDjze8HdlHytVf9luIlC2Vf8AS+ogTTUdA8/z5o4hBsAp0I048z4/x7iXFL+acL8faWzBt9ZRzBnZt1z+ICSUDJkwr8S0YasinHXzNzTwzw4WRMFLqlCvdZZkFUBsFcvE1TRl0NsFgBZgaeuNSimPi438BjYpVhY4xxeGXbEErsGH8kw8rXpV8ah5GNEOO74D47holCNegelRFIo6x9qBGlSJYdDhv/lShYQDno3KnwhbTocxqeE7HmVuWYwf3oIReS59ZEwnY8MHAuYDHg9QGyAbY0SrZU+ZyQYxhElT4uG9QgLcRMVzEKzGkMmZvUByYHzBbAnFw3cQLGiFNsxq4YZ9Rc4JfhcHEw9xYMun6H3NzCLZcoSVXmViVxDxG2GH6czYXBnOV+opXZl9TzF7imX8TqMQjbmoJReDqA8vMqN7v5xMndSqdz7dMJBXE9IqNSmzZq8ykDYtKjIDsWTymTWLXIHibuValNV5OYmgZ0CfN6ZjTrQpt2f3OYIHW4b2U45xM8B2AqCnJpgvzFiU6PBDT5qwjwPLMmybnq3azEOV6Y3OIRjQcEOjF4K7mQNqDzivzTMwLhPwL+GLQ2Fea1/K4/6CWPl/cQI8DsQE0FL1Z5i/lx/p6r7RMPbOx5/zGYs/MIfZGaYM1n/I0AU8kdjg9QuKvD4f+XxFW0vx/tOic2Agy08HvzHlQsJ+zb9JYqlF23m+6hdgP3+IG/iE7pgbdYPbLpqyzA3b1cC9DHF3Ur7kSGNzBG3/AORw0WAYHFcEVkANjyrj3B4flp1QIxiFZ/DOlj0EKPFvvjyeYm8YF6xXnUyeQxoo3um8ZXEPjlrARLCtKbOOYkBCiDR+gzQcMw+8Hx8zEIBZS9glsBS68A1/mIHjJMPo5BmzLqAmM0dtvydkHEEOOZ57zDuJiWLh8zvAEC03l+PWJ40jPRbq8I1wHM3Cmy7+Hka94gSozgz/AJ+mW7lyg2eHiLQQql8c3FNUZ0hXXqImM2F313MugtdgbF+T7wkIVlad0a3iWYBoR6DiEhf5csvia1Rrx+jqFgoqeAj9JdWCi/kv2ywBDoTL8RcIqrmbTT4Nvmaj3i5p3MSYE6/hNxcEQWldHll4RRUEufDAvKW8ULWcY/qOUTb0lt8VZjzKTRjVb1W44QBvOvsioeNiwfG5Rhjy/Y5IBZVhYyionJLlqxfwkMfXHIvm95IYHFI5yg8x6F/KWPgo/M4AUPkhHMe1pADVmvlp6Yuq2wu5v1F7wz4B/kgWG8goseP9iMsBwAd0d1+SXxjyB/TzLV8k7cxSdH72oFHMqJzBMtWo/wDfMt01Tbf7PPP0ZqHmcz3PM4iSqCLxMsweZ47i1i4q4iXdxbMQUfsgggwrcYbJu5jhiMKW6xMGXAUZ+Z6hFt3FgzH1Po4SsSoGZUcysxlYh9K4p7PQ/QwYuIuZgueSfalbvUXDBjniK+ptGMn4hWvcCsOItb0p3EBclGYeY5x2OVdHV6vuV2DFytj7cqqYlZT7dR8sqs4OPkz7RW6v91Xb1C1VLQX9zyj4Choi59xg5y8r/wAeTMh8BnoX4T5hFTAsornw9QYp4P0Q6Awcn+NRS21cmq68PzmWtrNW17e5ZfoMFP5IViXaGf8AsQGjQLWGTyxkVVjogxeVFVtcD1BVinWpyQg1C8NlIBtdYm/ExdhjJjOSvtN+BtAc0/OnxLK07NZuufy8zSe+ele1aJ0D4bTudMZamru4Kot0V2zKzqqy/PFO2Zmcg2Hz68S6nIYJ08/ECtWQ4E+R0dxC7S6z335V7ixLSqOvzbMmGCgouZYlNm9PmIRcHf0l6zoGWGlaAEohovj4i5bV2FxyInLRPQg6HUIhAAZAdq/mVqAJ/UHyczhhd1i9AyFtrcqUFWfm856/B5j0gOeePJY2e2/cH4zMebT2LUKO+F7XUBZRKNvdkderUFq7rVeIs28Cs62UOXetR8tqa7NMc5H5qILGgM9a0yypZNR8e/cvSHQNA/Iq052xesJWCjP9PwdxSGnCll+cH34EuWo5LqzD+QH/AMIYVIrJBf8Ach7XRFAAtUhyv5q0O8pRRsCi7rHzQ/OUTioL11/z5WVbfj/qh/UfFBkU8AnZyTLP+hjROHdrf8JcuIvgbM/lv8+pSpFnRf8A0YBgA5fxEmGtue6n67Z2/Yc27tm2tSPTx0t8xn92zBZxqYJ2ZdOYLOwx9uG95z0QI8MFV3X3+/iAoMu2pxjtlpRUpfBtmdgb7/cQ7FcpxiHvALkfsCPBbsFv/jMrqycqvyPzKtw/RlenGPMQxVk5sSyY1CgNOWOnL8wbZ1xD9X6lIME+0RDKDLMtT/LfEGDfimxXJ/UFILV7Lo8XxBtndqJcXang4l9/icam9ymNAQJgQ2VsK89+B+YvnEC5UoZWYlE48zme/wD40xMPGphGr5lJtmXjEB6gsRu+GXO0rdwKuJQ2OJdOcwsy5nJR4Me5RUSFPacRYmZUWjcuVc1F+hOPr5mku4kG4MZZlr5NB95dalXcdRZzqOvEY7ckKyXjUrvPhLU7lryuTneJbwQXVR1xAHwHXmCbgFYsTT7/AGQCmmx9N/w/hmfVBd3GRzAMX5j34A74ggKyFdJFsDkfp8fchcqKOUeezxDQGx3v2ekxr7J00yf8hBojjd+IMcTvmzpi8j1LJ03olnVi1mqKLeMQDHw01UX6Hw/BAitWswPaaTA9P7IGuW9QeB4VmOuyxcvB5YlpYMj632aZZoxx1v7lgvJhuoCrx88e/knWUwppirXjfw0yvt078S9DbKxv+YzlKM3mHt23DQ2Vc/8AvmUmHLixuv8AsxPGbSO14hQo5wK8u0i9FGA6jRtBo5K0i2J/juLJzXfsOPsCA3ATpfHWg7m0DhcXvuDQjmhng/6QdLQCJ+XcSp1ox7xiXw8h6eG/mGwI0pp5lQGX8ow98k00vfR8NnkxDRdr1A7/AJSFXC4OgTD+YuERtvn5fnJCCyIwfkDjxGWiAN0f8DHEuTT5LkMgaylKENLZMf8APvICy8r3HyaU5mZJ1Q7A0HhjS1roWujh7Jt4jooBvDVb0C7i4BTOK7d4Kp9ZlOjOODfVOPcTfQh83qLjp1jziWu8fwnrH2lhHLauK/37i1EV1ZX+MQxCUPhAGcErT1Afv5HxGjZRoTu0yJZi9UkvL7Qgbi7Qf5Xsy9K2DL7nnZwRDXE2b717l2TV58QHllGaMDR0PUoKFn428sGAv8Z/IWWABvUrA7E/iYAOrIGPLO+upjsgr8j6z6iCKUvIUX56lkHIhRLVvXUo5Oam7oecxmQnpXTfj1HjcahjR5qcbI/gP4z8yjWfMaPgzPxYznB+VfeXaFfRvk+wh6gwkw5HSOYFfIfDT8SdmJuQpSPbWHHuD7up4+RvDHdTGQSTwOj2QK77+Ku3aupmyBFvQhvBK92MPbiGp8QcfRT6lWg8VDowYJngPUFhQU0OB4Zhl4naVnMckSyGGIGY+uhDcNPU0TROfqaJpNobQ0TZ7jNpyh9DmHP0aP0DR7+nfqc/QhtDX05+Y/QjDc6hDBu+OPac4fg+nX5n7ZoembPc/E+gEOPf02AHDZDk5cnuEACNo+ic5krJTH1njVKrbCt6mLm13utywVZuyYOdKoO5egVaFaqhgSXIpcphCLzp3HaZdlcu61G0XizUEmCJtWaMzJckBaHuNzm8r+0+wFeJzCUOVnCNsdhwxnENPE4AKGiZt5r9I3PP/L/eZnYa4eJRxIJapXXEULKuVxqLbwy+8mOJxaDJWXOIk0DAFVmAVA0K4xqfrHiAYxQHo5B1fMxoxk/cblZ5RqFtOQ11CkQUAxplVu2n9Zc9D6fymed4E257ndjgDGq3OzyvfCEqi9wbcdRxrYXV/eavF5VzmJRUqkxFFCkKRehhuDmgrJkfvmb/AAfGr759zMZJq/V/vMtIGrba6tmR5tDsdmmXuOwKHX9H2gMqLp+v+sUjFS7VyS7w7MWhVCDZZfEoIBxjuXWcjI1WoFtugp+8IHsRwfKEGKyhvBuCSKoKMOe5+K/UIBAxeRljVrqwHp3CLAFlPDmJDOFSeeUIAAFuucy8U04tmRMLfXOv6hKBVo14wlUqKIF9wKoccncpkr3T6gEIK0fMThnE1FMpqqYe25tHtLYzJyBPCJTMhmsznNGYlQ22Pob7mHnU8la9QlKLCvEYo17WtheY1TNqzJ7rUAoKAAOrYlcIiLCmQOImkpdGuStQggKLTiP9Tv6P3TV9z+/o0jtDGBYNZaVQ1OCcfU4+YaYzl+v/2Q==&quot;,&quot;width&quot;:&quot;1332&quot;,&quot;height&quot;:&quot;850&quot;,&quot;x&quot;:0,&quot;y&quot;:0}" math="0" shadow="1">
      <root>
        <mxCell id="0" />
        <mxCell id="1" parent="0" />
        <mxCell id="cDjqPKhRoQ2kevbqQMxa-3" style="edgeStyle=orthogonalEdgeStyle;rounded=0;orthogonalLoop=1;jettySize=auto;html=1;exitX=1;exitY=0.5;exitDx=0;exitDy=0;entryX=0;entryY=0.5;entryDx=0;entryDy=0;fillColor=#dae8fc;strokeColor=#6c8ebf;strokeWidth=10;" edge="1" parent="1" source="cDjqPKhRoQ2kevbqQMxa-1" target="cDjqPKhRoQ2kevbqQMxa-2">
          <mxGeometry relative="1" as="geometry" />
        </mxCell>
        <mxCell id="cDjqPKhRoQ2kevbqQMxa-1" value="&lt;h1 style=&quot;font-size: 18px;&quot;&gt;&lt;span style=&quot;background-color: initial;&quot;&gt;&lt;font style=&quot;font-size: 18px;&quot;&gt;Menu três-traços&lt;/font&gt;&lt;/span&gt;&lt;/h1&gt;&lt;div style=&quot;font-size: 14px;&quot;&gt;&lt;font style=&quot;font-size: 14px;&quot;&gt;1. Open Ai;&lt;/font&gt;&lt;/div&gt;&lt;div style=&quot;font-size: 14px;&quot;&gt;&lt;font style=&quot;font-size: 14px;&quot;&gt;2. New File;&lt;/font&gt;&lt;/div&gt;&lt;div style=&quot;font-size: 14px;&quot;&gt;&lt;font style=&quot;font-size: 14px;&quot;&gt;3. Open File;&lt;/font&gt;&lt;/div&gt;&lt;div style=&quot;font-size: 14px;&quot;&gt;&lt;font style=&quot;font-size: 14px;&quot;&gt;4. Open Folder;&lt;/font&gt;&lt;/div&gt;&lt;div style=&quot;font-size: 14px;&quot;&gt;&lt;font style=&quot;font-size: 14px;&quot;&gt;5. Save Single File;&lt;/font&gt;&lt;/div&gt;&lt;div style=&quot;font-size: 14px;&quot;&gt;&lt;font style=&quot;font-size: 14px;&quot;&gt;6. Save All Files;&lt;/font&gt;&lt;/div&gt;&lt;div style=&quot;font-size: 14px;&quot;&gt;&lt;font style=&quot;font-size: 14px;&quot;&gt;7. Save Backup;&lt;/font&gt;&lt;/div&gt;&lt;div style=&quot;font-size: 14px;&quot;&gt;&lt;font style=&quot;font-size: 14px;&quot;&gt;8. Versionamento de Arquivos;&lt;/font&gt;&lt;/div&gt;&lt;div style=&quot;font-size: 14px;&quot;&gt;&lt;font style=&quot;font-size: 14px;&quot;&gt;9. Idioma;&lt;/font&gt;&lt;/div&gt;&lt;div style=&quot;font-size: 14px;&quot;&gt;&lt;font style=&quot;font-size: 14px;&quot;&gt;10. GitHub;&lt;/font&gt;&lt;/div&gt;&lt;div style=&quot;font-size: 14px;&quot;&gt;&lt;font style=&quot;font-size: 14px;&quot;&gt;11. Open Terminal;&lt;/font&gt;&lt;/div&gt;&lt;div style=&quot;font-size: 14px;&quot;&gt;&lt;font style=&quot;font-size: 14px;&quot;&gt;12. Comandos e Help;&lt;/font&gt;&lt;/div&gt;" style="whiteSpace=wrap;html=1;aspect=fixed;align=center;fillColor=#dae8fc;strokeColor=#6c8ebf;" vertex="1" parent="1">
          <mxGeometry x="50" y="200" width="280" height="280" as="geometry" />
        </mxCell>
        <mxCell id="cDjqPKhRoQ2kevbqQMxa-2" value="&lt;font style=&quot;font-size: 18px;&quot;&gt;Open AI&lt;/font&gt;&lt;div style=&quot;&quot;&gt;&lt;font style=&quot;font-size: 14px;&quot;&gt;Abre a inteligênncia artificial para assistir o usuário&lt;/font&gt;&lt;/div&gt;" style="whiteSpace=wrap;html=1;aspect=fixed;fillColor=#dae8fc;strokeColor=#6c8ebf;" vertex="1" parent="1">
          <mxGeometry x="490" y="20" width="130" height="130" as="geometry" />
        </mxCell>
        <mxCell id="cDjqPKhRoQ2kevbqQMxa-6" value="&lt;font style=&quot;font-size: 18px;&quot;&gt;New File&lt;/font&gt;&lt;div style=&quot;&quot;&gt;&lt;font style=&quot;font-size: 14px;&quot;&gt;Criação de arquivos de texto (inicialmente)&lt;/font&gt;&lt;/div&gt;" style="whiteSpace=wrap;html=1;aspect=fixed;fillColor=#dae8fc;strokeColor=#6c8ebf;" vertex="1" parent="1">
          <mxGeometry x="500" y="180" width="140" height="140" as="geometry" />
        </mxCell>
        <mxCell id="cDjqPKhRoQ2kevbqQMxa-8" style="edgeStyle=orthogonalEdgeStyle;rounded=0;orthogonalLoop=1;jettySize=auto;html=1;exitX=1;exitY=0.5;exitDx=0;exitDy=0;entryX=0;entryY=0.5;entryDx=0;entryDy=0;fillColor=#dae8fc;strokeColor=#6c8ebf;strokeWidth=10;" edge="1" parent="1" source="cDjqPKhRoQ2kevbqQMxa-1" target="cDjqPKhRoQ2kevbqQMxa-6">
          <mxGeometry relative="1" as="geometry">
            <mxPoint x="330" y="345" as="sourcePoint" />
            <mxPoint x="500" y="95" as="targetPoint" />
          </mxGeometry>
        </mxCell>
        <mxCell id="cDjqPKhRoQ2kevbqQMxa-11" value="&lt;font style=&quot;font-size: 18px;&quot;&gt;Open File&lt;/font&gt;&lt;div style=&quot;&quot;&gt;&lt;font style=&quot;font-size: 14px;&quot;&gt;Abrir o arquivo na árvore de arquivos&lt;/font&gt;&lt;/div&gt;" style="whiteSpace=wrap;html=1;aspect=fixed;fillColor=#dae8fc;strokeColor=#6c8ebf;" vertex="1" parent="1">
          <mxGeometry x="520" y="355" width="140" height="140" as="geometry" />
        </mxCell>
        <mxCell id="cDjqPKhRoQ2kevbqQMxa-12" style="edgeStyle=orthogonalEdgeStyle;rounded=0;orthogonalLoop=1;jettySize=auto;html=1;exitX=1;exitY=0.5;exitDx=0;exitDy=0;entryX=0;entryY=0.5;entryDx=0;entryDy=0;fillColor=#dae8fc;strokeColor=#6c8ebf;strokeWidth=10;" edge="1" parent="1" source="cDjqPKhRoQ2kevbqQMxa-1" target="cDjqPKhRoQ2kevbqQMxa-11">
          <mxGeometry relative="1" as="geometry">
            <mxPoint x="340" y="350" as="sourcePoint" />
            <mxPoint x="510" y="260" as="targetPoint" />
          </mxGeometry>
        </mxCell>
        <mxCell id="cDjqPKhRoQ2kevbqQMxa-13" value="&lt;font style=&quot;font-size: 18px;&quot;&gt;Open Folder&lt;/font&gt;&lt;div style=&quot;&quot;&gt;&lt;font style=&quot;font-size: 14px;&quot;&gt;Abrir pasta na árvore de arquivos&lt;/font&gt;&lt;/div&gt;" style="whiteSpace=wrap;html=1;aspect=fixed;fillColor=#dae8fc;strokeColor=#6c8ebf;" vertex="1" parent="1">
          <mxGeometry x="520" y="505" width="140" height="140" as="geometry" />
        </mxCell>
        <mxCell id="cDjqPKhRoQ2kevbqQMxa-14" style="edgeStyle=orthogonalEdgeStyle;rounded=0;orthogonalLoop=1;jettySize=auto;html=1;exitX=1;exitY=0.5;exitDx=0;exitDy=0;entryX=0;entryY=0.5;entryDx=0;entryDy=0;fillColor=#dae8fc;strokeColor=#6c8ebf;strokeWidth=10;" edge="1" parent="1" target="cDjqPKhRoQ2kevbqQMxa-13" source="cDjqPKhRoQ2kevbqQMxa-1">
          <mxGeometry relative="1" as="geometry">
            <mxPoint x="330" y="490" as="sourcePoint" />
            <mxPoint x="510" y="410" as="targetPoint" />
          </mxGeometry>
        </mxCell>
      </root>
    </mxGraphModel>
  </diagram>
</mxfile>
